<svg xmlns="http://www.w3.org/2000/svg" width="64" height="64" viewBox="0 0 64 64">
    <defs>
        <linearGradient id="9indad7x1a" x1="50%" x2="50%" y1="89.429%" y2="-8.502%">
            <stop offset="0%" stop-color="#ED7859"/>
            <stop offset="100%" stop-color="#FFD85A"/>
        </linearGradient>
    </defs>
    <g fill="none" fill-rule="evenodd">
        <g>
            <g transform="translate(-248 -166) translate(248 166)">
                <circle cx="32" cy="32" r="32" fill="url(#9indad7x1a)"/>
                <g stroke="#FFF" stroke-width="1.5">
                    <path d="M8.5.75c2.14 0 4.08.86 5.482 2.252 1.401 1.39 2.268 3.31 2.268 5.431 0 2.84-1.555 5.32-3.863 6.65h0v3.527H4.613v-3.527C2.304 13.753.75 11.273.75 8.433c0-2.12.867-4.04 2.268-5.43C4.42 1.61 6.359.75 8.5.75z" transform="translate(24 24)"/>
                    <path fill="#FFF" d="M4.329 20.99H12.671V21.99H4.329z" transform="translate(24 24)"/>
                </g>
                <g stroke="#FFF" stroke-linecap="square" stroke-width="1.5">
                    <path d="M16.441 3.033L16.441 0.433" transform="translate(16 18)"/>
                    <path d="M2.206 13.898L2.206 10.369" transform="translate(16 18) rotate(90 2.206 12.133)"/>
                    <path d="M29.794 13.898L29.794 10.369" transform="translate(16 18) rotate(90 29.794 12.133)"/>
                    <path d="M6.751 5.216L6.72 1.718" transform="translate(16 18) rotate(135 6.735 3.467)"/>
                    <path d="M26.163 5.216L26.131 1.718" transform="translate(16 18) scale(1 -1) rotate(-45 17.778 0)"/>
                </g>
            </g>
        </g>
    </g>
</svg>
