<svg xmlns="http://www.w3.org/2000/svg" xmlns:xlink="http://www.w3.org/1999/xlink" width="39" height="29" viewBox="0 0 39 29">
    <defs>
        <path id="dugolet4aa" d="M0.045 0.074L6.149 0.074 6.149 3.973 0.045 3.973z"/>
        <path id="vfmvvfdcwc" d="M0 0.13L26.932 0.13 26.932 10.155 0 10.155z"/>
    </defs>
    <g fill="none" fill-rule="evenodd">
        <g>
            <g>
                <path fill="#0A1327" d="M26.121 19.892L26.121 19 24.888 19 24.888 19.892 23 19.892 23 21 28 21 28 19.892zM30 21.506L29.116 21.506 29.116 19 28 19 28 25 29.116 25 29.116 22.711 30 22.711zM25.261 25.947L25.261 25 24 25 24 27 29 27 29 25.947zM36.849 19L36.849 19.925 36 19.925 36 21.181 36.849 21.181 36.849 21.867 36 21.867 36 23.092 36.849 23.092 36.849 24 38 24 38 19z" transform="translate(-50 -854) translate(50 854)"/>
                <g>
                    <g transform="translate(-50 -854) translate(50 854) translate(31.667 24.137)">
                        <mask id="3ifx47b4lb" fill="#fff">
                            <use xlink:href="#dugolet4aa"/>
                        </mask>
                        <path fill="#0A1327" d="M3.096.074c-1.685 0-3.05.873-3.05 1.95 0 1.076 1.365 1.95 3.05 1.95 1.686 0 3.053-.874 3.053-1.95 0-1.077-1.367-1.95-3.053-1.95m1.549 1.95c0 .464-.693.841-1.549.841-.855 0-1.549-.377-1.549-.841 0-.466.694-.843 1.549-.843.856 0 1.549.377 1.549.843" mask="url(#3ifx47b4lb)"/>
                    </g>
                    <path fill="#0A1327" d="M32.984 19.428c-1.236 0-2.238.999-2.238 2.232s1.002 2.234 2.238 2.234 2.238-1 2.238-2.234c0-1.233-1.002-2.232-2.238-2.232m.984 2.232c0 .575-.44 1.041-.984 1.041-.545 0-.985-.466-.985-1.041 0-.574.44-1.04.985-1.04.543 0 .984.466.984 1.04M25.047 21.344c-1.258 0-2.276.807-2.276 1.802s1.018 1.8 2.276 1.8c1.257 0 2.278-.805 2.278-1.8s-1.021-1.802-2.278-1.802m.989 1.802c0 .38-.443.687-.99.687-.544 0-.986-.308-.986-.687 0-.379.442-.687.987-.687.546 0 .989.308.989.687M4.321 22.728L9.247 22.728 9.247 19.811 4.321 19.811 4.321 17.518 9.771 17.518 7.963 14.322.236 14.322.236 28.216 11.134 28.216 11.134 25.021 4.321 25.021zM18.387 14.323L16.073 18.857 13.764 14.323 9.247 14.323 14.007 22.728 14.007 28.216 18.08 28.216 18.08 22.728 22.846 14.323z" transform="translate(-50 -854) translate(50 854)"/>
                    <g transform="translate(-50 -854) translate(50 854)">
                        <mask id="pn03gu0t3d" fill="#fff">
                            <use xlink:href="#vfmvvfdcwc"/>
                        </mask>
                        <path fill="#FED800" d="M26.932 0.13L0 10.155 26.932 5.303z" mask="url(#pn03gu0t3d)"/>
                    </g>
                </g>
            </g>
        </g>
    </g>
</svg>
