<svg xmlns="http://www.w3.org/2000/svg" width="97" height="24" viewBox="0 0 97 24">
    <g fill="none" fill-rule="evenodd">
        <g>
            <g>
                <path fill="#ACD491" d="M11.332 15.615c.02.277-.17.521-.429.537-.256.018-.48-.193-.499-.473-.02-.277.171-.519.427-.537.258-.017.482.192.501.473M14.103 14.297c.02.28-.172.52-.429.539-.254.02-.479-.193-.499-.473-.019-.28.173-.52.43-.535.256-.02.48.192.498.469" transform="translate(-114 -862) translate(114 862)"/>
                <path fill="#ED7859" d="M9.937 7.167c-.137.37-.338 1.155.035 2.37 0 0-1.684-2.675-1.26-5.505.137-.914.471-2.307 1.708-3.342 0 0 .994-.845 2.287-.665.601.085.971.5 1.07.71 0 0 .553.729.412 2.44-.054.666-.074 1.344-.338 2.354 0 0 2.152-.85 4.205-.617 1.135.128 2.133.53 2.76 1.484 0 0 .532.646.395 1.639-.11.806-.549 1.379-1.038 1.75 0 0-1.008.85-3.078 1.246-1.253.24-2.916.256-4.96-.124 0 0 1.324-.04 2.18-1.137.27-.35.414-1.037.095-1.404 0 0-.318-.454-1.049-.403-.35.024-.932.219-1.283.508 0 0 .211-.848-.076-1.551-.203-.495-.506-.744-1.064-.673 0 0-.683.057-1 .92" transform="translate(-114 -862) translate(114 862)"/>
                <path fill="#AACD2C" d="M14.708 13.875c-.245-.506-1.11-1.301-2.606-1.732 0 0 4.213.265 6.38 2.29.669.628 1.143 1.42 1.239 2.426 0 0 .154.83-.283 1.553-.222.367-.638.729-1.286.89 0 0-.784.286-2.066-.173-.852-.307-1.902-.95-2.92-2.106 0 0-.087 2.219-.954 3.887-.241.463-.715 1.072-1.362 1.473-.631.39-1.571.512-2.315.18 0 0-1.364-.508-1.412-2.723-.02-.86.153-2.072 1.037-3.93 0 0 .834-1.916 1.912-3.045 0 0-.866 2.889.044 3.807.175.176.5.332.935.246 0 0 .858-.051 1.26-1.836 0 0 1.517.94 2.343 0 0 0 .413-.463.054-1.207" transform="translate(-114 -862) translate(114 862)"/>
                <path fill="#A691B4" d="M7.222 8.823c.657.14 1.226.63 1.885 1.279 0 0-1.829-3.466-4.122-4.312-1.554-.575-2.703-.238-3.336.594 0 0-.468.509-.304 1.52.141.867.852 1.956 2.832 2.819 0 0-2.433 1.218-3.569 3.35-.84 1.576-.71 2.929-.206 3.632 0 0 .658 1.203 2.493.873.735-.132 1.641-.541 2.722-1.443 0 0 2.356-1.7 3.532-5.175 0 0-1.375 1.88-3.047 1.734-.159-.016-.514-.077-.733-.414 0 0-.239-.317-.144-.81.08-.412.648-1.08 1.498-1.434 0 0-.32-.21-.597-.61-.219-.316-.308-.854-.07-1.221 0 0 .263-.577 1.166-.382" transform="translate(-114 -862) translate(114 862)"/>
                <path fill="#A691B4" d="M7.058 9.234l-.664.48c-.043.032-.07.082-.076.135-.005.053.014.106.052.145l.448.463c.071.073.19.075.263.004.038-.037.056-.084.057-.133 0-.047-.018-.094-.053-.13l-.298-.308.49-.354c.05-.036.076-.093.076-.15 0-.04-.01-.077-.035-.11-.06-.084-.177-.102-.26-.042M6.317 11.84l-.548.605c-.07.076-.063.193.012.262l.5.46c.077.07.195.063.264-.013.033-.035.049-.078.049-.125 0-.05-.02-.1-.06-.137l-.365-.334c.148-.166.424-.469.424-.469.032-.036.048-.08.048-.124 0-.05-.02-.103-.061-.139-.076-.069-.194-.063-.263.013" transform="translate(-114 -862) translate(114 862)"/>
                <path fill="#ED7859" d="M13.022 8.725c-.001.104.08.187.184.188.094.001.264.072.35.226.102.18.084.356.026.441-.058.085-.036.202.049.259.085.057.2.035.259-.05.152-.225.149-.551-.01-.832-.157-.283-.458-.414-.67-.416-.103-.001-.187.081-.188.184M10.382 7.253c-.075.07-.079.187-.009.263.07.076.188.08.263.008.126-.118.249-.158.399-.13.222.04.311.182.347.295.031.1.135.153.233.122.098-.032.153-.136.122-.235-.093-.292-.324-.492-.636-.55-.266-.046-.508.03-.719.227" transform="translate(-114 -862) translate(114 862)"/>
                <path fill="#333434" d="M28.908 14.972c-.008.777-.262 1.439-.766 1.988-.502.547-1.1.819-1.798.813-.698-.008-1.293-.291-1.789-.85-.495-.558-.739-1.226-.73-2.002.008-.775.265-1.437.771-1.986.507-.548 1.11-.817 1.806-.81.696.007 1.291.289 1.781.847.493.559.734 1.227.725 2zm-1.07.004c.004-.453-.137-.844-.42-1.168-.285-.324-.627-.49-1.029-.494-.409-.006-.759.152-1.049.472-.29.32-.44.707-.444 1.16-.005.454.135.84.418 1.16.285.32.633.485 1.041.489.402.004.748-.15 1.037-.467.292-.314.44-.7.445-1.152zm4.66.558l-1.49-.015c-.053 0-.092.004-.119.012-.026.007-.039.039-.04.089l-.025 2.47c-.004.359 0 .652.011.878.01.229.028.44.052.64l-1.164-.011c.005-.357.027-2.514.068-6.471.004-.435-.02-1.111-.07-2.027l1.175.013c-.005.409-.014 1.437-.03 3.085-.003.06.017.097.057.11.038.015.071.022.096.022l.706.006c.062.002.324-.01.786-.031l-.013 1.23zM38.64 15.087c-.007.775-.261 1.436-.76 1.98-.497.543-1.098.81-1.803.805-.698-.008-1.29-.29-1.776-.842-.487-.554-.726-1.22-.72-1.996.009-.775.263-1.437.76-1.986.499-.548 1.097-.818 1.792-.811.707.007 1.303.29 1.789.85.487.559.727 1.225.719 2m-1.06-.012c.005-.453-.134-.84-.42-1.16-.282-.322-.63-.484-1.038-.488-.401-.004-.748.15-1.04.467-.29.314-.437.699-.441 1.152-.005.453.135.84.419 1.16.284.322.627.485 1.027.488.41.004.76-.15 1.05-.464.292-.317.44-.702.444-1.155m3.325 4.637l-1.162-.012.063-6.21c.005-.434-.027-1.197-.095-2.288l1.216.012-.071 6.98c-.004.358-.001.65.01.877.01.227.024.44.039.64M49.615 17.267l-6.135-.064c-.076 0-.3.012-.677.038-.376.026-.694.056-.952.096l.012-1.264 6.762.07c.167.002.5-.02 1.002-.065l-.012 1.19zm-1.32-2.018c-.634-.04-.993-.06-1.076-.06-.184-.002-1.515-.018-3.995-.04l.041-3.881c2.162.02 3.38.034 3.657.037.408.005.88-.008 1.414-.035l-.01 1.15-3.832-.04c-.076-.002-.126.012-.15.037-.026.024-.04.072-.04.138l-.014 1.379c0 .049.018.082.055.1.038.014.084.024.143.024l3.818.042-.01 1.15zm-.192 7.76c-.559-.047-.88-.067-.965-.07l-3.93-.04.03-2.992 3.695.037c.058.002.096-.006.118-.024.022-.016.033-.053.033-.112l.005-.477c.001-.066-.008-.108-.025-.13-.016-.021-.053-.038-.11-.044-.052 0-1.286-.012-3.707-.04l.012-1.175c.534.046 1.006.072 1.414.075.276.005 1.436.017 3.481.038l-.03 3.015c-2.422-.026-3.654-.037-3.695-.037-.058-.002-.098.008-.119.03-.02.018-.033.064-.033.13l-.006.465c0 .056.013.095.037.113.026.017.068.026.127.026l3.68.037-.012 1.175zM59.421 15.611l-1.476-.016c-.062-.002-.103.008-.125.026-.022.015-.034.054-.037.117-.002.234-.009 1.062-.024 2.482-.003.36.001.651.013.877.01.23.022.442.04.641l-1.165-.012.005-.582c.002-.248.006-.484.006-.713.003-.103-.006-.177-.028-.222-.022-.043-.07-.069-.149-.08l-4.064-.04c-.306-.013-.89.02-1.75.098l.012-1.254 1.305.014c.088 0 .142-.018.165-.05.022-.036.033-.079.035-.132l.006-.746c.011-.209-.019-.652-.09-1.334l1.201.012-.022 2.08c-.002.068.014.117.045.145.03.027.071.04.123.04l1.15.01c.061.002.102-.013.125-.043.022-.029.033-.076.034-.136l.034-3.362c.001-.068-.013-.115-.038-.136-.023-.024-.064-.034-.116-.036-.044 0-1.148-.009-3.305-.033l.013-1.215c.635.041 1.166.064 1.592.07l2.966.03-.048 4.68c0 .07.016.12.048.15.038.031.073.047.106.047.044 0 .1 0 .165.002l.32.002c.077.002.124-.02.143-.063.018-.045.028-.084.028-.117l.037-3.609c.014-.506-.006-1.164-.058-1.974l1.19.012c-.007.411-.01.963-.018 1.661l-.015 1.332c0 .07.02.115.058.14.041.02.08.032.125.034l.367.002.313.004c.06 0 .318-.01.771-.033l-.013 1.23zM93.857 18.483c0 .23-.004.421-.006.67-.004.247-.004.44-.006.581l1.164.012c-.016-.2-.03-.412-.04-.64-.01-.227-.014-.475-.011-.834.014-1.42.022-2.483.024-2.718.003-.062.015-.1.037-.117s.063-.027.125-.025l1.476.015.012-1.23c-.453.023-.711.033-.77.033l-.314-.004-.367-.002c-.045-.002-.084-.013-.125-.035-.037-.023-.057-.068-.057-.139l.014-1.332.018-1.457-1.19-.012c.053.81.073 1.264.059 1.77-.022 2.205-.035 5.035-.037 5.235l-.006.23zM65.572 17.857c-.26-.029-.504-.05-.725-.066-.222-.016-.472-.024-.752-.028l-3.005-.03.056-5.595c.75.043 1.29.066 1.621.07l2.864.027-.059 5.622zm-1.084-1.37l.03-2.917c0-.068-.008-.119-.024-.149-.018-.03-.06-.046-.13-.048-1.255-.014-1.913-.02-1.974-.02-.06-.002-.103.012-.125.037-.02.028-.034.074-.035.143 0 .15-.006.648-.015 1.498l-.014 1.418c.01.045.023.078.045.1.02.02.058.033.111.033l1.973.02c.07.001.112-.01.125-.032.013-.02.023-.049.033-.084zm3.55 3.173l-1.163-.012c.002-.357.013-1.377.03-3.059l.034-3.28c.004-.436-.019-1.156-.068-2.159l1.176.013-.073 6.98c-.003.36 0 .65.01.876.012.23.03.442.053.641zM77.516 19.748l-1.163-.014.015-1.429.025-2.53c.002-.045-.002-.076-.012-.099-.01-.022-.033-.032-.078-.033l-.705-.006c-.043 0-.071.011-.086.037-.012.027-.02.06-.02.105-.003.401-.012 1.211-.025 2.432-.004.355 0 .648.01.875.012.226.025.439.039.641l-1.161-.012c0-.199.006-.666.014-1.399 0-.088-.033-.15-.096-.189-.066-.041-.13-.063-.19-.063l-4.497-.045.036-3.49 2.64.026c.062.002.104-.006.125-.024.023-.017.033-.056.035-.117l.006-.732c.002-.069-.008-.12-.03-.145-.021-.025-.07-.039-.136-.041-.053 0-.928-.008-2.63-.027l.015-1.254c.557.068 1.044.102 1.464.107l2.428.024-.033 3.373-2.64-.028c-.053 0-.091.02-.12.059-.025.039-.04.102-.04.189l-.007.784c-.001.062.008.101.03.119.02.017.058.027.11.027l3.243.033c.043-.008.106-.027.182-.058.08-.03.12-.088.12-.174.023-2.076.034-3.215.036-3.426.006-.435-.016-1.11-.057-2.026l1.176.011-.031 3.085c.008.036.02.067.037.092.018.026.034.041.053.041l.3.002.418.006c.026 0 .049-.012.065-.033.019-.022.028-.051.028-.084 0-.123.003-.303.005-.543l.006-.529c.004-.436-.014-1.111-.058-2.027l1.176.011-.071 6.98c-.004.358 0 .651.01.877.01.227.025.44.039.641M89.362 18.93v3.88l5.592.046-.002-1.162-4.335-.034c-.053 0-.09-.01-.11-.027-.023-.017-.034-.056-.032-.12l.008-2.582h-1.12zM86.797 19.748l-1.163-.014.015-1.429.025-2.53c.002-.045-.002-.076-.012-.099-.009-.022-.033-.032-.078-.033l-.705-.006c-.043 0-.071.011-.086.037-.012.027-.019.06-.02.105-.003.401-.012 1.211-.025 2.432-.004.355 0 .648.011.875.011.226.024.439.038.641l-1.161-.012.014-1.399.016-1.646.035-3.426c.006-.435-.016-1.11-.057-2.026l1.176.011-.031 3.085c.008.036.021.067.037.092.018.026.034.041.053.041l.301.002.417.006c.026 0 .049-.012.065-.033.019-.022.028-.051.028-.084l.005-.543.006-.529c.004-.436-.014-1.111-.058-2.027l1.176.011-.071 6.98c-.004.358 0 .651.011.877.01.227.024.44.038.641M27.005 4.835c-.232.22-.57.534-1.017.942-.447.408-.732.669-.858.78l1.858 2.083-.755-.003-1.392-1.541-.006 1.54-.599-.001.012-2.843c-.02-.464-.056-.787-.106-.97l.709.004-.005 1.223 1.378-1.217.78.003zM27.573 8.643L28.172 8.645 28.187 4.87 27.589 4.869zM31.98 6.705c-.002.356-.068.659-.2.907-.131.25-.286.45-.463.605-.157.134-.328.242-.51.322-.182.08-.428.117-.736.117l-1.06-.006.018-3.819 1.058.005c.066 0 .134.002.206.004.072.003.135.011.19.024.18.037.337.091.476.165.138.075.262.16.37.256.24.213.41.458.507.734.097.276.145.505.144.686m-.565-.002c0-.104-.031-.245-.09-.424-.06-.178-.161-.343-.304-.494-.108-.115-.241-.208-.396-.285-.156-.077-.343-.115-.56-.117l-.441-.003-.012 2.72.455.003c.213 0 .394-.03.544-.095.15-.064.274-.142.376-.232.19-.178.31-.375.359-.591.049-.216.07-.376.069-.481M35.138 7.443c0 .174-.035.337-.103.492-.068.152-.16.288-.277.404-.127.13-.277.232-.451.304-.173.073-.357.11-.553.109-.157-.001-.301-.021-.433-.06-.131-.04-.252-.102-.36-.186-.1-.073-.19-.166-.272-.276-.082-.11-.154-.241-.22-.387l.483-.298c.034.108.077.202.125.283.05.08.105.15.165.212.069.066.146.114.23.147.086.033.175.048.27.044.092-.004.187-.025.284-.061.097-.037.189-.09.27-.158.076-.061.136-.133.184-.218.048-.084.075-.174.079-.268.005-.114-.01-.208-.044-.284-.035-.076-.084-.14-.15-.192-.068-.062-.152-.111-.252-.151-.1-.04-.211-.075-.332-.106-.134-.036-.243-.074-.328-.114-.083-.042-.174-.092-.27-.15-.1-.06-.191-.167-.274-.322-.084-.154-.125-.313-.125-.478 0-.14.029-.27.083-.39.056-.121.129-.226.225-.312.098-.086.207-.152.33-.2.124-.048.255-.071.395-.07.085 0 .167.01.243.03.076.02.149.048.218.083.078.044.152.094.223.153.072.06.139.13.205.213l-.405.356c-.082-.1-.162-.174-.236-.22-.077-.045-.157-.068-.244-.068-.057 0-.11.006-.157.018-.047.014-.094.034-.136.059-.052.029-.096.072-.127.129-.034.057-.05.12-.052.195 0 .117.036.219.104.305.069.088.155.149.26.185.086.03.195.066.328.104.132.04.237.073.315.1.12.044.23.099.328.163.097.067.18.145.249.236.066.083.115.178.15.288.038.107.055.227.055.357M38.548 8.449l-.272-.371c-.075.069-.149.13-.225.184-.075.054-.153.1-.232.138-.1.048-.201.082-.302.104-.103.02-.204.03-.303.03-.148-.001-.29-.028-.429-.086-.139-.057-.26-.137-.363-.242-.095-.1-.173-.22-.233-.362-.06-.14-.09-.296-.09-.466.002-.126.018-.241.052-.344.032-.104.084-.202.153-.293.066-.085.145-.168.243-.25.094-.08.206-.157.332-.235-.07-.087-.145-.195-.227-.326-.082-.131-.133-.261-.154-.391-.047-.291.031-.538.23-.742.202-.201.446-.303.738-.301.281 0 .521.092.721.276.198.182.288.41.27.684-.013.226-.099.415-.257.568-.157.154-.318.279-.483.372l.557.732c.026-.07.049-.15.07-.24l.062-.32.539.348c-.044.173-.09.31-.136.412-.046.1-.099.203-.161.302l.603.822-.703-.003zM37.21 6.707c-.136.077-.261.165-.376.265-.116.1-.178.233-.188.402-.009.157.042.29.152.4.109.112.244.173.405.18.134.006.263-.017.388-.068.124-.052.237-.13.343-.232l-.724-.947zm.648-1.247c.026-.117.002-.215-.074-.296-.075-.081-.182-.122-.322-.122-.121-.001-.219.034-.296.104-.076.068-.104.16-.082.278.017.092.056.186.115.284.061.097.117.182.17.25.108-.051.211-.12.308-.202.099-.084.159-.182.181-.296zM41.016 5.448l-.004.912 1.484.005-.002.579-1.484-.006-.004 1.014c.007.395.032.643.076.743l-.677-.002.015-3.794 1.418.006c.408-.015.685-.038.827-.067l-.002.617-1.647-.007zM46.305 4.916c-.031.16-.05.396-.055.708l-.007 1.978c-.002.178-.038.346-.11.504-.074.158-.17.295-.292.412-.126.12-.275.215-.443.28-.17.068-.35.101-.541.1-.187 0-.362-.035-.53-.104-.166-.067-.313-.159-.438-.27-.124-.119-.225-.257-.297-.416-.074-.158-.11-.328-.108-.51l.008-1.966c-.008-.342-.033-.585-.075-.729l.662.004-.01 2.751c.008.096.034.184.076.264.044.08.097.153.162.22.074.067.157.123.25.163.093.04.193.06.302.06.104 0 .203-.018.296-.054.094-.038.176-.087.246-.153.07-.064.127-.139.173-.226.045-.087.075-.178.088-.274l.01-2.745.633.003zM49.126 5.52c-.104-.023-.247-.038-.43-.048H48.3l-.014 3.258-.604-.002.014-3.26-.378-.002c-.203.012-.35.036-.444.07l.004-.618 2.252.01-.003.592zM52.549 4.942c-.03.16-.048.397-.054.708l-.008 1.98c-.001.177-.038.345-.109.503-.074.157-.17.295-.293.411-.125.121-.273.215-.443.281-.17.068-.35.1-.54.1-.187-.002-.364-.036-.531-.104-.166-.068-.313-.159-.438-.272-.124-.118-.223-.256-.297-.414-.072-.159-.109-.329-.108-.51l.008-1.967c-.007-.342-.031-.585-.075-.728l.664.003-.012 2.751c.009.096.035.183.078.265.043.08.095.153.162.217.073.07.155.125.249.165.093.04.193.06.302.06.104.001.203-.018.297-.054.093-.037.172-.088.245-.152.068-.065.127-.14.173-.228.045-.086.074-.177.089-.272l.011-2.746.63.003zM55.094 8.757l-1.12-1.384h-.065l-.005 1.38-.586-.003.013-2.94c0-.167 0-.297-.005-.392-.003-.095-.015-.249-.031-.462l1.145.004c.125.001.264.021.416.06.152.035.29.104.417.206.125.095.227.221.308.381.082.158.123.357.122.596-.001.19-.032.352-.092.483-.063.133-.14.244-.23.335-.104.095-.22.167-.343.216-.123.05-.242.085-.355.107l1.159 1.416-.748-.003zm.05-2.55c0-.114-.02-.212-.062-.297-.04-.085-.093-.157-.165-.218-.06-.06-.13-.106-.206-.135-.08-.028-.154-.043-.227-.044l-.567-.002-.005 1.31h.453c.11 0 .208-.01.293-.038.088-.025.164-.06.224-.103.087-.06.152-.13.196-.214.044-.08.066-.169.066-.259zM58.682 8.84c-.143-.04-.37-.062-.684-.074l-1.6-.007.016-3.797 1.413.004c.408-.02.682-.05.826-.093l-.002.644-1.64-.008-.003.91 1.476.007-.002.574-1.477-.007-.007 1.197 1.686.007-.002.644zM61.606 5.535l-.004.911 1.484.006-.003.58-1.483-.007-.004 1.015c.006.393.03.641.074.742l-.676-.003.017-3.793 1.417.006c.407-.015.684-.039.825-.069l-.001.62-1.646-.008zM67.993 6.893c-.002.277-.056.537-.162.779-.109.243-.254.455-.437.635-.176.173-.387.313-.629.415-.24.101-.498.154-.772.153-.269-.002-.523-.055-.764-.156-.239-.103-.448-.245-.625-.422-.187-.184-.33-.397-.435-.64-.106-.244-.158-.503-.157-.782.001-.28.057-.545.166-.79.108-.245.257-.457.446-.638.178-.173.387-.309.625-.409.24-.098.493-.146.763-.145.276.002.535.054.771.16.24.104.45.25.63.431.18.178.317.39.424.633.104.244.157.503.156.776m-.579.016c.001-.19-.033-.37-.106-.54-.07-.168-.169-.317-.293-.443-.126-.131-.273-.234-.445-.308-.17-.075-.352-.114-.549-.114-.19 0-.372.035-.543.106-.172.07-.322.17-.448.294-.126.125-.226.274-.3.444-.075.171-.112.356-.114.548 0 .189.033.367.102.535.07.17.165.316.287.444.123.13.272.235.446.31.172.077.36.115.56.117.193 0 .378-.037.551-.111.174-.075.325-.177.451-.302.126-.123.225-.27.293-.44.073-.17.107-.348.108-.54M71.415 5.022c-.03.16-.05.397-.055.709l-.007 1.978c-.002.178-.038.346-.11.504-.073.157-.17.295-.292.41-.127.122-.275.216-.444.282-.169.067-.348.1-.539.099-.188-.001-.363-.036-.53-.103-.167-.068-.313-.16-.439-.272-.125-.116-.224-.256-.297-.413-.074-.16-.109-.33-.109-.511l.01-1.967c-.008-.342-.034-.585-.077-.728l.663.003-.009 2.752c.007.095.033.183.075.264.044.08.097.153.162.218.073.069.156.124.25.164.094.04.195.06.303.06.103 0 .203-.018.296-.054.092-.037.174-.087.243-.152.072-.065.13-.14.176-.228.044-.086.075-.177.087-.272l.011-2.746.632.003zM72.781 6.31l-.01 2.522-.67-.002c.043-.13.074-.369.087-.714l.014-3.176 2.565 2.626.008-1.8c-.02-.34-.056-.582-.107-.724l.696.003-.017 3.903-2.566-2.639zM79.155 6.905c0 .355-.067.657-.198.907-.132.248-.286.45-.464.606-.157.133-.326.24-.51.32-.18.08-.428.12-.736.118l-1.059-.006.014-3.82 1.061.006c.066 0 .134.001.206.005.071.003.134.01.191.022.178.036.337.091.475.166.14.074.262.16.37.255.243.213.412.458.506.734.098.276.147.504.144.687m-.564-.002c0-.105-.03-.246-.09-.424-.06-.179-.16-.344-.305-.495-.107-.115-.238-.208-.394-.286-.157-.076-.342-.115-.56-.116h-.44l-.012 2.717.453.002c.213.002.394-.03.545-.094.15-.064.275-.143.374-.233.191-.176.312-.374.36-.59.048-.217.071-.377.07-.48M82.031 8.876l-.413-.91-1.392-.008-.408.91-.637-.004 1.747-3.993 1.734 4.008-.63-.003zm-1.108-2.56l-.48 1.097.957.004-.477-1.102zM84.865 5.672c-.103-.023-.247-.038-.429-.048l-.396-.001-.013 3.258-.605-.002.012-3.26-.376-.002c-.205.013-.352.036-.444.07l.004-.617 2.251.01-.004.592zM85.602 8.888L86.199 8.891 86.216 5.117 85.617 5.114zM90.957 6.99c0 .276-.056.537-.162.78-.109.24-.253.452-.438.635-.176.173-.387.31-.629.413-.239.103-.497.154-.769.153-.269 0-.525-.053-.767-.156-.238-.103-.447-.243-.625-.422-.184-.183-.33-.396-.435-.64-.106-.242-.157-.502-.156-.78.001-.283.056-.546.166-.79.11-.245.257-.458.444-.64.18-.172.388-.308.627-.407.238-.1.493-.147.762-.146.276.001.535.055.774.16.237.106.447.25.63.431.176.178.317.39.422.634.104.242.157.501.156.774m-.579.017c.001-.19-.034-.37-.106-.54-.07-.17-.169-.317-.293-.443-.125-.13-.274-.234-.443-.309-.17-.074-.356-.112-.552-.112-.189 0-.372.034-.543.104-.17.072-.32.17-.447.295-.126.125-.227.273-.3.445-.076.17-.112.354-.114.548 0 .187.033.365.102.534.07.17.165.317.286.444.125.131.273.234.446.311.174.077.36.116.56.116.194.001.38-.036.553-.112.174-.075.324-.175.451-.3.125-.125.222-.273.292-.442.072-.169.107-.348.108-.539M92.285 6.391l-.01 2.525-.67-.003c.043-.129.073-.369.087-.715l.015-3.175 2.564 2.626.007-1.802c-.019-.338-.056-.58-.107-.724l.696.005-.016 3.902-2.566-2.639zM80.23 13.4v.377c0 .637-.105 1.381-.316 1.867-.254.602-.771 1.25-1.491 1.865l.75.745c.508-.379.815-.713 1.12-1.102.296-.377.53-.71.593-.863.063.152.285.476.58.832.297.365.593.68 1.058.992l.623-.744c-.634-.56-1.108-1.143-1.343-1.662-.242-.516-.358-1.272-.358-1.95V13.4h1.289v-1.067H78.9V13.4h1.33zM88.119 12.333L92.638 12.333 92.638 13.377 89.26 13.377 89.26 16.65 92.638 16.65 92.638 17.73 88.119 17.73z" transform="translate(-114 -862) translate(114 862)"/>
            </g>
        </g>
    </g>
</svg>
