<svg xmlns="http://www.w3.org/2000/svg" xmlns:xlink="http://www.w3.org/1999/xlink" width="270" height="336" viewBox="0 0 270 336">
    <defs>
        <path id="rg9dgo92ia" d="M0.373 0.977L205.3 0.977 205.3 205.903 0.373 205.903z"/>
        <path id="gz8g6m8vrc" d="M0 226L205.3 226 205.3 0.047 0 0.047z"/>
    </defs>
    <g fill="none" fill-rule="evenodd">
        <g>
            <g transform="translate(-705 -452) translate(705 452)">
                <rect width="270" height="336" fill="#FFF" rx="2"/>
                <g>
                    <g transform="translate(32 74) translate(0 13.953)">
                        <mask id="52nvg31rjb" fill="#fff">
                            <use xlink:href="#rg9dgo92ia"/>
                        </mask>
                        <path fill="#C8C9C9" d="M205.3 103.44c0 56.589-45.873 102.463-102.463 102.463C46.248 205.903.373 160.029.373 103.44.373 46.851 46.248.977 102.837.977 159.427.977 205.3 46.851 205.3 103.44" mask="url(#52nvg31rjb)"/>
                    </g>
                    <path fill="#FEFEFE" d="M88.013 210.018L80.09 207.119 83.296 197.869 91.219 200.765z" transform="translate(32 74)"/>
                    <g transform="translate(32 74) translate(0 .953)">
                        <path fill="#231916" d="M81.293 205.594l6.138 2.247 2.585-7.457-6.139-2.244-2.584 7.454zm6.72 4.42c-.11 0-.22-.02-.327-.057l-7.923-2.9c-.487-.177-.74-.713-.57-1.203l3.204-9.25c.085-.24.261-.437.491-.547.23-.108.496-.12.733-.033l7.924 2.896c.487.177.742.714.572 1.203l-3.207 9.253c-.084.24-.26.438-.49.547-.129.06-.267.09-.407.09z"/>
                        <path fill="#231916" d="M83.97 200.335l-6.647-2.432s-4.134 1.702-5.645 3.144c-1.512 1.439-9.809-5.89-12.49 1.863l-.52 1.496 32.083 11.738 2.402-6.935s1.155-5.091-1.9-6.208l-1.887-.692-6.527 1.595 1.13-3.57zM145.817 154.533v18.197h-35.693l-15.965 30.888-15.718-8.376 18.542-35.88c1.538-2.979 4.549-4.829 7.818-4.829h41.016zM145.817 172.74c9.781 0 17.712-8.158 17.712-18.21h-17.712v18.21z"/>
                        <mask id="8ogo7mtp4d" fill="#fff">
                            <use xlink:href="#gz8g6m8vrc"/>
                        </mask>
                        <path fill="#231916" d="M131.341 154.529L163.529 154.529 163.529 142.512 131.341 142.512z" mask="url(#8ogo7mtp4d)"/>
                        <path fill="#FEFEFE" d="M166.012 84.993L151.169 87.106 148.79 69.443 163.633 67.33z" mask="url(#8ogo7mtp4d)"/>
                        <path fill="#231916" d="M149.33 69.85l2.25 16.714 13.895-1.978-2.25-16.713-13.895 1.977zm1.84 17.735c-.103 0-.205-.034-.288-.097-.103-.077-.17-.191-.187-.318l-2.38-17.663c-.033-.261.149-.501.409-.538l14.842-2.113c.129-.016.257.015.356.093.103.077.17.19.187.318l2.379 17.662c.033.26-.147.5-.408.538l-14.843 2.113c-.022.003-.045.005-.067.005z" mask="url(#8ogo7mtp4d)"/>
                        <path fill="#FEFEFE" d="M146.561 44.128c0-1.173-.926-2.124-2.066-2.124-1.14 0-2.056.951-2.056 2.124s.915 2.125 2.056 2.125c1.14 0 2.066-.952 2.066-2.125zm13.145 13.862h-9.973c0 2.832 2.237 5.119 4.981 5.119 2.755 0 4.992-2.287 4.992-5.119zm6.334-13.862c0-1.173-.914-2.124-2.055-2.124-1.139 0-2.067.951-2.067 2.124s.928 2.125 2.067 2.125c1.141 0 2.055-.952 2.055-2.125zm-31.404 10.077h-3.795c-3.828 0-6.934-3.192-6.934-7.163v-2.008c0-2.74 1.525-5.143 3.76-6.339.95-.511 2.022-.801 3.174-.801h3.184c12.682 0 14.332-19.77 15.901-19.77 3.828 0 4.483 2.763 4.483 2.763s.724-2.763 4.562-2.763c1.57 0 2.79 19.77 15.473 19.77h3.183c1.163 0 2.26.302 3.22.836 2.213 1.195 3.715 3.587 3.715 6.304v2.008c0 3.971-3.106 7.163-6.935 7.163h-3.714v1.973c-.43 9.287-9.08 17.716-19.66 17.716-10.843 0-19.617-8.823-19.617-18.47v-1.219z" mask="url(#8ogo7mtp4d)"/>
                        <path fill="#231916" d="M180.846 22.698V38.73c-.96-.533-2.056-.836-3.219-.836h-3.183c-12.683 0-13.903-19.77-15.473-19.77-3.838 0-4.562 2.763-4.562 2.763s-.655-2.763-4.483-2.763c-1.569 0-3.219 19.77-15.9 19.77h-3.185c-1.152 0-2.225.29-3.174.802v-16.95C128.243 9.94 139.92.526 154.217.526c14.748 0 26.63 9.879 26.63 22.172M163.985 42.005c1.142 0 2.056.95 2.056 2.123 0 1.172-.914 2.124-2.056 2.124-1.14 0-2.066-.952-2.066-2.123 0-1.173.927-2.124 2.066-2.124M149.733 57.99h9.973c0 2.833-2.237 5.119-4.992 5.119-2.744 0-4.981-2.286-4.981-5.12M144.495 42.005c1.14 0 2.066.95 2.066 2.123 0 1.172-.925 2.124-2.066 2.124-1.141 0-2.056-.952-2.056-2.123 0-1.173.915-2.124 2.056-2.124" mask="url(#8ogo7mtp4d)"/>
                        <path fill="#231916" d="M127.668 39.162c-.265 0-.48-.214-.48-.479V21.746c.593-12.179 12.466-21.7 27.028-21.7 14.947 0 27.108 10.162 27.108 22.652 0 .264-.215.48-.478.48s-.48-.216-.48-.48c0-11.962-11.73-21.694-26.15-21.694-14.052 0-25.504 9.121-26.07 20.765v16.914c0 .265-.214.48-.478.48" mask="url(#8ogo7mtp4d)"/>
                        <path fill="#231916" d="M180.846 39.21c-.264 0-.479-.215-.479-.48V21.746c0-.265.215-.479.48-.479.263 0 .478.214.478.48V38.73c0 .265-.215.48-.479.48M154.251 74.373c-10.57 0-19.55-8.173-20.07-18.044-.017-.047-.024-.098-.024-.15v-.755c0-.264.215-.48.48-.48.262 0 .477.216.477.48 0 9.585 8.944 17.99 19.137 17.99 9.966 0 18.75-7.902 19.184-17.258V47.24c0-.265.214-.48.477-.48.264 0 .48.215.48.48v8.939c-.457 9.872-9.68 18.194-20.14 18.194" mask="url(#8ogo7mtp4d)"/>
                        <path fill="#231916" d="M134.636 55.903c-.264 0-.479-.215-.479-.48V47.24c0-.264.215-.478.48-.478.263 0 .478.213.478.478v8.184c0 .265-.215.48-.479.48M177.627 54.684h-3.715c-.263 0-.477-.214-.477-.479s.214-.479.477-.479h3.715c3.56 0 6.456-2.999 6.456-6.684v-2.008c0-2.475-1.327-4.729-3.465-5.882-.916-.51-1.95-.779-2.99-.779h-3.184c-.263 0-.478-.214-.478-.479s.214-.479.477-.479h3.184c1.204 0 2.397.31 3.45.897 2.444 1.318 3.964 3.895 3.964 6.722v2.008c0 4.214-3.326 7.642-7.413 7.642" mask="url(#8ogo7mtp4d)"/>
                        <path fill="#231916" d="M174.444 38.373c-9.74 0-12.883-10.925-14.57-16.794-.357-1.244-.76-2.645-1.01-2.976-3.305.048-3.965 2.312-3.993 2.41-.068.252-.334.41-.585.336-.255-.069-.406-.328-.341-.583.01-.03.866-3.12 5.025-3.12.77 0 1.08 1.073 1.825 3.668 1.617 5.626 4.628 16.101 13.649 16.101.264 0 .479.214.479.48 0 .264-.215.478-.48.478" mask="url(#8ogo7mtp4d)"/>
                        <path fill="#231916" d="M134.025 38.373c-.265 0-.479-.214-.479-.479s.214-.479.479-.479c9.029 0 12.269-10.482 14.01-16.113.799-2.586 1.13-3.657 1.891-3.657 4.16 0 4.942 3.1 4.949 3.132.061.257-.097.515-.356.576-.269.067-.512-.098-.576-.353-.025-.104-.632-2.35-3.914-2.397-.258.323-.694 1.732-1.079 2.982-1.815 5.867-5.191 16.788-14.925 16.788" mask="url(#8ogo7mtp4d)"/>
                        <path fill="#231916" d="M134.636 54.684h-3.795c-4.089 0-7.414-3.428-7.414-7.642v-2.008c0-2.846 1.537-5.437 4.014-6.76 1.054-.57 2.2-.859 3.4-.859h3.184c.263 0 .478.214.478.48 0 .264-.215.478-.478.478h-3.184c-1.04 0-2.03.25-2.946.744-2.165 1.158-3.51 3.425-3.51 5.917v2.008c0 3.685 2.897 6.684 6.456 6.684h3.795c.264 0 .48.214.48.48 0 .264-.216.478-.48.478M154.803 53.57c-1.533 0-2.78-1.278-2.78-2.849 0-.264.215-.479.478-.479.264 0 .48.215.48.48 0 1.041.816 1.89 1.822 1.89.741 0 1.407-.453 1.693-1.155.101-.244.374-.364.624-.262.246.101.362.38.262.625-.433 1.062-1.447 1.75-2.579 1.75" mask="url(#8ogo7mtp4d)"/>
                        <path fill="#231916" d="M152.501 51.2c-.263 0-.478-.213-.478-.478v-7.14c0-.264.215-.478.478-.478.264 0 .48.214.48.479v7.139c0 .265-.215.479-.48.479M150.236 58.469c.232 2.334 2.153 4.16 4.478 4.16 2.33 0 4.255-1.826 4.489-4.16h-8.967zm4.478 5.119c-3.011 0-5.46-2.511-5.46-5.598 0-.265.215-.48.479-.48h9.973c.263 0 .478.215.478.48 0 3.087-2.453 5.598-5.47 5.598zM146.561 38.768h-4.122c-.264 0-.479-.214-.479-.48 0-.264.215-.478.48-.478h4.121c.264 0 .48.214.48.479s-.216.479-.48.479M166.04 38.768h-4.121c-.264 0-.48-.214-.48-.48 0-.264.216-.478.48-.478h4.122c.264 0 .479.214.479.479s-.215.479-.48.479" mask="url(#8ogo7mtp4d)"/>
                        <path fill="#FEFEFE" d="M167.303 78.546c5.297 1.826 11.323 8.438 7.862 30.126 0 0-1.724 17.087-9.308 44.65 0 0-.488 2.648-3.385 2.99-18.316 2.2-29.712-6.044-29.712-6.044-4.343-1.998-2.92-6.002-2.92-6.002 7.398-28.245 9.061-35.956 9.061-35.956 1.496-10.808 5.962-17.963 10.46-22.576 5.641-5.777 11.335-7.561 11.335-7.561s3.147-.834 6.607.373" mask="url(#8ogo7mtp4d)"/>
                        <path fill="#FEFEFE" d="M167.303 78.536v.01c-3.46-1.206-6.607-.374-6.607-.374s-5.694 1.784-11.335 7.562l-1.756-6.579 19.698-2.99v2.371z" mask="url(#8ogo7mtp4d)"/>
                        <path fill="#231916" d="M163.32 78.374c-1.477 0-2.486.256-2.503.261-.034.011-5.632 1.82-11.113 7.434-5.6 5.743-9.075 13.247-10.328 22.306-.025.112-1.756 8.08-9.072 36.012-.063.184-1.222 3.662 2.657 5.445.192.128 11.556 8.154 29.453 6.005 2.519-.297 2.969-2.579 2.972-2.603 7.495-27.24 9.287-44.439 9.303-44.61 3.378-21.176-2.237-27.796-7.541-29.625h-.002c-1.39-.484-2.734-.625-3.825-.625m-6.955 78.785c-14.705.001-23.785-6.43-23.886-6.504-4.607-2.108-3.107-6.506-3.09-6.55 7.294-27.86 9.026-35.819 9.043-35.897 1.276-9.23 4.84-16.916 10.586-22.808 5.659-5.798 11.296-7.61 11.532-7.685.16-.039 3.356-.862 6.91.38 5.65 1.948 11.657 8.85 8.178 30.653-.015.144-1.812 17.415-9.32 44.701-.181.995-1.221 3.035-3.791 3.338-2.146.258-4.206.372-6.162.372" mask="url(#8ogo7mtp4d)"/>
                        <path fill="#231916" d="M147.605 79.634c-.234 0-.437-.17-.474-.407-.039-.261.141-.506.403-.545l19.698-2.99c.28-.04.505.143.544.4.039.264-.14.507-.402.547l-19.698 2.99c-.024.003-.049.005-.071.005" mask="url(#8ogo7mtp4d)"/>
                        <path fill="#231916" d="M149.36 86.213c-.21 0-.404-.142-.461-.355l-1.756-6.58c-.07-.254.082-.518.338-.586.259-.064.52.084.586.34l1.756 6.578c.069.256-.082.519-.338.587-.042.01-.083.016-.124.016M167.303 79.015c-.264 0-.479-.214-.479-.48v-2.37c0-.264.215-.478.48-.478.263 0 .478.214.478.479v2.37c0 .265-.215.479-.479.479M168.818 93.175v.163c0-.06 0-.105-.011-.163h.01z" mask="url(#8ogo7mtp4d)"/>
                        <path fill="#FEFEFE" d="M107.06 114.547c-.834-5.351-7.08-8.774-13.97-7.653-6.869 1.143-11.788 6.396-10.954 11.748.835 5.352 7.093 8.759 13.972 7.626 6.88-1.134 11.771-6.386 10.952-11.721" mask="url(#8ogo7mtp4d)"/>
                        <path fill="#231916" d="M95.713 107.158c-.838 0-1.69.068-2.548.208-6.61 1.101-11.347 6.126-10.556 11.202.318 2.041 1.472 3.832 3.34 5.184 2.65 1.917 6.323 2.664 10.08 2.043 6.6-1.088 11.337-6.1 10.558-11.175-.32-2.044-1.476-3.84-3.345-5.194-2.042-1.482-4.698-2.268-7.529-2.268m-2.254 19.807c-3.024 0-5.869-.845-8.072-2.438-2.078-1.504-3.364-3.514-3.724-5.81-.872-5.595 4.22-11.11 11.347-12.296 4.007-.654 7.943.16 10.796 2.23 2.08 1.507 3.368 3.521 3.727 5.822v.001c.86 5.591-4.232 11.093-11.347 12.266-.916.151-1.83.225-2.727.225" mask="url(#8ogo7mtp4d)"/>
                        <path fill="#FEFEFE" d="M168.959 91.697v.092c0 .082 0 .163-.012.244-.248 17.692-19.153 32.03-36.442 32.03h-28.876v-15.626h28.876c8.694 0 20.667-6.99 21.23-15.788-.034-.291-.056-.57-.056-.86 0-4.342 3.422-7.847 7.645-7.847 4.134 0 7.498 3.378 7.623 7.592.012.058.012.105.012.163" mask="url(#8ogo7mtp4d)"/>
                        <path fill="#231916" d="M104.107 123.584h28.396c16.428 0 35.714-13.785 35.965-31.557.013-.12.012-.177.012-.237v-.093c0-.025.001-.046-.003-.072-.127-4.074-3.266-7.205-7.153-7.205-3.952 0-7.167 3.306-7.167 7.37 0 .27.02.53.054.8-.559 8.833-12.404 16.326-21.708 16.326h-28.396v14.668zm28.396.958h-29.354v-16.583h29.354c8.9 0 20.225-7.08 20.755-15.341-.035-.221-.059-.52-.059-.828 0-4.592 3.645-8.327 8.125-8.327 4.408 0 7.968 3.538 8.101 8.057.01.013.012.086.012.177v.093c0 .103-.002.206-.015.309-.254 18.245-20.055 32.443-36.919 32.443z" mask="url(#8ogo7mtp4d)"/>
                        <path fill="#FEFEFE" d="M171.646 175.91v1.038H113.23v-1.038c0-1.72 13.073-3.113 29.206-3.113 16.138 0 29.211 1.392 29.211 3.113" mask="url(#8ogo7mtp4d)"/>
                        <path fill="#231916" d="M113.704 176.47h57.464v-.53c-.66-1.095-11.205-2.664-28.733-2.664-17.604 0-28.166 1.584-28.737 2.68l.006.513zm57.942.957h-58.417c-.263 0-.48-.214-.48-.479v-1.038c0-3.55 28.475-3.592 29.686-3.592 1.212 0 29.69.041 29.69 3.592v1.038c0 .265-.215.48-.48.48z" mask="url(#8ogo7mtp4d)"/>
                        <path fill="#FEFEFE" d="M184.084 104.444l-7.911 64.49c-3.112-.4-3.864-15.165-1.676-32.97 2.185-17.816 6.479-31.923 9.587-31.52" mask="url(#8ogo7mtp4d)"/>
                        <path fill="#231916" d="M183.526 105.052c-.06.036-.121.078-.183.126-2.891 2.244-6.49 15.503-8.372 30.843-2.152 17.512-1.312 30.365.805 32.213l7.75-63.182zm-7.354 64.36c-.02 0-.041-.002-.061-.004-3.97-.51-4.038-17.642-2.09-33.503 1.94-15.82 5.613-29.06 8.734-31.483.464-.36.924-.516 1.39-.453.26.034.445.272.414.533l-7.912 64.488c-.015.128-.08.243-.182.32-.084.066-.186.101-.293.101z" mask="url(#8ogo7mtp4d)"/>
                        <path fill="#FEFEFE" d="M178.046 169.18L176.172 168.933 184.083 104.445 185.961 104.69z" mask="url(#8ogo7mtp4d)"/>
                        <path fill="#231916" d="M176.706 168.52l.924.123 7.799-63.54-.928-.121-7.795 63.539zm1.34 1.139c-.02 0-.04-.001-.061-.004l-1.874-.246c-.262-.035-.445-.273-.414-.534l7.912-64.488c.015-.127.08-.242.18-.321.103-.078.229-.114.356-.096l1.878.245c.262.035.446.272.413.533l-7.915 64.49c-.014.127-.08.242-.18.32-.085.067-.19.1-.294.1z" mask="url(#8ogo7mtp4d)"/>
                        <path fill="#231916" d="M172.787 186.726H111.14c-2.651 0-4.802-2.209-4.802-4.936 0-2.726 2.15-4.937 4.802-4.937h61.646c4.455 0 5.4-2.94 5.566-4.692.004-.099.01-.127.023-.225l8.09-65.98c.334-2.706 2.743-4.616 5.369-4.28 2.629.34 4.492 2.811 4.163 5.516l-8.08 65.848c-.423 5.564-4.762 13.686-15.131 13.686" mask="url(#8ogo7mtp4d)"/>
                        <path fill="#231916" d="M142.169 202.232L148.94 202.232 148.94 183.336 142.169 183.336z" mask="url(#8ogo7mtp4d)"/>
                        <path fill="#231916" d="M142.784 201.604h5.543v-17.64h-5.543v17.64zm6.156 1.256h-6.771c-.335 0-.609-.28-.609-.628v-18.896c0-.352.274-.631.609-.631h6.771c.337 0 .614.279.614.631v18.896c0 .348-.277.628-.614.628z" mask="url(#8ogo7mtp4d)"/>
                        <path fill="#231916" d="M139.929 207.029L151.181 207.029 151.181 197.434 139.929 197.434z" mask="url(#8ogo7mtp4d)"/>
                        <path fill="#231916" d="M140.543 206.4h10.021v-8.335h-10.021v8.335zm10.638 1.258h-11.252c-.337 0-.609-.28-.609-.629v-9.594c0-.349.272-.629.609-.629h11.252c.337 0 .61.28.61.629v9.594c0 .349-.273.629-.61.629z" mask="url(#8ogo7mtp4d)"/>
                        <path fill="#231916" d="M115.641 219.057c-1.059 0-2.054-.666-2.442-1.752-.497-1.388.194-2.927 1.541-3.436l29.914-11.338c1.346-.512 2.846.197 3.343 1.587.498 1.387-.19 2.928-1.54 3.438l-29.915 11.335c-.295.116-.597.166-.9.166" mask="url(#8ogo7mtp4d)"/>
                        <path fill="#231916" d="M175.47 219.057c-.305 0-.607-.05-.906-.166l-29.91-11.335c-1.347-.51-2.039-2.051-1.545-3.438.497-1.39 1.997-2.1 3.347-1.587l29.914 11.338c1.347.509 2.038 2.048 1.541 3.436-.388 1.082-1.387 1.752-2.442 1.752" mask="url(#8ogo7mtp4d)"/>
                        <path fill="#FEFEFE" d="M121.036 219.222c0 3.06-2.417 5.545-5.395 5.545-2.977 0-5.39-2.484-5.39-5.545s2.413-5.542 5.39-5.542c2.978 0 5.395 2.48 5.395 5.542" mask="url(#8ogo7mtp4d)"/>
                        <path fill="#231916" d="M115.641 214.437c-2.565 0-4.657 2.148-4.657 4.785 0 2.64 2.092 4.786 4.657 4.786 2.57 0 4.657-2.146 4.657-4.786 0-2.637-2.087-4.785-4.657-4.785m0 11.084c-3.374 0-6.123-2.824-6.123-6.299 0-3.472 2.75-6.297 6.123-6.297 3.378 0 6.127 2.825 6.127 6.297 0 3.475-2.749 6.3-6.127 6.3" mask="url(#8ogo7mtp4d)"/>
                        <path fill="#FEFEFE" d="M180.859 219.222c0 3.06-2.416 5.545-5.39 5.545-2.981 0-5.394-2.484-5.394-5.545s2.413-5.542 5.394-5.542c2.974 0 5.39 2.48 5.39 5.542" mask="url(#8ogo7mtp4d)"/>
                        <path fill="#231916" d="M175.47 214.437c-2.57 0-4.658 2.148-4.658 4.785 0 2.64 2.087 4.786 4.657 4.786 2.562 0 4.653-2.146 4.653-4.786 0-2.637-2.09-4.785-4.653-4.785m0 11.084c-3.382 0-6.128-2.824-6.128-6.299 0-3.472 2.746-6.297 6.128-6.297 3.374 0 6.123 2.825 6.123 6.297 0 3.475-2.749 6.3-6.123 6.3M.95 137.141L111.905 137.141 111.905 130.605.95 130.605z" mask="url(#8ogo7mtp4d)"/>
                        <path fill="#231916" d="M1.9 136.191h109.055v-4.636H1.9v4.636zm110.005 1.899H.95c-.526 0-.95-.425-.95-.949v-6.536c0-.525.424-.951.95-.951h110.955c.525 0 .95.426.95.951v6.536c0 .524-.425.949-.95.949z" mask="url(#8ogo7mtp4d)"/>
                        <path fill="#FEFEFE" d="M53.865 130.605h-24.34c-4.923 0-8.13-1.073-10.077-3.377-2.35-2.773-2.14-6.615-1.781-9.264.004-.051.015-.103.022-.152L27.83 63.346c.306-1.658 1.866-2.744 3.478-2.43 1.613.317 2.667 1.92 2.36 3.579l-10.121 54.389c-.678 4.49 1.743 5.53 5.977 5.609h24.34c1.639 0 2.97 1.369 2.97 3.057 0 1.689-1.331 3.055-2.97 3.055" mask="url(#8ogo7mtp4d)"/>
                        <path fill="#231916" d="M30.748 61.341c-.482 0-.957.145-1.37.425-.567.387-.95.98-1.076 1.666l-10.16 54.596c-.347 2.56-.551 6.266 1.67 8.89 1.852 2.188 4.938 3.208 9.713 3.208h24.34c1.373 0 2.49-1.157 2.49-2.577s-1.117-2.578-2.49-2.578h-24.34c-2.968-.055-4.653-.58-5.642-1.753-.842-.995-1.106-2.437-.81-4.406l10.125-54.406c.26-1.399-.63-2.754-1.98-3.02-.158-.03-.313-.045-.47-.045m23.117 69.742h-24.34c-5.078 0-8.396-1.127-10.442-3.546-2.471-2.916-2.261-6.898-1.891-9.639l.019-.123 10.148-54.518c.174-.94.7-1.75 1.482-2.282.757-.517 1.676-.705 2.56-.528 1.865.365 3.093 2.22 2.74 4.134l-10.122 54.39c-.25 1.664-.058 2.858.594 3.63.784.928 2.3 1.364 4.92 1.412h24.332c1.903 0 3.449 1.586 3.449 3.536s-1.546 3.534-3.45 3.534" mask="url(#8ogo7mtp4d)"/>
                        <path fill="#FEFEFE" d="M38.413 9.608l4.82 105.808c-6.847.33-13.483-23.085-14.815-52.3-1.332-29.227 3.14-53.176 9.995-53.508" mask="url(#8ogo7mtp4d)"/>
                        <path fill="#231916" d="M37.958 10.154c-6.201 1.454-10.323 25.226-9.062 52.94 1.102 24.185 6.045 45.51 11.753 50.71.705.64 1.404 1.014 2.084 1.112L37.958 10.154zM43.093 115.9c-1.038 0-2.074-.467-3.086-1.388-5.975-5.44-10.937-26.566-12.068-51.375C26.576 33.202 31.165 9.48 38.39 9.13c.119-.022.25.038.343.123.096.087.152.206.158.333l4.82 105.808c.013.264-.192.488-.455.5-.054.003-.111.005-.164.005z" mask="url(#8ogo7mtp4d)"/>
                        <path fill="#FEFEFE" d="M47.375 115.217L43.234 115.417 38.413 9.609 42.55 9.411z" mask="url(#8ogo7mtp4d)"/>
                        <path fill="#231916" d="M38.912 10.064l4.779 104.852 3.185-.155L42.094 9.913l-3.182.151zm4.322 105.832c-.12 0-.233-.044-.321-.125-.096-.086-.151-.206-.157-.332L37.934 9.63c-.011-.264.193-.487.457-.499l4.136-.198c.13-.015.25.038.345.124.095.086.15.206.157.333l4.825 105.805c.01.264-.193.487-.457.5l-4.14.201h-.023z" mask="url(#8ogo7mtp4d)"/>
                        <path fill="#FEFEFE" d="M66.729 130.605L109.081 130.605 109.081 127.714 66.729 127.714z" mask="url(#8ogo7mtp4d)"/>
                        <path fill="#231916" d="M67.208 130.126h41.394v-1.933H67.208v1.933zm-.958.958h43.309v-3.848H66.25v3.848z" mask="url(#8ogo7mtp4d)"/>
                        <path fill="#FEFEFE" d="M69.909 127.714L75.972 127.714 75.972 125.509 69.909 125.509z" mask="url(#8ogo7mtp4d)"/>
                        <path fill="#231916" d="M70.387 127.235h5.106v-1.248h-5.106v1.248zm-.957.958h7.021v-3.163H69.43v3.163z" mask="url(#8ogo7mtp4d)"/>
                        <path fill="#FEFEFE" d="M79.885 127.714L85.949 127.714 85.949 125.509 79.885 125.509z" mask="url(#8ogo7mtp4d)"/>
                        <path fill="#231916" d="M80.364 127.235h5.105v-1.248h-5.105v1.248zm-.958.958h7.021v-3.163h-7.021v3.163z" mask="url(#8ogo7mtp4d)"/>
                        <path fill="#FEFEFE" d="M89.861 127.714L95.928 127.714 95.928 125.509 89.861 125.509z" mask="url(#8ogo7mtp4d)"/>
                        <path fill="#231916" d="M90.339 127.235h5.11v-1.248h-5.11v1.248zm-.956.958h7.024v-3.163h-7.024v3.163z" mask="url(#8ogo7mtp4d)"/>
                        <path fill="#FEFEFE" d="M99.838 127.714L105.905 127.714 105.905 125.509 99.838 125.509z" mask="url(#8ogo7mtp4d)"/>
                        <path fill="#231916" d="M100.316 127.235h5.109v-1.248h-5.109v1.248zm-.957.958h7.024v-3.163h-7.024v3.163z" mask="url(#8ogo7mtp4d)"/>
                        <path fill="#FEFEFE" d="M12.243 225.521L17.446 225.521 17.446 137.141 12.243 137.141z" mask="url(#8ogo7mtp4d)"/>
                        <path fill="#231916" d="M12.722 225.043h4.245V137.62h-4.245v87.423zm4.724.957h-5.203c-.264 0-.479-.214-.479-.479v-88.38c0-.265.215-.479.479-.479h5.203c.264 0 .479.214.479.479v88.38c0 .265-.215.479-.479.479z" mask="url(#8ogo7mtp4d)"/>
                        <path fill="#FEFEFE" d="M97.238 225.521L102.441 225.521 102.441 137.141 97.238 137.141z" mask="url(#8ogo7mtp4d)"/>
                        <path fill="#231916" d="M97.716 225.043h4.245V137.62h-4.245v87.423zm4.725.957h-5.203c-.264 0-.48-.214-.48-.479v-88.38c0-.265.216-.479.48-.479h5.203c.264 0 .478.214.478.479v88.38c0 .265-.214.479-.478.479z" mask="url(#8ogo7mtp4d)"/>
                    </g>
                </g>
            </g>
        </g>
    </g>
</svg>
