<svg xmlns="http://www.w3.org/2000/svg" xmlns:xlink="http://www.w3.org/1999/xlink" width="270" height="336" viewBox="0 0 270 336">
    <defs>
        <path id="nouabp22ja" d="M0 223.422L205.542 223.422 205.542 0 0 0z"/>
    </defs>
    <g fill="none" fill-rule="evenodd">
        <g>
            <g transform="translate(-1297 -816) translate(1297 816)">
                <rect width="270" height="336" fill="#FFF" rx="2"/>
                <g transform="translate(32 76)">
                    <path fill="#C8C9C9" d="M205.542 117.645c0 56.59-45.873 102.463-102.463 102.463-56.59 0-102.464-45.873-102.464-102.463 0-56.588 45.875-102.463 102.464-102.463 56.59 0 102.463 45.875 102.463 102.463"/>
                    <path fill="#FEFEFE" d="M2.23 144.618L23.136 120.2l1.437-.638 6.384.16 10.974-19.433L57.77 79.183s7.186-4.47 24.26-11.81c0 0 .636-.16.875-1.678.24-1.515.161-6.224.161-6.224s-.4-.48-1.118-1.516c-.719-1.036-3.43-4.868-3.67-8.779V47.98s.161-.718-.479-.718c-.639 0-4.949.322-6.145-.875-1.197-1.198-2.712-3.352-2.554-6.464.16-3.113.8-5.11 4.39-6.865l4.31-9.736.077-5.746 5.587-2.872 6.784 2.236 9.735-2.393 10.614-.24 3.191 2.791 1.038 8.78.16 6.062s.158.718 1.196.88c1.038.16 3.273 1.196 4.231 2.633.957 1.436 2.474 5.825.717 8.54-1.755 2.711-4.069 3.67-7.74 3.351 0 0-.956-.48-.878.636.078 1.118-.877 7.501-3.35 9.816-2.476 2.315-1.245 1.294-1.245 1.294l-.034 7.006s-.318.557 1.038 1.197 20.27 9.018 24.1 11.73c3.83 2.712 16.76 11.812 19.95 18.117 3.191 6.302 12.688 22.66 12.688 22.66l9.175-.158 1.36.48 22.182 25.215.48 1.597-197.267.24-.957-.8s-.236-.48 1.597-1.755"/>
                    <path fill="#231916" d="M117.164 19.833v13.382c-.434-.103-.867-.17-1.335-.17h-3.372V19.216c0-1.649-1.804-3.193-3.807-3.193s-3.637 1.305-3.637 2.952v.138c0 2.985-4.306 5.386-9.614 5.386-5.341 0-9.647-2.401-9.647-5.386l-.033-.138c0-1.647-1.637-2.952-3.64-2.952s-3.604 1.544-3.604 3.193v13.829h-3.406c-.468 0-.901.067-1.336.17v-14.24C74.235 8.68 83.783.479 95.433.479c12.016 0 21.73 8.648 21.73 19.354M94.163 82.184L89.59 77.208 95.433 76.9 95.465 76.9 95.498 76.9 101.308 77.208 96.734 82.217 95.465 83.626z"/>
                    <path fill="#231916" d="M96.734 82.217L98.536 101.093 95.432 105.896 92.362 101.093 94.163 82.184 95.464 83.626zM82.98 67.288c-.264 0-.479-.215-.479-.479v-7.685c0-.264.215-.479.48-.479.263 0 .478.215.478.48v7.684c0 .264-.215.48-.479.48"/>
                    <mask id="9nch4gfmyb" fill="#fff">
                        <use xlink:href="#nouabp22ja"/>
                    </mask>
                    <path fill="#231916" d="M82.502 68.046L83.459 68.046 83.459 66.845 82.502 66.845zM107.438 68.046L108.395 68.046 108.395 66.845 107.438 66.845zM107.438 66.81L108.395 66.81 108.395 59.228 107.438 59.228zM108.395 59.191L107.438 59.191 108.395 59.088zM74.212 33.215h-.958v-14.24C73.772 8.325 83.514 0 95.432 0c12.248 0 22.21 8.898 22.21 19.833h-.956c0-10.408-9.535-18.875-21.254-18.875-11.407 0-20.728 7.924-21.22 18.039v14.218z" mask="url(#9nch4gfmyb)"/>
                    <path fill="#231916" d="M116.685 33.215L117.642 33.215 117.642 18.975 116.685 18.975zM95.465 64.92c-4.812 0-9.487-1.991-12.83-5.463l-.134-.172c-2.754-2.832-4.4-6.512-4.588-10.222-.013-.042-.019-.087-.019-.131v-.582h.959c0 3.76 1.629 7.55 4.466 10.4l.14.18c3.153 3.2 7.519 5.033 12.005 5.033 4.465 0 8.82-1.798 11.98-4.938l.132-.17c2.736-2.778 4.346-6.31 4.535-9.948v-1.622c0-.263.213-.478.477-.478.265 0 .48.215.48.478v1.647c-.198 3.834-1.855 7.53-4.672 10.454v.002l-.136.176c-3.35 3.404-8.014 5.357-12.796 5.357" mask="url(#9nch4gfmyb)"/>
                    <path fill="#231916" d="M78.374 48.828c-.264 0-.48-.215-.48-.479v-1.064c0-.264.216-.478.48-.478s.479.214.479.478v1.064c0 .264-.215.48-.48.48M115.828 47.764h-3.037c-.264 0-.48-.215-.48-.48 0-.262.216-.477.48-.477h3.037c3.067 0 5.562-2.572 5.562-5.732V39.29c0-2.674-1.823-5.033-4.333-5.607-.457-.108-.845-.16-1.23-.16h-3.371c-.264 0-.48-.214-.48-.478 0-.263.216-.478.48-.478h3.372c.46 0 .919.057 1.446.182 2.939.674 5.075 3.425 5.075 6.54v1.786c0 3.688-2.926 6.689-6.521 6.689" mask="url(#9nch4gfmyb)"/>
                    <path fill="#231916" d="M78.374 47.764h-3.305c-3.594 0-6.52-3.001-6.52-6.69V39.29c0-3.116 2.136-5.867 5.078-6.543.523-.123.98-.18 1.442-.18h3.305c.264 0 .479.215.479.478 0 .264-.215.479-.48.479H75.07c-.383 0-.772.05-1.225.157-2.514.576-4.337 2.935-4.337 5.609v1.785c0 3.16 2.495 5.732 5.562 5.732h3.305c.264 0 .479.215.479.478 0 .264-.215.479-.48.479" mask="url(#9nch4gfmyb)"/>
                    <path fill="#231916" d="M78.474 33.693c-.264 0-.479-.215-.479-.479V19.215c0-.263.215-.478.48-.478.263 0 .478.215.478.478v14c0 .263-.215.478-.479.478M112.456 33.693c-.264 0-.48-.215-.48-.479V19.215c0-.263.216-.478.48-.478s.479.215.479.478v14c0 .263-.215.478-.48.478M95.399 24.979c-5.679 0-10.126-2.576-10.126-5.866 0-.264.215-.48.479-.48.263 0 .478.216.478.48 0 2.707 4.113 4.907 9.169 4.907 5.036 0 9.135-2.2 9.135-4.907 0-.264.215-.48.478-.48.264 0 .479.216.479.48 0 3.29-4.433 5.866-10.092 5.866" mask="url(#9nch4gfmyb)"/>
                    <path fill="#231916" d="M78.474 19.694c-.264 0-.479-.215-.479-.479 0-1.99 1.871-3.67 4.083-3.67 2.271 0 4.12 1.538 4.12 3.43 0 .263-.216.478-.48.478s-.479-.215-.479-.479c0-1.363-1.417-2.472-3.16-2.472-1.666 0-3.126 1.267-3.126 2.713 0 .264-.215.48-.479.48M112.456 19.694c-.264 0-.48-.215-.48-.479 0-1.395-1.617-2.713-3.326-2.713-1.741 0-3.16 1.11-3.16 2.472 0 .264-.214.48-.477.48-.264 0-.48-.216-.48-.48 0-1.89 1.847-3.43 4.117-3.43 2.243 0 4.285 1.751 4.285 3.671 0 .264-.215.48-.48.48M51.545 119.212h87.804V92.1c0-10.681-10.172-14.784-10.275-14.825l-21.103-9.891L95.8 77.273c-.098.078-.212.123-.335.104-.093.019-.236-.026-.332-.104l-12.22-9.903-21.059 9.895c-.133.05-10.308 4.154-10.308 14.835v27.112zm88.282.958h-88.76c-.264 0-.48-.216-.48-.48V92.1c0-11.347 10.78-15.673 10.888-15.716l21.3-10.008c.168-.077.366-.055.505.062l12.184 9.873 12.151-9.873c.18-.15.443-.141.615.008l21.222 9.95c.078.03 10.856 4.357 10.856 15.704v27.59c0 .264-.216.48-.48.48z" mask="url(#9nch4gfmyb)"/>
                    <path fill="#231916" d="M78.474 78.305c-.155 0-.299-.075-.39-.202-.096-.133-.115-.307-.053-.458l4.496-10.957c.063-.193.243-.34.453-.34.264 0 .478.198.478.462v.035c0 .062-.012.124-.035.182l-4.218 10.279 16.201-.885.058.958-16.964.926h-.026z" mask="url(#9nch4gfmyb)"/>
                    <path fill="#231916" d="M112.456 78.305h-.025l-16.96-.926c-.257-.015-.476-.232-.468-.492.007-.258.202-.466.462-.466l16.26.885-4.168-10.163c-.074-.081-.12-.186-.12-.298 0-.264.216-.497.48-.497.147 0 .28.06.368.162.047.044.085.096.109.154l4.505 10.98c.062.152.043.326-.051.459-.092.127-.237.202-.392.202" mask="url(#9nch4gfmyb)"/>
                    <path fill="#231916" d="M95.465 84.105c-.136 0-.264-.06-.356-.157l-5.871-6.415c-.18-.195-.166-.499.028-.677.197-.18.497-.165.675.029l5.523 6.026 5.49-6.026c.18-.195.485-.209.677-.03.194.177.207.48.03.677l-5.841 6.413c-.09.1-.218.16-.355.16" mask="url(#9nch4gfmyb)"/>
                    <path fill="#231916" d="M92.361 101.571c-.015 0-.029 0-.044-.002-.265-.026-.457-.26-.433-.52l1.801-18.91c.025-.25.233-.452.48-.452h.02c.256.014.456.206.456.462v.034l-1.802 18.953c-.025.25-.233.435-.478.435M98.536 101.571c-.245 0-.453-.186-.478-.435l-1.8-18.875.476-.112h.479v.068l1.8 18.831c.024.261-.168.495-.432.521-.016.002-.03.002-.045.002" mask="url(#9nch4gfmyb)"/>
                    <path fill="#231916" d="M95.432 106.374h-.002c-.162 0-.313-.084-.4-.22l-3.073-4.803-19.126-29.614c-.144-.22-.08-.517.143-.662.222-.14.52-.08.661.143l21.8 33.793 21.826-33.793c.144-.223.44-.286.662-.143.222.145.286.441.142.662l-22.23 34.418c-.089.137-.24.22-.403.22M97.514 47.759h-2.132c-.613 0-1.134-.262-1.469-.735-.454-.646-.508-1.596-.147-2.604l1.861-5.19c.091-.248.368-.374.612-.29.25.09.38.363.29.612l-1.862 5.189c-.25.703-.239 1.349.031 1.73.153.22.382.33.684.33h2.132c.264 0 .48.215.48.479 0 .263-.216.479-.48.479M88.68 38.87c0 1.018-.806 1.845-1.8 1.845-.992 0-1.796-.827-1.796-1.846 0-1.02.804-1.85 1.795-1.85.995 0 1.8.83 1.8 1.85M105.654 38.87c0 1.018-.805 1.845-1.8 1.845-.991 0-1.795-.827-1.795-1.846 0-1.02.804-1.85 1.796-1.85.994 0 1.799.83 1.799 1.85M84.093 33.69c-.098 0-.195-.03-.279-.09-.215-.153-.264-.453-.11-.668.761-1.062 1.982-1.696 3.265-1.696 1.181 0 2.3.523 3.067 1.439.17.202.145.505-.057.675-.204.167-.505.142-.676-.058-.587-.699-1.438-1.099-2.334-1.099-.975 0-1.905.485-2.487 1.297-.094.131-.242.2-.389.2M106.645 33.69c-.147 0-.296-.069-.389-.2-.582-.813-1.513-1.297-2.487-1.297-.896 0-1.747.4-2.335 1.1-.17.2-.47.227-.675.056-.202-.17-.228-.472-.057-.674.768-.915 1.886-1.438 3.067-1.438 1.282 0 2.504.634 3.265 1.695.153.215.105.515-.11.668-.085.06-.18.09-.279.09M97.032 54.043h-3.098c-1.03 0-1.991-.567-2.507-1.481-.13-.231-.05-.522.18-.653.23-.13.523-.049.654.181.346.613.988.995 1.673.995h3.098c.687 0 1.326-.382 1.67-.993.13-.234.427-.318.65-.183.233.129.314.42.184.651-.512.915-1.472 1.483-2.504 1.483" mask="url(#9nch4gfmyb)"/>
                    <path fill="#FEFEFE" d="M108.078 57.466c0 2.064-1.631 3.74-3.64 3.74h-17.91c-2.01 0-3.64-1.676-3.64-3.74v-10.28c0-2.063 1.63-3.741 3.64-3.741h17.91c2.009 0 3.64 1.678 3.64 3.742v10.279z" mask="url(#9nch4gfmyb)"/>
                    <path fill="#231916" d="M86.528 43.925c-1.743 0-3.16 1.462-3.16 3.262v10.279c0 1.799 1.417 3.262 3.16 3.262h17.91c1.743 0 3.161-1.463 3.161-3.262v-10.28c0-1.8-1.418-3.261-3.161-3.261h-17.91zm17.91 17.76h-17.91c-2.271 0-4.118-1.893-4.118-4.22V47.188c0-2.327 1.847-4.22 4.118-4.22h17.91c2.271 0 4.118 1.893 4.118 4.22v10.279c0 2.326-1.847 4.219-4.118 4.219z" mask="url(#9nch4gfmyb)"/>
                    <path fill="#231916" d="M83.681 44.62c-.18 0-.352-.1-.434-.275l-5.22-11.106c-.114-.239-.01-.525.228-.638.238-.104.525-.01.638.23l5.223 11.106c.111.24.008.526-.23.638-.066.03-.136.045-.205.045M106.637 44.62c-.076 0-.153-.019-.224-.056-.234-.124-.322-.414-.198-.647l5.81-10.93c.125-.236.418-.32.646-.199.234.124.321.414.198.647l-5.809 10.931c-.086.162-.252.254-.423.254" mask="url(#9nch4gfmyb)"/>
                    <path fill="#FEFEFE" d="M0.479 156.099L198.904 156.099 198.904 146.1 0.479 146.1z" mask="url(#9nch4gfmyb)"/>
                    <path fill="#231916" d="M.958 155.619h197.468v-9.041H.958v9.041zm-.959.958h199.383v-10.956H-.001v10.956z" mask="url(#9nch4gfmyb)"/>
                    <path fill="#FEFEFE" d="M198.904 146.1L175.558 119.656" mask="url(#9nch4gfmyb)"/>
                    <path fill="#231916" d="M198.545 146.416L175.2 119.972 175.918 119.339 199.264 145.783z" mask="url(#9nch4gfmyb)"/>
                    <path fill="#FEFEFE" d="M0.479 146.1L23.82 119.656" mask="url(#9nch4gfmyb)"/>
                    <path fill="#231916" d="M0.838 146.416L0.119 145.783 23.462 119.339 24.18 119.972z" mask="url(#9nch4gfmyb)"/>
                    <path fill="#FEFEFE" d="M175.558 119.655L23.82 119.655" mask="url(#9nch4gfmyb)"/>
                    <path fill="#231916" d="M23.82 120.134L175.559 120.134 175.559 119.177 23.82 119.177z" mask="url(#9nch4gfmyb)"/>
                    <path fill="#FEFEFE" d="M16.04 222.943L183.34 222.943 183.34 156.098 16.04 156.098z" mask="url(#9nch4gfmyb)"/>
                    <path fill="#231916" d="M16.518 222.465H182.86v-65.888H16.518v65.888zm-.957.957h168.257v-67.803H15.561v67.803z" mask="url(#9nch4gfmyb)"/>
                    <path fill="#FEFEFE" d="M167.292 122.531l-16.298-29.025V70.95c1.553-.37 2.716-1.803 2.716-3.516 0-1.996-1.578-3.614-3.516-3.614h-16.436c-1.942 0-3.513 1.618-3.513 3.614 0 1.713 1.16 3.146 2.716 3.516v22.556l-16.302 29.025c-3.284 5.846-.595 10.633 5.97 10.633h38.693c6.569 0 9.254-4.787 5.97-10.633" mask="url(#9nch4gfmyb)"/>
                    <path fill="#FEFEFE" d="M133.757 64.3c-1.672 0-3.034 1.406-3.034 3.135 0 1.466.966 2.72 2.347 3.05l.37.087v23.06l-.063.108-16.302 29.026c-1.524 2.716-1.76 5.24-.668 7.11 1.061 1.813 3.27 2.81 6.221 2.81h38.693c2.952 0 5.163-.997 6.221-2.808 1.094-1.872.86-4.396-.668-7.112l-16.359-29.134v-23.06l.368-.087c1.383-.33 2.348-1.584 2.348-3.05 0-1.73-1.364-3.135-3.037-3.135h-16.437zm27.564 69.344h-38.693c-3.305 0-5.807-1.166-7.047-3.283-1.273-2.177-1.038-5.04.66-8.063l16.241-28.917V71.31c-1.617-.554-2.716-2.095-2.716-3.875 0-2.256 1.79-4.093 3.991-4.093h16.437c2.203 0 3.994 1.837 3.994 4.093 0 1.778-1.1 3.32-2.715 3.875v22.07l16.235 28.918c1.7 3.023 1.935 5.888.661 8.063-1.238 2.117-3.74 3.283-7.048 3.283z" mask="url(#9nch4gfmyb)"/>
                    <path fill="#FEFEFE" d="M167.292 122.531l-16.298-29.025V70.95c1.553-.37 2.716-1.803 2.716-3.516 0-1.996-1.578-3.614-3.516-3.614h-16.436c-1.942 0-3.513 1.618-3.513 3.614 0 1.713 1.16 3.146 2.716 3.516v22.556l-16.302 29.025c-3.284 5.846-.595 10.633 5.97 10.633h38.693c6.569 0 9.254-4.787 5.97-10.633" mask="url(#9nch4gfmyb)"/>
                    <path fill="#231916" d="M133.757 64.3c-1.672 0-3.034 1.406-3.034 3.135 0 1.466.966 2.72 2.347 3.05l.37.087v23.06l-.063.108-16.302 29.026c-1.524 2.716-1.76 5.24-.668 7.11 1.061 1.813 3.27 2.81 6.221 2.81h38.693c2.952 0 5.163-.997 6.221-2.808 1.094-1.872.86-4.396-.668-7.112l-16.359-29.134v-23.06l.368-.087c1.383-.33 2.348-1.584 2.348-3.05 0-1.73-1.364-3.135-3.037-3.135h-16.437zm27.564 69.344h-38.693c-3.305 0-5.807-1.166-7.047-3.283-1.273-2.177-1.038-5.04.66-8.063l16.241-28.917V71.31c-1.617-.554-2.716-2.095-2.716-3.875 0-2.256 1.79-4.093 3.991-4.093h16.437c2.203 0 3.994 1.837 3.994 4.093 0 1.778-1.1 3.32-2.715 3.875v22.07l16.235 28.918c1.7 3.023 1.935 5.888.661 8.063-1.238 2.117-3.74 3.283-7.048 3.283z" mask="url(#9nch4gfmyb)"/>
                    <path fill="#231916" d="M158.578 119.887c2.149 3.835.39 6.973-3.908 6.973h-25.388c-4.298 0-6.061-3.138-3.903-6.973l7.836-13.965c3.862.387 4.199 2.996 8.669 2.996 4.532 0 4.806-2.685 8.84-3.011l7.854 13.98z" mask="url(#9nch4gfmyb)"/>
                    <path fill="#FEFEFE" d="M67.694 122.07l-12.228-21.782V83.363c1.167-.278 2.035-1.352 2.035-2.639 0-1.496-1.182-2.712-2.637-2.712H42.531c-1.455 0-2.637 1.216-2.637 2.712 0 1.287.867 2.361 2.038 2.64v16.924L29.701 122.07c-2.466 4.386-.449 7.978 4.481 7.978h29.034c4.927 0 6.943-3.592 4.478-7.978" mask="url(#9nch4gfmyb)"/>
                    <path fill="#FEFEFE" d="M42.53 78.491c-1.188 0-2.157 1.003-2.157 2.233 0 1.046.686 1.94 1.67 2.173l.368.088v17.428l-.062.108-12.231 21.783c-1.122 2-1.302 3.85-.503 5.215.772 1.321 2.395 2.048 4.567 2.048h29.035c2.169 0 3.79-.727 4.563-2.048.799-1.365.619-3.216-.503-5.215l-12.29-21.89V82.984l.369-.088c.98-.233 1.666-1.127 1.666-2.173 0-1.23-.97-2.233-2.158-2.233H42.53zm20.687 52.034H34.182c-2.527 0-4.442-.895-5.394-2.52-.977-1.673-.801-3.864.496-6.169l12.17-21.673V83.717c-1.218-.455-2.04-1.635-2.04-2.993 0-1.759 1.398-3.19 3.117-3.19h12.333c1.719 0 3.116 1.431 3.116 3.19 0 1.358-.82 2.538-2.035 2.993v16.446l12.166 21.673c1.296 2.305 1.472 4.498.496 6.168-.952 1.626-2.865 2.521-5.39 2.521z" mask="url(#9nch4gfmyb)"/>
                    <path fill="#FEFEFE" d="M67.694 122.07l-12.228-21.782V83.363c1.167-.278 2.035-1.352 2.035-2.639 0-1.496-1.182-2.712-2.637-2.712H42.531c-1.455 0-2.637 1.216-2.637 2.712 0 1.287.867 2.361 2.038 2.64v16.924L29.701 122.07c-2.466 4.386-.449 7.978 4.481 7.978h29.034c4.927 0 6.943-3.592 4.478-7.978" mask="url(#9nch4gfmyb)"/>
                    <path fill="#231916" d="M42.53 78.491c-1.188 0-2.157 1.003-2.157 2.233 0 1.046.686 1.94 1.67 2.173l.368.088v17.428l-.062.108-12.231 21.783c-1.122 2-1.302 3.85-.503 5.215.772 1.321 2.395 2.048 4.567 2.048h29.035c2.169 0 3.79-.727 4.563-2.048.799-1.365.619-3.216-.503-5.215l-12.29-21.89V82.984l.369-.088c.98-.233 1.666-1.127 1.666-2.173 0-1.23-.97-2.233-2.158-2.233H42.53zm20.687 52.034H34.182c-2.527 0-4.442-.895-5.394-2.52-.977-1.673-.801-3.864.496-6.169l12.17-21.673V83.717c-1.218-.455-2.04-1.635-2.04-2.993 0-1.759 1.398-3.19 3.117-3.19h12.333c1.719 0 3.116 1.431 3.116 3.19 0 1.358-.82 2.538-2.035 2.993v16.446l12.166 21.673c1.296 2.305 1.472 4.498.496 6.168-.952 1.626-2.865 2.521-5.39 2.521z" mask="url(#9nch4gfmyb)"/>
                    <path fill="#231916" d="M39.18 125.318c-3.234 0-4.557-2.354-2.938-5.236l5.882-10.476c2.896.29 3.15 2.244 6.507 2.244 3.406 0 3.613-2.01 6.633-2.256 0-.004.003 0 .003 0l5.887 10.488c1.615 2.882.293 5.236-2.937 5.236H39.18z" mask="url(#9nch4gfmyb)"/>
                </g>
            </g>
        </g>
    </g>
</svg>
