<svg xmlns="http://www.w3.org/2000/svg" xmlns:xlink="http://www.w3.org/1999/xlink" width="270" height="336" viewBox="0 0 270 336">
    <defs>
        <path id="tiys6iy6ba" d="M0 0.474L206.259 0.474 206.259 206.886 0 206.886z"/>
    </defs>
    <g fill="none" fill-rule="evenodd">
        <g>
            <g transform="translate(-409 -816) translate(409 816)">
                <rect width="270" height="336" fill="#FFF" rx="2"/>
                <g>
                    <path fill="#C8C9C9" d="M208.979 107.064c0 56.588-45.873 102.463-102.463 102.463-56.59 0-102.464-45.875-102.464-102.463C4.052 50.476 49.927 4.6 106.516 4.6c56.59 0 102.463 45.875 102.463 102.463" transform="translate(31 83)"/>
                    <path fill="#FEFEFE" d="M51.177 125.748L205.781 125.748 205.781 115.397 51.177 115.397z" transform="translate(31 83)"/>
                    <g transform="translate(31 83) translate(0 .527)">
                        <mask id="hgub68f97b" fill="#fff">
                            <use xlink:href="#tiys6iy6ba"/>
                        </mask>
                        <path fill="#231916" d="M51.656 124.743h153.646v-9.394H51.656v9.394zm154.125.957H51.177c-.264 0-.478-.215-.478-.479v-10.35c0-.264.214-.479.478-.479h154.604c.263 0 .478.215.478.479v10.35c0 .264-.215.479-.478.479z" mask="url(#hgub68f97b)"/>
                        <path fill="#FEFEFE" d="M188.028 21.159l-9.944 76.065c0 1.492-1.184 2.706-2.651 2.706H80.046c-1.078 0-2.015-.67-2.42-1.615h93.18c1.448 0 2.632-1.218 2.632-2.723l9.185-70.275.759-5.774c0-.381-.087-.763-.23-1.09h2.05l2.067.836h.018c.459.472.74 1.142.74 1.87" mask="url(#hgub68f97b)"/>
                        <path fill="#FEFEFE" d="M183.382 19.543l-.76 5.774-3.886-.546h-92.95l-8.39 61.504-3.375-.473 8.674-66.26c0-1.49 1.182-2.706 2.65-2.706h95.39c1.076 0 2.01.673 2.417 1.617.142.326.23.709.23 1.09" mask="url(#hgub68f97b)"/>
                        <path fill="#FEFEFE" d="M182.622 25.317l-9.185 70.274c0 1.506-1.184 2.724-2.63 2.724H75.397c-.035 0-.088 0-.123-.02l-1.66-.706-.036-.018c-.513-.51-.83-1.2-.83-1.98l1.271-9.79 3.374.475h92.97l8.371-61.504 3.887.545z" mask="url(#hgub68f97b)"/>
                        <path fill="#231916" d="M178.736 24.772L170.365 86.276 77.395 86.276 85.786 24.772z" mask="url(#hgub68f97b)"/>
                        <path fill="#231916" d="M75.409 97.837h95.396c1.189 0 2.153-1.008 2.153-2.246l9.948-76.11c-.004-.236-.07-.556-.194-.838-.346-.808-1.123-1.328-1.978-1.328h-95.39c-1.197 0-2.17 1-2.17 2.227l-9.95 76.111c.004.535.231 1.096.647 1.532.028.019.056.04.08.064.358.354.833.556 1.338.568.04.002.08.008.12.02m95.396.956H75.398c-.044 0-.12 0-.206-.022-.698-.035-1.354-.314-1.863-.793-.03-.018-.06-.04-.086-.067-.626-.624-.974-1.445-.974-2.32l1.276-9.85 8.675-66.26c-.004-1.695 1.4-3.123 3.124-3.123h95.39c1.237 0 2.36.748 2.857 1.905.175.404.27.847.27 1.28l-9.948 76.11c.004 1.704-1.393 3.14-3.108 3.14" mask="url(#hgub68f97b)"/>
                        <path fill="#231916" d="M175.433 100.41H80.045c-1.24 0-2.362-.748-2.86-1.906-.105-.243.008-.524.25-.628.24-.104.526.007.63.25.346.806 1.124 1.326 1.98 1.326h95.388c1.197 0 2.17-.998 2.17-2.228l9.949-76.127c-.003-.52-.223-1.08-.61-1.475-.183-.19-.18-.492.012-.677.189-.181.492-.178.677.01.556.573.875 1.376.875 2.204l-9.948 76.127c.004 1.695-1.4 3.124-3.125 3.124" mask="url(#hgub68f97b)"/>
                        <path fill="#231916" d="M187.268 19.767c-.127 0-.254-.05-.35-.15-.407-.437-.968-.686-1.54-.686h-2.226c-.264 0-.48-.215-.48-.478 0-.264.216-.479.48-.479h2.227c.834 0 1.65.358 2.239.987.179.193.17.495-.023.677-.091.086-.21.13-.327.13M78.173 85.596h91.6l8.184-60.146H86.378l-8.205 60.146zm92.191 1.358H77.395c-.197 0-.382-.084-.51-.232-.13-.147-.19-.344-.164-.538l8.39-61.504c.047-.336.335-.587.673-.587h92.952c.196 0 .381.084.51.232.13.148.19.344.163.54l-8.372 61.502c-.047.336-.335.587-.673.587z" mask="url(#hgub68f97b)"/>
                        <path fill="#231916" d="M187.286 19.767h-.018c-.061 0-.121-.01-.18-.035l-5.207-2.088c-.245-.099-.365-.376-.268-.622.099-.245.38-.36.621-.268l5.194 2.081c.188.066.328.244.328.453 0 .264-.206.48-.47.48M79.056 100.41c-.064 0-.13-.014-.191-.04l-5.437-2.34.151-.46.223-.424.035.019 5.409 2.327c.242.105.354.387.249.63-.079.18-.254.288-.439.288" mask="url(#hgub68f97b)"/>
                        <path fill="#FEFEFE" d="M113.17 114.871L143.42 114.871 143.42 99.933 113.17 99.933z" mask="url(#hgub68f97b)"/>
                        <path fill="#231916" d="M113.649 114.392h29.293v-13.98h-29.293v13.98zm29.772.957H113.17c-.263 0-.478-.215-.478-.478V99.933c0-.264.215-.479.478-.479h30.251c.264 0 .479.215.479.479v14.938c0 .263-.215.478-.479.478z" mask="url(#hgub68f97b)"/>
                        <path fill="#FEFEFE" d="M139.447 99.932L139.447 114.87" mask="url(#hgub68f97b)"/>
                        <path fill="#231916" d="M139.447 115.35c-.264 0-.48-.216-.48-.48V99.933c0-.265.216-.48.48-.48s.479.215.479.48v14.937c0 .264-.215.48-.48.48" mask="url(#hgub68f97b)"/>
                        <path fill="#FEFEFE" d="M116.72 42.067l-1.762-.13-10.244-12.334c-.807-1.058-1.59-1.59-2.338-1.59h-1.423l6.494 14.264-9.007.685-3.524-4.048h-2.727l3.61 5.674-3.602 6.232h2.722l3.521-4.047 9.007.689-6.494 14.33h1.423c.748 0 1.531-.532 2.338-1.59l10.244-12.333 1.762-.131c.413-.056.799-.105 1.145-.15.351-.041.804-.134 1.361-.278.554-.144 1.105-.445 1.65-.902.542-.458.818-.96.818-1.505 0-1.604-1.66-2.546-4.974-2.836M133.613 60.523l1.175-1.427c.213-.247.123-.454-.196-.458l-6.152-.086c-.318 0-.482.243-.355.544l2.315 5.767c.119.303.348.313.497.025l.917-1.694c1.345 1.343 2.183 3.225 2.183 5.305 0 .411-.036.815-.096 1.206l3.082.544c.094-.569.143-1.152.143-1.75 0-3.176-1.358-6.031-3.513-7.976M116.642 66.296l-1.788-.33c-.316-.065-.445.12-.284.405l3 5.516c.153.288.44.308.639.05l3.698-4.943c.192-.26.093-.468-.225-.458l-1.891.03c.462-1.867 1.627-3.552 3.385-4.595.345-.202.7-.372 1.059-.517l-1.077-3.016c-.528.204-1.045.451-1.545.75-2.684 1.586-4.403 4.22-4.971 7.108M129.989 78.527l.616 1.755c.102.31.319.336.487.054l3.146-5.428c.164-.28.039-.548-.277-.593l-6.015-.825c-.316-.043-.437.152-.272.433l.969 1.664c-1.804.524-3.81.329-5.557-.716-.351-.206-.672-.437-.972-.691l-2.001 2.473c.435.37.9.703 1.399 1.003 2.68 1.59 5.76 1.808 8.477.87M157.328 51.539c-.79 0-1.429-.67-1.429-1.495 0-.824.638-1.494 1.43-1.494.788 0 1.428.67 1.428 1.494 0 .825-.64 1.495-1.429 1.495m-13.762.049c-.79 0-1.432-.668-1.432-1.497 0-.826.641-1.492 1.432-1.492.785 0 1.43.666 1.43 1.492 0 .829-.645 1.497-1.43 1.497m-.79-14.031c.263-1.026.42-1.396 1.51-1.396 1.165 0 2.321 0 3.488-.004 3 0 6-.004 9-.004.928 0 1.272 1.008 1.4 1.792.175 1.03.286 2.11.286 3.16v1.837c0 .38.041.788-.002 1.164-.055.442-.296.507-.678.507h-.18l-14.677-.006c-.565-.082-.606-.351-.606-.692 0-2.136-.07-4.268.458-6.358m3.127-3.636h8.856c.238 0 .505.089.598.327.113.284.021.529-.168.673-.112.092-.265.144-.43.144H145.94c-.27-.004-.448-.077-.558-.353-.156-.37.137-.791.521-.791m15.023 19.288c-.002-.07-.006-.133-.006-.191V36.472c0-2.873-2.285-5.211-5.099-5.211h-10.75c-2.815 0-5.102 2.338-5.102 5.21v16.635c0 .622 0 1.568 1.058 1.87.068.017.137.028.202.028h3.08l.008.002c.045.006.084.012.127.012h14.988c.284 0 .762-.002 1.126-.386.178-.187.29-.426.347-.735.045-.25.031-.494.021-.688M142.179 55.761V57c0 .853.669 1.545 1.5 1.545.83 0 1.504-.692 1.504-1.545v-1.238h-3.004zM156.464 55.761V57c0 .853.672 1.545 1.502 1.545.832 0 1.506-.692 1.506-1.545v-1.238h-3.008z" mask="url(#hgub68f97b)"/>
                        <path fill="#FEFEFE" d="M164.05 44.768c-.013-.348-.182-.576-.46-.685h-1.649c-.257.13-.23.636-.23.883v.651h-.843c-.31 0-.562.257-.562.576 0 .316.252.576.562.576h.842c.017.008.034.258.04.292.015.065.127.448.205.448h.906c.394-.235.841-.838.987-1.11.255-.464.224-1.12.202-1.63M136.796 44.768c.021-.343.187-.57.464-.682h1.643c.261.128.237.637.237.887v.648h.84c.306 0 .56.257.56.574 0 .32-.254.578-.56.578h-.84c-.02.004-.034.258-.042.288-.013.065-.125.452-.207.452h-.902c-.393-.235-.84-.838-.989-1.114-.253-.46-.223-1.119-.204-1.63M173.858 194.812L205.781 194.812 205.781 125.221 173.858 125.221z" mask="url(#hgub68f97b)"/>
                        <path fill="#231916" d="M174.337 194.333h30.965V125.7h-30.965v68.633zm-.958.958h32.88v-70.548h-32.88v70.548z" mask="url(#hgub68f97b)"/>
                        <path fill="#FEFEFE" d="M173.858 114.871L173.858 114.871 173.858 125.222z" mask="url(#hgub68f97b)"/>
                        <path fill="#231916" d="M173.379 125.221L174.337 125.221 174.337 114.87 173.379 114.87z" mask="url(#hgub68f97b)"/>
                        <path fill="#FEFEFE" d="M167.878 194.812L173.858 194.812 173.858 125.221 167.878 125.221z" mask="url(#hgub68f97b)"/>
                        <path fill="#231916" d="M168.356 194.333h5.023V125.7h-5.023v68.633zm-.958.958h6.939v-70.548h-6.939v70.548z" mask="url(#hgub68f97b)"/>
                        <path fill="#FEFEFE" d="M57.159 194.812L89.081 194.812 89.081 125.221 57.159 125.221z" mask="url(#hgub68f97b)"/>
                        <path fill="#231916" d="M57.637 194.333h30.965V125.7H57.637v68.633zm-.958.958H89.56v-70.548H56.679v70.548z" mask="url(#hgub68f97b)"/>
                        <path fill="#FEFEFE" d="M51.178 194.812L57.159 194.812 57.159 125.221 51.178 125.221z" mask="url(#hgub68f97b)"/>
                        <path fill="#231916" d="M51.856 194.132h4.623V125.9h-4.623v68.232zm-1.358 1.359h7.339v-70.948h-7.339v70.948z" mask="url(#hgub68f97b)"/>
                        <path fill="#FEFEFE" d="M170.867 201.583L176.832 201.583 176.832 194.812 170.867 194.812z" mask="url(#hgub68f97b)"/>
                        <path fill="#231916" d="M171.346 201.103h5.007v-5.812h-5.007v5.812zm-.957.958h6.922v-7.729h-6.922v7.729z" mask="url(#hgub68f97b)"/>
                        <path fill="#FEFEFE" d="M195.748 201.583L201.711 201.583 201.711 194.812 195.748 194.812z" mask="url(#hgub68f97b)"/>
                        <path fill="#231916" d="M196.227 201.103h5.005v-5.812h-5.005v5.812zm-.957.958h6.92v-7.729h-6.92v7.729z" mask="url(#hgub68f97b)"/>
                        <path fill="#FEFEFE" d="M55.368 201.583L61.332 201.583 61.332 194.812 55.368 194.812z" mask="url(#hgub68f97b)"/>
                        <path fill="#231916" d="M55.847 201.103h5.007v-5.812h-5.007v5.812zm-.957.958h6.922v-7.729H54.89v7.729z" mask="url(#hgub68f97b)"/>
                        <path fill="#FEFEFE" d="M80.249 201.583L86.213 201.583 86.213 194.812 80.249 194.812z" mask="url(#hgub68f97b)"/>
                        <path fill="#231916" d="M80.728 201.103h5.007v-5.812h-5.007v5.812zm-.958.958h6.923v-7.729H79.77v7.729z" mask="url(#hgub68f97b)"/>
                        <path fill="#FEFEFE" d="M123.115 114.112c-.926-5.507-7.846-9.03-15.484-7.878-7.61 1.178-13.06 6.587-12.135 12.093.926 5.507 7.859 9.015 15.482 7.848 7.624-1.167 13.048-6.572 12.137-12.063" mask="url(#hgub68f97b)"/>
                        <path fill="#231916" d="M110.507 106.496c-.917 0-1.855.069-2.806.21-4.292.667-8.102 2.788-10.187 5.676-1.343 1.859-1.878 3.888-1.547 5.867.881 5.235 7.573 8.58 14.938 7.453 4.29-.656 8.093-2.766 10.178-5.644 1.35-1.86 1.888-3.887 1.561-5.868-.768-4.56-5.952-7.694-12.137-7.694m-2.426 20.38c-6.636 0-12.215-3.454-13.056-8.47-.376-2.235.216-4.513 1.712-6.585 2.234-3.092 6.278-5.357 10.821-6.06 7.87-1.186 15.065 2.525 16.028 8.272h.002c.37 2.239-.227 4.515-1.728 6.588-2.234 3.08-6.275 5.334-10.809 6.027-1.004.154-1.999.229-2.97.229" mask="url(#hgub68f97b)"/>
                        <path fill="#FEFEFE" d="M62.092 39.63c0-1.317 1.025-2.37 2.304-2.37 1.266 0 2.304 1.053 2.304 2.37 0 1.3-1.038 2.353-2.304 2.353-1.279 0-2.304-1.053-2.304-2.353m-16.94 0c0-1.317 1.022-2.37 2.303-2.37 1.266 0 2.304 1.053 2.304 2.37 0 1.3-1.038 2.353-2.304 2.353-1.28 0-2.304-1.053-2.304-2.353M17.64 43.591c0 4.461 2.788 6.844 8.193 6.844 1.736 5.528 6.758 10.382 10.825 13.498 3.456 2.646 7.54 4.181 11.935 4.181.827 0 1.651-.057 2.448-.16 11.224-1.478 19.987-13 19.987-26.979V20.706H39.005s-6.23.6-6.23 10.764v3.48s-2.12.22-4.025 3.232v.131l.028 2.091h-2.946v-3.86c-1.763 0-3.398.176-4.735.746-2.092.862-3.458 2.69-3.458 6.301" mask="url(#hgub68f97b)"/>
                        <path fill="#231916" d="M21.026 18.324v18.775l.07.192c1.338-.571 2.973-.746 4.737-.746v3.86h2.945l-.027-2.092v-.131c1.905-3.012 4.024-3.231 4.024-3.231V31.47c0-10.164 6.23-10.763 6.23-10.763h32.022S72.464.952 53.642.952H37.34s-8.932.38-8.932 9.284c-.213 0-7.382.06-7.382 8.088" mask="url(#hgub68f97b)"/>
                        <path fill="#FEFEFE" d="M36.657 63.933v7.414c0 4.08 3.216 7.4 7.2 7.4 3.968 0 7.184-3.32 7.184-7.4v-3.393c-.797.103-1.621.161-2.448.161-4.397 0-8.48-1.536-11.936-4.182" mask="url(#hgub68f97b)"/>
                        <path fill="#231916" d="M47.455 37.26c-1.28 0-2.305 1.053-2.305 2.37 0 1.3 1.024 2.353 2.305 2.353 1.266 0 2.304-1.053 2.304-2.353 0-1.317-1.038-2.37-2.304-2.37M64.396 37.26c-1.278 0-2.304 1.053-2.304 2.37 0 1.3 1.026 2.353 2.304 2.353 1.267 0 2.305-1.053 2.305-2.353 0-1.317-1.038-2.37-2.305-2.37M25.832 50.914c-7.169 0-8.673-3.981-8.673-7.322 0-3.495 1.23-5.702 3.754-6.744 1.251-.534 2.815-.783 4.92-.783.263 0 .478.215.478.48v3.86c0 .264-.215.479-.479.479s-.479-.215-.479-.48v-3.377c-1.728.035-3.03.262-4.07.703-2.162.892-3.166 2.755-3.166 5.862 0 4.223 2.596 6.364 7.715 6.364.264 0 .48.216.48.479 0 .264-.216.479-.48.479" mask="url(#hgub68f97b)"/>
                        <path fill="#231916" d="M48.592 68.593c-4.34 0-8.568-1.479-12.227-4.28-3.284-2.516-9.078-7.645-10.99-13.735-.08-.252.061-.52.313-.6.265-.076.524.062.6.312 1.833 5.84 7.467 10.817 10.661 13.263 3.49 2.671 7.515 4.083 11.643 4.083.778 0 1.58-.053 2.387-.157 11.156-1.468 19.568-12.863 19.568-26.504v-19.79H39.005c-.265 0-.479-.215-.479-.479 0-.263.214-.479.48-.479h32.021c.263 0 .478.216.478.48v20.268c0 14.12-8.77 25.922-20.403 27.454-.848.108-1.69.164-2.51.164" mask="url(#hgub68f97b)"/>
                        <path fill="#231916" d="M51.04 71.826c-.264 0-.479-.215-.479-.48v-3.392c0-.264.215-.48.48-.48.263 0 .478.216.478.48v3.393c0 .264-.215.479-.479.479M28.75 38.662c-.089 0-.177-.024-.257-.075-.223-.141-.29-.436-.147-.66 1.512-2.393 3.181-3.135 3.95-3.36V31.47c0-10.478 6.597-11.234 6.662-11.242.282-.031.495.167.521.429.027.264-.165.497-.426.525-.238.025-5.8.718-5.8 10.288v3.48c0 .245-.185.45-.43.477-.073.007-1.93.26-3.67 3.01-.09.145-.245.224-.404.224M50.726 34.626h-6.542c-.264 0-.48-.216-.48-.48s.216-.479.48-.479h6.542c.264 0 .479.215.479.48 0 .263-.215.479-.48.479M67.67 34.626h-6.545c-.264 0-.479-.216-.479-.48s.215-.479.48-.479h6.543c.264 0 .48.215.48.48 0 .263-.216.479-.48.479" mask="url(#hgub68f97b)"/>
                        <path fill="#231916" d="M43.857 79.224c-4.234 0-7.678-3.532-7.678-7.877v-7.414c0-.264.215-.48.479-.48.263 0 .478.216.478.48v7.414c0 3.815 3.016 6.92 6.72 6.92 3.698 0 6.706-3.105 6.706-6.92 0-.264.215-.479.479-.479.263 0 .478.215.478.48 0 4.344-3.437 7.876-7.662 7.876M28.778 40.883h-2.945c-.264 0-.48-.215-.48-.479s.216-.479.48-.479h2.46l-.022-1.606c-.004-.264.208-.48.474-.485h.005c.262 0 .475.21.479.474l.028 2.091c0 .127-.048.25-.138.341-.09.092-.214.143-.341.143M21.026 37.579c-.264 0-.48-.216-.48-.48V18.325c0-7.35 5.679-8.394 7.39-8.542.3-8.818 9.292-9.305 9.384-9.308h16.322c5.525 0 9.885 1.675 12.957 4.98 5.516 5.933 4.933 14.908 4.905 15.288-.017.262-.274.49-.511.44-.264-.017-.462-.246-.444-.51.006-.09.577-8.948-4.657-14.571-2.884-3.1-7.006-4.67-12.25-4.67H37.34c-.325.015-8.454.475-8.454 8.805 0 .264-.214.48-.478.48-.282 0-6.903.086-6.903 7.608V37.1c0 .263-.215.479-.48.479M61.907 49.6h-6.073c-.264 0-.48-.217-.48-.48 0-.264.216-.479.48-.479h5.394L57.43 38.022c-.09-.249.04-.523.29-.612.242-.084.524.04.612.29l4.025 11.26c.052.145.029.308-.06.435-.09.13-.236.204-.391.204M58.437 55.784h-4.425c-1.387 0-2.685-.771-3.388-2.013-.13-.23-.05-.521.18-.652.229-.13.523-.05.654.182.533.94 1.512 1.526 2.554 1.526h4.425c1.059 0 2.015-.571 2.556-1.526.13-.231.42-.311.652-.182.23.13.31.423.182.652-.715 1.26-1.981 2.013-3.39 2.013" mask="url(#hgub68f97b)"/>
                        <path fill="#231916" d="M59.485 16.432s-.912 14.205-13.817 14.205c-12.906 0-13.21 4.375-13.21 4.375l-3.693-18.58h30.72z" mask="url(#hgub68f97b)"/>
                        <path fill="#231916" d="M29.349 16.912l3.31 16.658c1.17-1.425 4.354-3.411 13.008-3.411 11.1 0 12.998-10.723 13.292-13.247h-29.61zm3.108 18.574c-.228 0-.424-.155-.469-.38l-3.693-18.58c-.027-.14.01-.286.1-.396.092-.113.226-.176.37-.176h30.72c.133 0 .258.055.349.15.09.097.137.228.128.359-.009.147-1.094 14.654-14.295 14.654-12.146 0-12.729 3.899-12.733 3.939-.026.235-.221.42-.456.43h-.021z" mask="url(#hgub68f97b)"/>
                        <path fill="#FEFEFE" d="M99.427 109.965v14.367H76.834c-2.403 0-4.622-1.267-5.905-3.346l-5.779-9.413v25.657h-9.33V73.561c4.214 2.46 7.308 5.955 8.614 9.972l16.245 26.432h18.748z" mask="url(#hgub68f97b)"/>
                        <path fill="#231916" d="M55.819 136.99v.24h-3.845V71.724c1.367.52 2.65 1.142 3.845 1.837v63.43z" mask="url(#hgub68f97b)"/>
                        <path fill="#FEFEFE" d="M51.974 136.99v.24H29.219V72.144l-.011-.04c3.499-1.494 7.543-2.343 11.856-2.343 3.933 0 7.642.709 10.91 1.963v65.267z" mask="url(#hgub68f97b)"/>
                        <path fill="#231916" d="M29.22 136.99v.24h-3.846V74.132c1.184-.773 2.465-1.444 3.834-2.028l.011.04v64.847z" mask="url(#hgub68f97b)"/>
                        <path fill="#FEFEFE" d="M25.374 136.99v.24H16.98v-49.4c0-5.475 3.255-10.392 8.395-13.698v62.859z" mask="url(#hgub68f97b)"/>
                        <path fill="#231916" d="M17.458 136.751h47.213v-25.178c0-.215.141-.401.348-.46.206-.064.428.028.54.21l5.778 9.413c1.206 1.953 3.26 3.118 5.496 3.118h22.115v-13.41H80.68c-.166 0-.322-.087-.408-.228L64.025 83.785c-1.29-3.928-4.273-7.376-8.448-9.81-1.208-.703-2.478-1.31-3.774-1.803-3.338-1.281-6.952-1.932-10.74-1.932-4.1 0-8.135.797-11.667 2.303-1.367.584-2.63 1.252-3.76 1.988-5.199 3.345-8.178 8.191-8.178 13.298v48.922zm47.691.958H16.98c-.263 0-.478-.215-.478-.478V87.83c0-5.439 3.14-10.579 8.612-14.1 1.175-.767 2.49-1.463 3.908-2.068 3.647-1.556 7.812-2.38 12.042-2.38 3.906 0 7.633.672 11.083 1.996 1.344.51 2.661 1.14 3.914 1.87 4.378 2.553 7.513 6.19 8.828 10.239l16.058 26.099h18.481c.263 0 .478.215.478.48v14.367c0 .264-.215.478-.478.478H76.833c-2.57 0-4.93-1.335-6.312-3.574l-4.893-7.968v23.962c0 .263-.215.478-.479.478z" mask="url(#hgub68f97b)"/>
                        <path fill="#231916" d="M55.819 137.47c-.264 0-.48-.216-.48-.479v-63.43c0-.264.216-.479.48-.479s.479.215.479.48v63.43c0 .262-.215.478-.48.478M51.973 137.67c-.374 0-.679-.305-.679-.68V71.724c0-.374.305-.678.679-.678.375 0 .68.304.68.678v65.266c0 .374-.305.68-.68.68M29.22 137.67c-.375 0-.68-.305-.68-.68V72.144c0-.374.305-.678.68-.678.373 0 .678.304.678.678v64.847c0 .374-.305.68-.679.68M25.374 137.47c-.265 0-.479-.216-.479-.479v-62.86c0-.264.214-.484.48-.484.263 0 .478.21.478.473v62.871c0 .263-.215.48-.479.48" mask="url(#hgub68f97b)"/>
                        <path fill="#FEFEFE" d="M95.754 196.981L103.753 194.052 100.52 184.712 92.52 187.637z" mask="url(#hgub68f97b)"/>
                        <path fill="#231916" d="M93.723 188.21l2.612 7.546 6.216-2.274-2.613-7.544-6.215 2.272zm2.031 9.721c-.14 0-.279-.03-.408-.092-.229-.11-.405-.306-.49-.547l-3.234-9.345c-.17-.49.084-1.024.573-1.203l7.999-2.924c.238-.091.502-.076.733.035.231.11.406.306.49.547l3.234 9.34c.171.49-.084 1.026-.571 1.203l-7.999 2.929c-.106.038-.216.058-.327.058z" mask="url(#hgub68f97b)"/>
                        <path fill="#231916" d="M99.835 188.165l6.714-2.454s4.171 1.72 5.697 3.173c1.525 1.45 9.903-5.945 12.61 1.88l.523 1.512-32.388 11.85-2.426-7.002s-1.167-5.14 1.92-6.27l1.904-.695 6.587 1.609-1.14-3.603zM37.404 141.927v18.37h36.03l16.12 31.182 15.865-8.454-18.717-36.22c-1.551-3.008-4.59-4.878-7.895-4.878H37.404zM37.404 160.308c-9.877 0-17.882-8.233-17.882-18.385h17.882v18.385zM19.522 141.923L63.388 141.923 63.388 137.225 19.522 137.225zM11.257 206.647L7.791 206.228 14.597 162.437 18.048 162.844z" mask="url(#hgub68f97b)"/>
                        <path fill="#FEFEFE" d="M8.067 206.02l2.988.361 6.718-43.327-2.974-.35-6.732 43.316zm3.19.866c-.01 0-.018 0-.028-.002l-3.466-.419c-.065-.007-.123-.04-.162-.092-.04-.05-.056-.117-.045-.182l6.806-43.792c.018-.127.13-.225.264-.2l3.45.408c.066.008.124.041.163.094.039.05.057.115.045.18l-6.791 43.803c-.017.118-.12.202-.236.202z" mask="url(#hgub68f97b)"/>
                        <path fill="#231916" d="M51.237 206.647L47.777 206.228 54.581 162.437 58.045 162.844z" mask="url(#hgub68f97b)"/>
                        <path fill="#FEFEFE" d="M48.052 206.02l2.984.361 6.734-43.327-2.988-.35-6.73 43.316zm3.185.866c-.009 0-.019 0-.029-.002l-3.46-.419c-.065-.007-.123-.04-.162-.092-.04-.05-.056-.117-.045-.182l6.804-43.792c.02-.127.135-.225.264-.2l3.464.408c.063.008.124.041.163.094.04.05.055.115.045.18l-6.809 43.803c-.017.118-.119.202-.235.202z" mask="url(#hgub68f97b)"/>
                        <path fill="#231916" d="M54.345 206.647L47.556 162.844 51.005 162.437 57.807 206.228z" mask="url(#hgub68f97b)"/>
                        <path fill="#FEFEFE" d="M47.831 163.054l6.716 43.327 2.985-.36-6.729-43.319-2.972.352zm6.514 43.832c-.117 0-.219-.084-.236-.202l-6.789-43.803c-.01-.065.005-.13.045-.18.04-.053.097-.086.162-.094l3.45-.408c.12-.025.245.073.263.2l6.803 43.792c.011.065-.006.131-.045.181-.04.052-.098.086-.163.093l-3.462.42-.028.001z" mask="url(#hgub68f97b)"/>
                        <path fill="#231916" d="M94.328 206.647L87.537 162.844 90.988 162.437 97.792 206.228z" mask="url(#hgub68f97b)"/>
                        <path fill="#FEFEFE" d="M87.813 163.054l6.718 43.327 2.987-.36-6.731-43.319-2.974.352zm6.516 43.832c-.116 0-.22-.084-.236-.202l-6.791-43.803c-.011-.065.006-.13.045-.18.039-.053.098-.086.163-.094l3.45-.408c.124-.025.246.073.264.2l6.805 43.792c.01.065-.006.131-.045.181-.04.052-.098.086-.163.093l-3.464.42-.028.001z" mask="url(#hgub68f97b)"/>
                        <path fill="#231916" d="M9.453 159.844L7.188 139.151 10.662 138.758 12.917 159.437z" mask="url(#hgub68f97b)"/>
                        <path fill="#FEFEFE" d="M7.716 139.574l2.16 19.739 2.514-.297-2.153-19.728-2.52.286zm1.738 20.749c-.109 0-.214-.035-.298-.104-.1-.08-.164-.195-.177-.322l-2.265-20.693c-.03-.262.16-.5.421-.527l3.473-.393c.127-.01.254.022.353.1.1.08.163.197.176.323l2.256 20.678c.03.26-.159.497-.419.527l-3.464.408c-.019 0-.037.003-.056.003z" mask="url(#hgub68f97b)"/>
                        <path fill="#231916" d="M48.674 159.844L46.407 139.151 49.882 138.758 52.152 159.437z" mask="url(#hgub68f97b)"/>
                        <path fill="#FEFEFE" d="M46.671 139.363l2.215 20.216 3.002-.352-2.217-20.203-3 .339zm2.003 20.72c-.054 0-.107-.018-.149-.051-.049-.04-.083-.098-.088-.161l-2.267-20.694c-.015-.13.08-.25.211-.263l3.476-.393c.05-.012.125.01.175.05.05.04.082.098.088.16l2.27 20.68c.013.13-.08.248-.21.264l-3.478.407c-.01.002-.018.002-.028.002zM56.307 164.739L93.997 164.739 93.997 157.136 56.307 157.136z" mask="url(#hgub68f97b)"/>
                        <path fill="#FEFEFE" d="M8.212 164.739L56.307 164.739 56.307 157.136 8.212 157.136zM53.04 132.987c.174 1.584-.334 3.002-1.295 4.004l-.652.568c-.629.457-1.367.762-2.195.85.162-.595.21-1.253.137-1.938l-2.922-26.683c-.32-2.991-2.996-5.448-5.928-5.448H5.253c-.209 0-.405.01-.605.037.223-.85.666-1.597 1.26-2.18l.405-.355.111-.087c.778-.584 1.751-.914 2.835-.914h34.932c2.933 0 5.607 2.47 5.927 5.462l2.921 26.684z" mask="url(#hgub68f97b)"/>
                        <path fill="#FEFEFE" d="M47.666 140.563c-.85.85-2.033 1.369-3.378 1.369H9.371c-2.947 0-5.609-2.459-5.94-5.461L.507 109.788c-.172-1.649.394-3.131 1.43-4.145l.235-.202c.677-.57 1.527-.95 2.475-1.065.2-.026.396-.037.605-.037h34.932c2.932 0 5.607 2.457 5.928 5.449l2.922 26.683c.073.685.025 1.343-.137 1.938-.222.825-.628 1.547-1.195 2.117l-.037.037z" mask="url(#hgub68f97b)"/>
                        <path fill="#231916" d="M47.703 141.004c-.12 0-.243-.047-.337-.138-.188-.187-.188-.49-.003-.677.508-.512.87-1.154 1.073-1.906.148-.547.19-1.139.121-1.76l-2.918-26.684c-.3-2.77-2.747-5.022-5.455-5.022H5.254c-.189 0-.364.01-.542.034-.84.101-1.609.43-2.232.956-.205.17-.505.144-.674-.058-.17-.202-.144-.505.057-.676.766-.644 1.71-1.05 2.728-1.172.213-.028.43-.042.662-.042h34.931c3.184 0 6.056 2.636 6.407 5.877l2.92 26.682c.08.743.03 1.453-.15 2.115-.248.913-.69 1.7-1.317 2.33-.094.094-.217.141-.34.141" mask="url(#hgub68f97b)"/>
                        <path fill="#231916" d="M44.288 142.412H9.371c-3.18 0-6.058-2.642-6.417-5.89L.032 109.84c-.18-1.732.392-3.385 1.571-4.54.19-.183.493-.183.678.008.185.189.181.492-.008.677-.968.948-1.44 2.316-1.289 3.752l2.92 26.682c.31 2.775 2.761 5.035 5.467 5.035h34.917c1.165 0 2.244-.436 3.04-1.23.19-.188.491-.184.676 0 .187.188.187.49 0 .678-.976.973-2.295 1.51-3.716 1.51M48.899 138.887c-.243 0-.451-.183-.477-.428-.028-.263.163-.5.426-.527.713-.075 1.373-.33 1.964-.76.225-.159.419-.327.58-.505.91-.95 1.324-2.235 1.173-3.629l-2.922-26.683c-.294-2.73-2.788-5.034-5.452-5.034H9.259c-.954 0-1.835.282-2.547.817-.21.154-.512.117-.671-.096-.16-.213-.117-.512.095-.672.88-.66 1.96-1.007 3.123-1.007H44.19c3.184 0 6.057 2.642 6.404 5.89l2.92 26.681c.185 1.68-.32 3.237-1.424 4.388-.2.22-.447.434-.723.628-.722.526-1.537.84-2.418.935-.018.002-.034.002-.051.002" mask="url(#hgub68f97b)"/>
                        <path fill="#231916" d="M4.649 104.855c-.04 0-.08-.005-.121-.015-.257-.067-.408-.329-.343-.585.24-.915.72-1.745 1.388-2.4.135-.127.263-.237.392-.346.203-.168.527-.159.695.039.17.203.165.489-.037.659-.154.13-.272.23-.386.338-.536.528-.93 1.205-1.124 1.954-.058.214-.25.356-.464.356" mask="url(#hgub68f97b)"/>
                        <path fill="#231916" d="M1.939 106.122c-.135 0-.268-.057-.362-.167-.173-.2-.151-.501.05-.675l4.498-3.9c.21-.166.51-.128.673.075.164.208.13.509-.075.674l-.5.43-3.972 3.447c-.09.079-.202.116-.312.116M47.703 141.205c-.188 0-.376-.078-.51-.231-.248-.283-.219-.711.063-.958l4.044-3.537c.276-.243.71-.22.958.067.245.283.215.71-.068.958l-4.04 3.533c-.129.112-.288.168-.447.168M55.828 164.739L56.785 164.739 56.785 157.136 55.828 157.136z" mask="url(#hgub68f97b)"/>
                        <path fill="#231916" d="M8.691 164.26h84.828v-6.646H8.691v6.646zm85.306.957H8.212c-.263 0-.479-.215-.479-.478v-7.603c0-.263.216-.478.479-.478h85.785c.264 0 .479.215.479.478v7.603c0 .263-.215.478-.479.478z" mask="url(#hgub68f97b)"/>
                    </g>
                </g>
            </g>
        </g>
    </g>
</svg>
