<svg xmlns="http://www.w3.org/2000/svg" xmlns:xlink="http://www.w3.org/1999/xlink" width="270" height="336" viewBox="0 0 270 336">
    <defs>
        <path id="78pz1k6g7a" d="M0.291 0.808L15.729 0.808 15.729 16.65 0.291 16.65z"/>
        <path id="wxcs31ezac" d="M0 229.185L229.729 229.185 229.729 0 0 0z"/>
    </defs>
    <g fill="none" fill-rule="evenodd">
        <g>
            <g transform="translate(-1001 -88) translate(1001 88)">
                <rect width="270" height="336" fill="#FFF" rx="2"/>
                <g transform="translate(20 73)">
                    <path fill="#C8C9C9" d="M223.126 120.493c0 56.589-45.873 102.463-102.463 102.463-56.589 0-102.464-45.874-102.464-102.463C18.2 63.905 64.074 18.03 120.663 18.03c56.59 0 102.463 45.875 102.463 102.463"/>
                    <path fill="#FEFEFE" d="M229.25 141.913c0 4.111-3.244 7.443-7.242 7.443-3.995 0-7.238-3.332-7.238-7.443 0-4.107 3.243-7.44 7.238-7.44 3.998 0 7.241 3.333 7.241 7.44"/>
                    <g transform="translate(214 133.185)">
                        <mask id="t71id6ehxb" fill="#fff">
                            <use xlink:href="#78pz1k6g7a"/>
                        </mask>
                        <path fill="#231916" d="M8.008 1.766c-3.728 0-6.76 3.124-6.76 6.962 0 3.84 3.032 6.965 6.76 6.965 3.73 0 6.763-3.125 6.763-6.965 0-3.838-3.034-6.962-6.763-6.962m0 14.884c-4.255 0-7.717-3.554-7.717-7.922 0-4.367 3.462-7.92 7.717-7.92 4.257 0 7.721 3.553 7.721 7.92 0 4.368-3.464 7.922-7.72 7.922" mask="url(#t71id6ehxb)"/>
                    </g>
                    <path fill="#FEFEFE" d="M227.939 136.696h-11.763c0-36.203-19.617-47.692-20.453-48.164l5.529-10.67c1.09.588 26.687 14.966 26.687 58.834"/>
                    <path fill="#231916" d="M216.654 136.218h10.805c-.172-40.737-22.514-55.614-26.011-57.694l-5.093 9.83c2.937 1.85 20.138 14.132 20.299 47.864zm11.764.958h-12.72v-.48c0-35.918-19.386-47.281-20.211-47.748l-.401-.226 5.965-11.513.429.231c1.1.594 26.938 15.063 26.938 59.256v.48z"/>
                    <path fill="#FEFEFE" d="M131.384 141.913c0 4.111 3.243 7.443 7.241 7.443 3.995 0 7.238-3.332 7.238-7.443 0-4.107-3.243-7.44-7.238-7.44-3.998 0-7.24 3.333-7.24 7.44"/>
                    <path fill="#231916" d="M138.625 134.951c-3.729 0-6.763 3.124-6.763 6.962 0 3.84 3.034 6.965 6.763 6.965 3.728 0 6.76-3.125 6.76-6.965 0-3.838-3.032-6.962-6.76-6.962m0 14.884c-4.257 0-7.72-3.554-7.72-7.922 0-4.367 3.463-7.92 7.72-7.92 4.255 0 7.717 3.553 7.717 7.92 0 4.368-3.462 7.922-7.717 7.922"/>
                    <path fill="#FEFEFE" d="M132.695 136.696h11.763c0-36.203 19.617-47.692 20.453-48.164l-5.525-10.67c-1.093.588-26.691 14.966-26.691 58.834"/>
                    <path fill="#231916" d="M133.175 136.218h10.806c.16-33.735 17.363-46.014 20.298-47.863l-5.089-9.832c-3.497 2.075-25.842 16.915-26.015 57.695zm11.761.958h-12.72v-.48c0-44.24 25.842-58.665 26.943-59.257l.43-.23 5.96 11.513-.402.227c-.826.466-20.21 11.829-20.21 47.747v.48z"/>
                    <mask id="qxrh1tv63d" fill="#fff">
                        <use xlink:href="#wxcs31ezac"/>
                    </mask>
                    <path fill="#FEFEFE" d="M161.748 223.943L168.748 223.943 168.748 215.766 161.748 215.766z" mask="url(#qxrh1tv63d)"/>
                    <path fill="#231916" d="M162.227 223.464h6.043v-7.219h-6.043v7.219zm6.522.957h-7.001c-.263 0-.478-.214-.478-.478v-8.177c0-.265.215-.479.478-.479h7.001c.264 0 .479.214.479.479v8.177c0 .264-.215.478-.479.478z" mask="url(#qxrh1tv63d)"/>
                    <path fill="#231916" d="M163.21 218.256h-5.876s-2.78 2.521-3.574 4.085c-.795 1.561-9.294-1.804-9.294 5.044v1.321h28.352v-6.127s-.474-4.323-3.175-4.323h-1.668l-4.684 3.121-.082-3.121z" mask="url(#qxrh1tv63d)"/>
                    <path fill="#FEFEFE" d="M190.878 223.943L197.879 223.943 197.879 215.766 190.878 215.766z" mask="url(#qxrh1tv63d)"/>
                    <path fill="#231916" d="M191.358 223.464h6.043v-7.219h-6.043v7.219zm6.521.957h-7.001c-.263 0-.478-.214-.478-.478v-8.177c0-.265.215-.479.478-.479h7.001c.264 0 .479.214.479.479v8.177c0 .264-.215.478-.479.478z" mask="url(#qxrh1tv63d)"/>
                    <path fill="#231916" d="M196.416 218.256h5.88s2.776 2.521 3.571 4.085c.793 1.561 9.291-1.804 9.291 5.044v1.321H186.81v-6.127s.476-4.323 3.175-4.323h1.666l4.69 3.121.076-3.121zM171.811 217.232L158.097 216.717 160.665 144.538 174.378 145.054zM187.273 217.232L184.703 145.054 198.417 144.538 200.982 216.717z" mask="url(#qxrh1tv63d)"/>
                    <path fill="#231916" d="M160.459 156.179L198.831 156.179 198.831 144.538 160.459 144.538z" mask="url(#qxrh1tv63d)"/>
                    <path fill="#FEFEFE" d="M205.276 87.699v76.814h-24.922v-55.176l17.814-18.922-6.444-6.98 7.55-4.38-4.965-6.852c6.624 3.37 10.967 9.042 10.967 15.496" mask="url(#qxrh1tv63d)"/>
                    <path fill="#FEFEFE" d="M194.309 72.203l4.966 6.852-7.551 4.38 6.443 6.98-17.813 18.922 12.42-37.846c.526.23 1.037.47 1.535.712" mask="url(#qxrh1tv63d)"/>
                    <path fill="#FEFEFE" d="M192.775 71.491l-12.421 37.846-12.403-37.846c3.65-1.592 7.88-2.487 12.403-2.487 4.523 0 8.769.91 12.42 2.487M180.354 109.337v55.175h-24.906V87.7c0-6.455 4.343-12.142 10.967-15.496l-4.966 6.852 7.552 4.38-6.46 6.98 17.813 18.922z" mask="url(#qxrh1tv63d)"/>
                    <path fill="#FEFEFE" d="M167.95 71.491l12.404 37.846-17.813-18.923 6.46-6.98-7.553-4.38 4.966-6.85c.499-.257 1.012-.499 1.537-.713" mask="url(#qxrh1tv63d)"/>
                    <path fill="#231916" d="M155.926 164.034h48.871V87.699c0-6.024-4-11.656-10.702-15.066-.49-.24-.993-.477-1.51-.702-3.708-1.602-7.938-2.448-12.23-2.448-4.318 0-8.54.846-12.214 2.447-.522.214-1.022.449-1.508.699-6.705 3.395-10.707 9.029-10.707 15.07v76.335zm49.35.958h-49.829c-.264 0-.479-.215-.479-.48V87.7c0-6.41 4.2-12.362 11.23-15.923.506-.261 1.032-.508 1.571-.727 3.781-1.65 8.137-2.524 12.585-2.524 4.424 0 8.783.874 12.611 2.527.531.23 1.05.475 1.553.72l.008.005c7.032 3.577 11.23 9.529 11.23 15.922v76.814c0 .264-.217.479-.48.479z" mask="url(#qxrh1tv63d)"/>
                    <path fill="#231916" d="M180.354 109.816c-.202 0-.39-.128-.454-.33L167.496 71.64c-.082-.25.054-.52.304-.604.259-.08.525.057.605.307l12.404 37.846c.082.25-.055.52-.306.604-.05.015-.1.023-.15.023" mask="url(#qxrh1tv63d)"/>
                    <path fill="#231916" d="M180.354 109.816c-.05 0-.1-.008-.15-.024-.25-.083-.386-.353-.304-.604l12.42-37.846c.08-.249.348-.39.604-.305.25.082.388.352.305.604l-12.42 37.846c-.065.201-.253.33-.455.33" mask="url(#qxrh1tv63d)"/>
                    <path fill="#231916" d="M180.354 109.816c-.127 0-.254-.05-.348-.15l-17.812-18.923c-.175-.184-.175-.469-.004-.654l6.054-6.54-7.035-4.08c-.117-.068-.2-.182-.227-.315-.028-.132 0-.27.08-.38l4.966-6.852c.155-.216.454-.26.667-.107.216.155.263.454.107.668l-4.653 6.423 7.092 4.114c.127.073.213.2.233.343.023.144-.022.29-.121.397l-6.157 6.651 17.506 18.598c.18.192.173.495-.021.677-.092.087-.21.13-.327.13" mask="url(#qxrh1tv63d)"/>
                    <path fill="#231916" d="M180.354 109.816c-.117 0-.235-.043-.327-.13-.193-.182-.202-.485-.021-.677l17.506-18.598-6.14-6.652c-.1-.107-.144-.253-.122-.396.02-.144.107-.27.235-.343l7.09-4.114-4.654-6.423c-.155-.214-.108-.513.107-.668.21-.153.51-.109.668.107l4.966 6.852c.08.11.108.248.08.38-.03.133-.111.247-.23.315l-7.031 4.08 6.038 6.541c.17.184.17.47-.004.653l-17.813 18.922c-.093.1-.221.151-.348.151" mask="url(#qxrh1tv63d)"/>
                    <path fill="#231916" d="M180.354 164.991c-.264 0-.48-.214-.48-.479v-55.175c0-.264.216-.479.48-.479s.479.215.479.48v55.174c0 .265-.215.48-.48.48M189.245 109.856h11.258v-7.039h-11.258v7.039zm11.737.958h-12.215c-.264 0-.479-.214-.479-.479v-7.996c0-.265.215-.479.479-.479h12.215c.263 0 .478.214.478.479v7.996c0 .265-.215.479-.478.479z" mask="url(#qxrh1tv63d)"/>
                    <path fill="#FEFEFE" d="M193.751 104.234L195.999 104.234 195.999 99.673 193.751 99.673z" mask="url(#qxrh1tv63d)"/>
                    <path fill="#231916" d="M194.23 103.755h1.291v-3.603h-1.291v3.603zm1.769.958h-2.248c-.263 0-.478-.214-.478-.479v-4.561c0-.264.215-.478.478-.478h2.248c.264 0 .479.214.479.478v4.561c0 .265-.215.479-.479.479z" mask="url(#qxrh1tv63d)"/>
                    <path fill="#FEFEFE" d="M187.55 62.295v6.255c0 4.078-3.212 7.395-7.194 7.395-3.965 0-7.178-3.317-7.178-7.395v-6.255h14.371z" mask="url(#qxrh1tv63d)"/>
                    <path fill="#231916" d="M173.656 62.774v5.777c0 3.813 3.006 6.915 6.7 6.915 3.703 0 6.715-3.102 6.715-6.915v-5.777h-13.415zm6.7 13.65c-4.221 0-7.657-3.533-7.657-7.873v-6.256c0-.264.215-.48.478-.48h14.373c.262 0 .477.216.477.48v6.256c0 4.34-3.44 7.873-7.671 7.873z" mask="url(#qxrh1tv63d)"/>
                    <path fill="#FEFEFE" d="M198.827 47.826v1.804c-.4 8.805-8.534 16.687-18.432 16.687-10.235 0-18.475-8.238-18.475-17.345v-1.146H160.988c-3.605 0-6.519-3.051-6.519-6.758v-1.87c0-2.661 1.58-5.032 3.811-6.067h5.189c0 3.774 2.955 6.802 6.627 6.802 3.67 0 6.627-3.028 6.627-6.802h7.266c0 3.774 2.99 6.802 6.661 6.802 3.64 0 6.628-3.028 6.628-6.802h5.252c2.2 1.059 3.715 3.406 3.715 6.067v1.87c0 3.707-2.912 6.758-6.52 6.758h-.898zM202.422 20.194V33.13h-5.144c0-3.829-2.988-6.856-6.627-6.856-3.672 0-6.662 3.027-6.662 6.856h-7.265c0-3.829-2.957-6.856-6.628-6.856-3.672 0-6.627 3.027-6.627 6.856h-5.146V19.382C158.79 8.883 168.504.478 180.353.478c12.215 0 22.07 8.807 22.07 19.716" mask="url(#qxrh1tv63d)"/>
                    <path fill="#231916" d="M190.65 26.274c3.64 0 6.629 3.027 6.629 6.856 0 3.775-2.988 6.803-6.628 6.803-3.672 0-6.661-3.028-6.661-6.803 0-3.83 2.989-6.856 6.66-6.856M170.096 26.274c3.671 0 6.628 3.027 6.628 6.856 0 3.775-2.957 6.803-6.628 6.803-3.672 0-6.627-3.028-6.627-6.803 0-3.83 2.955-6.856 6.627-6.856" mask="url(#qxrh1tv63d)"/>
                    <path fill="#231916" d="M158.323 33.61c-.263 0-.478-.215-.478-.48V19.381C158.327 8.504 168.215 0 180.35 0c12.435 0 22.55 9.06 22.55 20.195 0 .265-.216.48-.478.48-.264 0-.48-.215-.48-.48 0-10.607-9.686-19.237-21.592-19.237-11.625 0-21.09 8.102-21.548 18.446V33.13c0 .265-.215.48-.48.48" mask="url(#qxrh1tv63d)"/>
                    <path fill="#231916" d="M202.422 33.61c-.264 0-.479-.215-.479-.48V19.381c0-.264.215-.478.48-.478.263 0 .478.214.478.478v13.75c0 .264-.215.478-.479.478M180.395 66.796c-9.991 0-18.475-7.72-18.935-17.03-.011-.044-.018-.09-.018-.137v-.657c0-.265.215-.479.478-.479.264 0 .479.214.479.48 0 9.142 8.24 16.865 17.996 16.865 9.333 0 17.553-7.432 17.953-16.23v-7.56c0-.265.216-.479.48-.479.263 0 .478.214.478.48v7.58c-.423 9.315-9.082 17.167-18.911 17.167" mask="url(#qxrh1tv63d)"/>
                    <path fill="#231916" d="M161.92 49.45c-.264 0-.479-.213-.479-.478v-6.924c0-.264.215-.48.48-.48.263 0 .478.216.478.48v6.924c0 .265-.215.479-.479.479M199.725 48.304h-.897c-.264 0-.497-.214-.497-.479s.199-.479.462-.479h.932c3.33 0 6.04-2.816 6.04-6.278v-1.87c0-2.418-1.352-4.63-3.442-5.637-.238-.114-.34-.4-.225-.639.114-.237.402-.339.64-.223 2.422 1.165 3.986 3.716 3.986 6.498v1.871c0 3.99-3.141 7.236-7 7.236" mask="url(#qxrh1tv63d)"/>
                    <path fill="#231916" d="M161.595 48.304h-.606c-3.859 0-6.998-3.246-6.998-7.236v-1.87c0-2.798 1.604-5.35 4.087-6.502.24-.114.524-.007.636.233.112.24.008.524-.231.635-2.116.981-3.535 3.245-3.535 5.633v1.871c0 3.462 2.709 6.278 6.041 6.278h.606c.264 0 .479.214.479.48 0 .264-.215.478-.479.478M190.65 26.753c-3.407 0-6.181 2.86-6.181 6.378 0 3.487 2.774 6.323 6.18 6.323 3.393 0 6.15-2.836 6.15-6.323 0-3.517-2.757-6.378-6.15-6.378m0 13.659c-3.936 0-7.138-3.267-7.138-7.281 0-4.045 3.202-7.336 7.139-7.336 3.919 0 7.107 3.29 7.107 7.336 0 4.014-3.188 7.28-7.107 7.28M170.095 26.753c-3.446 0-6.147 2.802-6.147 6.378 0 3.487 2.758 6.323 6.147 6.323 3.392 0 6.149-2.836 6.149-6.323 0-3.576-2.7-6.378-6.149-6.378m0 13.659c-3.918 0-7.105-3.267-7.105-7.281 0-4.045 3.187-7.336 7.105-7.336 3.919 0 7.107 3.29 7.107 7.336 0 4.014-3.188 7.28-7.107 7.28" mask="url(#qxrh1tv63d)"/>
                    <path fill="#231916" d="M183.99 33.61h-7.267c-.263 0-.479-.215-.479-.48 0-.264.216-.479.48-.479h7.266c.263 0 .478.215.478.48 0 .264-.214.478-.478.478M202.422 33.61h-5.144c-.263 0-.478-.215-.478-.48 0-.264.215-.479.478-.479h5.144c.264 0 .48.215.48.48 0 .264-.216.478-.48.478M163.469 33.61h-5.146c-.263 0-.478-.215-.478-.48 0-.264.215-.479.478-.479h5.146c.264 0 .479.215.479.48 0 .264-.215.478-.479.478M180.352 45.789c-1.464 0-2.655-1.214-2.655-2.706 0-.264.215-.478.478-.478.264 0 .479.214.479.478 0 .965.76 1.748 1.698 1.748.568 0 1.102-.303 1.426-.812.143-.225.443-.288.66-.148.225.14.29.438.147.66-.5.788-1.335 1.258-2.233 1.258" mask="url(#qxrh1tv63d)"/>
                    <path fill="#231916" d="M178.175 43.562c-.264 0-.479-.214-.479-.479v-9.697c0-.264.215-.478.48-.478.263 0 .478.214.478.478v9.697c0 .265-.215.48-.479.48M184.813 52.58h-8.935c-.263 0-.478-.214-.478-.48 0-.263.215-.478.478-.478h8.935c.264 0 .479.215.479.479 0 .265-.215.479-.48.479M172.295 53.604c-.264 0-.479-.214-.479-.48v-3.138c0-.265.215-.48.48-.48.263 0 .478.215.478.48v3.139c0 .265-.215.479-.479.479M172.011 71.426L180.358 75.992 172.011 80.458z" mask="url(#qxrh1tv63d)"/>
                    <path fill="#231916" d="M172.49 72.234v7.424l6.861-3.67-6.862-3.754zm-.48 8.702c-.084 0-.17-.022-.246-.068-.145-.086-.233-.242-.233-.41v-9.032c0-.169.09-.326.234-.41.149-.088.33-.09.476-.01l8.347 4.566c.154.085.25.246.25.422s-.099.338-.254.42l-8.347 4.466c-.07.038-.15.056-.226.056z" mask="url(#qxrh1tv63d)"/>
                    <path fill="#231916" d="M188.703 71.426L180.357 75.992 188.703 80.458z" mask="url(#qxrh1tv63d)"/>
                    <path fill="#231916" d="M181.364 75.988l6.86 3.67v-7.424l-6.86 3.754zm7.34 4.949c-.078 0-.156-.02-.228-.057l-8.345-4.465c-.155-.083-.251-.245-.251-.42 0-.176.095-.338.249-.422l8.344-4.567c.148-.08.327-.077.475.009.144.086.233.242.233.41v9.033c0 .168-.088.324-.23.41-.077.046-.161.069-.248.069z" mask="url(#qxrh1tv63d)"/>
                    <path fill="#FEFEFE" d="M35.8 90.411L88.832 90.411 88.832 42.627 35.8 42.627z" mask="url(#qxrh1tv63d)"/>
                    <path fill="#231916" d="M36.279 89.932h52.075V43.106H36.279v46.826zm52.553.957H35.8c-.265 0-.479-.214-.479-.478V42.627c0-.265.214-.479.479-.479h53.032c.264 0 .479.214.479.479v47.784c0 .264-.215.478-.479.478z" mask="url(#qxrh1tv63d)"/>
                    <path fill="#FEFEFE" d="M29.557 158.477L95.07 158.477 95.07 99.31 29.557 99.31z" mask="url(#qxrh1tv63d)"/>
                    <path fill="#231916" d="M30.035 157.998h64.556V99.789H30.035v58.209zm65.035.958H29.557c-.264 0-.48-.214-.48-.479V99.31c0-.264.216-.478.48-.478H95.07c.263 0 .478.214.478.478v59.167c0 .265-.215.479-.478.479z" mask="url(#qxrh1tv63d)"/>
                    <path fill="#FEFEFE" d="M56.934 99.31L67.696 99.31 67.696 90.41 56.934 90.41z" mask="url(#qxrh1tv63d)"/>
                    <path fill="#231916" d="M57.413 98.832h9.804V90.89h-9.804v7.942zm10.283.957H56.934c-.264 0-.479-.214-.479-.479v-8.899c0-.265.215-.479.479-.479h10.762c.263 0 .479.214.479.479v8.899c0 .265-.216.479-.479.479z" mask="url(#qxrh1tv63d)"/>
                    <path fill="#FEFEFE" d="M77.143 116.112c-.868-.835-1.888-1.426-3.037-1.75-1.042-.29-2.164-.367-3.3-.221-2.287.292-4.445 1.33-6.23 3.008-.022.019-1.612 1.648-2.276 2.681l-.202-.233c-.525-.6-1.064-1.223-1.635-1.823-.66-.698-1.294-1.278-1.935-1.77-1.605-1.239-3.59-1.918-5.573-1.918-2.015 0-3.895.674-5.455 1.957-.043.034-4.021 3.583-2.325 10.041.504 1.938 1.609 3.215 2.783 4.569l.468.537c1.408 1.661 3.004 3.11 4.539 4.508.574.525 1.153 1.05 1.725 1.585l2.132 2.004c.827.776 1.653 1.554 2.476 2.338.674.626 1.416 1.135 2.134 1.62l.567.386c.086.055.185.087.287.09.372 0 .854-.373 1.725-1.144.16-.144.3-.27.369-.316 1.593-1.107 3.039-2.505 4.442-3.858.384-.376.776-.75 1.169-1.12.563-.534 1.144-1.06 1.718-1.584 1.547-1.4 3.135-2.848 4.54-4.509l.465-.537c1.169-1.353 2.283-2.631 2.79-4.568.964-3.671.018-7.682-2.361-9.973" mask="url(#qxrh1tv63d)"/>
                    <path fill="#231916" d="M52.954 114.566c-1.9 0-3.68.639-5.149 1.847-.032.027-3.78 3.407-2.166 9.55.477 1.838 1.546 3.07 2.68 4.375l.468.539c1.371 1.617 2.927 3.034 4.431 4.405l.45.41c.45.412.9.824 1.35 1.242l2.131 2.004c.828.778 1.655 1.556 2.478 2.34.62.577 1.306 1.052 2.072 1.57l.568.388h.004c.274 0 1.05-.686 1.422-1.016.204-.184.348-.31.423-.36 1.547-1.073 2.976-2.453 4.358-3.787.398-.39.792-.767 1.19-1.138.436-.417.89-.83 1.34-1.242l.382-.348c1.442-1.302 3.073-2.778 4.5-4.463l.465-.542c1.151-1.33 2.213-2.56 2.69-4.376.922-3.513.026-7.335-2.232-9.507-.813-.785-1.767-1.334-2.833-1.634-.99-.276-2.04-.345-3.108-.207-2.196.28-4.257 1.277-5.965 2.883-.01.012-1.557 1.59-2.2 2.59l-.348.54-.832-.961c-.454-.52-.918-1.05-1.408-1.564-.647-.684-1.263-1.246-1.88-1.72-1.52-1.173-3.394-1.818-5.28-1.818m9.33 29.633c-.202-.005-.386-.062-.545-.164l-.577-.395c-.8-.54-1.52-1.038-2.192-1.665-.826-.785-1.652-1.563-2.477-2.34l-2.132-2.002c-.445-.416-.892-.825-1.34-1.234l-.38-.347c-1.596-1.454-3.174-2.892-4.58-4.551l-.464-.534c-1.157-1.331-2.354-2.707-2.887-4.761-1.77-6.743 2.445-10.501 2.49-10.536 1.636-1.347 3.628-2.062 5.753-2.062 2.097 0 4.18.717 5.865 2.018.658.503 1.31 1.098 1.991 1.818.498.524.971 1.066 1.434 1.593l.017.02c.77-1.014 1.94-2.22 2.017-2.282 1.824-1.72 4.071-2.803 6.468-3.11 1.197-.153 2.372-.074 3.488.236 1.222.343 2.31.97 3.241 1.866 2.498 2.406 3.5 6.6 2.494 10.44-.536 2.03-1.668 3.343-2.869 4.732l-.487.565c-1.467 1.73-3.12 3.229-4.582 4.55l-.38.347c-.447.407-.893.816-1.332 1.23-.39.369-.78.74-1.163 1.114-1.427 1.377-2.884 2.784-4.504 3.909-.063.044-.164.138-.282.245-1.047.928-1.554 1.3-2.085 1.3" mask="url(#qxrh1tv63d)"/>
                    <path fill="#FEFEFE" d="M35.8 174.111L50.149 174.111 50.149 158.477 35.8 158.477z" mask="url(#qxrh1tv63d)"/>
                    <path fill="#231916" d="M36.279 173.632h13.392v-14.676H36.279v14.676zm13.87.958H35.8c-.265 0-.479-.215-.479-.479v-15.634c0-.265.214-.479.479-.479h14.349c.263 0 .478.214.478.479v15.634c0 .264-.215.479-.478.479zM36.279 216.447h13.392v-12.033H36.279v12.033zm13.87.958H35.8c-.265 0-.479-.214-.479-.479v-12.991c0-.265.214-.479.479-.479h14.349c.263 0 .478.214.478.479v12.991c0 .265-.215.479-.478.479z" mask="url(#qxrh1tv63d)"/>
                    <path fill="#FEFEFE" d="M50.755 177.842c0 2.056-3.49 3.726-7.78 3.726-4.299 0-7.782-1.67-7.782-3.726 0-2.062 3.483-3.73 7.781-3.73 4.291 0 7.781 1.668 7.781 3.73" mask="url(#qxrh1tv63d)"/>
                    <path fill="#231916" d="M42.974 174.59c-4.367 0-7.302 1.681-7.302 3.252 0 1.569 2.935 3.247 7.302 3.247 4.367 0 7.302-1.678 7.302-3.246 0-1.571-2.935-3.254-7.302-3.254m0 7.458c-4.631 0-8.26-1.847-8.26-4.204 0-2.361 3.629-4.212 8.26-4.212 4.63 0 8.26 1.85 8.26 4.212 0 2.357-3.63 4.204-8.26 4.204" mask="url(#qxrh1tv63d)"/>
                    <path fill="#FEFEFE" d="M50.755 185.295c0 2.06-3.49 3.73-7.78 3.73-4.299 0-7.782-1.67-7.782-3.73 0-2.059 3.483-3.728 7.781-3.728 4.291 0 7.781 1.67 7.781 3.728" mask="url(#qxrh1tv63d)"/>
                    <path fill="#231916" d="M42.974 182.047c-4.367 0-7.302 1.679-7.302 3.249s2.935 3.25 7.302 3.25c4.367 0 7.302-1.68 7.302-3.25s-2.935-3.25-7.302-3.25m0 7.458c-4.631 0-8.26-1.85-8.26-4.208 0-2.36 3.629-4.207 8.26-4.207 4.63 0 8.26 1.848 8.26 4.207s-3.63 4.208-8.26 4.208" mask="url(#qxrh1tv63d)"/>
                    <path fill="#FEFEFE" d="M50.755 192.752c0 2.06-3.49 3.73-7.78 3.73-4.299 0-7.782-1.67-7.782-3.73 0-2.059 3.483-3.727 7.781-3.727 4.291 0 7.781 1.668 7.781 3.727" mask="url(#qxrh1tv63d)"/>
                    <path fill="#231916" d="M42.974 189.504c-4.367 0-7.302 1.679-7.302 3.249s2.935 3.25 7.302 3.25c4.367 0 7.302-1.68 7.302-3.25s-2.935-3.25-7.302-3.25m0 7.458c-4.631 0-8.26-1.85-8.26-4.208 0-2.36 3.629-4.207 8.26-4.207 4.63 0 8.26 1.848 8.26 4.207s-3.63 4.208-8.26 4.208" mask="url(#qxrh1tv63d)"/>
                    <path fill="#FEFEFE" d="M50.755 200.208c0 2.06-3.49 3.727-7.78 3.727-4.299 0-7.782-1.668-7.782-3.727 0-2.06 3.483-3.727 7.781-3.727 4.291 0 7.781 1.666 7.781 3.727" mask="url(#qxrh1tv63d)"/>
                    <path fill="#231916" d="M42.974 196.96c-4.367 0-7.302 1.68-7.302 3.248 0 1.568 2.935 3.248 7.302 3.248 4.367 0 7.302-1.68 7.302-3.248 0-1.568-2.935-3.248-7.302-3.248m0 7.453c-4.631 0-8.26-1.847-8.26-4.205 0-2.359 3.629-4.206 8.26-4.206 4.63 0 8.26 1.847 8.26 4.206 0 2.358-3.63 4.205-8.26 4.205" mask="url(#qxrh1tv63d)"/>
                    <path fill="#FEFEFE" d="M57.488 228.706H28.46c0-8.22 6.503-14.903 14.529-14.903 7.999 0 14.498 6.683 14.498 14.903" mask="url(#qxrh1tv63d)"/>
                    <path fill="#231916" d="M28.947 228.227h28.055c-.247-7.733-6.438-13.945-14.012-13.945-7.592 0-13.796 6.212-14.043 13.945m28.54.958H28.462c-.264 0-.48-.215-.48-.478 0-8.481 6.735-15.382 15.009-15.382 8.259 0 14.977 6.9 14.977 15.382 0 .263-.215.478-.48.478" mask="url(#qxrh1tv63d)"/>
                    <path fill="#FEFEFE" d="M59.506 228.706L56.61 228.706 29.053 228.706 26.441 228.706" mask="url(#qxrh1tv63d)"/>
                    <path fill="#231916" d="M59.506 229.185H26.441c-.264 0-.479-.214-.479-.479 0-.264.215-.479.48-.479h33.064c.264 0 .48.215.48.479 0 .265-.216.479-.48.479" mask="url(#qxrh1tv63d)"/>
                    <path fill="#FEFEFE" d="M74.948 174.111L89.296 174.111 89.296 158.477 74.948 158.477z" mask="url(#qxrh1tv63d)"/>
                    <path fill="#231916" d="M75.428 173.632h13.39v-14.676h-13.39v14.676zm13.868.958H74.949c-.264 0-.479-.215-.479-.479v-15.634c0-.265.215-.479.479-.479h14.347c.264 0 .479.214.479.479v15.634c0 .264-.215.479-.479.479z" mask="url(#qxrh1tv63d)"/>
                    <path fill="#FEFEFE" d="M74.948 216.926L89.296 216.926 89.296 203.935 74.948 203.935z" mask="url(#qxrh1tv63d)"/>
                    <path fill="#231916" d="M75.428 216.447h13.39v-12.033h-13.39v12.033zm13.868.958H74.949c-.264 0-.479-.214-.479-.479v-12.991c0-.265.215-.479.479-.479h14.347c.264 0 .479.214.479.479v12.991c0 .265-.215.479-.479.479z" mask="url(#qxrh1tv63d)"/>
                    <path fill="#FEFEFE" d="M89.904 177.842c0 2.056-3.487 3.726-7.778 3.726-4.298 0-7.781-1.67-7.781-3.726 0-2.062 3.483-3.73 7.78-3.73 4.292 0 7.779 1.668 7.779 3.73" mask="url(#qxrh1tv63d)"/>
                    <path fill="#231916" d="M82.125 174.59c-4.367 0-7.302 1.681-7.302 3.252 0 1.569 2.935 3.247 7.302 3.247 4.367 0 7.3-1.678 7.3-3.246 0-1.571-2.933-3.254-7.3-3.254m0 7.458c-4.63 0-8.259-1.847-8.259-4.204 0-2.361 3.628-4.212 8.26-4.212 4.63 0 8.257 1.85 8.257 4.212 0 2.357-3.627 4.204-8.258 4.204" mask="url(#qxrh1tv63d)"/>
                    <path fill="#FEFEFE" d="M89.904 185.295c0 2.06-3.487 3.73-7.778 3.73-4.298 0-7.781-1.67-7.781-3.73 0-2.059 3.483-3.728 7.78-3.728 4.292 0 7.779 1.67 7.779 3.728" mask="url(#qxrh1tv63d)"/>
                    <path fill="#231916" d="M82.125 182.047c-4.367 0-7.302 1.679-7.302 3.249s2.935 3.25 7.302 3.25c4.367 0 7.3-1.68 7.3-3.25s-2.933-3.25-7.3-3.25m0 7.458c-4.63 0-8.259-1.85-8.259-4.208 0-2.36 3.628-4.207 8.26-4.207 4.63 0 8.257 1.848 8.257 4.207s-3.627 4.208-8.258 4.208" mask="url(#qxrh1tv63d)"/>
                    <path fill="#FEFEFE" d="M89.904 192.752c0 2.06-3.487 3.73-7.778 3.73-4.298 0-7.781-1.67-7.781-3.73 0-2.059 3.483-3.727 7.78-3.727 4.292 0 7.779 1.668 7.779 3.727" mask="url(#qxrh1tv63d)"/>
                    <path fill="#231916" d="M82.125 189.504c-4.367 0-7.302 1.679-7.302 3.249s2.935 3.25 7.302 3.25c4.367 0 7.3-1.68 7.3-3.25s-2.933-3.25-7.3-3.25m0 7.458c-4.63 0-8.259-1.85-8.259-4.208 0-2.36 3.628-4.207 8.26-4.207 4.63 0 8.257 1.848 8.257 4.207s-3.627 4.208-8.258 4.208" mask="url(#qxrh1tv63d)"/>
                    <path fill="#FEFEFE" d="M89.904 200.208c0 2.06-3.487 3.727-7.778 3.727-4.298 0-7.781-1.668-7.781-3.727 0-2.06 3.483-3.727 7.78-3.727 4.292 0 7.779 1.666 7.779 3.727" mask="url(#qxrh1tv63d)"/>
                    <path fill="#231916" d="M82.125 196.96c-4.367 0-7.302 1.68-7.302 3.248 0 1.568 2.935 3.248 7.302 3.248 4.367 0 7.3-1.68 7.3-3.248 0-1.568-2.933-3.248-7.3-3.248m0 7.453c-4.63 0-8.259-1.847-8.259-4.205 0-2.359 3.628-4.206 8.26-4.206 4.63 0 8.257 1.847 8.257 4.206 0 2.358-3.627 4.205-8.258 4.205" mask="url(#qxrh1tv63d)"/>
                    <path fill="#FEFEFE" d="M96.639 228.706H67.612c0-8.22 6.503-14.903 14.528-14.903 7.998 0 14.499 6.683 14.499 14.903" mask="url(#qxrh1tv63d)"/>
                    <path fill="#231916" d="M68.098 228.227h28.055c-.247-7.733-6.438-13.945-14.013-13.945-7.591 0-13.795 6.212-14.042 13.945m28.54.958H67.613c-.264 0-.48-.215-.48-.478 0-8.481 6.735-15.382 15.008-15.382 8.26 0 14.978 6.9 14.978 15.382 0 .263-.215.478-.48.478" mask="url(#qxrh1tv63d)"/>
                    <path fill="#FEFEFE" d="M98.657 228.706L95.761 228.706 68.203 228.706 65.591 228.706" mask="url(#qxrh1tv63d)"/>
                    <path fill="#231916" d="M98.657 229.185H65.591c-.264 0-.48-.214-.48-.479 0-.264.215-.479.48-.479h33.067c.263 0 .478.215.478.479 0 .265-.215.479-.478.479M62.313 3.944c-4.507 0-8.173 3.776-8.173 8.418 0 4.641 3.666 8.417 8.173 8.417 4.51 0 8.18-3.776 8.18-8.417 0-4.642-3.67-8.418-8.18-8.418m0 17.793c-5.034 0-9.131-4.205-9.131-9.375 0-5.169 4.097-9.376 9.13-9.376 5.04 0 9.138 4.207 9.138 9.376 0 5.17-4.098 9.375-9.137 9.375" mask="url(#qxrh1tv63d)"/>
                    <path fill="#231916" d="M62.313 43.106c-.264 0-.48-.214-.48-.48V21.26c0-.265.216-.48.48-.48s.479.215.479.48v21.368c0 .265-.215.479-.48.479M48.864 51.843c-3.092 0-5.605 2.59-5.605 5.776 0 3.184 2.513 5.774 5.605 5.774 3.092 0 5.605-2.59 5.605-5.774 0-3.185-2.513-5.776-5.605-5.776m0 12.508c-3.62 0-6.562-3.02-6.562-6.732 0-3.713 2.943-6.734 6.562-6.734s6.563 3.02 6.563 6.734c0 3.712-2.944 6.732-6.563 6.732M75.772 51.843c-3.092 0-5.605 2.59-5.605 5.776 0 3.184 2.513 5.774 5.605 5.774 3.09 0 5.604-2.59 5.604-5.774 0-3.185-2.514-5.776-5.604-5.776m0 12.508c-3.62 0-6.562-3.02-6.562-6.732 0-3.713 2.943-6.734 6.562-6.734 3.617 0 6.562 3.02 6.562 6.734 0 3.712-2.945 6.732-6.562 6.732M49.09 70.068c-2.912 0-5.282 2.442-5.282 5.442 0 3.001 2.37 5.442 5.282 5.442h26.452c2.913 0 5.285-2.44 5.285-5.442 0-3-2.372-5.442-5.285-5.442H49.09zM75.542 81.91H49.09c-3.439 0-6.239-2.87-6.239-6.4 0-3.529 2.8-6.4 6.24-6.4h26.451c3.443 0 6.243 2.871 6.243 6.4 0 3.53-2.8 6.4-6.243 6.4z" mask="url(#qxrh1tv63d)"/>
                    <path fill="#FEFEFE" d="M117.536 161.76h-10.61v-30.494c0-4.599-3.64-8.337-8.113-8.337v-10.91c10.327 0 18.723 8.634 18.723 19.247v30.494z" mask="url(#qxrh1tv63d)"/>
                    <path fill="#231916" d="M107.405 161.281h9.652v-30.016c0-10.183-7.925-18.5-17.763-18.762v9.961c4.514.256 8.11 4.106 8.11 8.801v30.016zm10.61.958h-11.568v-30.974c0-4.332-3.424-7.857-7.633-7.857h-.478V111.54h.478c10.588 0 19.2 8.85 19.2 19.726v30.974zM7.569 161.281h9.653v-30.016c0-4.695 3.599-8.545 8.114-8.8v-9.962c-9.84.262-17.767 8.58-17.767 18.762v30.016zm10.61.958H6.612v-30.974c0-10.877 8.614-19.726 19.202-19.726h.48v11.87h-.48c-4.21 0-7.635 3.524-7.635 7.856v30.974z" mask="url(#qxrh1tv63d)"/>
                    <path fill="#FEFEFE" d="M95.07 130.46v-23.376c6.266 0 11.358 5.238 11.358 11.7 0 6.44-5.092 11.676-11.358 11.676" mask="url(#qxrh1tv63d)"/>
                    <path fill="#231916" d="M95.548 107.573v22.398c5.778-.26 10.401-5.178 10.401-11.187 0-6.022-4.623-10.951-10.4-11.211m-.48 23.366c-.263 0-.478-.214-.478-.48v-23.375c0-.265.215-.48.478-.48 6.528 0 11.838 5.464 11.838 12.18 0 6.702-5.31 12.155-11.838 12.155" mask="url(#qxrh1tv63d)"/>
                    <path fill="#FEFEFE" d="M29.557 107.082v23.376c-6.264 0-11.36-5.237-11.36-11.7 0-6.441 5.096-11.676 11.36-11.676" mask="url(#qxrh1tv63d)"/>
                    <path fill="#231916" d="M29.077 107.57c-5.777.26-10.4 5.179-10.4 11.189 0 6.022 4.623 10.95 10.4 11.21V107.57zm.48 23.367c-6.528 0-11.838-5.463-11.838-12.178 0-6.703 5.31-12.156 11.837-12.156.264 0 .48.214.48.479v23.376c0 .265-.216.479-.48.479zM124.387 176.816h-7.958v-9.23c0-2.603-2.06-4.718-4.588-4.718-2.53 0-4.59 2.115-4.59 4.717v9.231h-7.96v-9.23c0-7.113 5.628-12.9 12.55-12.9 6.92 0 12.546 5.787 12.546 12.9v9.23zM25.094 176.816h-7.96v-9.23c0-2.603-2.058-4.718-4.588-4.718-2.53 0-4.588 2.115-4.588 4.717v9.231H0v-9.23c0-7.113 5.624-12.9 12.546-12.9s12.548 5.787 12.548 12.9v9.23z" mask="url(#qxrh1tv63d)"/>
                </g>
            </g>
        </g>
    </g>
</svg>
