<svg xmlns="http://www.w3.org/2000/svg" xmlns:xlink="http://www.w3.org/1999/xlink" width="270" height="336" viewBox="0 0 270 336">
    <defs>
        <path id="7umkv2gbna" d="M0.096 0.936L60.116 0.936 60.116 68.175 0.096 68.175z"/>
        <path id="f75gy6syhc" d="M0.314 0.386L16.073 0.386 16.073 16.557 0.314 16.557z"/>
        <path id="eo6biadcte" d="M0.765 0.624L30.709 0.624 30.709 15 0.765 15z"/>
        <path id="ak8nb669rg" d="M0.71 0.624L30.651 0.624 30.651 15 0.71 15z"/>
        <path id="pmx1460wvi" d="M0 232.064L243.073 232.064 243.073 1 0 1z"/>
    </defs>
    <g fill="none" fill-rule="evenodd">
        <g>
            <g transform="translate(-1297 -88) translate(1297 88)">
                <rect width="270" height="336" fill="#FFF" rx="2"/>
                <g transform="translate(13 72)">
                    <path fill="#C8C9C9" d="M227.387 121.358c0 56.588-45.873 102.463-102.463 102.463-56.59 0-102.464-45.875-102.464-102.463 0-56.59 45.875-102.463 102.464-102.463 56.59 0 102.463 45.874 102.463 102.463"/>
                    <path fill="#231916" d="M157.886 139.836l-11.054-22.663c-1.151-2.362-.742-5.207 1.024-7.129L174.7 80.857l8.874 8.625-23.908 25.997 9.135 18.73-10.915 5.627z"/>
                    <path fill="#231916" d="M174.719 81.544l-26.512 28.825c-1.625 1.77-2.005 4.42-.944 6.595l10.839 22.222 10.063-5.188-9.072-18.602 23.814-25.895-8.188-7.957zm-17.048 58.942l-11.268-23.103c-1.233-2.526-.79-5.606 1.1-7.662l27.179-29.55 9.56 9.292-24.001 26.1 9.197 18.857-11.767 6.066zM185.817 220.109L175.137 219.723 177.547 149.596 188.23 149.983z"/>
                    <path fill="#231916" d="M176.127 218.8l8.767.318 2.346-68.213-8.769-.317-2.344 68.213zm10.614 2.3l-12.593-.455 2.475-72.04 12.597.456-2.479 72.039zM202.6 220.109L200.189 149.983 210.871 149.596 213.282 219.723z"/>
                    <path fill="#231916" d="M201.178 150.904l2.346 68.213 8.768-.317-2.345-68.213-8.77.317zm.498 70.196l-2.477-72.04 12.595-.455 2.477 72.04-12.595.455z"/>
                    <path fill="#231916" d="M219.519 167.85L168.899 167.85 168.899 141.023 219.48 141.023zM219.519 92.838c0 .089-.043.177-.043.288v47.897h-50.58V92.838c0-3.964 1.648-7.629 4.439-10.64l.01.011c5.925 1.528 12.98 2.414 20.562 2.414 7.798 0 15.035-.941 21.047-2.535 2.874 3.044 4.565 6.753 4.565 10.75"/>
                    <path fill="#FEFEFE" d="M201.36 74.836c5.558 1.217 10.33 3.809 13.593 7.252-6.012 1.594-13.249 2.535-21.047 2.535-7.582 0-14.637-.886-20.56-2.413l-.01-.012c3.262-3.51 8.087-6.145 13.73-7.374V67.66h14.293v7.175z"/>
                    <path fill="#231916" d="M169.375 140.544h49.621V93.126c0-.113.021-.206.036-.268.007-3.765-1.526-7.369-4.428-10.441-3.23-3.41-7.972-5.937-13.347-7.114l-.376-.083v-7.08h-13.336v7.07l-.378.082c-5.463 1.19-10.25 3.758-13.482 7.232-2.819 3.042-4.31 6.609-4.31 10.314v47.706zm50.58.958h-51.537V92.838c0-3.95 1.578-7.742 4.565-10.966 3.288-3.535 8.108-6.165 13.605-7.432v-7.258h15.25v7.271c5.407 1.252 10.177 3.838 13.463 7.305v.001c3.073 3.253 4.696 7.085 4.696 11.079 0 .096-.018.177-.032.235l-.01 48.429z"/>
                    <path fill="#231916" d="M193.906 85.301c-7.386 0-14.555-.842-20.73-2.435-.364-.093-.58-.464-.487-.827.094-.363.454-.58.826-.488 6.066 1.565 13.118 2.392 20.391 2.392 7.46 0 14.676-.869 20.873-2.512.353-.096.77.091.875.44.108.347-.026.701-.368.822-.012.004-.075.025-.085.027-6.383 1.697-13.722 2.581-21.295 2.581M223.437 37.406c0 16.653-13.13 30.154-29.332 30.154-16.2 0-29.33-13.5-29.33-30.154 0-20.154 13.13-35.728 29.33-35.728 16.202 0 29.332 16.94 29.332 35.728"/>
                    <g transform="translate(164 .064)">
                        <mask id="kuk33lwmkb" fill="#fff">
                            <use xlink:href="#7umkv2gbna"/>
                        </mask>
                        <path fill="#231916" d="M30.105 2.294C14.04 2.294 1.454 17.69 1.454 37.342c0 16.254 12.852 29.476 28.65 29.476 15.802 0 28.654-13.222 28.654-29.476 0-18.998-13.122-35.048-28.653-35.048m0 65.881c-16.547 0-30.01-13.831-30.01-30.833C.096 16.928 13.279.936 30.106.936c16.269 0 30.01 16.672 30.01 36.406 0 17.002-13.461 30.833-30.01 30.833" mask="url(#kuk33lwmkb)"/>
                    </g>
                    <path fill="#FEFEFE" d="M213.977 50.937v2.19c-.194 5.26-3.217 10.198-7.17 13.862-3.951 3.665-8.832 6.015-12.708 6.015-7.788 0-19.917-9.878-19.917-20.672V42.214c13.988-7.01 19.762-18.64 19.762-18.64s5.85 11.788 20.033 18.8v8.563z"/>
                    <path fill="#231916" d="M214.016 43.052h-.04c-.104 0-.207-.024-.3-.07-11.843-5.855-17.897-14.868-19.732-18.003-1.82 3.108-7.793 11.996-19.457 17.842-.336.167-.744.033-.91-.303-.17-.335-.035-.742.3-.911 13.607-6.82 19.403-18.222 19.459-18.336.115-.23.35-.376.608-.376s.494.146.608.376c.058.116 5.919 11.653 19.689 18.476.25.102.433.344.433.626 0 .375-.284.679-.658.679M194.099 73.483c-3.993 0-9.056-2.46-13.21-6.421-4.567-4.354-7.186-9.723-7.186-14.73v-1.395c0-.265.215-.478.479-.478s.479.213.479.478v1.395c0 10.755 12.116 20.193 19.438 20.193 3.722 0 8.467-2.255 12.384-5.886 4.286-3.976 6.845-8.907 7.015-13.53v-2.172c0-.265.215-.478.479-.478s.478.213.478.478v2.191c-.183 4.963-2.783 10.005-7.322 14.212-4.085 3.789-9.08 6.143-13.034 6.143"/>
                    <path fill="#231916" d="M213.977 51.616c-.374 0-.68-.304-.68-.679v-8.564c0-.375.306-.679.68-.679.374 0 .679.304.679.68v8.563c0 .375-.305.68-.68.68M174.182 51.616c-.374 0-.68-.304-.68-.679v-8.723c0-.375.306-.679.68-.679.374 0 .679.304.679.68v8.722c0 .375-.305.68-.68.68M195.057 57.385c-.02 0-.037 0-.056-.003l-2.055-.239c-.566-.066-1.065-.374-1.41-.868-.493-.709-.631-1.71-.378-2.745l1.434-5.895c.064-.255.318-.41.579-.352.257.062.414.321.353.578l-1.435 5.896c-.185.757-.097 1.494.234 1.971.13.187.364.421.733.463l2.057.24c.262.03.45.267.419.53-.028.244-.236.424-.475.424M193.5 61.432c-2.422 0-4.509-.354-4.664-.381-.26-.045-.434-.292-.389-.553.043-.26.282-.441.554-.39.061.01 6.512 1.104 9.69-.558.234-.12.523-.033.647.203.121.235.031.524-.202.646-1.543.805-3.696 1.033-5.637 1.033M186.173 46.596c0 1.185-.936 2.146-2.088 2.146-1.151 0-2.083-.96-2.083-2.146 0-1.185.932-2.146 2.083-2.146 1.152 0 2.088.961 2.088 2.146M205.874 46.596c0 1.185-.933 2.146-2.085 2.146s-2.089-.96-2.089-2.146c0-1.185.937-2.146 2.09-2.146 1.151 0 2.084.961 2.084 2.146M186.618 42.576c-.014 0-.024 0-.038-.002l-5.063-.402c-.263-.02-.46-.252-.439-.515.02-.264.252-.453.514-.439l5.063.402c.264.02.46.251.44.516-.019.25-.23.44-.477.44M201.259 42.576c-.247 0-.458-.19-.478-.44-.02-.265.176-.496.44-.516l5.065-.402c.264-.012.494.175.515.44.02.262-.177.493-.44.514l-5.065.402-.037.002"/>
                    <path fill="#FEFEFE" d="M242.594 147.536c0 4.202-3.315 7.606-7.402 7.606s-7.4-3.404-7.4-7.606c0-4.2 3.313-7.607 7.4-7.607s7.402 3.406 7.402 7.607"/>
                    <g transform="translate(227 139.064)">
                        <mask id="b42fxm53gd" fill="#fff">
                            <use xlink:href="#f75gy6syhc"/>
                        </mask>
                        <path fill="#231916" d="M8.192 1.344c-3.815 0-6.92 3.197-6.92 7.128 0 3.93 3.105 7.128 6.92 7.128 3.817 0 6.924-3.198 6.924-7.128s-3.107-7.128-6.924-7.128m0 15.213c-4.345 0-7.878-3.627-7.878-8.085C.314 4.014 3.847.386 8.192.386c4.347 0 7.882 3.628 7.882 8.086s-3.535 8.085-7.882 8.085" mask="url(#b42fxm53gd)"/>
                    </g>
                    <path fill="#231916" d="M241.255 142.201h-12.024c0-37.009-20.057-48.754-20.911-49.237l5.651-10.91c1.113.603 27.284 15.301 27.284 60.147"/>
                    <path fill="#231916" d="M229.708 141.722h11.066c-.173-41.65-23.06-56.893-26.607-59.004l-5.214 10.068c2.974 1.874 20.594 14.43 20.755 48.936zm12.026.958h-12.982v-.479c0-36.705-19.823-48.343-20.667-48.82l-.402-.227L213.77 81.4l.43.233c1.123.61 27.534 15.443 27.534 60.568v.48z"/>
                    <path fill="#FEFEFE" d="M172.654 146.383c2.655-2.857 1.842-8.096-1.827-11.722-3.67-3.597-8.808-4.225-11.468-1.37-2.659 2.857-1.83 8.096 1.841 11.711 3.67 3.612 8.794 4.223 11.454 1.381"/>
                    <path fill="#231916" d="M163.764 131.978c-.052 0-.103 0-.155.002-1.586.036-2.934.602-3.899 1.638-2.477 2.66-1.658 7.614 1.827 11.043 1.962 1.93 4.398 3.03 6.707 3.03h.147c1.59-.033 2.943-.598 3.913-1.635 2.474-2.662 1.661-7.621-1.814-11.054-1.94-1.901-4.442-3.024-6.726-3.024zm4.482 16.67c-2.56 0-5.24-1.197-7.383-3.305-3.849-3.79-4.68-9.342-1.854-12.377 1.145-1.23 2.728-1.901 4.578-1.944 2.646-.035 5.377 1.143 7.574 3.298 3.842 3.794 4.667 9.35 1.843 12.39-1.15 1.229-2.739 1.9-4.592 1.937-.056.002-.112.002-.166.002z"/>
                    <path fill="#FEFEFE" d="M184.98 218.166h-12.584s-2.841 2.577-3.652 4.175c-.812 1.597-9.5-1.843-9.5 5.157v4.087h28.986V222.586s-.49-4.42-3.25-4.42"/>
                    <g transform="translate(158 217.064)">
                        <mask id="mjsgx8hbof" fill="#fff">
                            <use xlink:href="#eo6biadcte"/>
                        </mask>
                        <path fill="#231916" d="M1.723 14.043H29.75V5.522c-.004 0-.476-3.941-2.771-3.941H14.583c-.564.526-2.748 2.605-3.413 3.914-.396.782-1.551.764-3.135.754-1.806-.025-4.058-.042-5.306 1.19-.677.672-1.006 1.65-1.006 2.995v3.609zM30.709 15H.765v-4.567c0-1.591.435-2.826 1.29-3.674 1.532-1.515 4.009-1.493 5.989-1.47.805.013 2.146.023 2.273-.23.842-1.657 3.639-4.205 3.758-4.312l.136-.124H26.98c3.153 0 3.705 4.648 3.725 4.846l.004 9.53z" mask="url(#mjsgx8hbof)"/>
                    </g>
                    <path fill="#FEFEFE" d="M203.436 218.166H216.02s2.842 2.577 3.653 4.175c.812 1.597 9.499-1.843 9.499 5.157v4.087h-28.984V222.586s.488-4.42 3.247-4.42"/>
                    <g transform="translate(199 217.064)">
                        <mask id="p7giq6fn9h" fill="#fff">
                            <use xlink:href="#ak8nb669rg"/>
                        </mask>
                        <path fill="#231916" d="M1.668 14.043h28.026v-3.61c0-1.343-.329-2.322-1.006-2.993-1.248-1.233-3.503-1.218-5.306-1.191-1.582.01-2.738.027-3.135-.754-.666-1.31-2.849-3.388-3.413-3.914H4.436c-2.297 0-2.767 3.955-2.772 3.995l.004 8.467zM30.651 15H.711V5.52c.023-.25.573-4.897 3.725-4.897h12.77l.137.124c.118.107 2.916 2.655 3.757 4.313.128.252 1.468.24 2.272.23 1.992-.024 4.46-.045 5.99 1.469.856.848 1.29 2.083 1.29 3.674V15z" mask="url(#p7giq6fn9h)"/>
                    </g>
                    <mask id="jtsuhouwtj" fill="#fff">
                        <use xlink:href="#pmx1460wvi"/>
                    </mask>
                    <path fill="#FEFEFE" d="M0.479 82.656L141.318 82.656 141.318 73.517 0.479 73.517z" mask="url(#jtsuhouwtj)"/>
                    <path fill="#231916" d="M.957 82.177h139.881v-8.182H.957v8.182zM0 83.135h141.796V73.038H0v10.097z" mask="url(#jtsuhouwtj)"/>
                    <path fill="#231916" d="M12.425 205.709h7.932V62.273h-7.932v143.436zm-.958.957h9.847V61.314h-9.847v145.352z" mask="url(#jtsuhouwtj)"/>
                    <path fill="#FEFEFE" d="M120.959 206.187L129.85 206.187 129.85 61.793 120.959 61.793z" mask="url(#jtsuhouwtj)"/>
                    <path fill="#231916" d="M121.438 205.709h7.934V62.273h-7.934v143.436zm-.959.957h9.85V61.314h-9.85v145.352z" mask="url(#jtsuhouwtj)"/>
                    <path fill="#FEFEFE" d="M25.603 78.086c0 5.231-4.124 9.472-9.213 9.472-5.088 0-9.214-4.241-9.214-9.472s4.126-9.473 9.214-9.473c5.089 0 9.213 4.242 9.213 9.473" mask="url(#jtsuhouwtj)"/>
                    <path fill="#231916" d="M16.39 69.092c-4.816 0-8.734 4.034-8.734 8.994s3.918 8.993 8.734 8.993c4.815 0 8.734-4.034 8.734-8.993 0-4.96-3.92-8.994-8.734-8.994m0 18.944c-5.344 0-9.692-4.464-9.692-9.95 0-5.487 4.348-9.952 9.692-9.952 5.343 0 9.69 4.465 9.69 9.952 0 5.486-4.347 9.95-9.69 9.95" mask="url(#jtsuhouwtj)"/>
                    <path fill="#FEFEFE" d="M134.617 78.086c0 5.231-4.126 9.472-9.215 9.472-5.089 0-9.215-4.241-9.215-9.472s4.126-9.473 9.215-9.473c5.09 0 9.215 4.242 9.215 9.473" mask="url(#jtsuhouwtj)"/>
                    <path fill="#231916" d="M125.403 69.092c-4.818 0-8.737 4.034-8.737 8.994s3.92 8.993 8.737 8.993 8.735-4.034 8.735-8.993c0-4.96-3.918-8.994-8.736-8.994m0 18.944c-5.346 0-9.692-4.464-9.692-9.95 0-5.487 4.347-9.952 9.693-9.952 5.346 0 9.693 4.465 9.693 9.952 0 5.486-4.347 9.95-9.694 9.95M5.568 223.276L136.808 223.276 136.808 206.187 5.568 206.187z" mask="url(#jtsuhouwtj)"/>
                    <path fill="#231916" d="M6.247 222.597h129.882v-15.731H6.247v15.731zm-1.359 1.358h132.598v-18.447H4.888v18.447zM34.56 185.525L107.814 185.525 107.814 178.372 34.56 178.372z" mask="url(#jtsuhouwtj)"/>
                    <path fill="#231916" d="M35.238 184.846h71.896v-5.795H35.238v5.795zm-1.357 1.358h74.612v-8.511H33.881v8.511z" mask="url(#jtsuhouwtj)"/>
                    <path fill="#231916" d="M65.485 206.187L78.048 206.187 78.048 185.525 65.485 185.525z" mask="url(#jtsuhouwtj)"/>
                    <path fill="#231916" d="M66.164 205.508h11.205v-19.305H66.164v19.305zm-1.357 1.358h13.92v-22.02h-13.92v22.02z" mask="url(#jtsuhouwtj)"/>
                    <path fill="#FEFEFE" d="M73.425 161.98c0 9.765-7.702 17.682-17.201 17.682-9.504 0-17.203-7.917-17.203-17.681 0-9.77 7.699-17.686 17.203-17.686 9.499 0 17.201 7.917 17.201 17.686" mask="url(#jtsuhouwtj)"/>
                    <path fill="#231916" d="M56.224 144.774c-9.223 0-16.725 7.719-16.725 17.207 0 9.484 7.502 17.202 16.725 17.202 9.22 0 16.722-7.718 16.722-17.202 0-9.488-7.501-17.207-16.722-17.207m0 35.367c-9.75 0-17.683-8.147-17.683-18.16 0-10.017 7.933-18.166 17.683-18.166 9.748 0 17.68 8.15 17.68 18.166 0 10.013-7.932 18.16-17.68 18.16" mask="url(#jtsuhouwtj)"/>
                    <path fill="#FEFEFE" d="M72.254 179.662L88.393 145.893 104.517 179.662z" mask="url(#jtsuhouwtj)"/>
                    <path fill="#231916" d="M73.013 179.183h30.744l-15.364-32.18-15.38 32.18zm31.504.958H72.254c-.165 0-.318-.084-.406-.224-.086-.14-.097-.313-.026-.462l16.139-33.768c.08-.167.247-.273.432-.273s.353.106.433.273l16.123 33.768c.07.149.06.323-.026.462-.088.14-.241.224-.406.224z" mask="url(#jtsuhouwtj)"/>
                    <path fill="#FEFEFE" d="M70.898 82.605h14.98v11.229s-.387 5.86-8.7 5.86H64.616c-8.31 0-8.697-5.86-8.697-5.86v-11.23h14.979z" mask="url(#jtsuhouwtj)"/>
                    <path fill="#231916" d="M56.398 83.083v10.75c.015.188.484 5.382 8.218 5.382h12.563c7.736 0 8.206-5.194 8.224-5.416L85.4 83.083H56.398zm20.78 17.09H64.617c-8.657 0-9.17-6.246-9.174-6.308l-.002-11.26c0-.265.215-.48.479-.48h29.96c.264 0 .479.215.479.48v11.228c-.005.094-.52 6.34-9.18 6.34z" mask="url(#jtsuhouwtj)"/>
                    <path fill="#FEFEFE" d="M63.641 109.629L78.151 109.629 78.151 99.679 63.641 99.679z" mask="url(#jtsuhouwtj)"/>
                    <path fill="#231916" d="M64.12 109.15h13.552v-8.993H64.12v8.993zm14.031.958h-14.51c-.264 0-.479-.215-.479-.479v-9.95c0-.265.215-.479.479-.479h14.51c.264 0 .479.214.479.479v9.95c0 .264-.215.479-.479.479z" mask="url(#jtsuhouwtj)"/>
                    <path fill="#FEFEFE" d="M68.239 116.284L73.554 116.284 73.554 109.628 68.239 109.628z" mask="url(#jtsuhouwtj)"/>
                    <path fill="#231916" d="M68.717 115.805h4.358v-5.698h-4.358v5.698zm4.837.958h-5.316c-.263 0-.478-.214-.478-.479v-6.655c0-.265.215-.479.478-.479h5.316c.264 0 .478.214.478.479v6.655c0 .265-.214.479-.478.479z" mask="url(#jtsuhouwtj)"/>
                </g>
            </g>
        </g>
    </g>
</svg>
