<svg xmlns="http://www.w3.org/2000/svg" xmlns:xlink="http://www.w3.org/1999/xlink" width="270" height="336" viewBox="0 0 270 336">
    <defs>
        <path id="dd2wogmb1a" d="M0 221.865L210.106 221.865 210.106 0 0 0z"/>
    </defs>
    <g fill="none" fill-rule="evenodd">
        <g>
            <g transform="translate(-1297 -1180) translate(1297 1180)">
                <rect width="270" height="336" fill="#FFF" rx="2"/>
                <g transform="translate(30 77)">
                    <path fill="#C8C9C9" d="M210.106 118.587c0 56.588-45.873 102.463-102.463 102.463-56.59 0-102.464-45.875-102.464-102.463 0-56.591 45.875-102.464 102.464-102.464 56.59 0 102.463 45.873 102.463 102.464"/>
                    <path fill="#FEFEFE" d="M57.378 38.81c0-1.232.944-2.219 2.156-2.219 1.173 0 2.158.987 2.158 2.22 0 1.22-.985 2.204-2.158 2.204-1.212 0-2.156-.985-2.156-2.205m-13.89 12.403h12.464c0 2.162-1.719 3.902-3.795 3.902H47.27c-2.089 0-3.782-1.74-3.782-3.902M41.518 38.81c0-1.232.957-2.219 2.156-2.219 1.185 0 2.156.987 2.156 2.22 0 1.22-.97 2.204-2.156 2.204-1.199 0-2.156-.985-2.156-2.205m-25.756 3.71c0 4.175 2.61 6.406 7.657 6.406 1.625 5.175 6.338 9.72 10.147 12.636 3.223 2.478 7.044 3.915 11.174 3.915.757 0 1.545-.055 2.29-.15 10.507-1.382 18.71-12.17 18.71-25.258V21.096H35.765s-5.834.561-5.834 10.075v3.258s-1.985.206-3.769 3.025v.124l.027 1.958h-2.77v-3.614c-1.652 0-3.184.164-4.436.698-1.958.807-3.22 2.52-3.22 5.9"/>
                    <path fill="#231916" d="M18.917 18.865v17.577l.066.178c1.252-.533 2.784-.697 4.436-.697v3.613h2.77l-.027-1.958v-.124c1.784-2.818 3.77-3.025 3.77-3.025v-3.257c0-9.515 5.833-10.076 5.833-10.076H65.74S67.085 2.6 49.466 2.6H34.191s-8.348.356-8.348 8.694c-.2 0-6.926.054-6.926 7.571"/>
                    <path fill="#FEFEFE" d="M33.567 61.562v6.94c0 3.82 3.01 6.928 6.739 6.928 3.714 0 6.724-3.108 6.724-6.928v-3.175c-.744.095-1.532.15-2.29.15-4.13 0-7.95-1.436-11.173-3.915"/>
                    <path fill="#231916" d="M43.674 36.592c-1.199 0-2.156.986-2.156 2.218 0 1.22.957 2.206 2.156 2.206 1.186 0 2.156-.986 2.156-2.206 0-1.233-.97-2.218-2.156-2.218"/>
                    <path fill="#FEFEFE" d="M55.953 51.214H43.486c0 2.162 1.694 3.9 3.782 3.9h4.889c2.075 0 3.794-1.738 3.794-3.9"/>
                    <path fill="#231916" d="M59.535 36.592c-1.212 0-2.156.986-2.156 2.218 0 1.22.944 2.206 2.156 2.206 1.173 0 2.158-.986 2.158-2.206 0-1.233-.985-2.218-2.158-2.218M23.418 49.405c-5.246 0-8.136-2.444-8.136-6.885 0-3.291 1.151-5.365 3.52-6.344 1.173-.499 2.641-.733 4.616-.733.264 0 .48.216.48.48v3.613c0 .264-.216.478-.48.478s-.479-.214-.479-.478v-3.129c-1.599.033-2.805.243-3.768.654-2 .825-2.93 2.559-2.93 5.459 0 3.934 2.413 5.928 7.177 5.928.264 0 .48.215.48.478 0 .264-.216.479-.48.479"/>
                    <path fill="#231916" d="M44.74 65.956c-4.086 0-8.05-1.388-11.465-4.014-3.082-2.358-8.522-7.17-10.312-12.871-.08-.253.059-.522.312-.6.268-.081.524.063.6.312 1.714 5.45 6.99 10.109 9.984 12.4 3.844 2.957 8.347 4.28 13.11 3.669 10.428-1.371 18.293-12.026 18.293-24.783V21.575H35.765c-.264 0-.48-.215-.48-.478 0-.264.216-.48.48-.48H65.74c.264 0 .48.216.48.48v18.972c0 13.237-8.223 24.299-19.128 25.734-.785.1-1.598.153-2.351.153"/>
                    <path fill="#231916" d="M47.03 69.182c-.374 0-.68-.306-.68-.68v-3.175c0-.374.306-.679.68-.679.374 0 .679.305.679.68v3.174c0 .374-.305.68-.68.68M26.163 37.932c-.088 0-.177-.023-.258-.074-.222-.14-.289-.436-.146-.66 1.405-2.222 2.959-2.929 3.694-3.15v-2.877c0-9.836 6.203-10.547 6.265-10.552.293-.022.495.167.521.428.028.264-.164.498-.426.526-.22.022-5.404.671-5.404 9.598v3.258c0 .245-.184.451-.43.478-.066.006-1.793.245-3.412 2.803-.09.144-.245.222-.404.222M46.725 34.155h-6.114c-.264 0-.479-.215-.479-.479s.215-.479.479-.479h6.114c.264 0 .479.215.479.479s-.215.479-.479.479M62.584 34.155h-6.127c-.264 0-.478-.215-.478-.479s.214-.479.478-.479h6.127c.265 0 .48.215.48.479s-.215.479-.48.479M51.411 48.543c-1.276 0-2.386-.751-2.892-1.964-.102-.244.014-.525.258-.626.25-.104.523.013.626.256.355.85 1.123 1.377 2.008 1.377 1.19 0 2.158-1.008 2.158-2.246 0-.264.215-.48.48-.48.264 0 .479.216.479.48 0 1.767-1.398 3.203-3.117 3.203"/>
                    <path fill="#231916" d="M54.05 45.818c-.266 0-.48-.215-.48-.479v-5.803c0-.264.214-.479.48-.479.263 0 .478.215.478.48v5.802c0 .264-.215.48-.479.48M40.306 75.91c-3.98 0-7.218-3.322-7.218-7.407v-6.941c0-.263.215-.478.479-.478.263 0 .478.215.478.478v6.94c0 3.556 2.808 6.45 6.261 6.45 3.442 0 6.244-2.894 6.244-6.45 0-.263.216-.478.48-.478.263 0 .478.215.478.479 0 4.085-3.231 7.407-7.202 7.407M26.189 40.014h-2.771c-.263 0-.478-.215-.478-.479 0-.263.215-.478.478-.478h2.287l-.021-1.475c-.004-.263.207-.48.473-.484.222.01.48.208.484.474l.027 1.958c0 .127-.05.251-.14.342-.09.091-.212.142-.34.142M43.997 51.693c.227 1.66 1.606 2.943 3.271 2.943h4.89c1.67 0 3.058-1.283 3.283-2.943H43.997zm8.16 3.901h-4.889c-2.349 0-4.26-1.965-4.26-4.38 0-.264.215-.479.478-.479h12.466c.264 0 .48.215.48.48 0 2.414-1.918 4.38-4.275 4.38zM18.916 36.92c-.264 0-.479-.214-.479-.478V18.865c0-6.87 5.291-7.878 6.934-8.025.3-8.258 8.714-8.714 8.8-8.718h15.295c5.18 0 9.267 1.57 12.151 4.672 5.174 5.565 4.626 13.98 4.6 14.338-.017.262-.274.486-.51.44-.265-.017-.463-.246-.444-.51.006-.083.54-8.367-4.353-13.62-2.693-2.894-6.544-4.362-11.444-4.362H34.191c-.3.015-7.87.444-7.87 8.214 0 .264-.216.48-.479.48-.264 0-6.447.08-6.447 7.09v17.578c0 .264-.215.479-.479.479"/>
                    <path fill="#FEFEFE" d="M.513 138.539c.382 3.936 3.793 6.812 7.627 6.419 3.831-.39 6.629-3.898 6.247-7.833-.378-3.937-3.793-6.815-7.623-6.426-3.835.39-6.629 3.902-6.251 7.84"/>
                    <path fill="#231916" d="M.99 138.492c.176 1.814 1.035 3.438 2.42 4.57 1.33 1.09 2.989 1.6 4.682 1.419 3.565-.361 6.174-3.641 5.819-7.31-.174-1.814-1.033-3.437-2.417-4.573-1.328-1.087-2.99-1.604-4.682-1.422-3.562.362-6.174 3.645-5.822 7.316m6.447 6.98c-1.681 0-3.302-.58-4.633-1.668-1.584-1.296-2.567-3.15-2.767-5.218v-.002c-.402-4.194 2.594-7.946 6.679-8.363 1.952-.181 3.858.386 5.386 1.637 1.582 1.3 2.564 3.154 2.762 5.222.406 4.19-2.588 7.939-6.675 8.354-.251.025-.503.038-.752.038"/>
                    <path fill="#FEFEFE" d="M1.291 133.405l11.267-1.146c-3.344-34.687 14.393-47.617 15.15-48.148l-6.28-9.686c-.992.672-24.192 16.948-20.137 58.98"/>
                    <path fill="#231916" d="M21.298 75.105C18.09 77.486-1.856 93.955 1.723 132.88l10.313-1.049C9.081 99.507 24.384 86.082 27.062 83.995l-5.764-8.89zM.861 133.93l-.047-.478c-4.08-42.315 19.344-58.745 20.343-59.424l.407-.276 6.796 10.486-.377.263c-.748.526-18.27 13.267-14.949 47.71l.045.475L.861 133.93z"/>
                    <path fill="#FEFEFE" d="M115.16 91.908c3.707-1.062 5.873-5.014 4.84-8.826-1.037-3.814-4.882-6.039-8.588-4.981-3.704 1.063-5.874 5.017-4.842 8.828 1.034 3.814 4.879 6.041 8.59 4.979"/>
                    <path fill="#231916" d="M113.287 78.316c-.584 0-1.169.081-1.745.245-3.448.99-5.472 4.688-4.51 8.243.475 1.748 1.588 3.193 3.133 4.066 1.497.843 3.221 1.044 4.863.578 3.45-.989 5.473-4.685 4.51-8.24-.475-1.749-1.59-3.194-3.136-4.067-.969-.546-2.037-.825-3.115-.825zm-.012 14.337c-1.239 0-2.467-.32-3.58-.949-1.771-1-3.045-2.652-3.586-4.65-1.1-4.056 1.22-8.279 5.17-9.413 1.89-.535 3.874-.3 5.594.666 1.77 1.001 3.046 2.651 3.59 4.65 1.099 4.056-1.22 8.28-5.17 9.411h-.003c-.664.191-1.34.285-2.015.285z"/>
                    <path fill="#FEFEFE" d="M110.106 92.01l-3.037-11.216c-32.663 9.364-48.11-6.373-48.748-7.048l-8.203 8.034c.819.882 20.409 21.575 59.988 10.23"/>
                    <path fill="#231916" d="M50.792 81.788c2.777 2.77 22.087 20.2 58.73 9.89l-2.789-10.29c-30.415 8.536-45.905-4.573-48.415-6.97l-7.526 7.37zm36.696 14.076c-24.627 0-37.072-13.056-37.722-13.76l-.317-.342 8.884-8.7.335.355c.633.667 15.84 16.22 48.268 6.918l.467-.135 3.288 12.14-.453.13c-8.483 2.43-16.067 3.394-22.75 3.394z"/>
                    <path fill="#FEFEFE" d="M74.173 220.114v1.272h-27.3v-5.903s.457-4.161 3.054-4.161h.862v5.477h6.737v-5.477h4.26s2.67 2.432 3.44 3.932c.76 1.502 8.947-1.731 8.947 4.86"/>
                    <path fill="#FEFEFE" d="M57.526 211.322L57.526 216.799 50.79 216.799 50.79 211.322 51.53 211.322 56.045 214.326 56.126 211.322z"/>
                    <path fill="#FEFEFE" d="M57.526 208.925L57.526 211.322 56.126 211.322 56.045 214.326 51.53 211.322 50.79 211.322 50.79 208.925zM45.636 220.114v1.272h-27.3v-5.903s.455-4.161 3.054-4.161h.861v5.477h6.756v-5.477h4.242s2.678 2.432 3.44 3.932c.76 1.502 8.947-1.731 8.947 4.86"/>
                    <path fill="#FEFEFE" d="M29.007 211.322L29.007 216.799 22.251 216.799 22.251 211.322 23.001 211.322 27.507 214.326 27.587 211.322z"/>
                    <path fill="#FEFEFE" d="M29.007 208.925L29.007 211.322 27.587 211.322 27.507 214.326 23.001 211.322 22.251 211.322 22.251 208.925z"/>
                    <path fill="#231916" d="M57.526 211.8c-.264 0-.48-.215-.48-.479v-1.917h-5.778v1.917c0 .264-.216.48-.48.48-.263 0-.478-.215-.478-.48v-2.397c0-.263.215-.478.479-.478h6.737c.264 0 .479.215.479.478v2.397c0 .264-.215.48-.48.48"/>
                    <path fill="#231916" d="M47.35 220.907h26.345v-.793c0-1.257-.307-2.173-.942-2.798-1.165-1.155-3.27-1.131-4.98-1.12-1.492.017-2.594.026-2.974-.726-.627-1.217-2.657-3.161-3.2-3.669h-5.01l-.09 3.402-5.114-3.402h-1.46c-2.135 0-2.572 3.698-2.578 3.735l.004 5.371zm27.302.958H46.394v-6.382c.023-.239.542-4.639 3.532-4.639h1.747l3.915 2.605.07-2.605h6.313l.137.125c.112.1 2.744 2.505 3.544 4.066.114.225 1.41.211 2.112.203 1.885-.009 4.214-.039 5.665 1.398.812.804 1.223 1.975 1.223 3.478v1.751zM29.007 211.8c-.264 0-.479-.215-.479-.479v-1.917H22.73v1.917c0 .264-.215.48-.479.48s-.478-.215-.478-.48v-2.397c0-.263.214-.478.478-.478h6.756c.264 0 .48.215.48.478v2.397c0 .264-.216.48-.48.48"/>
                    <path fill="#231916" d="M18.814 220.907h26.344v-.793c0-1.257-.307-2.171-.942-2.798-1.165-1.157-3.291-1.137-4.98-1.12-1.521.013-2.594.023-2.974-.726-.62-1.219-2.656-3.163-3.2-3.669h-5.01l-.09 3.404-5.106-3.404h-1.467c-2.138 0-2.573 3.698-2.58 3.735l.005 5.371zm27.3.958H17.857v-6.382c.024-.239.54-4.639 3.533-4.639h1.759l3.903 2.603.07-2.603h6.313l.137.123c.112.102 2.753 2.509 3.544 4.07.114.223 1.414.213 2.112.201 1.877-.013 4.213-.039 5.665 1.398.812.804 1.223 1.975 1.223 3.478v1.751zM47.851 210.337L61.059 209.847 58.582 140.342 45.374 140.84zM32.963 210.337L35.436 140.84 22.231 140.342 19.758 209.847z"/>
                    <mask id="inpf2w026b" fill="#fff">
                        <use xlink:href="#dd2wogmb1a"/>
                    </mask>
                    <path fill="#231916" d="M21.831 151.552L58.78 151.552 58.78 140.341 21.831 140.341z" mask="url(#inpf2w026b)"/>
                    <path fill="#FEFEFE" d="M16.251 85.617v59.674h23.997v-38.84l-17.166-18.22 6.221-6.721-7.285-4.216 4.767-6.586c-6.367 3.245-10.534 8.709-10.534 14.909" mask="url(#inpf2w026b)"/>
                    <path fill="#FEFEFE" d="M26.785 70.708l-4.768 6.586 7.287 4.216-6.221 6.72 17.166 18.222-11.96-36.441c-.519.218-1.012.453-1.49.684l-.014.013z" mask="url(#inpf2w026b)"/>
                    <path fill="#FEFEFE" d="M28.29 70.01l11.958 36.441 11.945-36.44c-3.514-1.533-7.59-2.396-11.945-2.396s-8.443.877-11.959 2.395M40.248 106.452v38.839h23.984V85.617c0-6.216-4.18-11.691-10.559-14.922l4.78 6.599-7.285 4.216 6.232 6.72-17.152 18.222z" mask="url(#inpf2w026b)"/>
                    <path fill="#FEFEFE" d="M52.194 70.01l-11.945 36.441L57.4 88.231l-6.232-6.721 7.285-4.217-4.781-6.598c-.48-.247-.972-.478-1.48-.684" mask="url(#inpf2w026b)"/>
                    <path fill="#231916" d="M16.73 144.812h47.023V85.617c0-5.812-3.848-11.23-10.297-14.495-.47-.242-.95-.468-1.442-.668-3.545-1.545-7.608-2.36-11.766-2.36-4.13 0-8.2.815-11.768 2.356-.496.21-.965.43-1.42.651-.018.011-.037.024-.058.033-6.432 3.28-10.271 8.694-10.271 14.483v59.195zm47.503.957H16.252c-.264 0-.48-.215-.48-.478V85.617c0-6.143 4.017-11.863 10.746-15.309.023-.017.047-.032.07-.043.487-.236.989-.474 1.514-.696 3.687-1.592 7.887-2.434 12.146-2.434 4.289 0 8.486.842 12.136 2.436.509.208 1.014.445 1.508.697 6.774 3.433 10.819 9.17 10.819 15.35v59.673c0 .263-.214.478-.478.478z" mask="url(#inpf2w026b)"/>
                    <path fill="#231916" d="M40.247 106.93c-.049 0-.099-.008-.149-.024-.25-.082-.387-.352-.305-.604l11.945-36.44c.083-.252.343-.396.605-.306.25.082.386.352.304.603l-11.945 36.442c-.065.202-.253.33-.455.33" mask="url(#inpf2w026b)"/>
                    <path fill="#231916" d="M40.247 106.93c-.202 0-.389-.127-.454-.329L27.834 70.16c-.082-.25.055-.52.305-.603.258-.09.523.054.604.305l11.96 36.441c.081.252-.056.522-.307.604-.049.016-.1.024-.149.024" mask="url(#inpf2w026b)"/>
                    <path fill="#231916" d="M40.247 106.93c-.117 0-.235-.043-.327-.13-.193-.182-.202-.485-.02-.676L56.744 88.23l-5.929-6.395c-.098-.106-.143-.253-.12-.396.02-.145.106-.272.233-.344l6.825-3.95-4.469-6.169c-.155-.213-.108-.512.107-.667.21-.157.512-.108.668.106l4.78 6.6c.081.107.108.245.081.378-.028.133-.11.247-.229.316l-6.764 3.915 5.824 6.283c.17.184.17.468-.004.652L40.595 106.78c-.093.1-.22.151-.348.151" mask="url(#inpf2w026b)"/>
                    <path fill="#231916" d="M40.247 106.93c-.127 0-.254-.05-.348-.149l-17.166-18.22c-.173-.185-.173-.47-.004-.655l5.816-6.283-6.767-3.915c-.118-.069-.2-.183-.228-.316-.029-.133 0-.269.08-.379l4.767-6.586c.184-.186.521-.22.707-.035.188.186.22.454.033.642l-.014.012-4.408 6.098 6.827 3.95c.127.072.213.2.233.344.023.143-.022.29-.12.396l-5.919 6.393 16.86 17.895c.18.193.172.496-.02.677-.093.088-.21.131-.329.131" mask="url(#inpf2w026b)"/>
                    <path fill="#231916" d="M40.247 145.77c-.264 0-.479-.216-.479-.48v-38.838c0-.264.215-.479.48-.479.263 0 .478.215.478.48v38.837c0 .264-.215.48-.479.48" mask="url(#inpf2w026b)"/>
                    <path fill="#FEFEFE" d="M99.838 85.899L89.566 67.609 99.838 49.321 120.377 49.321 130.653 67.609 120.377 85.899z" mask="url(#inpf2w026b)"/>
                    <path fill="#231916" d="M100.26 85.18h19.696l9.874-17.57-9.874-17.57H100.26l-9.87 17.57 9.87 17.57zm20.538 1.437h-21.38L88.742 67.61l10.674-19.006h21.381l10.678 19.006-10.678 19.008z" mask="url(#inpf2w026b)"/>
                    <path fill="#231916" d="M117.46 72.506c.078-.094.172-.11.266-.053.104.053.15.135.15.247v3.524c-1.03.833-2.159 1.432-3.397 1.8-1.235.37-2.563.557-3.985.557-1.623 0-3.078-.255-4.349-.763-1.276-.51-2.358-1.24-3.248-2.192-.89-.952-1.57-2.102-2.03-3.453-.469-1.35-.7-2.865-.7-4.551 0-1.717.27-3.256.812-4.613.55-1.362 1.297-2.511 2.24-3.457.95-.941 2.08-1.662 3.382-2.164 1.31-.5 2.722-.75 4.246-.75 1.462 0 2.737.146 3.826.434 1.085.287 2.1.818 3.026 1.593v3.494c0 .11-.049.195-.149.25-.102.055-.192.038-.27-.055-.946-.995-1.926-1.713-2.932-2.151-1.014-.434-2.11-.651-3.292-.651-1.01 0-1.942.17-2.79.513-.854.343-1.586.849-2.21 1.512-.626.666-1.113 1.495-1.468 2.483-.358.99-.534 2.139-.534 3.452 0 2.738.583 4.773 1.746 6.105 1.171 1.33 2.877 1.997 5.136 1.997 1.246 0 2.413-.273 3.502-.82 1.085-.543 2.09-1.307 3.022-2.288" mask="url(#inpf2w026b)"/>
                    <path fill="#231916" d="M110.847 56.878c-1.484 0-2.883.246-4.16.734-1.268.487-2.377 1.198-3.299 2.11-.919.923-1.656 2.059-2.187 3.377-.527 1.318-.795 2.84-.795 4.523 0 1.654.23 3.159.687 4.473.445 1.305 1.11 2.438 1.978 3.368.863.922 1.925 1.639 3.161 2.132 1.24.496 2.673.746 4.262.746 1.39 0 2.705-.183 3.915-.548 1.163-.344 2.248-.91 3.227-1.684v-3.41c-.002 0 0-.028-.002-.028-.948.998-1.986 1.786-3.09 2.338-1.116.56-2.33.845-3.608.845-2.314 0-4.103-.7-5.316-2.078-1.198-1.373-1.806-3.481-1.806-6.264 0-1.34.185-2.528.55-3.534.367-1.02.877-1.882 1.517-2.565.648-.688 1.421-1.218 2.295-1.571.871-.352 1.842-.53 2.88-.53 1.208 0 2.347.227 3.385.67 1.037.45 2.048 1.194 3.013 2.208l.006-3.413c-.872-.708-1.829-1.206-2.849-1.473-1.068-.282-2.334-.426-3.764-.426zm-.353 21.942c-1.65 0-3.145-.261-4.439-.78-1.302-.52-2.422-1.277-3.333-2.252-.915-.978-1.616-2.17-2.082-3.538-.473-1.362-.712-2.92-.712-4.628 0-1.743.278-3.325.828-4.701.558-1.38 1.328-2.568 2.293-3.537.971-.961 2.136-1.708 3.466-2.22 1.333-.507 2.79-.765 4.332-.765 1.471 0 2.78.148 3.887.44 1.121.297 2.17.85 3.12 1.644.052.044.085.112.085.182v3.494c0 .199-.098.364-.274.46-.205.113-.419.068-.568-.112-.91-.955-1.87-1.66-2.845-2.085-.979-.417-2.054-.631-3.196-.631-.977 0-1.885.167-2.7.496-.81.325-1.525.816-2.127 1.455-.595.632-1.07 1.44-1.416 2.398-.344.954-.52 2.09-.52 3.372 0 2.666.568 4.665 1.687 5.948 1.133 1.288 2.754 1.915 4.956 1.915 1.203 0 2.343-.267 3.395-.793 1.05-.527 2.042-1.28 2.951-2.237.154-.178.378-.215.57-.095.162.08.262.244.262.45v3.524c0 .073-.032.14-.088.187-1.05.849-2.22 1.47-3.48 1.842-1.253.376-2.617.567-4.052.567zM40.895 77.324L44.284 106.129 40.145 111.134 36.015 106.129 39.393 77.21 40.145 77.96 40.835 77.262z" mask="url(#inpf2w026b)"/>
                    <path fill="#231916" d="M42.995 75.06L42.934 75.154 40.836 77.261 40.145 77.959 39.392 77.209 37.365 75.154 37.365 75.144 40.175 72.955 40.236 72.912z" mask="url(#inpf2w026b)"/>
                    <path fill="#231916" d="M40.145 73.39c-.092 0-.186-.026-.268-.082l-6.553-4.422c-.22-.147-.277-.445-.13-.664.148-.219.444-.28.665-.129l6.554 4.422c.218.147.276.444.128.663-.091.137-.243.212-.396.212" mask="url(#inpf2w026b)"/>
                    <path fill="#231916" d="M40.237 73.39c-.153 0-.304-.073-.395-.21-.15-.219-.093-.516.125-.664l6.483-4.42c.217-.154.516-.097.664.124.149.22.094.517-.125.664l-6.482 4.422c-.083.058-.176.084-.27.084M35.245 77.271c-.225 0-.425-.157-.47-.386l-1.654-8.302c-.052-.259.116-.51.377-.563.264-.056.513.118.563.376l1.654 8.303c.05.26-.117.51-.377.562-.032.006-.063.01-.093.01" mask="url(#inpf2w026b)"/>
                    <path fill="#231916" d="M35.245 77.271c-.142 0-.284-.063-.378-.186-.162-.209-.125-.508.084-.67l4.93-3.838.355.335.274.392-4.971 3.865c-.089.068-.192.102-.294.102M45.217 77.271c-.03 0-.062-.004-.094-.01-.26-.05-.427-.302-.376-.562l1.645-8.27.478.061.46.135-.009.031-1.634 8.23c-.045.228-.245.385-.47.385" mask="url(#inpf2w026b)"/>
                    <path fill="#231916" d="M45.217 77.271c-.103 0-.208-.034-.294-.102l-4.98-3.88c-.209-.163-.247-.464-.084-.67.163-.21.465-.246.671-.085l4.981 3.881c.21.162.246.463.084.67-.096.123-.236.186-.378.186M40.145 78.638c-.174 0-.346-.065-.48-.198l-2.782-2.81c-.263-.267-.26-.697.006-.959.269-.263.697-.262.959.006l2.776 2.801c.265.265.265.694 0 .96-.131.133-.305.2-.48.2" mask="url(#inpf2w026b)"/>
                    <path fill="#231916" d="M40.145 78.438c-.122 0-.243-.047-.337-.139-.188-.184-.188-.49-.004-.676l2.79-2.808c.186-.185.489-.189.678 0 .187.185.187.488 0 .678l-2.787 2.802c-.093.096-.217.143-.34.143" mask="url(#inpf2w026b)"/>
                    <path fill="#231916" d="M36.015 106.607c-.019 0-.037-.002-.056-.004-.261-.03-.451-.267-.419-.53l3.378-28.92c.03-.262.267-.45.531-.419.262.03.451.268.419.531l-3.377 28.92c-.029.242-.237.422-.476.422M44.284 106.607c-.24 0-.446-.18-.475-.423l-3.39-28.805c-.031-.263.158-.5.42-.53.253-.023.5.156.53.418l3.39 28.805c.032.262-.157.501-.418.531-.02.002-.038.004-.057.004" mask="url(#inpf2w026b)"/>
                    <path fill="#231916" d="M40.145 111.612c-.14 0-.275-.06-.368-.174l-4.13-5.005c-.17-.204-.141-.505.063-.674.205-.17.505-.138.673.064l4.13 5.005c.169.204.14.506-.063.674-.09.074-.197.11-.305.11" mask="url(#inpf2w026b)"/>
                    <path fill="#231916" d="M40.145 111.612c-.108 0-.215-.036-.305-.11-.204-.168-.232-.47-.063-.674l4.139-5.005c.167-.202.469-.235.672-.064.204.17.233.47.065.674l-4.14 5.005c-.094.114-.23.174-.368.174" mask="url(#inpf2w026b)"/>
                    <path fill="#FEFEFE" d="M46.609 67.87c0 .91-2.854 1.644-6.366 1.644-3.513 0-6.363-.734-6.363-1.643 0-.91 2.85-1.643 6.363-1.643 3.512 0 6.366.734 6.366 1.643M207.99 138.449c-.43 3.934-3.878 6.763-7.708 6.321-3.823-.439-6.576-3.983-6.15-7.917.43-3.928 3.88-6.762 7.706-6.319 3.827.437 6.576 3.981 6.153 7.915" mask="url(#inpf2w026b)"/>
                    <path fill="#231916" d="M201.049 130.968c-1.431 0-2.816.484-3.964 1.399-1.4 1.116-2.28 2.728-2.478 4.539-.396 3.666 2.173 6.98 5.729 7.39 1.69.192 3.36-.29 4.704-1.36 1.398-1.117 2.278-2.729 2.476-4.54.393-3.667-2.18-6.979-5.733-7.387-.244-.028-.491-.041-.734-.041zm.024 14.327c-.281 0-.563-.016-.846-.049-4.077-.468-7.024-4.257-6.572-8.444.227-2.067 1.232-3.908 2.834-5.183 1.543-1.231 3.462-1.788 5.403-1.56 4.076.465 7.025 4.253 6.576 8.441 0 .002 0 .002-.002.002-.224 2.064-1.231 3.907-2.83 5.182-1.318 1.053-2.914 1.611-4.563 1.611z" mask="url(#inpf2w026b)"/>
                    <path fill="#FEFEFE" d="M207.28 133.311l-11.255-1.298c3.774-34.64-13.804-47.796-14.555-48.342l6.404-9.602c.98.684 23.977 17.263 19.406 59.242" mask="url(#inpf2w026b)"/>
                    <path fill="#231916" d="M196.55 131.593l10.305 1.187c4.057-38.876-15.686-55.609-18.862-58.029l-5.879 8.814c2.65 2.127 17.788 15.803 14.436 48.028zm11.154 2.25l-12.208-1.408.053-.475c3.74-34.327-13.619-47.363-14.36-47.902l-.372-.27 6.93-10.391.402.28c.99.691 24.21 17.432 19.606 59.686l-.05.48z" mask="url(#inpf2w026b)"/>
                    <path fill="#FEFEFE" d="M110.78 121.373c-3.696 1.102-7.567-1.083-8.642-4.881-1.073-3.805 1.056-7.78 4.75-8.883 3.7-1.105 7.569 1.08 8.642 4.884 1.073 3.799-1.06 7.776-4.75 8.88" mask="url(#inpf2w026b)"/>
                    <path fill="#231916" d="M108.843 107.8c-.607 0-1.219.09-1.817.269-3.442 1.028-5.428 4.748-4.427 8.293.491 1.74 1.62 3.17 3.176 4.028 1.505.825 3.233 1.013 4.868.525 3.441-1.03 5.428-4.75 4.427-8.291-.495-1.745-1.622-3.177-3.178-4.034-.952-.522-1.995-.79-3.049-.79zm-.015 14.338c-1.214 0-2.416-.306-3.516-.91-1.78-.981-3.073-2.615-3.634-4.605-1.143-4.049 1.134-8.296 5.074-9.472 1.882-.56 3.875-.35 5.602.6 1.782.98 3.073 2.617 3.635 4.611 1.144 4.044-1.132 8.293-5.074 9.47-.687.205-1.389.306-2.087.306z" mask="url(#inpf2w026b)"/>
                    <path fill="#FEFEFE" d="M115.118 118.724l-3.156-11.18c32.564-9.724 37.63-31.459 37.832-32.38l11.083 2.391c-.239 1.19-6.294 29.387-45.759 41.17" mask="url(#inpf2w026b)"/>
                    <path fill="#231916" d="M112.55 107.868l2.897 10.259c36.494-11.092 43.922-36.343 44.858-40.205l-10.159-2.192c-.906 3.356-7.412 22.949-37.596 32.138m2.568 11.336c-.08 0-.159-.021-.23-.061-.112-.061-.196-.164-.23-.288l-3.157-11.18c-.07-.252.073-.514.323-.59 32.24-9.625 37.302-31.112 37.502-32.023.056-.256.317-.424.57-.364l11.083 2.39c.256.054.42.304.368.563-.243 1.206-6.402 29.682-46.092 41.532-.045.013-.09.02-.137.02M191.407 215.483v5.903h-27.301v-1.272c0-6.59 8.177-3.359 8.947-4.86.762-1.5 3.44-3.932 3.44-3.932h4.25v5.476h6.747v-5.476h.854c2.607 0 3.063 4.161 3.063 4.161" mask="url(#inpf2w026b)"/>
                    <path fill="#231916" d="M187.49 211.322L187.49 216.799 180.744 216.799 180.744 211.322 182.154 211.322 182.225 214.326 186.74 211.322z" mask="url(#inpf2w026b)"/>
                    <path fill="#231916" d="M187.49 208.925L187.49 211.322 186.74 211.322 182.225 214.326 182.154 211.322 180.744 211.322 180.744 208.925zM162.868 215.483v5.903h-27.3v-1.272c0-6.59 8.186-3.359 8.947-4.86.772-1.5 3.44-3.932 3.44-3.932h4.25v5.476h6.747v-5.476h.863c2.596 0 3.053 4.161 3.053 4.161" mask="url(#inpf2w026b)"/>
                    <path fill="#231916" d="M158.952 211.322L158.952 216.799 152.204 216.799 152.204 211.322 153.614 211.322 153.697 214.326 158.202 211.322z" mask="url(#inpf2w026b)"/>
                    <path fill="#231916" d="M158.952 208.925L158.952 211.322 158.202 211.322 153.697 214.326 153.614 211.322 152.204 211.322 152.204 208.925z" mask="url(#inpf2w026b)"/>
                    <path fill="#231916" d="M158.952 211.8c-.263 0-.478-.215-.478-.479v-1.917h-5.791v1.917c0 .264-.214.48-.478.48-.265 0-.48-.215-.48-.48v-2.397c0-.263.215-.478.48-.478h6.747c.264 0 .48.215.48.478v2.397c0 .264-.215.48-.48.48M187.49 211.8c-.264 0-.48-.215-.48-.479v-1.917h-5.788v1.917c0 .264-.214.48-.478.48s-.48-.215-.48-.48v-2.397c0-.263.216-.478.48-.478h6.746c.264 0 .479.215.479.478v2.397c0 .264-.215.48-.48.48" mask="url(#inpf2w026b)"/>
                    <path fill="#231916" d="M161.91 210.337L148.702 209.847 151.179 140.342 164.379 140.84zM176.797 210.337L174.324 140.84 187.529 140.342 190.002 209.847z" mask="url(#inpf2w026b)"/>
                    <path fill="#231916" d="M150.98 151.552L187.926 151.552 187.926 136.364 150.98 136.364z" mask="url(#inpf2w026b)"/>
                    <path fill="#FEFEFE" d="M193.495 85.617v50.748h-23.982v-29.913L186.65 88.23l-6.19-6.721 7.257-4.216-4.768-6.6c6.367 3.246 10.547 8.707 10.547 14.923" mask="url(#inpf2w026b)"/>
                    <path fill="#FEFEFE" d="M182.949 70.695l4.768 6.6-7.257 4.214 6.19 6.722-17.137 18.221 11.946-36.442c.517.206 1.01.438 1.49.685M181.458 70.01l-11.945 36.441-11.947-36.44c3.517-1.533 7.59-2.396 11.947-2.396 4.353 0 8.428.863 11.945 2.395M169.513 106.452v29.913h-23.998V85.617c0-6.216 4.195-11.691 10.572-14.922l-4.78 6.599 7.271 4.216-6.218 6.72 17.153 18.222z" mask="url(#inpf2w026b)"/>
                    <path fill="#FEFEFE" d="M157.567 70.01l11.946 36.441-17.153-18.22 6.219-6.721-7.272-4.217 4.78-6.598c.48-.247.973-.478 1.48-.684" mask="url(#inpf2w026b)"/>
                    <path fill="#231916" d="M145.994 135.887h47.023v-50.27c0-5.794-3.845-11.213-10.285-14.496h-.002c-.512-.264-.986-.481-1.447-.665-3.55-1.547-7.614-2.362-11.77-2.362s-8.22.815-11.756 2.356c-.505.204-.983.43-1.45.671-6.46 3.272-10.313 8.69-10.313 14.496v50.27zm47.501.958h-47.98c-.264 0-.48-.215-.48-.48V85.617c0-6.174 4.052-11.912 10.835-15.347.493-.253.998-.49 1.517-.702 3.642-1.59 7.839-2.431 12.125-2.431 4.287 0 8.484.842 12.137 2.436.476.188.978.418 1.517.697 6.768 3.448 10.808 9.186 10.808 15.347v50.75c0 .263-.214.478-.478.478z" mask="url(#inpf2w026b)"/>
                    <path fill="#231916" d="M169.512 106.93c-.2 0-.389-.127-.454-.329L157.113 70.16c-.083-.25.053-.52.304-.603.264-.09.524.054.604.305l11.946 36.441c.082.252-.055.522-.305.604-.05.016-.1.024-.15.024" mask="url(#inpf2w026b)"/>
                    <path fill="#231916" d="M169.512 106.93c-.048 0-.099-.008-.149-.024-.25-.082-.387-.352-.305-.604l11.945-36.44c.081-.252.341-.396.605-.306.251.082.386.352.304.603l-11.945 36.442c-.065.202-.253.33-.455.33" mask="url(#inpf2w026b)"/>
                    <path fill="#231916" d="M169.512 106.93c-.127 0-.254-.05-.348-.15l-17.152-18.222c-.174-.182-.174-.468-.004-.652l5.813-6.283-6.753-3.917c-.118-.067-.2-.18-.229-.314-.028-.133 0-.27.08-.379l4.781-6.599c.156-.214.455-.263.667-.106.216.155.262.454.108.667l-4.469 6.171 6.812 3.95c.127.072.214.197.234.342.022.143-.022.29-.122.396l-5.916 6.393 16.847 17.897c.18.191.172.494-.02.675-.093.088-.21.131-.329.131" mask="url(#inpf2w026b)"/>
                    <path fill="#231916" d="M169.512 106.93c-.117 0-.235-.043-.327-.13-.193-.18-.202-.483-.02-.676l16.83-17.897-5.887-6.395c-.1-.106-.144-.252-.122-.394.021-.145.107-.27.232-.343l6.801-3.949-4.459-6.17c-.153-.216-.107-.515.108-.67.21-.15.511-.106.67.108l4.767 6.6c.08.11.107.245.08.378-.029.133-.11.247-.228.314l-6.742 3.917 5.786 6.285c.171.182.17.468-.003.65l-17.137 18.221c-.094.1-.22.151-.349.151" mask="url(#inpf2w026b)"/>
                    <path fill="#231916" d="M169.512 136.845c-.264 0-.479-.215-.479-.48v-29.914c0-.262.215-.477.48-.477.263 0 .478.215.478.477v29.915c0 .263-.215.478-.479.478M194.575 13.909s1.025 13.196-3.196 23.054c-1.358-.822-3.156-1.04-5.114-1.04v2.887h-2.743l.013-1.232v-.124c-1.784-2.818-3.77-3.024-3.77-3.024v-3.258c0-9.515-5.831-10.076-5.831-10.076h-27.886c6.884 0 12.464-4.614 12.464-10.295 0-5.694-5.58-10.308-12.464-10.308h33.612s8.363-.615 8.363 6.68c0 0 6.552-.862 6.552 6.736" mask="url(#inpf2w026b)"/>
                    <path fill="#FEFEFE" d="M163.372 49.693c0-.533-.427-.973-.944-.973h-7.83c-.535 0-.96.44-.96.973 0 .548.425.986.96.986h7.83c.517 0 .944-.438.944-.986zm22.893-10.883v-2.888c1.958 0 3.755.22 5.113 1.041 1.571.903 2.556 2.585 2.556 5.557 0 4.175-2.608 6.406-7.669 6.406-1.625 5.175-6.326 9.72-10.135 12.636-3.237 2.48-7.058 3.915-11.187 3.915-.758 0-1.53-.055-2.276-.15-10.52-1.382-18.724-12.17-18.724-25.258V38.81h1.837c0 2.491 1.958 4.504 4.382 4.504 2.411 0 4.382-2.013 4.382-4.504h7.098c0 2.491 1.957 4.504 4.367 4.504 2.437 0 4.395-2.013 4.395-4.504h13.117l-.013 3.45h2.757v-3.45z" mask="url(#inpf2w026b)"/>
                    <path fill="#231916" d="M186.265 38.81L186.265 42.26 183.508 42.26 183.522 38.81z" mask="url(#inpf2w026b)"/>
                    <path fill="#FEFEFE" d="M183.535 37.454v.124l-.013 1.232h-13.117c0-2.491-1.959-4.503-4.395-4.503-2.411 0-4.368 2.012-4.368 4.503h-7.097c0-2.491-1.971-4.503-4.382-4.503-2.425 0-4.383 2.012-4.383 4.503h-1.837V21.097h29.991s5.832.56 5.832 10.075v3.258s1.984.206 3.769 3.024M176.13 61.562v6.94c0 3.82-3.022 6.928-6.752 6.928-3.715 0-6.71-3.108-6.71-6.928v-3.175c.745.095 1.518.15 2.275.15 4.13 0 7.951-1.436 11.187-3.915" mask="url(#inpf2w026b)"/>
                    <path fill="#FEFEFE" d="M166.01 34.306c2.437 0 4.395 2.013 4.395 4.504 0 2.491-1.958 4.504-4.396 4.504-2.41 0-4.367-2.013-4.367-4.504 0-2.49 1.957-4.504 4.367-4.504" mask="url(#inpf2w026b)"/>
                    <path fill="#231916" d="M162.428 48.72c.518 0 .944.44.944.974 0 .547-.426.985-.944.985h-7.83c-.534 0-.96-.438-.96-.986 0-.533.426-.972.96-.972h7.83zM146.047.493c6.885 0 12.464 4.614 12.464 10.308 0 5.68-5.579 10.296-12.464 10.296-6.899 0-12.465-4.615-12.465-10.296 0-5.694 5.566-10.308 12.465-10.308" mask="url(#inpf2w026b)"/>
                    <path fill="#FEFEFE" d="M150.162 34.306c2.411 0 4.382 2.013 4.382 4.504 0 2.491-1.97 4.504-4.382 4.504-2.424 0-4.382-2.013-4.382-4.504 0-2.49 1.958-4.504 4.382-4.504" mask="url(#inpf2w026b)"/>
                    <path fill="#231916" d="M186.265 49.405c-.264 0-.479-.215-.479-.479 0-.263.215-.478.479-.478 4.771 0 7.191-1.994 7.191-5.928 0-2.563-.757-4.247-2.317-5.142-1.023-.619-2.426-.93-4.395-.971v5.853c0 .264-.215.48-.479.48s-.479-.216-.479-.48v-6.337c0-.264.215-.48.479-.48 2.438 0 4.092.343 5.36 1.109 1.874 1.078 2.788 3.031 2.788 5.968 0 3.141-1.414 6.885-8.148 6.885" mask="url(#inpf2w026b)"/>
                    <path fill="#231916" d="M164.944 65.956c-.754 0-1.54-.053-2.337-.153-10.913-1.435-19.142-12.497-19.142-25.734V21.097c0-.264.215-.48.479-.48h29.99c.264 0 .479.216.479.48 0 .263-.215.478-.48.478h-29.51v18.494c0 12.757 7.87 23.412 18.306 24.783.756.098 1.502.146 2.215.146 3.867 0 7.636-1.318 10.895-3.815 2.986-2.288 8.254-6.937 9.97-12.4.076-.251.344-.396.6-.312.253.078.392.347.312.6-1.794 5.713-7.222 10.517-10.3 12.87-3.427 2.627-7.396 4.015-11.477 4.015" mask="url(#inpf2w026b)"/>
                    <path fill="#231916" d="M162.667 68.982c-.264 0-.479-.216-.479-.479v-3.176c0-.264.215-.479.48-.479.263 0 .478.215.478.48v3.175c0 .263-.215.48-.479.48M183.535 37.932c-.16 0-.315-.078-.404-.222-1.62-2.558-3.346-2.797-3.42-2.805-.239-.029-.425-.235-.425-.476v-3.258c0-8.927-5.18-9.576-5.4-9.598-.262-.028-.453-.262-.428-.526.026-.26.222-.445.523-.428.061.005 6.263.716 6.263 10.552v2.877c.734.221 2.287.928 3.694 3.15.143.224.076.52-.147.66-.08.051-.168.074-.256.074M169.086 34.155h-6.14c-.264 0-.479-.215-.479-.479s.215-.479.478-.479h6.141c.264 0 .48.215.48.479s-.216.479-.48.479M161.642 39.289h-7.098c-.263 0-.478-.215-.478-.48 0-.262.215-.478.478-.478h7.098c.264 0 .479.216.479.479 0 .264-.215.479-.479.479M186.504 39.289h-16.1c-.263 0-.478-.215-.478-.48 0-.262.215-.478.478-.478h16.1c.264 0 .48.216.48.479 0 .264-.216.479-.48.479M153.21 34.155h-6.11c-.265 0-.48-.215-.48-.479s.215-.479.48-.479h6.11c.265 0 .48.215.48.479s-.215.479-.48.479" mask="url(#inpf2w026b)"/>
                    <path fill="#231916" d="M169.377 75.91c-3.965 0-7.189-3.322-7.189-7.407 0-.264.215-.48.48-.48.263 0 .478.216.478.48 0 3.555 2.795 6.449 6.231 6.449 3.46 0 6.273-2.894 6.273-6.45v-6.94c0-.263.215-.478.48-.478.263 0 .478.215.478.478v6.94c0 4.086-3.243 7.408-7.23 7.408M186.265 42.74h-2.757c-.127 0-.249-.051-.339-.141-.09-.091-.139-.213-.139-.34l.025-4.687c.004-.264.218-.48.484-.474.264.004.476.219.474.485l-.024 4.199h2.276c.264 0 .479.215.479.479 0 .263-.215.479-.479.479M158.511 47.516c-1.202 0-2.183-1.006-2.183-2.244 0-.264.215-.48.48-.48.263 0 .478.216.478.48 0 .71.55 1.286 1.225 1.286.41 0 .8-.224 1.014-.587.134-.226.428-.3.656-.166.226.134.302.428.167.656-.386.651-1.09 1.055-1.837 1.055" mask="url(#inpf2w026b)"/>
                    <path fill="#231916" d="M156.807 45.75c-.264 0-.479-.214-.479-.478v-5.353c0-.264.215-.48.479-.48s.479.216.479.48v5.353c0 .264-.215.479-.479.479M162.001 52.856h-6.99c-.265 0-.48-.215-.48-.479 0-.263.215-.479.48-.479H162c.264 0 .48.216.48.48 0 .263-.216.478-.48.478M146.047.971c-6.609 0-11.986 4.408-11.986 9.83 0 5.411 5.377 9.816 11.986 9.816 6.608 0 11.985-4.405 11.985-9.817 0-5.42-5.377-9.829-11.985-9.829m0 20.604c-7.137 0-12.944-4.833-12.944-10.775 0-5.948 5.807-10.786 12.944-10.786 7.138 0 12.942 4.838 12.942 10.786 0 5.942-5.804 10.775-12.942 10.775" mask="url(#inpf2w026b)"/>
                    <path fill="#231916" d="M191.378 37.441c-.063 0-.127-.014-.188-.039-.244-.104-.356-.386-.25-.629 4.123-9.63 3.167-22.696 3.158-22.827-.002-2.314-.613-4.004-1.815-5.063-1.733-1.528-4.17-1.24-4.199-1.234-.133.01-.272-.026-.378-.116-.102-.092-.162-.22-.162-.36 0-1.839-.566-3.3-1.687-4.34C183.573.713 179.728.97 179.694.97l-33.647.002c-.264 0-.479-.215-.479-.478 0-.264.215-.479.48-.479h33.61c.143-.01 4.261-.288 6.852 2.117 1.214 1.128 1.878 2.652 1.978 4.534.958.015 2.868.13 4.42 1.493 1.423 1.247 2.145 3.182 2.145 5.751.01.095.984 13.391-3.236 23.242-.076.182-.253.29-.439.29M150.162 34.785c-2.153 0-3.903 1.805-3.903 4.025 0 2.22 1.75 4.025 3.904 4.025 2.151 0 3.902-1.805 3.902-4.025 0-2.22-1.75-4.025-3.903-4.025m0 9.008c-2.68 0-4.86-2.236-4.86-4.983 0-2.748 2.18-4.982 4.86-4.982s4.86 2.234 4.86 4.982c0 2.747-2.18 4.983-4.86 4.983M166.01 34.785c-2.145 0-3.889 1.805-3.889 4.025 0 2.22 1.744 4.025 3.888 4.025 2.16 0 3.917-1.805 3.917-4.025 0-2.22-1.757-4.025-3.917-4.025m0 9.008c-2.673 0-4.846-2.236-4.846-4.983 0-2.748 2.173-4.982 4.846-4.982 2.688 0 4.874 2.234 4.874 4.982 0 2.747-2.186 4.983-4.874 4.983" mask="url(#inpf2w026b)"/>
                    <path fill="#FEFEFE" d="M176.132 110.219c0 1.474-1.164 2.67-2.6 2.67-1.437 0-2.6-1.197-2.6-2.67 0-1.478 1.163-2.675 2.6-2.675 1.436 0 2.6 1.197 2.6 2.675" mask="url(#inpf2w026b)"/>
                    <path fill="#231916" d="M173.532 108.023c-1.17 0-2.12.985-2.12 2.195 0 1.208.95 2.193 2.12 2.193 1.169 0 2.12-.985 2.12-2.193 0-1.21-.951-2.195-2.12-2.195m0 5.345c-1.698 0-3.078-1.412-3.078-3.15 0-1.739 1.38-3.153 3.078-3.153s3.079 1.414 3.079 3.153c0 1.738-1.381 3.15-3.08 3.15" mask="url(#inpf2w026b)"/>
                    <path fill="#FEFEFE" d="M176.132 124.078c0 1.478-1.164 2.67-2.6 2.67-1.437 0-2.6-1.192-2.6-2.67 0-1.476 1.163-2.673 2.6-2.673 1.436 0 2.6 1.197 2.6 2.673" mask="url(#inpf2w026b)"/>
                    <path fill="#231916" d="M173.532 121.883c-1.17 0-2.12.985-2.12 2.195 0 1.207.95 2.191 2.12 2.191 1.169 0 2.12-.984 2.12-2.192 0-1.21-.951-2.194-2.12-2.194m0 5.345c-1.698 0-3.078-1.412-3.078-3.15 0-1.739 1.38-3.151 3.078-3.151s3.079 1.412 3.079 3.15c0 1.739-1.381 3.15-3.08 3.15" mask="url(#inpf2w026b)"/>
                    <path fill="#FEFEFE" d="M105.333 117.177L101.547 102.596 114.669 102.596 111.052 116.513z" mask="url(#inpf2w026b)"/>
                    <path fill="#231916" d="M102.166 103.074l3.525 13.578 4.98-.577 3.38-13.001h-11.885zm3.167 14.581c-.216 0-.408-.145-.464-.359l-3.786-14.581c-.037-.142-.006-.295.086-.413.09-.117.23-.186.378-.186h13.122c.148 0 .288.069.38.186.09.118.121.271.084.413l-3.617 13.917c-.05.193-.213.333-.408.355l-5.719.664c-.019.002-.037.004-.056.004z" mask="url(#inpf2w026b)"/>
                    <path fill="#FEFEFE" d="M128.663 149.166c0 11.669-9.202 17.095-20.555 17.095s-20.558-5.426-20.558-17.095c0-11.671 9.205-34.631 20.558-34.631s20.555 22.96 20.555 34.63" mask="url(#inpf2w026b)"/>
                    <path fill="#231916" d="M108.109 115.014c-10.988 0-20.08 22.611-20.08 34.151 0 12.251 10.373 16.617 20.08 16.617 9.705 0 20.075-4.366 20.075-16.617 0-11.54-9.09-34.15-20.075-34.15m0 51.724c-12.977 0-21.037-6.733-21.037-17.574 0-6.074 2.44-14.88 6.074-21.912 2.548-4.928 7.88-13.197 14.963-13.197 7.083 0 12.413 8.27 14.96 13.197 3.633 7.032 6.073 15.838 6.073 21.912 0 10.841-8.06 17.574-21.033 17.574" mask="url(#inpf2w026b)"/>
                    <path fill="#231916" d="M107.751 150.19l-12.808-14.42c-.175-.199-.159-.503.04-.677.198-.175.5-.159.674.04l11.374 12.804-3.659-12.256-3.697-4.446c-.168-.204-.14-.505.061-.675.203-.17.503-.144.676.062l3.85 4.692 4.304 14.42-.815.455z" mask="url(#inpf2w026b)"/>
                    <path fill="#231916" d="M96.496 134.972h7.102l3.394-3.565h-6.758l-3.738 3.565zm7.308.957H95.3l-.33-.824 4.743-4.523.33-.132h8.066l.346.81-3.535 3.712h3.189c.264 0 .479.215.479.48 0 .262-.215.477-.48.477h-4.305zM108.465 150.19l-.815-.456 4.391-14.59 3.764-4.522c.172-.204.472-.23.675-.062.202.17.23.471.061.675l-3.7 4.446-3.655 12.256 11.37-12.805c.173-.199.474-.218.675-.039.198.174.214.478.04.676l-12.806 14.42z" mask="url(#inpf2w026b)"/>
                    <path fill="#231916" d="M112.616 134.972h7.102l-3.737-3.565h-6.756l3.39 3.565zm-.205.957h-4.302c-.264 0-.48-.215-.48-.478 0-.264.216-.479.48-.479h3.185l-3.532-3.715.347-.807h8.065l.33.132 4.74 4.523-.331.824h-8.502zM108.109 150.35c-.131 0-.264-.055-.357-.16l-.745-.837c-.175-.196-.16-.5.04-.676.194-.178.499-.16.674.04l.744.836c.177.196.16.5-.04.675-.09.082-.202.122-.316.122" mask="url(#inpf2w026b)"/>
                </g>
            </g>
        </g>
    </g>
</svg>
