<svg xmlns="http://www.w3.org/2000/svg" xmlns:xlink="http://www.w3.org/1999/xlink" width="270" height="336" viewBox="0 0 270 336">
    <defs>
        <path id="r8dyr2sqxa" d="M0 215.02L246.344 215.02 246.344 0 0 0z"/>
    </defs>
    <g fill="none" fill-rule="evenodd">
        <g>
            <g transform="translate(-409 -1180) translate(409 1180)">
                <rect width="270" height="336" fill="#FFF" rx="2"/>
                <g transform="translate(12 80)">
                    <path fill="#C8C9C9" d="M229.023 111.12c0 56.59-45.87 102.464-102.463 102.464-56.588 0-102.464-45.873-102.464-102.463 0-56.59 45.876-102.464 102.464-102.464 56.592 0 102.463 45.875 102.463 102.464"/>
                    <path fill="#FEFEFE" d="M45.19 158.922l2.274-79.002.92-29.806h18.333s-.1 9.098.258 16.998c.36 7.9 1.916 61.287 1.916 61.287l1.122 33.43h15.624l3.004-77.72s.21-7.18.045-10.234h16.945s-.112 4.728.127 10.234c.24 5.507 2.922 77.72 2.922 77.72h18.048v23.161h24.233v29.552l-107.087.04-19.163-52.754h20.382l.097-2.906zM104.02 20.609c4.054-.517 7.394.938 10.442 2.846-.182-1.852.176-3.536 1.071-5.02 2.738-4.571 10.294-6.787 23.094-6.787 9.906 0 20.267 1.352 25.246 1.993.886.116 1.6.212 2.086.268 1.475.167 3.057.257 4.71.257 6.187 0 12.655-1.13 19.507-2.326 6.858-1.197 13.942-2.431 20.732-2.431 8.584 0 15.564 2.047 21.336 6.251 12.737 9.272 17.491 29.761 10.185 43.844-5.334 10.29-20.289 18.359-34.039 18.359-5.574 0-10.496-1.385-14.274-4.001-.3 1.116-.842 2.152-1.624 3.099-4.436 5.386-15.183 5.805-18.373 5.805-1.373 0-2.608-.065-3.588-.178-11.117-1.254-19.619-8.726-27.838-15.966-5.872-5.155-11.944-10.498-18.759-13.28-3.737-1.525-6.258-.703-9.284.659-2.054.924-4.384 1.975-7.627 2.331-11.918 1.298-17.773-7.343-18.28-15.874-.525-8.85 4.555-18.501 15.276-19.849"/>
                    <path fill="#231916" d="M120.104 52.05c1.217 0 2.528.243 4.012.85 6.858 2.797 12.934 8.131 18.811 13.29 8.235 7.255 16.666 14.681 27.658 15.923.998.115 2.22.174 3.534.174 3.135 0 13.701-.406 18.003-5.632.735-.889 1.252-1.872 1.532-2.917l.176-.657.56.388c3.696 2.56 8.538 3.914 14 3.914 13.588 0 28.354-7.95 33.615-18.1 7.204-13.89 2.512-34.096-10.044-43.237-5.689-4.144-12.576-6.158-21.053-6.158-6.762 0-13.823 1.232-20.649 2.424-6.892 1.202-13.37 2.332-19.59 2.332-1.638 0-3.239-.088-4.763-.26-.403-.047-.96-.12-1.643-.208l-.646-.086c-4.948-.638-15.243-1.964-24.99-1.964-12.623 0-20.043 2.144-22.683 6.556-.84 1.391-1.178 2.981-1.004 4.726l.095.971-.827-.518c-2.668-1.672-5.953-3.31-10.129-2.778C93.65 22.395 88.71 31.81 89.221 40.43c.294 4.952 2.362 9.396 5.671 12.192 3.12 2.636 7.302 3.746 12.078 3.234 3.161-.348 5.448-1.376 7.468-2.285 1.851-.833 3.623-1.52 5.666-1.52m54.015 31.194c-1.35 0-2.61-.062-3.642-.18-11.29-1.275-19.837-8.803-28.1-16.084-5.899-5.177-11.914-10.457-18.625-13.196-3.62-1.48-6.074-.623-8.906.652-2.098.944-4.46 2.01-7.77 2.37-5.047.553-9.476-.643-12.8-3.453-3.51-2.963-5.7-7.654-6.013-12.868-.534-9.066 4.684-18.967 15.696-20.353 4.06-.515 7.414.932 9.978 2.442-.007-1.594.39-3.067 1.186-4.387 2.828-4.723 10.517-7.02 23.504-7.02 9.808 0 20.143 1.332 25.111 1.974l.651.084c.675.088 1.227.161 1.625.208 1.487.166 3.055.252 4.655.252 6.137 0 12.575-1.122 19.392-2.312 6.901-1.204 14.001-2.444 20.847-2.444 8.687 0 15.76 2.074 21.618 6.342 12.91 9.398 17.736 30.171 10.328 44.452-5.41 10.44-20.549 18.617-34.464 18.617-5.398 0-10.225-1.287-14.009-3.726-.335.945-.845 1.833-1.52 2.651-4.569 5.547-15.5 5.98-18.742 5.98"/>
                    <path fill="#FEFEFE" d="M46.264 30.248c.67-3.79 4.911-6.773 8.625-6.103.435-3.226 3.026-6.417 5.364-7.346 3.787-1.51 8.582.22 11.398 3.97 2.13 2.838 2.773 6.832 1.773 10.946-1.11 4.598-4.014 8.487-7.59 10.152-1.923.902-3.983 1.36-6.123 1.36-1.435 0-2.902-.213-4.331-.622-.966-.278-1.916-.66-2.82-1.134-4.677-2.451-7.093-6.748-6.296-11.223"/>
                    <path fill="#231916" d="M53.818 24.529c-1.36 0-2.796.473-4.064 1.355-1.618 1.128-2.718 2.75-3.019 4.449-.758 4.257 1.56 8.36 6.047 10.713.873.458 1.792.828 2.73 1.099 3.503.997 7.008.744 10.12-.713 3.442-1.602 6.25-5.37 7.327-9.83.966-3.981.35-7.825-1.69-10.545-2.724-3.628-7.284-5.233-10.838-3.813-2.107.838-4.645 3.836-5.066 6.965l-.068.498-.494-.09c-.32-.06-.65-.088-.985-.088m5.894 19.178c-1.47 0-2.972-.215-4.463-.642-1.002-.29-1.98-.682-2.912-1.171-4.87-2.552-7.378-7.047-6.544-11.73.343-1.947 1.588-3.793 3.413-5.065 1.636-1.138 3.531-1.667 5.287-1.492.655-3.382 3.341-6.361 5.583-7.254 3.952-1.578 8.977.16 11.96 4.128 2.212 2.95 2.888 7.087 1.854 11.346-1.144 4.739-4.154 8.75-7.853 10.473-1.99.934-4.118 1.407-6.325 1.407"/>
                    <mask id="xxzegl0a5b" fill="#fff">
                        <use xlink:href="#r8dyr2sqxa"/>
                    </mask>
                    <path fill="#231916" d="M.958 214.062h23.273v-28.593H.958v28.593zm23.753.958H.478c-.263 0-.478-.215-.478-.478V184.99c0-.264.215-.479.478-.479h24.233c.263 0 .478.215.478.479v29.552c0 .263-.215.478-.478.478z" mask="url(#xxzegl0a5b)"/>
                    <path fill="#231916" d="M25.189 214.062h24.194v-51.755H25.189v51.755zm24.673.958H24.711c-.264 0-.48-.215-.48-.478v-52.713c0-.264.216-.48.48-.48h25.151c.264 0 .48.216.48.48v52.713c0 .263-.216.478-.48.478z" mask="url(#xxzegl0a5b)"/>
                    <path fill="#231916" d="M25.189 164.245h24.194v-1.937H25.189v1.937zm24.673.958H24.711c-.264 0-.48-.216-.48-.48v-2.894c0-.264.216-.48.48-.48h25.151c.264 0 .48.216.48.48v2.894c0 .264-.216.48-.48.48zM.958 187.407h23.273v-1.937H.958v1.937zm23.753.957H.478c-.263 0-.478-.215-.478-.479v-2.895c0-.264.215-.479.478-.479h24.233c.263 0 .478.215.478.479v2.895c0 .264-.215.479-.478.479zM50.342 214.062h23.273v-28.593H50.342v28.593zm23.753.958H49.862c-.263 0-.478-.215-.478-.478V184.99c0-.264.215-.479.478-.479h24.233c.263 0 .478.215.478.479v29.552c0 .263-.215.478-.478.478z" mask="url(#xxzegl0a5b)"/>
                    <path fill="#231916" d="M50.342 187.407h23.273v-1.937H50.342v1.937zm23.753.957H49.862c-.263 0-.478-.215-.478-.479v-2.895c0-.264.215-.479.478-.479h24.233c.263 0 .478.215.478.479v2.895c0 .264-.215.479-.478.479z" mask="url(#xxzegl0a5b)"/>
                    <path fill="#231916" d="M74.573 214.062h75.908v-28.593H74.573v28.593zm76.388.958H74.095c-.264 0-.48-.215-.48-.478V184.99c0-.264.216-.479.48-.479h76.866c.263 0 .478.215.478.479v29.552c0 .263-.215.478-.478.478z" mask="url(#xxzegl0a5b)"/>
                    <path fill="#231916" d="M74.573 187.407h75.908v-1.937H74.573v1.937zm76.388.957H74.095c-.264 0-.48-.215-.48-.479v-2.895c0-.264.216-.479.48-.479h76.866c.263 0 .478.215.478.479v2.895c0 .264-.215.479-.478.479z" mask="url(#xxzegl0a5b)"/>
                    <path fill="#231916" d="M50.342 184.511h75.908v-22.204H50.342v22.204zm76.386.958H49.862c-.263 0-.478-.215-.478-.479v-23.161c0-.264.215-.48.478-.48h76.866c.264 0 .48.216.48.48v23.161c0 .264-.216.479-.48.479z" mask="url(#xxzegl0a5b)"/>
                    <path fill="#231916" d="M50.342 164.245h75.908v-1.937H50.342v1.937zm76.386.958H49.862c-.263 0-.478-.216-.478-.48v-2.894c0-.264.215-.48.478-.48h76.866c.264 0 .48.216.48.48v2.894c0 .264-.216.48-.48.48zM53.596 175.127h69.403v-7.13H53.596v7.13zm69.882.957H53.117c-.264 0-.478-.215-.478-.479v-8.087c0-.264.214-.479.478-.479h70.361c.264 0 .479.215.479.479v8.087c0 .264-.215.479-.479.479zM4.557 196.24h.935v-5.183h-.935v5.183zm1.413.958H4.077c-.264 0-.478-.215-.478-.479v-6.14c0-.264.214-.479.478-.479H5.97c.263 0 .479.215.479.479v6.14c0 .264-.216.479-.479.479zM8.342 196.24h.936v-5.183h-.936v5.183zm1.414.958H7.863c-.264 0-.479-.215-.479-.479v-6.14c0-.264.215-.479.479-.479h1.893c.263 0 .478.215.478.479v6.14c0 .264-.215.479-.478.479zM12.131 196.24h.936v-5.183h-.936v5.183zm1.414.958h-1.893c-.263 0-.478-.215-.478-.479v-6.14c0-.264.215-.479.478-.479h1.893c.263 0 .478.215.478.479v6.14c0 .264-.215.479-.478.479zM15.913 196.24h.938v-5.183h-.938v5.183zm1.417.958h-1.897c-.263 0-.478-.215-.478-.479v-6.14c0-.264.215-.479.478-.479h1.897c.264 0 .479.215.479.479v6.14c0 .264-.215.479-.479.479zM19.706 196.24h.935v-5.183h-.935v5.183zm1.414.958h-1.894c-.263 0-.478-.215-.478-.479v-6.14c0-.264.215-.479.478-.479h1.894c.264 0 .479.215.479.479v6.14c0 .264-.215.479-.479.479zM4.557 207.422h.935v-7.829h-.935v7.829zm1.413.958H4.077c-.264 0-.478-.214-.478-.478v-8.787c0-.264.214-.479.478-.479H5.97c.263 0 .479.215.479.479v8.787c0 .264-.216.478-.479.478zM8.342 207.422h.936v-7.829h-.936v7.829zm1.414.958H7.863c-.264 0-.479-.214-.479-.478v-8.787c0-.264.215-.479.479-.479h1.893c.263 0 .478.215.478.479v8.787c0 .264-.215.478-.478.478zM12.131 207.422h.936v-7.829h-.936v7.829zm1.414.958h-1.893c-.263 0-.478-.214-.478-.478v-8.787c0-.264.215-.479.478-.479h1.893c.263 0 .478.215.478.479v8.787c0 .264-.215.478-.478.478zM15.913 207.422h.938v-7.829h-.938v7.829zm1.417.958h-1.897c-.263 0-.478-.214-.478-.478v-8.787c0-.264.215-.479.478-.479h1.897c.264 0 .479.215.479.479v8.787c0 .264-.215.478-.479.478zM19.706 207.422h.935v-7.829h-.935v7.829zm1.414.958h-1.894c-.263 0-.478-.214-.478-.478v-8.787c0-.264.215-.479.478-.479h1.894c.264 0 .479.215.479.479v8.787c0 .264-.215.478-.479.478zM53.932 196.24h.942v-5.183h-.942v5.183zm1.421.958h-1.899c-.264 0-.48-.215-.48-.479v-6.14c0-.264.216-.479.48-.479h1.899c.264 0 .48.215.48.479v6.14c0 .264-.216.479-.48.479zM57.722 196.24h.938v-5.183h-.938v5.183zm1.418.958h-1.897c-.264 0-.479-.215-.479-.479v-6.14c0-.264.215-.479.479-.479h1.897c.263 0 .478.215.478.479v6.14c0 .264-.215.479-.478.479zM61.511 196.24h.939v-5.183h-.939v5.183zm1.418.958h-1.897c-.264 0-.478-.215-.478-.479v-6.14c0-.264.214-.479.478-.479h1.897c.263 0 .478.215.478.479v6.14c0 .264-.215.479-.478.479zM65.297 196.24h.938v-5.183h-.938v5.183zm1.417.958h-1.897c-.263 0-.478-.215-.478-.479v-6.14c0-.264.215-.479.478-.479h1.897c.263 0 .479.215.479.479v6.14c0 .264-.216.479-.479.479zM69.086 196.24h.938v-5.183h-.938v5.183zm1.418.958h-1.898c-.263 0-.478-.215-.478-.479v-6.14c0-.264.215-.479.478-.479h1.898c.263 0 .478.215.478.479v6.14c0 .264-.215.479-.478.479zM53.932 207.422h.942v-7.829h-.942v7.829zm1.421.958h-1.899c-.264 0-.48-.214-.48-.478v-8.787c0-.264.216-.479.48-.479h1.899c.264 0 .48.215.48.479v8.787c0 .264-.216.478-.48.478zM57.722 207.422h.938v-7.829h-.938v7.829zm1.418.958h-1.897c-.264 0-.479-.214-.479-.478v-8.787c0-.264.215-.479.479-.479h1.897c.263 0 .478.215.478.479v8.787c0 .264-.215.478-.478.478zM61.511 207.422h.939v-7.829h-.939v7.829zm1.418.958h-1.897c-.264 0-.478-.214-.478-.478v-8.787c0-.264.214-.479.478-.479h1.897c.263 0 .478.215.478.479v8.787c0 .264-.215.478-.478.478zM65.297 207.422h.938v-7.829h-.938v7.829zm1.417.958h-1.897c-.263 0-.478-.214-.478-.478v-8.787c0-.264.215-.479.478-.479h1.897c.263 0 .479.215.479.479v8.787c0 .264-.216.478-.479.478zM69.086 207.422h.938v-7.829h-.938v7.829zm1.418.958h-1.898c-.263 0-.478-.214-.478-.478v-8.787c0-.264.215-.479.478-.479h1.898c.263 0 .478.215.478.479v8.787c0 .264-.215.478-.478.478zM81.64 193.988h61.776v-2.931H81.64v2.931zm62.254.958H81.16c-.264 0-.478-.215-.478-.479v-3.888c0-.264.214-.479.478-.479h62.734c.264 0 .479.215.479.479v3.888c0 .264-.215.479-.479.479zM81.64 200.707h61.776v-2.927H81.64v2.927zm62.254.957H81.16c-.264 0-.478-.215-.478-.479V197.3c0-.263.214-.478.478-.478h62.734c.264 0 .479.215.479.478v3.885c0 .264-.215.479-.479.479zM81.64 207.422h61.776v-2.931H81.64v2.931zm62.254.958H81.16c-.264 0-.478-.214-.478-.478v-3.889c0-.263.214-.478.478-.478h62.734c.264 0 .479.215.479.478v3.889c0 .264-.215.478-.479.478zM37.287 166.699c-4.77 0-8.648 3.995-8.648 8.906 0 4.91 3.878 8.906 8.648 8.906 4.771 0 8.651-3.995 8.651-8.906 0-4.911-3.88-8.906-8.651-8.906m0 18.77c-5.297 0-9.606-4.425-9.606-9.864 0-5.438 4.309-9.864 9.606-9.864 5.298 0 9.609 4.426 9.609 9.864 0 5.439-4.311 9.865-9.609 9.865" mask="url(#xxzegl0a5b)"/>
                    <path fill="#231916" d="M37.287 168.498c-3.805 0-6.898 3.189-6.898 7.107s3.093 7.108 6.898 7.108c3.806 0 6.901-3.19 6.901-7.108 0-3.918-3.095-7.107-6.901-7.107m0 15.172c-4.332 0-7.855-3.617-7.855-8.065 0-4.447 3.523-8.064 7.855-8.064 4.333 0 7.858 3.617 7.858 8.064 0 4.448-3.525 8.065-7.858 8.065M86.136 161.35h22.047l-3.011-79.608H89.147l-3.011 79.607zm22.545.957H85.638c-.131 0-.254-.053-.344-.146-.092-.095-.138-.22-.136-.352l3.05-80.565c.009-.256.22-.46.479-.46h16.945c.258 0 .47.204.479.46l3.048 80.565c.004.132-.043.257-.134.352-.09.093-.213.146-.344.146z" mask="url(#xxzegl0a5b)"/>
                    <path fill="#231916" d="M89.165 80.784h15.988v-6.43H89.165v6.43zm16.467.958H88.686c-.263 0-.478-.216-.478-.48v-7.387c0-.264.215-.479.478-.479h16.946c.263 0 .478.215.478.479v7.387c0 .264-.215.48-.478.48zM105.897 88.707c-.019 0-.038-.002-.057-.004L88.443 86.68c-.262-.031-.45-.268-.419-.532.03-.261.273-.44.531-.42l17.398 2.025c.261.03.451.267.42.53-.03.244-.237.424-.476.424M106.129 94.815c-.02 0-.037-.002-.056-.004l-17.858-2.08c-.262-.029-.45-.267-.42-.53.03-.265.27-.453.532-.419l17.859 2.079c.26.03.45.267.419.531-.03.243-.237.423-.476.423M106.54 105.749c-.02 0-.037-.002-.056-.004l-18.684-2.17c-.262-.03-.45-.266-.42-.53.03-.264.272-.456.532-.42l18.685 2.17c.26.03.45.267.419.53-.03.244-.236.424-.475.424M106.768 111.857c-.019 0-.035-.002-.056-.004l-19.137-2.222c-.262-.029-.45-.267-.419-.531.03-.262.251-.446.531-.419l19.138 2.223c.261.029.45.266.42.53-.03.243-.238.423-.477.423M107.183 122.794l-.056-.002-19.96-2.32c-.26-.03-.45-.267-.418-.531.03-.261.272-.448.532-.419l19.96 2.32c.26.029.45.266.418.53-.029.243-.236.422-.476.422M107.416 128.9c-.017 0-.035-.002-.055-.004l-20.426-2.309c-.263-.027-.452-.265-.421-.529.027-.262.243-.446.529-.421l20.427 2.309c.262.028.45.266.42.529-.025.243-.233.425-.474.425M107.83 139.841c-.018 0-.036-.002-.055-.004l-21.251-2.473c-.261-.03-.45-.267-.42-.53.032-.263.27-.434.533-.42l21.25 2.473c.262.03.45.267.42.531-.03.243-.237.423-.476.423M108.063 145.946c-.02 0-.036-.002-.057-.004l-21.71-2.521c-.262-.03-.45-.268-.42-.532.031-.261.253-.448.532-.42l21.711 2.523c.261.03.451.267.42.53-.03.244-.237.424-.476.424M45.587 161.35H69.52L66.254 59.974H48.849L45.587 161.35zm24.427.957h-24.92c-.13 0-.255-.053-.345-.146-.09-.093-.14-.219-.135-.348l3.292-102.332c.01-.258.22-.464.479-.464h18.333c.258 0 .47.206.478.464l3.296 102.332c.004.13-.045.255-.134.348-.09.093-.215.146-.344.146z" mask="url(#xxzegl0a5b)"/>
                    <path fill="#231916" d="M48.864 59.017h17.375v-8.424H48.864v8.424zm17.854.958H48.385c-.264 0-.479-.216-.479-.479v-9.381c0-.264.215-.48.479-.48h18.333c.263 0 .478.216.478.48v9.381c0 .263-.215.479-.478.479zM67.006 68.822c-.021 0-.043-.002-.065-.004l-18.82-2.566c-.261-.035-.445-.277-.41-.54.038-.261.269-.421.54-.411l18.82 2.567c.262.035.446.276.41.54-.034.239-.24.414-.475.414M67.249 76.576c-.021 0-.043-.002-.065-.004l-19.31-2.633c-.262-.036-.444-.28-.41-.541.038-.26.27-.421.542-.41l19.308 2.634c.262.036.446.279.41.54-.034.24-.24.414-.475.414M67.698 90.47c-.02 0-.043-.002-.065-.004L47.43 87.71c-.26-.035-.445-.278-.41-.54.038-.26.26-.425.541-.41l20.203 2.757c.262.036.446.28.41.541-.034.24-.24.413-.475.413M67.945 98.228c-.02 0-.044-.002-.066-.004L47.18 95.4c-.262-.035-.446-.278-.41-.54.037-.258.266-.429.54-.409l20.701 2.823c.262.036.445.28.41.541-.034.24-.24.413-.475.413M68.397 112.12l-.065-.003-21.59-2.945c-.263-.035-.447-.28-.41-.54.037-.261.261-.435.54-.41l21.59 2.946c.262.035.446.278.41.54-.034.239-.24.413-.475.413M68.644 119.877l-.063-.003-22.089-2.933c-.262-.037-.446-.278-.41-.54.032-.258.25-.442.537-.41l22.088 2.933c.262.034.446.275.412.537-.032.24-.238.416-.475.416M69.097 133.77c-.021 0-.043-.002-.065-.004l-22.983-3.137c-.262-.035-.445-.278-.41-.54.038-.26.267-.438.54-.41l22.983 3.137c.262.035.446.278.41.541-.034.24-.24.413-.475.413M69.344 141.528c-.021 0-.043-.002-.065-.004l-23.477-3.205c-.262-.036-.444-.28-.41-.541.038-.26.27-.417.542-.41l23.475 3.206c.262.036.446.279.41.54-.034.24-.24.414-.475.414" mask="url(#xxzegl0a5b)"/>
                    <path fill="#FEFEFE" d="M242.427 132.917c0 3.876-3.057 7.02-6.827 7.02-3.775 0-6.826-3.144-6.826-7.02 0-3.873 3.05-7.017 6.826-7.017 3.77 0 6.827 3.144 6.827 7.017" mask="url(#xxzegl0a5b)"/>
                    <path fill="#231916" d="M235.6 126.379c-3.5 0-6.349 2.932-6.349 6.538 0 3.607 2.85 6.54 6.349 6.54s6.347-2.933 6.347-6.54c0-3.606-2.849-6.538-6.347-6.538m0 14.035c-4.029 0-7.306-3.361-7.306-7.497 0-4.133 3.277-7.496 7.305-7.496 4.029 0 7.306 3.362 7.306 7.496 0 4.136-3.278 7.498-7.305 7.498" mask="url(#xxzegl0a5b)"/>
                    <path fill="#FEFEFE" d="M185.22 79.093c-1.877 6.241-6.171 9.44-9.447 11.034-.061.03-.14.061-.21.102l-.198.08c-.117.051-.251.092-.36.133-6.201 2.603-12.448 2.482-18.074-.307-13.931-6.914-19.83-27.78-20.458-30.119l10.69-3.027c1.344 5.017 6.625 18.92 14.608 22.891 2.914 1.431 5.865 1.41 9.292-.082.774-.376 2.016-1.03 2.903-2.642l4.039-1.523 7.216 3.46z" mask="url(#xxzegl0a5b)"/>
                    <path fill="#231916" d="M137.062 60.347c1.081 3.821 7.057 22.895 20.081 29.36 5.512 2.731 11.622 2.837 17.677.293l.155-.055c.066-.023.135-.047.198-.076l.21-.084c.005-.009.078-.042.142-.07 3.157-1.536 7.23-4.56 9.116-10.37l-6.659-3.192-3.686 1.39c-.993 1.7-2.359 2.362-3.024 2.685-3.576 1.56-6.657 1.583-9.713.083-7.945-3.952-13.187-17.312-14.728-22.73l-9.769 2.766zm29.055 32.448c-3.236 0-6.4-.745-9.4-2.23-14.05-6.976-20.067-28.045-20.707-30.426l-.123-.456 11.613-3.286.125.47c1.33 4.954 6.492 18.672 14.36 22.585 2.776 1.362 5.598 1.337 8.887-.093.624-.303 1.821-.885 2.674-2.434l.084-.155 4.397-1.657 7.77 3.725-.119.394c-1.924 6.396-6.336 9.69-9.697 11.326-.1.047-.142.063-.18.086l-.258.108c-.073.032-.165.066-.253.096l-.115.041c-3.026 1.27-6.07 1.906-9.058 1.906z" mask="url(#xxzegl0a5b)"/>
                    <path fill="#FEFEFE" d="M241.192 127.995h-11.099c0-34.141-18.498-44.978-19.287-45.423l5.215-10.064c1.025.555 25.171 14.115 25.171 55.487" mask="url(#xxzegl0a5b)"/>
                    <path fill="#231916" d="M230.57 127.515h10.141c-.174-38.248-21.12-52.323-24.495-54.344l-4.778 9.223c2.832 1.79 18.973 13.38 19.132 45.121zm11.101.958h-12.057v-.479c0-33.875-18.265-44.568-19.043-45.005l-.402-.227 5.652-10.907.428.231c1.038.564 25.422 14.256 25.422 55.908v.48z" mask="url(#xxzegl0a5b)"/>
                    <path fill="#FEFEFE" d="M178.768 210.279L185.367 210.279 185.367 202.567 178.768 202.567z" mask="url(#xxzegl0a5b)"/>
                    <path fill="#231916" d="M179.247 209.8h5.641v-6.754h-5.641v6.754zm6.12.957h-6.599c-.263 0-.479-.214-.479-.478v-7.712c0-.264.216-.479.479-.479h6.599c.264 0 .479.215.479.479v7.712c0 .264-.215.478-.479.478z" mask="url(#xxzegl0a5b)"/>
                    <path fill="#231916" d="M180.144 204.913h-5.543s-2.622 2.379-3.37 3.853c-.749 1.474-8.765-1.702-8.765 4.758v1.249h26.74v-5.783s-.447-4.077-2.999-4.077h-1.57l-4.418 2.948-.075-2.948z" mask="url(#xxzegl0a5b)"/>
                    <path fill="#FEFEFE" d="M206.71 210.279L213.312 210.279 213.312 202.567 206.71 202.567z" mask="url(#xxzegl0a5b)"/>
                    <path fill="#231916" d="M207.189 209.8h5.645v-6.754h-5.645v6.754zm6.124.957h-6.602c-.264 0-.479-.214-.479-.478v-7.712c0-.264.215-.479.479-.479h6.602c.264 0 .479.215.479.479v7.712c0 .264-.215.478-.479.478z" mask="url(#xxzegl0a5b)"/>
                    <path fill="#231916" d="M208.09 204.913h-5.542s-2.622 2.379-3.37 3.853c-.75 1.474-8.761-1.702-8.761 4.758v1.249h26.737v-5.783s-.452-4.077-2.996-4.077h-1.571l-4.421 2.948-.075-2.948zM188.255 203.952L175.319 203.466 177.743 135.393 190.679 135.876zM202.836 203.952L200.415 135.876 213.347 135.393 215.767 203.466z" mask="url(#xxzegl0a5b)"/>
                    <path fill="#231916" d="M177.548 146.37L213.735 146.37 213.735 135.393 177.548 135.393z" mask="url(#xxzegl0a5b)"/>
                    <path fill="#FEFEFE" d="M219.812 81.787v58.445h-23.489V102.18l.012-.013 16.774-17.82-6.066-6.584 7.11-4.13-4.67-6.462c6.234 3.177 10.33 8.527 10.33 14.615" mask="url(#xxzegl0a5b)"/>
                    <path fill="#FEFEFE" d="M209.482 67.171l4.67 6.462-7.108 4.13 6.065 6.584-16.773 17.82 11.7-35.666c.494.215.976.442 1.446.67" mask="url(#xxzegl0a5b)"/>
                    <path fill="#231916" d="M208.035 66.5l-11.699 35.668-.013.013h-.014l-11.7-35.68c3.444-1.487 7.447-2.346 11.714-2.346 4.264 0 8.269.859 11.712 2.346" mask="url(#xxzegl0a5b)"/>
                    <path fill="#FEFEFE" d="M196.323 102.193v38.039H172.82V81.787c0-6.088 4.096-11.438 10.342-14.615l-4.68 6.461 7.12 4.13-6.092 6.584 16.8 17.833h.014v.013z" mask="url(#xxzegl0a5b)"/>
                    <path fill="#FEFEFE" d="M184.61 66.5l11.7 35.68-16.802-17.832 6.092-6.584-7.12-4.13 4.681-6.462c.47-.228.952-.456 1.448-.671" mask="url(#xxzegl0a5b)"/>
                    <path fill="#231916" d="M173.298 139.752h46.035V81.786c0-5.67-3.761-10.972-10.063-14.186-.462-.224-.938-.45-1.426-.66-6.985-3.018-16.061-3.018-23.046 0-.488.21-.963.438-1.427.663-6.304 3.207-10.073 8.51-10.073 14.184v57.965zm46.515.958h-46.994c-.264 0-.48-.215-.48-.478V81.787c0-6.041 3.966-11.663 10.605-15.041.483-.236.973-.466 1.474-.684 7.226-3.121 16.58-3.121 23.806 0 .503.218.993.448 1.468.68.002 0 .005.001.007.004 6.632 3.379 10.592 9.002 10.592 15.04v58.446c0 .263-.215.478-.478.478z" mask="url(#xxzegl0a5b)"/>
                    <path fill="#231916" d="M196.31 102.659c-.203 0-.39-.127-.455-.33l-11.7-35.68c-.083-.252.053-.52.303-.603.266-.086.525.054.605.305l11.701 35.68c.082.252-.055.522-.306.604-.049.017-.1.024-.149.024" mask="url(#xxzegl0a5b)"/>
                    <path fill="#231916" d="M196.336 102.646c-.05 0-.1-.008-.15-.024-.25-.082-.387-.352-.304-.605l11.698-35.666c.082-.25.348-.392.605-.306.25.083.386.352.304.605l-11.7 35.667c-.064.202-.251.33-.453.33" mask="url(#xxzegl0a5b)"/>
                    <path fill="#231916" d="M196.323 102.659c-.133 0-.27-.054-.36-.15L179.16 84.678c-.174-.184-.174-.47-.004-.656l5.686-6.143-6.603-3.83c-.117-.068-.199-.182-.228-.315-.028-.133 0-.271.081-.38l4.681-6.462c.155-.212.456-.261.668-.106.215.155.262.454.107.668l-4.37 6.033 6.661 3.864c.127.074.212.199.233.342.022.145-.022.29-.12.397l-5.79 6.255 16.467 17.477c.1.088.166.216.166.359 0 .264-.209.479-.473.479" mask="url(#xxzegl0a5b)"/>
                    <path fill="#231916" d="M196.323 102.667c-.264 0-.479-.21-.479-.474 0-.127.05-.261.14-.351l16.47-17.498-5.763-6.257c-.098-.107-.143-.252-.12-.395.02-.143.106-.268.231-.341l6.653-3.865-4.36-6.033c-.155-.216-.109-.515.107-.668.21-.157.512-.108.667.107l4.671 6.462c.08.11.108.247.08.379-.028.133-.11.247-.227.315l-6.594 3.83 5.662 6.145c.17.184.168.47-.004.652l-16.762 17.81c-.088.11-.223.182-.372.182" mask="url(#xxzegl0a5b)"/>
                    <path fill="#231916" d="M196.323 140.71c-.264 0-.479-.215-.479-.478v-38.04c0-.262.215-.477.48-.477.263 0 .478.215.478.477v38.04c0 .263-.215.478-.479.478" mask="url(#xxzegl0a5b)"/>
                    <path fill="#FEFEFE" d="M195.005 35.943c0-1.206-.94-2.173-2.112-2.173-1.161 0-2.114.967-2.114 2.173 0 1.193.953 2.158 2.114 2.158 1.173 0 2.112-.965 2.112-2.158m25.225 3.635c0 4.088-2.555 6.274-7.511 6.274-1.592 5.067-6.184 9.518-9.913 12.374-3.184 2.428-6.926 3.836-10.956 3.836-.745 0-1.514-.055-2.245-.147-10.29-1.355-18.326-11.92-18.326-24.74V18.592h29.36s5.713.55 5.713 9.87v3.191s1.943.2 3.705 2.963v.121l-.04 1.917h2.702v-3.54c1.615 0 3.115.16 4.342.683 1.918.792 3.169 2.468 3.169 5.781" mask="url(#xxzegl0a5b)"/>
                    <path fill="#231916" d="M217.127 16.408v17.216l-.066.174c-1.227-.524-2.727-.684-4.342-.684v3.54h-2.701l.039-1.917v-.121c-1.762-2.763-3.705-2.963-3.705-2.963v-3.191c0-9.32-5.712-9.87-5.712-9.87h-29.361c-7.148-2.64-7.434-7.802-7.434-7.802h4.056C164.094 9.088 163.27.478 163.27.478h38.895s8.19.35 8.19 8.514c.197 0 6.77.055 6.77 7.416" mask="url(#xxzegl0a5b)"/>
                    <path fill="#FEFEFE" d="M202.805 58.226v6.8c0 3.74-2.948 6.782-6.6 6.782-3.653 0-6.6-3.043-6.6-6.783v-3.11c.73.092 1.5.147 2.245.147 4.03 0 7.772-1.408 10.956-3.836" mask="url(#xxzegl0a5b)"/>
                    <path fill="#231916" d="M192.893 33.77c1.172 0 2.112.967 2.112 2.173 0 1.193-.94 2.158-2.112 2.158-1.161 0-2.113-.965-2.113-2.158 0-1.206.952-2.173 2.113-2.173M212.718 46.33c-.264 0-.48-.214-.48-.478 0-.263.216-.478.48-.478 4.667 0 7.032-1.951 7.032-5.797 0-2.831-.912-4.527-2.872-5.336-.943-.403-2.121-.61-3.681-.642v3.055c0 .264-.215.479-.48.479-.263 0-.478-.215-.478-.48v-3.54c0-.263.215-.478.479-.478 1.936 0 3.376.23 4.53.723 2.326.96 3.46 2.995 3.46 6.219 0 4.357-2.837 6.754-7.99 6.754" mask="url(#xxzegl0a5b)"/>
                    <path fill="#231916" d="M217.126 34.103c-.264 0-.48-.216-.48-.479V16.408c0-6.859-6.034-6.938-6.291-6.938-.263 0-.478-.215-.478-.478 0-7.599-7.416-8.022-7.731-8.035h-38.334c.248 1.855 1.293 8.06 4.284 9.395.208.093.322.315.273.536-.047.223-.241.38-.468.38H164.4c.276 1.313 1.52 4.835 7.046 6.875.246.092.374.367.283.615-.092.25-.366.372-.616.283-7.358-2.717-7.734-8-7.747-8.225-.006-.132.04-.26.13-.356.09-.095.218-.15.349-.15h2.544c-2.894-2.818-3.566-9.467-3.595-9.787-.014-.133.03-.268.123-.366.09-.102.219-.158.354-.158h38.895c.105.004 8.363.451 8.66 8.541 1.619.147 6.779 1.144 6.779 7.868v17.216c0 .263-.215.48-.48.48" mask="url(#xxzegl0a5b)"/>
                    <path fill="#231916" d="M191.849 62.54c-.732 0-1.53-.051-2.304-.15-10.688-1.407-18.744-12.245-18.744-25.214V18.593c0-.264.215-.48.479-.48h29.36c.264 0 .479.216.479.48 0 .263-.215.478-.48.478h-28.882v18.105c0 12.49 7.7 22.92 17.909 24.263.736.094 1.492.145 2.183.145 3.77 0 7.459-1.293 10.667-3.74 2.918-2.233 8.064-6.781 9.746-12.136.077-.25.339-.395.6-.312.252.079.393.348.313.6-1.762 5.606-7.07 10.308-10.079 12.61-3.375 2.576-7.263 3.935-11.248 3.935" mask="url(#xxzegl0a5b)"/>
                    <path fill="#231916" d="M189.604 65.504c-.264 0-.479-.216-.479-.48v-3.11c0-.264.215-.479.48-.479.263 0 .478.215.478.48v3.11c0 .263-.215.478-.479.478M210.056 35.094c-.157 0-.312-.079-.404-.22-1.596-2.506-3.283-2.737-3.355-2.747-.24-.028-.424-.233-.424-.474v-3.192c0-8.782-5.225-9.387-5.28-9.392-.262-.027-.454-.26-.43-.524.023-.262.236-.458.523-.43.06.005 6.143.704 6.143 10.346v2.812c.726.217 2.245.913 3.631 3.084.142.224.076.52-.145.662-.08.051-.17.075-.258.075M195.904 31.393h-6.012c-.263 0-.478-.216-.478-.479 0-.264.215-.479.478-.479h6.012c.264 0 .48.215.48.48 0 .262-.216.478-.48.478M180.357 31.393h-6c-.264 0-.479-.216-.479-.479 0-.264.215-.479.48-.479h6c.264 0 .478.215.478.48 0 .262-.214.478-.479.478M185.314 45.486c-1.696 0-3.075-1.412-3.075-3.148 0-.264.215-.48.478-.48.264 0 .48.216.48.48 0 1.209.95 2.19 2.117 2.19.858 0 1.614-.517 1.973-1.35.105-.24.378-.354.631-.248.241.106.353.388.248.63-.505 1.17-1.625 1.926-2.852 1.926" mask="url(#xxzegl0a5b)"/>
                    <path fill="#231916" d="M182.718 42.817c-.264 0-.48-.216-.48-.479v-5.684c0-.264.216-.479.48-.479s.479.215.479.479v5.684c0 .263-.215.479-.48.479M186.24 51.6c-2.254 0-4.296-.799-5.462-2.137-.174-.198-.153-.5.047-.675.196-.17.5-.153.676.047.972 1.115 2.788 1.807 4.74 1.807 1.93 0 3.741-.694 4.727-1.809.175-.2.48-.218.675-.043.2.176.217.477.043.675-1.18 1.337-3.215 2.134-5.446 2.134M177.357 37.494c-1.277 0-2.449-.46-3.136-1.232-.176-.197-.159-.5.04-.676.196-.178.496-.16.674.04.502.56 1.43.91 2.422.91.993 0 1.92-.35 2.421-.91.176-.198.48-.216.675-.04.198.176.215.479.04.676-.688.772-1.86 1.232-3.136 1.232M196.205 72.287c-3.903 0-7.079-3.258-7.079-7.262 0-.263.215-.48.478-.48.264 0 .479.217.479.48 0 3.477 2.746 6.305 6.122 6.305s6.121-2.828 6.121-6.305v-6.8c0-.262.216-.477.48-.477.263 0 .478.215.478.478v6.799c0 4.004-3.176 7.262-7.079 7.262M212.718 37.132h-2.7c-.13 0-.253-.052-.343-.144-.09-.09-.14-.214-.137-.344l.04-1.917c.005-.266.273-.493.488-.469.265.005.475.224.469.488l-.03 1.43h2.213c.264 0 .479.214.479.477 0 .264-.215.48-.48.48M204.728 102.656h10.56v-6.584h-10.56v6.584zm11.038.957h-11.517c-.264 0-.479-.215-.479-.479v-7.541c0-.263.215-.479.479-.479h11.517c.264 0 .48.216.48.479v7.541c0 .264-.216.479-.48.479z" mask="url(#xxzegl0a5b)"/>
                    <path fill="#FEFEFE" d="M208.947 97.381L211.068 97.381 211.068 93.079 208.947 93.079z" mask="url(#xxzegl0a5b)"/>
                    <path fill="#231916" d="M209.427 96.902h1.163v-3.344h-1.163v3.344zm1.641.958h-2.121c-.264 0-.478-.215-.478-.479V93.08c0-.264.214-.48.478-.48h2.121c.264 0 .48.216.48.48v4.301c0 .264-.216.479-.48.479z" mask="url(#xxzegl0a5b)"/>
                    <path fill="#FEFEFE" d="M131.214 47.391c-3.06 3.42-1.99 9.558 2.4 13.735 4.389 4.147 10.442 4.766 13.505 1.351 3.064-3.419 1.979-9.557-2.413-13.72-4.391-4.162-10.43-4.762-13.492-1.366" mask="url(#xxzegl0a5b)"/>
                    <path fill="#231916" d="M131.57 47.712c-2.882 3.22-1.815 9.081 2.374 13.069 2.39 2.254 5.49 3.535 8.205 3.419 1.89-.079 3.484-.784 4.612-2.043 2.884-3.216 1.815-9.072-2.384-13.052-2.412-2.288-5.37-3.503-8.183-3.428-1.89.075-3.492.778-4.625 2.035m10.225 17.453c-2.933 0-6.01-1.33-8.508-3.69-4.562-4.342-5.653-10.802-2.43-14.404h.002c1.312-1.453 3.143-2.267 5.3-2.35.124-.005.25-.007.373-.007 2.933 0 6.011 1.333 8.504 3.694 4.571 4.334 5.665 10.788 2.441 14.39-1.305 1.454-3.133 2.27-5.288 2.36-.13.002-.262.007-.394.007" mask="url(#xxzegl0a5b)"/>
                    <path fill="#FEFEFE" d="M143.85 42.856l-.575-12.363-10.591.51.548 12.362 10.618-.509zm1.746-16.21l1.422 31.629-15.756.75-1.434-31.629 15.768-.75z" mask="url(#xxzegl0a5b)"/>
                    <path fill="#231916" d="M143.275 30.493L143.849 42.856 133.231 43.365 132.683 31.004z" mask="url(#xxzegl0a5b)"/>
                    <path fill="#FEFEFE" d="M129.828 27.396L131.263 59.025 126.632 59.24 125.21 27.624zM131.002 6.56c.05 1.435-.757 2.683-1.97 3.23l.796 17.606-2.321.108L126.71 9.9c-1.238-.43-2.177-1.596-2.23-3.029-.091-1.853 1.304-3.42 3.09-3.515 1.815-.08 3.34 1.355 3.432 3.205" mask="url(#xxzegl0a5b)"/>
                    <path fill="#231916" d="M131.262 59.504c-.254 0-.465-.2-.48-.456-.01-.265.194-.489.458-.503l15.279-.727-1.38-30.67-15.29.727c-.29-.02-.486-.192-.5-.456-.011-.265.192-.489.457-.503l15.769-.75c.139-.017.25.04.343.127.096.085.152.204.157.332l1.42 31.63c.013.261-.191.485-.455.498l-15.756.75h-.022z" mask="url(#xxzegl0a5b)"/>
                    <path fill="#231916" d="M125.709 28.079l1.379 30.66 3.675-.171-1.392-30.671-3.662.182zm.922 31.64c-.12 0-.234-.045-.323-.125-.094-.086-.15-.206-.156-.331l-1.421-31.62c-.011-.26.193-.484.455-.498l4.618-.228c.172-.003.25.04.345.126.096.084.152.204.158.33l1.434 31.63c.01.265-.193.488-.457.5l-4.631.216h-.022zM133.183 31.459l.505 11.404 9.66-.462-.53-11.406-9.636.464zm.049 12.385c-.12 0-.234-.045-.321-.125-.096-.086-.153-.206-.159-.333l-.548-12.362c-.01-.263.194-.486.457-.5l10.591-.51c.14-.016.25.04.344.126.096.085.151.204.157.33l.576 12.364c.01.264-.194.488-.458.5l-10.618.51h-.021z" mask="url(#xxzegl0a5b)"/>
                    <path fill="#231916" d="M127.712 3.83c-.04 0-.08.002-.121.004-1.528.08-2.71 1.433-2.632 3.012.043 1.177.81 2.219 1.908 2.6.185.067.313.237.322.43l.774 17.128 1.365-.065-.774-17.126c-.007-.196.103-.378.282-.458 1.066-.482 1.729-1.571 1.688-2.773-.078-1.542-1.327-2.752-2.812-2.752zm-.205 24.153c-.12 0-.234-.045-.324-.125-.093-.086-.15-.206-.156-.331l-.781-17.3c-1.304-.585-2.192-1.89-2.244-3.34-.103-2.1 1.484-3.901 3.542-4.011 2.06-.037 3.832 1.549 3.938 3.66v.008c.05 1.48-.707 2.834-1.958 3.535l.783 17.295c.01.266-.193.488-.457.5l-2.321.109h-.022z" mask="url(#xxzegl0a5b)"/>
                </g>
            </g>
        </g>
    </g>
</svg>
