<svg xmlns="http://www.w3.org/2000/svg" xmlns:xlink="http://www.w3.org/1999/xlink" width="270" height="336" viewBox="0 0 270 336">
    <defs>
        <path id="mwh0trw2ta" d="M0 213L222.964 213 222.964 0.888 0 0.888z"/>
    </defs>
    <g fill="none" fill-rule="evenodd">
        <g>
            <g transform="translate(-1001 -1180) translate(1001 1180)">
                <rect width="270" height="336" fill="#FFF" rx="2"/>
                <g>
                    <path fill="#C8C9C9" d="M217.334 107.183c0 56.59-45.875 102.463-102.463 102.463-56.592 0-102.464-45.873-102.464-102.463C12.407 50.595 58.279 4.72 114.871 4.72c56.588 0 102.463 45.875 102.463 102.463" transform="translate(24 81)"/>
                    <path fill="#FEFEFE" d="M14.962 212.68L96.993 212.68 96.993 154.266 14.962 154.266zM188.288 212.999L206.482 212.999 206.482 155.543 188.288 155.543zM14.835 113.954L1.964 121.329 222.631 121.329 205.843 113.954z" transform="translate(24 81)"/>
                    <g transform="translate(24 81) translate(0 .112)">
                        <path fill="#231916" d="M1.964 121.217h219.034l-13.101-6.728H15.066l-13.102 6.728zm220.455.679c-.003.004-.01.004-.017 0H.556c-.15 0-.288-.107-.322-.262-.034-.151.034-.311.174-.382l14.427-7.41c.047-.021.104-.037.15-.037h192.988c.053 0 .103.016.15.037l14.379 7.384c.142.038.246.172.246.333 0 .185-.147.337-.33.337z"/>
                        <mask id="hd3xs661qb" fill="#fff">
                            <use xlink:href="#mwh0trw2ta"/>
                        </mask>
                        <path fill="#231916" d="M15.305 212.031h81.372v-81.416H15.305v81.416zm81.703.683H14.976c-.184 0-.331-.152-.331-.342v-82.098c0-.187.147-.34.331-.34h82.032c.181 0 .334.153.334.34v82.098c0 .19-.153.342-.334.342z" mask="url(#hd3xs661qb)"/>
                        <path fill="#231916" d="M97.008 156.406H14.976c-.184 0-.331-.149-.331-.338 0-.189.147-.343.33-.343h82.033c.18 0 .334.154.334.343 0 .189-.153.338-.334.338M97.008 186.923H14.976c-.184 0-.331-.155-.331-.341 0-.19.147-.34.33-.34h82.033c.18 0 .334.15.334.34 0 .186-.153.34-.334.34M188.527 212.031h18.239v-81.416h-18.239v81.416zm18.571.683h-18.902c-.183 0-.333-.152-.333-.342v-82.098c0-.187.15-.34.333-.34h18.902c.181 0 .333.153.333.34v82.098c0 .19-.152.342-.333.342zM48.648 144.537h18.208v-3.456H48.648v3.456zm18.54.683H48.317c-.182 0-.329-.152-.329-.34v-4.14c0-.19.147-.342.329-.342h18.871c.182 0 .333.152.333.342v4.14c0 .188-.151.34-.333.34zM45.953 173.052H65.5v-3.46H45.953v3.46zm19.876.681H45.622c-.183 0-.334-.15-.334-.339v-4.142c0-.188.151-.341.334-.341h20.207c.18 0 .329.153.329.341v4.142c0 .189-.149.339-.329.339zM45.953 201.569H65.5v-3.462H45.953v3.462zm19.876.679H45.622c-.183 0-.334-.149-.334-.339v-4.143c0-.186.151-.34.334-.34h20.207c.18 0 .329.154.329.34v4.143c0 .19-.149.339-.329.339z" mask="url(#hd3xs661qb)"/>
                        <path fill="#FEFEFE" d="M15.983 114.886L58.958 114.886 58.958 103.843 15.983 103.843z" mask="url(#hd3xs661qb)"/>
                        <path fill="#231916" d="M16.318 114.545h42.309v-10.361H16.318v10.361zm42.64.68H15.983c-.18 0-.327-.151-.327-.339v-11.043c0-.187.147-.34.327-.34h42.975c.182 0 .331.153.331.34v11.043c0 .188-.149.339-.331.339z" mask="url(#hd3xs661qb)"/>
                        <path fill="#231916" d="M13.019 103.757L55.991 103.757 55.991 92.715 13.019 92.715z" mask="url(#hd3xs661qb)"/>
                        <path fill="#231916" d="M13.353 103.413h42.308V93.056H13.353v10.357zm42.638.684H13.02c-.184 0-.331-.153-.331-.34V92.715c0-.188.147-.341.331-.341h42.971c.184 0 .331.153.331.341v11.042c0 .187-.147.34-.331.34z" mask="url(#hd3xs661qb)"/>
                        <path fill="#FEFEFE" d="M16.905 92.717L59.878 92.717 59.878 81.673 16.905 81.673z" mask="url(#hd3xs661qb)"/>
                        <path fill="#231916" d="M17.236 92.376h42.309V82.013H17.236v10.363zm42.642.681H16.905c-.182 0-.331-.152-.331-.34V81.673c0-.192.149-.341.331-.341h42.973c.182 0 .335.149.335.341v11.044c0 .188-.153.34-.335.34z" mask="url(#hd3xs661qb)"/>
                        <path fill="#231916" d="M18.602 81.558L61.576 81.558 61.576 70.514 18.602 70.514z" mask="url(#hd3xs661qb)"/>
                        <path fill="#231916" d="M18.937 81.216h42.305V70.855H18.937v10.361zm42.639.682H18.603c-.182 0-.331-.151-.331-.34V70.514c0-.187.149-.34.331-.34h42.973c.182 0 .331.153.331.34v11.044c0 .189-.149.34-.331.34z" mask="url(#hd3xs661qb)"/>
                        <path fill="#FEFEFE" d="M61.145 89.553L61.145 85.299 56.273 85.299 52.652 86.453 44.5 86.453 44.5 89.553 42.992 89.553 42.992 91.68 62.699 91.68 62.699 89.553z" mask="url(#hd3xs661qb)"/>
                        <path fill="#231916" d="M43.322 91.34h19.041v-1.447h-1.219c-.183 0-.335-.152-.335-.34V85.64h-4.487l-3.572 1.138c-.03.01-.066.016-.099.016h-7.82v2.76c0 .187-.148.339-.33.339h-1.179v1.447zm19.376.683H42.991c-.18 0-.33-.152-.33-.342v-2.127c0-.19.15-.34.33-.34h1.178v-2.761c0-.187.148-.341.331-.341h8.102l3.573-1.136c.028-.012.067-.015.097-.015h4.872c.183 0 .331.15.331.338v3.915h1.223c.184 0 .333.15.333.34v2.127c0 .19-.149.342-.333.342z" mask="url(#hd3xs661qb)"/>
                        <path fill="#FEFEFE" d="M52.846 92.704L44.112 92.704 46.7 117.518 52.846 117.518 58.985 117.518 61.573 92.704z" mask="url(#hd3xs661qb)"/>
                        <path fill="#231916" d="M46.997 117.178h11.691l2.518-24.135H44.481l2.516 24.135zm11.987.684H46.7c-.169 0-.312-.131-.328-.303l-2.586-24.817c-.012-.099.02-.196.08-.267.064-.07.153-.111.245-.111h17.461c.094 0 .182.04.25.111.063.072.093.169.081.267l-2.586 24.816c-.017.172-.157.303-.333.303zM105.446 115.135c-20.684 0-27.48-7.073-28.664-8.535-1.65-2.042-1.647-5.012.018-7.043 8.114-9.898 27.131-18.54 29.274-19.49l4.238 10.073c-4.008 1.785-13.699 6.663-20.427 11.885 3.488 1.197 9.058 2.305 17.497 2.111l.241 10.975c-.742.017-1.468.024-2.177.024" mask="url(#hd3xs661qb)"/>
                        <path fill="#231916" d="M105.902 80.513c-3.21 1.45-21.074 9.773-28.844 19.264-1.567 1.907-1.576 4.686-.022 6.605 1.171 1.447 8.242 8.864 30.25 8.397l-.228-10.292c-.535.007-1.06.014-1.567.014-6.266 0-11.549-.722-15.705-2.15l-.6-.207.504-.387c6.527-5.074 15.878-9.848 20.19-11.796l-3.978-9.448zm-.456 34.963c-20.857 0-27.748-7.213-28.919-8.659-1.76-2.173-1.749-5.32.02-7.477 8.168-9.97 27.248-18.632 29.4-19.587l.302-.136 4.501 10.7-.303.135c-4.034 1.794-13.238 6.445-19.844 11.454 3.954 1.252 9.082 1.914 14.888 1.914.61 0 1.24-.008 1.885-.023l.33-.007.258 11.653-.332.008c-.746.02-1.473.026-2.186.026zM141.162 115.135c-.71 0-1.433-.007-2.178-.025l.24-10.974c8.452.197 14.041-.921 17.513-2.096-6.725-5.23-16.429-10.113-20.444-11.9l4.236-10.073c2.144.95 21.163 9.592 29.273 19.49 1.67 2.03 1.677 5 .026 7.043-1.184 1.463-7.988 8.535-28.666 8.535" mask="url(#hd3xs661qb)"/>
                        <path fill="#231916" d="M139.323 114.78c.625.014 1.24.016 1.84.016 20.557 0 27.27-7.006 28.408-8.413 1.553-1.919 1.544-4.699-.019-6.606-7.772-9.49-25.63-17.813-28.847-19.265l-3.978 9.45c4.325 1.952 13.69 6.735 20.21 11.805l.5.393-.6.205c-4.184 1.416-9.468 2.137-15.69 2.137-.524 0-1.057-.004-1.599-.016l-.225 10.293zm1.84.696c-.712 0-1.438-.006-2.186-.026l-.333-.007.258-11.652.333.006c.652.018 1.29.023 1.911.023 5.767 0 10.89-.656 14.871-1.903-6.596-5.009-15.813-9.666-19.859-11.465l-.299-.135 4.5-10.7.303.137c2.151.955 21.232 9.617 29.393 19.586 1.774 2.162 1.788 5.303.027 7.477-1.172 1.445-8.069 8.66-28.92 8.66zM152.07 42.366v32.363H95.396V42.366h4.32c1.787-.651 3.466-1.343 4.992-2.146v9.689c0 10.419 11.662 19.917 19.152 19.917 3.728 0 8.42-2.26 12.221-5.783 3.8-3.522 6.707-8.275 6.893-13.328v-10.38c1.493.764 3.051 1.418 4.73 2.031h4.364z" mask="url(#hd3xs661qb)"/>
                        <path fill="#231916" d="M152.07 35.588v6.778h-4.366c-1.678-.613-3.236-1.266-4.729-2.031-13.637-6.742-19.265-18.078-19.265-18.078s-5.55 11.184-19 17.964c-1.527.803-3.206 1.494-4.993 2.145h-4.32v-6.778c0-18.961 12.667-34.361 28.313-34.361 15.652 0 28.36 15.4 28.36 34.36" mask="url(#hd3xs661qb)"/>
                        <path fill="#FEFEFE" d="M142.976 48.607v2.107c-.187 5.054-3.093 9.807-6.894 13.33-3.8 3.522-8.493 5.782-12.22 5.782-7.49 0-19.153-9.498-19.153-19.917V40.22c13.45-6.78 19-17.964 19-17.964s5.629 11.336 19.267 18.08v8.271z" mask="url(#hd3xs661qb)"/>
                        <path fill="#231916" d="M152.07 35.928c-.186 0-.332-.156-.332-.34 0-18.76-12.576-34.017-28.028-34.017-15.429 0-27.982 15.257-27.982 34.017 0 .184-.148.34-.33.34-.183 0-.336-.156-.336-.34 0-19.136 12.851-34.7 28.648-34.7 15.821 0 28.688 15.565 28.688 34.7 0 .184-.147.34-.329.34" mask="url(#hd3xs661qb)"/>
                        <path fill="#231916" d="M147.704 42.705c-.033 0-.069-.006-.108-.02-1.858-.678-3.372-1.33-4.768-2.047-11.874-5.87-17.783-15.326-19.118-17.684-1.315 2.338-7.152 11.673-18.85 17.573-1.387.73-2.99 1.414-5.032 2.158-.172.062-.357-.03-.423-.207-.059-.175.03-.372.202-.435 2.018-.735 3.587-1.41 4.951-2.127 13.195-6.648 18.804-17.704 18.86-17.815.058-.114.17-.185.292-.185.127 0 .241.07.301.185.052.114 5.742 11.317 19.11 17.927 1.372.705 2.862 1.345 4.693 2.015.174.063.268.26.206.435-.05.139-.175.227-.316.227M95.397 75.07c-.181 0-.335-.153-.335-.34V35.587c0-.19.154-.344.335-.344.183 0 .331.153.331.344V74.73c0 .188-.147.341-.33.341" mask="url(#hd3xs661qb)"/>
                        <path fill="#231916" d="M152.07 75.07H95.396c-.182 0-.335-.153-.335-.34 0-.189.153-.34.335-.34h56.341V35.587c0-.19.146-.344.331-.344.182 0 .33.153.33.344V74.73c0 .188-.148.341-.33.341" mask="url(#hd3xs661qb)"/>
                        <path fill="#231916" d="M123.861 70.166c-7.339 0-19.48-9.464-19.48-20.257v-1.302c0-.19.147-.34.328-.34.183 0 .331.15.331.34v1.302c0 10.429 11.733 19.576 18.821 19.576 3.613 0 8.211-2.18 12-5.693 4.146-3.847 6.617-8.616 6.785-13.092v-2.093c0-.19.147-.34.33-.34.183 0 .332.15.332.34v2.108c-.176 4.739-2.66 9.557-7.002 13.584-3.905 3.619-8.676 5.867-12.445 5.867" mask="url(#hd3xs661qb)"/>
                        <path fill="#231916" d="M142.976 48.949c-.183 0-.33-.153-.33-.342v-8.233c0-.189.147-.34.33-.34.184 0 .333.151.333.34v8.233c0 .189-.15.342-.333.342M104.709 48.949c-.181 0-.329-.153-.329-.342V40.22c0-.19.148-.341.329-.341.184 0 .331.151.331.341v8.387c0 .189-.147.342-.331.342M124.769 54.66c-.01 0-.02 0-.034-.002l-2.56-.296c-.468-.056-.864-.292-1.12-.666-.251-.38-.334-.846-.218-1.312l1.695-6.951c.045-.183.23-.294.402-.251.18.047.284.235.24.415l-1.693 6.95c-.064.274-.023.547.12.76.144.213.376.348.64.376l2.573.297c.182.023.309.192.29.378-.017.174-.165.302-.335.302M123.281 58.556c-2.317 0-4.316-.34-4.464-.363-.183-.033-.307-.21-.273-.393.03-.185.204-.306.382-.28.063.01 6.31 1.069 9.405-.549.161-.084.36-.02.445.148.082.167.021.37-.15.458-1.454.764-3.497.979-5.345.979M116.676 45.515c0 1.141-.901 2.063-2.011 2.063-1.107 0-2-.922-2-2.063 0-1.137.893-2.063 2-2.063 1.11 0 2.01.926 2.01 2.063M135.18 45.515c0 1.141-.902 2.063-2.006 2.063-1.11 0-2.011-.922-2.011-2.063 0-1.137.902-2.063 2.01-2.063 1.105 0 2.008.926 2.008 2.063M116.66 40.425s-.019 0-.03-.004l-4.863-.387c-.184-.017-.319-.18-.306-.37.015-.183.173-.33.357-.31l4.865.388c.183.013.32.178.303.365-.01.179-.155.318-.327.318M130.74 40.425c-.172 0-.317-.14-.33-.318-.018-.19.121-.352.301-.365l4.87-.387c.176-.021.338.126.357.31.01.19-.122.352-.307.369l-4.87.387c-.006.004-.013.004-.02.004" mask="url(#hd3xs661qb)"/>
                        <path fill="#231916" d="M114.67 37.764c-4.161 0-7.538 3.476-7.538 7.752 0 4.273 3.377 7.75 7.539 7.75 4.157 0 7.539-3.477 7.539-7.75 0-4.276-3.382-7.752-7.54-7.752m0 16.183c-4.527 0-8.206-3.785-8.206-8.431 0-4.65 3.679-8.436 8.207-8.436 4.519 0 8.203 3.787 8.203 8.436 0 4.647-3.684 8.431-8.203 8.431M133.174 37.32c-4.397 0-7.974 3.677-7.974 8.195 0 4.52 3.577 8.195 7.974 8.195 4.392 0 7.968-3.676 7.968-8.195 0-4.518-3.576-8.195-7.968-8.195m0 17.072c-4.764 0-8.636-3.984-8.636-8.877 0-4.894 3.872-8.875 8.636-8.875 4.76 0 8.63 3.981 8.63 8.875 0 4.893-3.87 8.877-8.63 8.877" mask="url(#hd3xs661qb)"/>
                        <path fill="#FEFEFE" d="M117.6 67.509h12.497v6.262c1.074.233 2.105.523 3.102.873l-.03.097v10.658c0 2-4.235 3.628-9.475 3.628-5.223 0-9.472-1.627-9.472-3.628V74.73c1.083-.375 2.215-.706 3.378-.96V67.51z" mask="url(#hd3xs661qb)"/>
                        <path fill="#231916" d="M101.717 114.406V89.52c0-6.512 5.104-12.138 12.505-14.791v10.669c0 2.001 4.249 3.628 9.472 3.628 5.24 0 9.476-1.627 9.476-3.628V74.741l.028-.098c7.532 2.612 12.77 8.295 12.77 14.877 0 .078-.033.156-.033.252v24.634h-44.218z" mask="url(#hd3xs661qb)"/>
                        <path fill="#FEFEFE" d="M119.363 107.034c-.705-4.236-6.033-6.95-11.919-6.063-5.856.906-10.048 5.072-9.34 9.308.708 4.239 6.052 6.943 11.922 6.045 5.865-.9 10.046-5.061 9.337-9.29" mask="url(#hd3xs661qb)"/>
                        <path fill="#231916" d="M109.668 101.142c-.719 0-1.448.056-2.174.164-3.364.521-6.327 2.192-7.928 4.471-.993 1.414-1.386 2.951-1.131 4.445.572 3.438 4.504 5.931 9.339 5.931.732 0 1.471-.054 2.205-.166 3.356-.517 6.323-2.177 7.919-4.449.999-1.41 1.392-2.95 1.145-4.447-.579-3.447-4.527-5.949-9.375-5.949m-1.894 15.693c-5.16 0-9.364-2.73-9.996-6.497-.285-1.68.152-3.396 1.251-4.962 1.699-2.42 4.829-4.193 8.368-4.743.757-.116 1.521-.172 2.271-.172 5.169 0 9.391 2.742 10.024 6.515.283 1.681-.155 3.397-1.254 4.965-1.703 2.413-4.83 4.177-8.365 4.717-.762.12-1.537.177-2.299.177" mask="url(#hd3xs661qb)"/>
                        <path fill="#FEFEFE" d="M127.693 107.034c.711-4.236 6.04-6.95 11.927-6.063 5.852.906 10.052 5.072 9.34 9.308-.714 4.239-6.048 6.943-11.924 6.045-5.869-.9-10.044-5.061-9.343-9.29" mask="url(#hd3xs661qb)"/>
                        <path fill="#231916" d="M137.395 101.142c-4.852 0-8.796 2.502-9.374 5.951-.246 1.498.15 3.034 1.145 4.447 1.595 2.27 4.56 3.93 7.922 4.447.732.112 1.469.166 2.203.166 4.833 0 8.765-2.493 9.34-5.93.252-1.495-.14-3.032-1.132-4.446-1.6-2.277-4.564-3.95-7.93-4.47-.724-.109-1.451-.165-2.174-.165m1.896 15.693c-.762 0-1.54-.057-2.301-.177-3.54-.54-6.657-2.304-8.365-4.715-1.1-1.566-1.533-3.286-1.256-4.966.637-3.774 4.85-6.516 10.026-6.516.752 0 1.514.056 2.272.172 3.54.55 6.668 2.323 8.37 4.743 1.098 1.568 1.529 3.281 1.25 4.962-.636 3.767-4.836 6.497-9.996 6.497" mask="url(#hd3xs661qb)"/>
                        <path fill="#FEFEFE" d="M71.524 65.674L77.201 65.674 77.201 62.132 71.524 62.132z" mask="url(#hd3xs661qb)"/>
                        <path fill="#231916" d="M71.854 65.335h5.013v-2.863h-5.013v2.863zm5.347.679h-5.677c-.181 0-.331-.15-.331-.34v-3.542c0-.188.15-.341.331-.341h5.677c.179 0 .327.153.327.341v3.542c0 .19-.148.34-.327.34z" mask="url(#hd3xs661qb)"/>
                        <path fill="#FEFEFE" d="M81.526 115.184v-32.86c0-2.464-4.325-4.746-4.325-4.746V66.29h-5.677v11.288s-4.328 2.282-4.328 4.745v32.861s-.23 2.334 1.581 2.334H79.94c1.816 0 1.586-2.334 1.586-2.334" mask="url(#hd3xs661qb)"/>
                        <path fill="#231916" d="M71.853 66.632v10.946c0 .128-.064.245-.175.304-.041.023-4.147 2.216-4.147 4.44v32.863c-.006.04-.099 1.094.392 1.65.203.232.483.344.855.344H79.94c.373 0 .65-.112.858-.343.489-.557.394-1.61.394-1.61V82.323c0-1.847-2.992-3.832-4.146-4.441-.109-.06-.18-.176-.18-.304V66.632h-5.013zm8.088 51.229H68.778c-.563 0-1.014-.192-1.35-.57-.688-.786-.566-2.086-.558-2.141l-.007-32.827c0-2.367 3.48-4.47 4.33-4.946V66.29c0-.187.15-.34.332-.34H77.2c.178 0 .328.153.328.34v11.086c.847.477 4.326 2.579 4.326 4.946v32.862c.004.02.123 1.32-.564 2.106-.334.378-.787.57-1.35.57z" mask="url(#hd3xs661qb)"/>
                        <path fill="#FEFEFE" d="M117.328 210.122L126.614 210.122 126.614 198.477 117.328 198.477z" mask="url(#hd3xs661qb)"/>
                        <path fill="#231916" d="M117.659 209.779h8.624v-10.964h-8.624v10.964zm8.955.683h-9.286c-.181 0-.331-.154-.331-.34v-11.645c0-.191.15-.34.331-.34h9.286c.184 0 .331.149.331.34v11.645c0 .186-.147.34-.331.34z" mask="url(#hd3xs661qb)"/>
                        <path fill="#FEFEFE" d="M129.857 209.497v3.165H105.31V211.3c0-7.04 7.36-3.58 8.05-5.185.686-1.606 3.096-4.2 3.096-4.2h5.082l.07 3.209v4.373h8.25z" mask="url(#hd3xs661qb)"/>
                        <path fill="#231916" d="M105.643 212.321h23.884v-2.483h-7.92c-.181 0-.328-.15-.328-.34v-4.374l-.062-2.869h-4.621c-.451.498-2.353 2.641-2.936 3.995-.276.65-1.136.707-2.068.707l-1.112-.013c-2.342 0-4.837.337-4.837 4.356v1.021zm24.215.68H105.31c-.178 0-.327-.153-.327-.339V211.3c0-5.039 3.707-5.039 5.497-5.039l1.112.013c.397 0 1.334 0 1.467-.297.697-1.644 3.056-4.187 3.15-4.298.069-.067.155-.105.247-.105h5.083c.179 0 .329.15.333.333l.069 3.21v4.04h7.917c.185 0 .335.153.335.34v3.165c0 .186-.15.338-.335.338z" mask="url(#hd3xs661qb)"/>
                        <path fill="#FEFEFE" d="M133.994 210.122L143.272 210.122 143.272 198.477 133.994 198.477z" mask="url(#hd3xs661qb)"/>
                        <path fill="#231916" d="M134.322 209.779h8.62v-10.964h-8.62v10.964zm8.95.683h-9.279c-.185 0-.335-.154-.335-.34v-11.645c0-.191.15-.34.335-.34h9.279c.183 0 .333.149.333.34v11.645c0 .186-.15.34-.333.34z" mask="url(#hd3xs661qb)"/>
                        <path fill="#FEFEFE" d="M146.523 209.497v3.165h-24.548V211.3c0-7.04 7.353-3.58 8.043-5.185.688-1.606 3.095-4.2 3.095-4.2h5.084l.071 3.209v4.373h8.255z" mask="url(#hd3xs661qb)"/>
                        <path fill="#231916" d="M122.304 212.321h23.886v-2.483h-7.921c-.182 0-.331-.15-.331-.34v-4.374l-.064-2.869h-4.616c-.454.498-2.352 2.641-2.934 3.995-.281.65-1.14.707-2.073.707l-1.112-.013c-2.34 0-4.835.337-4.835 4.356v1.021zm24.219.68h-24.548c-.186 0-.331-.153-.331-.339V211.3c0-5.039 3.708-5.039 5.495-5.039l1.112.013c.403 0 1.339 0 1.463-.297.709-1.644 3.056-4.187 3.157-4.298.064-.067.152-.105.242-.105h5.085c.185 0 .329.15.335.333l.067 3.21v4.04h7.923c.182 0 .329.153.329.34v3.165c0 .186-.147.338-.33.338zM131.683 200.223L145.786 200.083 123.523 125.845 109.413 125.984z" mask="url(#hd3xs661qb)"/>
                        <path fill="#231916" d="M109.866 126.32l22.058 73.563 13.412-.134-22.059-73.564-13.41.135zm21.816 74.244c-.147 0-.278-.094-.32-.239l-22.262-74.24c-.03-.1-.016-.213.05-.303.06-.085.156-.139.261-.139l14.104-.138c.135.011.28.097.322.241l22.266 74.238c.03.106.011.214-.049.3-.06.09-.16.14-.265.14l-14.107.14zM129.48 200.19L108.264 125.946 94.162 125.877 115.371 200.123z" mask="url(#hd3xs661qb)"/>
                        <path fill="#231916" d="M115.621 199.786l13.41.06-21.012-73.561-13.415-.065 21.017 73.566zm13.858.745h-.004l-14.109-.07c-.143-.001-.274-.1-.316-.244l-21.205-74.244c-.034-.101-.015-.213.05-.3.07-.085.183-.148.268-.136l14.102.069c.151 0 .28.1.316.243l21.213 74.245c.032.104.008.216-.053.3-.065.088-.164.137-.262.137z" mask="url(#hd3xs661qb)"/>
                        <path fill="#FEFEFE" d="M0.331 156.068L222.631 156.068 222.631 121.558 0.331 121.558z" mask="url(#hd3xs661qb)"/>
                        <path fill="#231916" d="M.662 155.725h221.636v-33.83H.662v33.83zm221.969.681H.331c-.185 0-.331-.149-.331-.338v-34.51c0-.19.146-.341.331-.341h222.3c.184 0 .333.151.333.341v34.51c0 .189-.149.338-.333.338z" mask="url(#hd3xs661qb)"/>
                        <path fill="#FEFEFE" d="M186.326 52.86L179.301 52.86 178.127 52.86 178.127 47.881 186.326 47.881z" mask="url(#hd3xs661qb)"/>
                        <path fill="#231916" d="M178.458 52.521h7.533v-4.3h-7.533v4.3zm7.868.681h-8.199c-.184 0-.329-.151-.329-.342v-4.978c0-.188.145-.341.329-.341h8.199c.182 0 .335.153.335.341v4.978c0 .191-.153.342-.335.342z" mask="url(#hd3xs661qb)"/>
                        <path fill="#FEFEFE" d="M190.579 87.358L190.579 84.979 191.971 83.548 191.971 63.332 185.632 54.572 185.632 53.469 182.225 53.469 178.82 53.469 178.82 54.572 172.487 63.332 172.487 83.548 173.877 84.979 173.877 87.358 172.441 88.832 172.441 115.382 174.517 117.518 182.225 117.518 189.933 117.518 192.012 115.382 192.012 88.832z" mask="url(#hd3xs661qb)"/>
                        <path fill="#231916" d="M174.653 117.178h15.145l1.882-1.936V88.975l-1.335-1.375c-.06-.063-.099-.148-.099-.241v-2.38c0-.09.038-.18.1-.242l1.293-1.33V63.445l-6.267-8.672c-.049-.058-.068-.13-.068-.2v-.76h-6.155v.76c0 .07-.026.142-.065.2l-6.266 8.671v19.963l1.29 1.33c.066.063.098.153.098.243v2.379c0 .093-.032.178-.099.24l-1.336 1.376v26.267l1.882 1.936zm15.28.684h-15.417c-.088 0-.172-.036-.235-.1l-2.076-2.14c-.06-.061-.096-.151-.096-.24v-26.55c0-.086.036-.172.096-.235l1.334-1.377v-2.102l-1.289-1.332c-.064-.06-.099-.15-.099-.237V63.33c0-.074.024-.14.068-.206l6.268-8.666v-.99c0-.184.15-.337.333-.337h6.812c.185 0 .334.153.334.337v.99l6.266 8.666c.047.066.067.133.067.206V83.55c0 .087-.033.177-.097.236l-1.296 1.334v2.1l1.34 1.378c.061.063.096.149.096.235v26.55c0 .088-.035.176-.096.24l-2.076 2.138c-.06.066-.147.102-.237.102z" mask="url(#hd3xs661qb)"/>
                        <path fill="#231916" d="M187.781 85.382h-11.11c-.265 0-.48-.216-.48-.48 0-.263.215-.478.48-.478h11.11c.264 0 .48.215.48.479 0 .263-.216.479-.48.479M187.781 63.487h-11.11c-.265 0-.48-.215-.48-.479 0-.263.215-.478.48-.478h11.11c.264 0 .48.215.48.478 0 .264-.216.48-.48.48M187.781 87.749h-11.11c-.265 0-.48-.215-.48-.48 0-.262.215-.477.48-.477h11.11c.264 0 .48.215.48.478 0 .264-.216.479-.48.479M179.208 52.088L180.565 52.088 180.565 48.613 179.208 48.613zM180.77 52.088L182.127 52.088 182.127 48.613 180.77 48.613zM182.33 52.088L183.688 52.088 183.688 48.613 182.33 48.613zM183.889 52.088L185.247 52.088 185.247 48.613 183.889 48.613z" mask="url(#hd3xs661qb)"/>
                        <path fill="#FEFEFE" d="M170.035 91.503L169.297 90.802 169 90.802 169 90.111 169.297 90.111 169.297 89.47 157.31 89.47 157.31 90.111 157.62 90.111 157.62 90.802 157.31 90.802 156.581 91.503 155.89 92.147 155.89 115.583 157.31 116.184 157.62 116.184 157.62 116.876 157.31 116.876 157.31 117.519 169.297 117.519 169.297 116.876 169 116.876 169 116.184 169.297 116.184 170.733 115.583 170.733 92.147z" mask="url(#hd3xs661qb)"/>
                        <path fill="#231916" d="M157.765 117.178h11.089c-.11-.056-.186-.168-.186-.302v-.693c0-.19.15-.34.332-.34h.234l1.165-.487V92.3l-1.227-1.16H169c-.181 0-.332-.15-.332-.338v-.69c0-.13.077-.245.18-.301h-11.081c.11.055.185.171.185.3v.69c0 .19-.146.338-.332.338h-.175l-1.23 1.16v23.056l1.162.487h.243c.186 0 .332.151.332.341v.692c0 .135-.083.246-.187.303m11.532.684H157.31c-.182 0-.33-.152-.33-.343v-.644c0-.178.137-.326.304-.34v-.011c-.031-.004-.066-.011-.098-.025l-1.427-.602c-.122-.055-.206-.18-.206-.315V92.147c0-.095.045-.187.11-.252l1.422-1.343c.056-.053.129-.086.199-.09v-.008c-.167-.017-.304-.161-.304-.342v-.642c0-.189.148-.34.33-.34h11.986c.184 0 .335.151.335.34v.642c0 .18-.135.325-.302.343v.008c.076.008.14.037.198.09l1.423 1.343c.073.064.11.156.11.25v23.436c0 .136-.082.26-.207.316l-1.434.602c-.03.013-.06.016-.09.023v.011c.167.015.302.162.302.341v.644c0 .19-.151.343-.335.343" mask="url(#hd3xs661qb)"/>
                        <path fill="#231916" d="M167.408 91.26h-8.194c-.264 0-.479-.215-.479-.48 0-.262.215-.478.48-.478h8.193c.264 0 .48.216.48.479 0 .264-.216.479-.48.479M167.408 116.688h-8.194c-.264 0-.479-.215-.479-.479 0-.263.215-.479.48-.479h8.193c.264 0 .48.216.48.48 0 .263-.216.478-.48.478" mask="url(#hd3xs661qb)"/>
                        <path fill="#FEFEFE" d="M210.427 110.07v6.592s-.406 1.77-2.164 1.77H197.14c-1.76 0-2.165-1.77-2.165-1.77v-6.593h15.452z" mask="url(#hd3xs661qb)"/>
                        <path fill="#231916" d="M194.975 110.069L210.427 110.069 210.427 95.419 194.975 95.419z" mask="url(#hd3xs661qb)"/>
                        <path fill="#FEFEFE" d="M210.427 93.209v2.21h-15.452v-2.21c0-3.662 4.329-5.693 4.329-5.693V73.823h6.784v13.693s4.339 2.03 4.339 5.693M205.285 70.628c.901 0 1.643.713 1.643 1.598 0 .875-.742 1.597-1.643 1.597h-5.169c-.91 0-1.65-.722-1.65-1.597 0-.885.74-1.598 1.65-1.598h5.17z" mask="url(#hd3xs661qb)"/>
                        <path fill="#231916" d="M208.263 118.91H197.14c-1.694 0-2.463-1.4-2.633-2.142l-.012-23.56c0-3.403 3.33-5.447 4.33-5.986V73.344h1.29c.265 0 .48.215.48.479s-.215.479-.48.479h-.331v13.516l-.276.13c-.041.02-4.055 1.952-4.055 5.26v23.454-.002c.015 0 .365 1.293 1.687 1.293h11.123c1.345 0 1.684-1.343 1.698-1.401l-.012-23.343c0-3.31-4.024-5.241-4.065-5.26l-.275-.13V74.303h-.324c-.263 0-.478-.215-.478-.48 0-.263.215-.478.478-.478h1.282v13.878c1.003.539 4.339 2.583 4.339 5.987v23.453c-.182.848-.951 2.248-2.643 2.248" mask="url(#hd3xs661qb)"/>
                        <path fill="#231916" d="M200.115 71.107c-.645 0-1.17.501-1.17 1.118 0 .617.525 1.118 1.17 1.118h5.17c.642 0 1.163-.5 1.163-1.118 0-.617-.52-1.118-1.163-1.118h-5.17zm5.17 3.194h-5.17c-1.172 0-2.128-.93-2.128-2.076 0-1.144.956-2.076 2.128-2.076h5.17c1.17 0 2.121.932 2.121 2.076 0 1.145-.952 2.076-2.12 2.076zM210.427 95.898h-15.452c-.264 0-.48-.216-.48-.479 0-.264.216-.479.48-.479h15.452c.264 0 .479.215.479.48 0 .262-.215.478-.48.478M210.427 110.548h-15.452c-.264 0-.48-.215-.48-.48 0-.262.216-.477.48-.477h15.452c.264 0 .479.215.479.478 0 .264-.215.479-.48.479" mask="url(#hd3xs661qb)"/>
                    </g>
                </g>
            </g>
        </g>
    </g>
</svg>
