<svg xmlns="http://www.w3.org/2000/svg" xmlns:xlink="http://www.w3.org/1999/xlink" width="270" height="336" viewBox="0 0 270 336">
    <defs>
        <path id="ecdk9hyrca" d="M0.214 0.112L205.14 0.112 205.14 205.038 0.214 205.038z"/>
        <path id="0cz7iz0wjc" d="M0 233.647L210.14 233.647 210.14 0 0 0z"/>
    </defs>
    <g fill="none" fill-rule="evenodd">
        <g>
            <g transform="translate(-409 -88) translate(409 88)">
                <rect width="270" height="336" fill="#FFF" rx="2"/>
                <g transform="translate(30 71)">
                    <path fill="#FEFEFE" d="M61.151 33.576c0 1.369-.98 2.479-2.189 2.479s-2.19-1.11-2.19-2.48c0-1.368.981-2.478 2.19-2.478 1.21 0 2.19 1.11 2.19 2.479M133.013 32.516V20.95c0-3.48 2.737-6.327 6.125-6.327h19.081c3.417 0 6.125 2.847 6.125 6.327v11.375"/>
                    <g transform="translate(5 24.647)">
                        <mask id="o79h7iu89b" fill="#fff">
                            <use xlink:href="#ecdk9hyrca"/>
                        </mask>
                        <path fill="#C8C9C9" d="M205.14 102.575c0 56.59-45.873 102.463-102.463 102.463C46.089 205.038.214 159.164.214 102.575.214 45.986 46.089.112 102.677.112c56.59 0 102.464 45.874 102.464 102.463" mask="url(#o79h7iu89b)"/>
                    </g>
                    <path fill="#FEFEFE" d="M6.65 154.754l-.479 10.293 16.04.48-.24 67.51h169.974v-67.99h16.04v-10.054l-23.7-26.573h-17.477v-2.873s15.082-9.576 16.28-22.982c0 0 2.154-17.477-14.843-35.672 0 0-4.07-4.547-10.294-4.547l-3.113-1.677v-5.027s7.901-6.703 9.337-13.646c0 0 8.858 1.198 8.858-6.225 0 0 1.436-4.788-5.506-7.182h-38.544s-5.506 2.635-4.788 7.901c0 0 .48 7.182 9.098 5.746 0 0 4.07 10.055 9.096 12.928v5.505l-2.872 2.156-14.125 20.11 9.816 28.965-2.634 16.52H30.35l-23.7 26.334z"/>
                    <path fill="#FEFEFE" d="M33.103 59.473l-8.14 19.87h-3.23v2.512h9.098v-2.394h-3.113l8.497-19.988h6.703s-.358 4.548 4.55 4.548h8.378v1.794h1.198v1.676h-1.077v2.037H50.22v8.736h17.477v-8.618h-5.626v-2.274h-1.198v-1.196h1.078v-2.155h9.337s4.07.12 3.83-4.788h6.704l8.259 20.11h-2.993v2.393h8.739v-2.394h-2.874l-8.378-19.99h11.37v1.196h1.677v4.192h3.47v-4.192h1.556V56.48h-1.555v-2.873s16.519 3.112 16.399-.119c0 0 .12-2.275-2.035-2.394-2.156-.12-12.689.598-14.843 1.677l-.24-.958-1.794.118-.121.718s-7.42-1.314-9.934-1.314c-2.514 0-7.063-.72-7.183 1.554 0 0-.12 2.394 3.112 2.035 3.233-.359 13.047-1.078 13.047-1.078v2.634h-1.316v.957s-22.624-1.197-30.644-5.624c0 0-.718-3.952-5.864-4.67V35.533h-1.436v11.61s-5.746 1.077-5.866 4.67c0 0-10.743 4.67-30.54 5.844v1.753l11.267.063z"/>
                    <mask id="f9l5hz5mnd" fill="#fff">
                        <use xlink:href="#0cz7iz0wjc"/>
                    </mask>
                    <path fill="#231916" d="M6.875 164.736h200.748v-9.206H6.875v9.206zm201.228.958H6.396c-.263 0-.478-.214-.478-.479v-10.163c0-.265.215-.479.478-.479h201.707c.263 0 .478.214.478.479v10.163c0 .265-.215.479-.478.479z" mask="url(#f9l5hz5mnd)"/>
                    <path fill="#231916" d="M208.103 155.53c-.133 0-.264-.054-.36-.161l-23.73-26.879c-.174-.198-.155-.5.043-.676.194-.174.499-.153.675.043l23.73 26.877c.174.2.156.502-.043.677-.09.08-.203.12-.315.12M6.396 155.53c-.111 0-.226-.038-.316-.12-.199-.173-.216-.476-.043-.675l23.729-26.879c.175-.195.48-.216.676-.041.198.175.216.477.043.675L6.755 155.37c-.095.107-.226.161-.359.161" mask="url(#f9l5hz5mnd)"/>
                    <path fill="#231916" d="M184.372 128.652H30.125c-.264 0-.479-.214-.479-.479 0-.264.215-.479.48-.479h154.246c.264 0 .48.215.48.48 0 .264-.216.478-.48.478M22.694 232.689h169.11v-66.996H22.694v66.996zm169.589.958H22.216c-.264 0-.48-.214-.48-.479v-67.953c0-.265.216-.479.48-.479h170.067c.264 0 .479.214.479.479v67.953c0 .265-.215.479-.479.479z" mask="url(#f9l5hz5mnd)"/>
                    <path fill="#FEFEFE" d="M166.915 110.984l-.093-.081-.5-28.054c2.122 3.266 6.907 11.723 5.22 19.936-.566 2.792-2.228 5.597-4.627 8.199zm-7.133 10.91l3.178 6.193h.132c1.384-.732 2.716-1.545 3.994-2.4.066-.04.12-.08.184-.12 7.99-5.395 13.685-12.658 15.267-20.492 3.178-15.761-7.963-30.222-8.437-30.831-8.345-13.512-16.203-12.008-16.203-12.008l-4.97 6.926-1.226-1.424-2.202 1.68 1.028 30.046-3.769 7.36-3.52-7.481 4.033-29.883.067-.082-1.872-1.653-1.187 1.558-4.746-6.37s-17.244.055-19.222 16.86c0 1.003-.303 24.706-23.928 37.269l5.155 10.232c15.847-8.43 23.321-20.938 26.842-31.021l-1.174 31.848h18.022c-.395-.678-.659-1.423-.764-2.236-.25-1.898.448-3.741 1.753-5.164l-1.319-2.426.383-.217-.778-1.423-.382.217-1.016-1.87 1.332-.76-9.294-17.088-.554.31-1.529-3.74 1.226-.704 2.254 3.334-.566.325 9.294 17.09 1.332-.76 1.014 1.858-.382.216.778 1.423.37-.217 1.212 2.223c.593-.23 1.24-.38 1.898-.474 3.625-.488 6.947 1.179 8.24 3.903l.052-.027z" mask="url(#f9l5hz5mnd)"/>
                    <path fill="#FEFEFE" d="M145.466 67.725L148.379 63.903 142.42 60.623 139.533 62.914 144.279 69.283z" mask="url(#f9l5hz5mnd)"/>
                    <path fill="#231916" d="M147.272 69.46L143.238 99.343 146.757 106.823 150.528 99.465 149.5 69.418 148.367 70.287 147.338 69.379z" mask="url(#f9l5hz5mnd)"/>
                    <path fill="#FEFEFE" d="M145.228 128.1c1.278 2.197 3.941 3.592 6.934 3.525l-5.946-10.924c-1.304 1.423-2.004 3.266-1.752 5.164.106.813.369 1.559.764 2.236" mask="url(#f9l5hz5mnd)"/>
                    <path fill="#231916" d="M145.466 67.725L147.338 69.378 148.366 70.286 149.499 69.419 151.701 67.738 148.379 63.903z" mask="url(#f9l5hz5mnd)"/>
                    <path fill="#FEFEFE" d="M146.217 120.7l5.945 10.924h.053c-.33-.921.04-1.965.897-2.453.962-.555 2.175-.203 2.715.786l-6.235-11.465c-1.345.474-2.491 1.247-3.375 2.209M151.701 67.738L152.927 69.161 157.897 62.236 154.614 60.731 148.379 63.903z" mask="url(#f9l5hz5mnd)"/>
                    <path fill="#FEFEFE" d="M149.592 118.492l6.235 11.465c.132.23.199.488.238.732 1.265-.637 2.32-1.531 3.058-2.602.897-1.287 1.345-2.82 1.134-4.377-.08-.637-.264-1.234-.527-1.79-1.292-2.723-4.615-4.39-8.24-3.902-.66.095-1.305.244-1.898.474" mask="url(#f9l5hz5mnd)"/>
                    <path fill="#FEFEFE" d="M153.111 129.171c-.856.488-1.226 1.531-.896 2.453.277-.014.553-.027.831-.068l2.781-1.599c-.54-.989-1.753-1.34-2.716-.786M153.046 131.556c.065 0 .118 0 .185-.013 1.014-.136 1.977-.434 2.834-.854-.04-.244-.106-.502-.238-.732l-2.781 1.6zM159.123 128.087h3.837l-3.178-6.194-.053.027c.264.556.45 1.153.528 1.79.211 1.558-.238 3.09-1.134 4.377" mask="url(#f9l5hz5mnd)"/>
                    <path fill="#231916" d="M140.195 63l4.088 5.488 3.378-4.433-5.193-2.858L140.195 63zm4.084 6.762h-.002c-.15-.001-.29-.072-.38-.193l-4.748-6.37c-.155-.207-.116-.5.086-.66l2.888-2.29c.15-.12.36-.138.527-.045l5.96 3.279c.122.068.21.185.236.32.031.138-.002.28-.086.39l-4.099 5.38c-.092.119-.232.189-.382.189zM167.272 126.045c-.153 0-.305-.074-.397-.21-.148-.22-.09-.518.129-.665 8.204-5.54 13.553-12.71 15.064-20.189 3.121-15.48-7.877-29.84-8.347-30.445-.161-.208-.125-.508.085-.67.207-.164.51-.127.671.083.481.617 11.737 15.315 8.529 31.221-1.561 7.728-7.054 15.113-15.466 20.793-.082.056-.174.082-.268.082" mask="url(#f9l5hz5mnd)"/>
                    <path fill="#231916" d="M162.986 128.633c-.192 0-.372-.115-.447-.305l-5.199-10.16c-.118-.233-.03-.516.198-.64 3.531-1.907 6.651-4.284 9.022-6.869 2.428-2.63 3.988-5.386 4.514-7.97 1.641-7.99-3.059-16.353-5.155-19.578-.144-.223-.08-.519.14-.663.227-.142.522-.081.664.14 2.16 3.325 7 11.957 5.29 20.294-.562 2.754-2.204 5.668-4.748 8.426-2.348 2.561-5.405 4.918-8.86 6.837l4.793 9.356c1.194-.662 2.373-1.379 3.622-2.212l.2-.13c.23-.139.523-.068.658.156.14.225.068.52-.156.66l-.185.12c-1.39.93-2.71 1.722-4.022 2.417-.005.01-.07.06-.168.094-.053.019-.106.028-.16.028M101.537 127.753c-.049 0-.097-.008-.146-.022-.122-.04-.224-.127-.282-.242l-5.155-10.232c-.115-.232-.025-.515.204-.638 23.405-12.446 23.675-35.856 23.675-36.846 0-.265.215-.48.478-.48.264 0 .48.215.48.48 0 1.008-.274 24.702-23.77 37.47l4.722 9.377c15.815-8.572 22.968-21.31 26.185-30.525.088-.25.358-.382.61-.293.25.087.381.36.295.609-3.304 9.46-10.682 22.567-27.07 31.286-.07.037-.147.056-.226.056" mask="url(#f9l5hz5mnd)"/>
                    <path fill="#231916" d="M120.311 80.251c-.019 0-.037 0-.056-.002-.261-.032-.45-.27-.418-.532 2.002-17.03 19.519-17.282 19.694-17.282h.002c.264 0 .477.213.479.476 0 .265-.214.48-.477.481-.686.003-16.844.258-18.748 16.437-.029.244-.237.422-.476.422M174.1 74.722c-.16 0-.315-.081-.407-.227-8.08-13.084-15.632-11.808-15.705-11.79-.258.053-.511-.12-.56-.38-.051-.26.12-.51.38-.56.33-.062 8.278-1.408 16.7 12.227.139.225.07.52-.155.659-.08.048-.167.07-.253.07M152.347 132.442c-.043 0-.088-.006-.13-.018-.125-.035-.23-.12-.291-.233l-7.448-13.687c-.125-.23-.043-.516.183-.645l.382-.217c.228-.133.52-.051.655.18.125.22.056.499-.154.637l6.988 12.843 2.652-1.527-6.99-12.846c-.22.087-.475.007-.598-.2-.133-.23-.056-.522.172-.656l.37-.217c.11-.065.249-.083.369-.048.125.035.232.118.293.232l7.448 13.688c.123.229.043.515-.181.644l-3.481 2.005c-.073.044-.155.065-.24.065M147.232 115.543c-.166 0-.327-.088-.417-.243-.125-.22-.056-.498.153-.635l-.556-1.019-.908.519c-.232.127-.523.05-.653-.178-.13-.23-.052-.523.178-.654l1.332-.76c.11-.063.243-.08.368-.044.124.035.23.118.29.23l1.016 1.858c.125.23.043.516-.184.645l-.38.218c-.076.042-.158.063-.239.063" mask="url(#f9l5hz5mnd)"/>
                    <path fill="#231916" d="M144.121 117.331c-.045 0-.088-.007-.132-.019-.123-.034-.227-.118-.289-.23l-1.016-1.872c-.124-.229-.042-.515.183-.644l1.332-.76c.227-.13.52-.05.652.18.131.23.053.522-.177.653l-.924.526.56 1.032c.218-.095.484-.014.61.202.128.23.048.522-.18.652l-.382.218c-.073.041-.155.062-.237.062" mask="url(#f9l5hz5mnd)"/>
                    <path fill="#231916" d="M145.148 116.817l.317.582 1.9-1.094-.317-.582-1.9 1.094zm.132 1.72c-.042 0-.085-.006-.129-.018-.125-.035-.23-.118-.292-.231l-.778-1.422c-.123-.23-.042-.516.181-.645l2.732-1.572c.11-.065.246-.082.369-.046.125.035.228.119.29.232l.776 1.422c.125.228.043.514-.18.644l-2.73 1.572c-.073.042-.156.064-.239.064zM154.086 129.387c-.255 0-.507.066-.735.2-.653.371-.941 1.16-.685 1.877.034.137.057.195.09.251.006.007.01.016.013.023.195.363.516.626.909.738.387.11.797.061 1.146-.142.55-.314.852-.935.766-1.583-.038-.23-.094-.41-.178-.555-.208-.38-.535-.643-.93-.755-.13-.036-.263-.054-.396-.054m.004 4.106c-.227 0-.453-.032-.676-.096-.64-.183-1.167-.608-1.484-1.198-.087-.145-.145-.297-.182-.474-.396-1.094.071-2.368 1.126-2.97.574-.33 1.238-.412 1.866-.236.646.18 1.181.61 1.508 1.207.138.242.232.525.29.887.136 1.05-.348 2.047-1.236 2.553-.376.215-.792.327-1.212.327M144.436 114.702c-.043 0-.088-.006-.13-.02-.124-.033-.228-.116-.29-.23l-9.293-17.09c-.127-.232-.042-.522.192-.65.22-.116.5-.046.632.167-.118-.231-.031-.516.198-.641.232-.125.523-.041.65.192l9.292 17.09c.124.229.044.515-.183.645l-.83.474c-.073.042-.156.063-.238.063" mask="url(#f9l5hz5mnd)"/>
                    <path fill="#231916" d="M133.662 93.912l1.166 2.85 1.026-.586-1.715-2.54-.477.276zm.928 4.012c-.053 0-.106-.008-.157-.026-.131-.046-.234-.144-.286-.271l-1.53-3.741c-.09-.222-.004-.477.204-.596l1.226-.705c.219-.124.494-.062.636.147l2.254 3.334c.075.11.099.247.069.377s-.112.24-.228.307l-.567.324-1.385.789c-.074.04-.156.06-.236.06zM148.366 70.765c-.114 0-.227-.04-.316-.12l-2.9-2.56c-.234-.126-.29-.392-.166-.625.126-.233.451-.294.682-.17.031.016.09.051.115.076l2.607 2.3 3.023-2.309.33.354.271.394-.04.027-3.314 2.535c-.086.065-.189.098-.292.098" mask="url(#f9l5hz5mnd)"/>
                    <path fill="#231916" d="M146.758 107.302h-.008c-.182-.003-.347-.11-.426-.275l-3.52-7.48c-.04-.083-.052-.177-.041-.268l4.034-29.883c.038-.26.284-.452.539-.41.262.035.447.276.41.538l-4.014 29.743 3.045 6.47 3.269-6.38-1.025-29.921c-.01-.265.198-.487.462-.496.247-.001.486.197.496.462l1.028 30.046c.002.082-.015.162-.052.234l-3.77 7.359c-.083.16-.247.26-.427.26M167.126 128.58c-.263 0-.476-.21-.479-.472l-.04-2.413c-.003-.264.207-.48.472-.486h.007c.262 0 .476.21.479.471l.04 2.413c.003.264-.207.481-.472.486h-.007zM166.822 111.382c-.26 0-.473-.208-.479-.47l-.5-28.054c-.004-.265.205-.483.468-.487h.01c.26 0 .474.208.48.47l.5 28.054c.003.265-.206.482-.469.487h-.01zM127.205 128.58h-.017c-.265-.01-.47-.233-.462-.498l1.175-31.847c.01-.264.258-.472.495-.46.266.01.472.231.463.495l-1.175 31.848c-.009.258-.222.461-.479.461M149.143 64.053l3.752 4.335 4.275-5.96-2.544-1.165-5.483 2.79zm3.785 5.587c-.138 0-.27-.06-.362-.166l-4.55-5.257c-.095-.112-.134-.261-.105-.405.027-.145.12-.27.252-.335l6.236-3.171c.127-.066.284-.072.417-.01l3.282 1.505c.129.059.227.174.262.313.037.138.01.285-.073.4l-4.97 6.926c-.086.12-.22.194-.368.2h-.021z" mask="url(#f9l5hz5mnd)"/>
                    <path fill="#231916" d="M145.268 128.58h-18.062c-.264 0-.48-.215-.48-.48 0-.264.216-.479.48-.479h18.022c.264 0 .5.215.5.48 0 .264-.196.478-.46.478M167.126 128.58h-.002l-8-.014c-.264 0-.478-.214-.478-.479s.214-.479.478-.479l8.003.013c.264.001.478.217.478.481s-.215.477-.479.477" mask="url(#f9l5hz5mnd)"/>
                    <path fill="#231916" d="M146.57 121.024c-1.277 1.392-1.856 3.088-1.633 4.778.096.726.331 1.42.704 2.057 1.22 2.091 3.724 3.38 6.51 3.286.32-.013.572-.025.825-.062l.191-.014c.945-.128 1.85-.4 2.686-.81 1.192-.599 2.186-1.444 2.876-2.444.864-1.242 1.238-2.677 1.053-4.04-.07-.567-.233-1.12-.484-1.648-1.229-2.588-4.405-4.072-7.745-3.635-.67.097-1.276.247-1.788.446-1.244.438-2.343 1.16-3.195 2.086m5.464 11.08c-3.143 0-5.86-1.429-7.22-3.762-.435-.75-.715-1.562-.826-2.415-.26-1.976.405-3.946 1.876-5.55.957-1.044 2.191-1.852 3.568-2.337.567-.22 1.242-.389 1.99-.496 3.747-.508 7.337 1.212 8.74 4.172.296.62.486 1.271.57 1.934.218 1.598-.215 3.272-1.216 4.71-.779 1.13-1.899 2.084-3.237 2.756-.935.46-1.938.762-2.984.901-.083.018-.17.018-.249.018-.213.037-.497.052-.779.066l-.233.003" mask="url(#f9l5hz5mnd)"/>
                    <path fill="#FEFEFE" d="M144.466 125.863c.474 3.729 4.403 6.278 8.765 5.678 4.365-.595 7.514-4.102 7.028-7.831-.475-3.742-4.404-6.275-8.768-5.694-4.362.598-7.515 4.107-7.025 7.847" mask="url(#f9l5hz5mnd)"/>
                    <path fill="#231916" d="M152.732 118.412c-.39 0-.781.025-1.178.08-4.1.56-7.066 3.84-6.613 7.308v.003c.188 1.48.994 2.831 2.268 3.808 1.596 1.226 3.764 1.757 5.957 1.456 4.1-.56 7.072-3.833 6.619-7.296-.188-1.48-.99-2.83-2.257-3.807-1.313-1.01-3.014-1.552-4.796-1.552m-.763 13.694c-1.975 0-3.87-.606-5.341-1.734-1.48-1.134-2.416-2.713-2.636-4.448-.522-3.989 2.813-7.75 7.434-8.383 2.456-.327 4.888.28 6.685 1.663 1.472 1.134 2.403 2.712 2.624 4.446.52 3.981-2.819 7.734-7.439 8.365-.445.062-.887.091-1.327.091M129.041 29.176v.063c.277-.063.555-.094.862-.094h1.077c.155-1.234.955-2.247 2.032-2.69V20.95c0-3.481 2.739-6.328 6.125-6.328H158.219c3.417 0 6.125 2.847 6.125 6.328v5.284l-.062.22c1.109.412 1.94 1.457 2.093 2.69h1.077c.309 0 .585.032.862.095V6.744c0-3.481-2.709-6.265-6.093-6.265h-21.176c-1.847 0-3.324 1.519-3.324 3.386v1.487h-2.555c-3.386 0-6.125 2.784-6.125 6.264v17.56z" mask="url(#f9l5hz5mnd)"/>
                    <path fill="#FEFEFE" d="M132.397 39.174c.523.348 1.168.57 1.847.57h8.554c1.817 0 3.294-1.52 3.294-3.386v-6.802c0-1.835-1.477-3.322-3.294-3.322h-8.554c-.431 0-.832.095-1.232.22-1.077.444-1.877 1.457-2.031 2.69-.031.127-.031.285-.031.412v6.802c0 1.17.585 2.183 1.447 2.816M164.96 39.174c.861-.633 1.446-1.645 1.446-2.816v-6.802c0-.127 0-.285-.031-.412-.153-1.233-.984-2.278-2.093-2.69-.338-.157-.738-.22-1.138-.22h-8.587c-1.817 0-3.293 1.487-3.293 3.322v6.802c0 1.867 1.476 3.386 3.293 3.386h8.587c.676 0 1.293-.222 1.816-.57" mask="url(#f9l5hz5mnd)"/>
                    <path fill="#231916" d="M148.679 57.529c-2.237 0-4.425-.652-6.501-1.939-4.025-2.489-7.354-7.221-9.374-13.323-.311-.869-.597-1.847-.874-2.98-.062-.256.096-.515.352-.578.27-.063.516.095.58.351.267 1.101.546 2.049.847 2.896 1.954 5.899 5.14 10.448 8.974 12.821 3.738 2.315 7.915 2.385 11.695.182 3.947-2.32 7.25-6.935 9.297-12.996.3-.927.576-1.905.819-2.903.064-.256.315-.41.58-.351.256.063.414.322.352.578-.25 1.019-.531 2.021-.84 2.976-2.125 6.285-5.577 11.086-9.723 13.523-1.99 1.157-4.07 1.743-6.184 1.743" mask="url(#f9l5hz5mnd)"/>
                    <path fill="#231916" d="M154.62 61.199c-.265 0-.48-.215-.48-.48v-5.346c0-.264.215-.478.48-.478.263 0 .478.213.478.478v5.346c0 .265-.215.48-.479.48M142.43 61.199c-.264 0-.48-.215-.48-.48v-5.535c0-.265.216-.48.48-.48s.479.215.479.48v5.535c0 .265-.215.48-.48.48M167.453 42.69h-3.108c-.264 0-.48-.214-.48-.48 0-.263.216-.478.48-.478h3.108c2.824 0 5.122-2.368 5.122-5.28V34.87c0-2.637-1.819-4.806-4.327-5.158-.288-.064-.527-.09-.795-.09h-1.077c-.265 0-.48-.214-.48-.48 0-.263.215-.477.48-.477h1.077c.334 0 .652.034.97.106 2.944.41 5.11 2.98 5.11 6.099v1.58c0 3.44-2.726 6.239-6.08 6.239M133.01 42.69h-3.107c-3.335 0-6.05-2.798-6.05-6.238V34.87c0-3.033 2.2-5.658 5.117-6.106.282-.065.598-.1.933-.1h1.077c.263 0 .479.215.479.479 0 .265-.216.479-.48.479h-1.076c-.266 0-.505.026-.754.082-2.488.384-4.337 2.602-4.337 5.166v1.58c0 2.913 2.283 5.28 5.09 5.28h3.109c.264 0 .479.216.479.48 0 .265-.215.479-.48.479" mask="url(#f9l5hz5mnd)"/>
                    <path fill="#231916" d="M154.557 26.712c-1.552 0-2.814 1.276-2.814 2.844v6.802c0 1.603 1.262 2.906 2.814 2.906h8.587c.54 0 1.062-.164 1.55-.49.777-.57 1.233-1.456 1.233-2.416v-6.802c0-.096 0-.23-.016-.301-.14-1.094-.84-1.997-1.794-2.351-.285-.131-.608-.192-.973-.192h-8.587zm8.587 13.51h-8.587c-2.08 0-3.772-1.734-3.772-3.864v-6.802c0-2.096 1.693-3.802 3.772-3.802h8.587c.51 0 .963.09 1.34.267 1.253.463 2.195 1.67 2.367 3.064.033.129.033.327.033.47v6.803c0 1.269-.598 2.436-1.64 3.202-.658.438-1.378.662-2.1.662zM134.244 26.712c-.403 0-.776.101-1.089.2-.904.373-1.57 1.257-1.7 2.292-.002.017-.006.034-.01.05-.016.072-.016.205-.016.301v6.803c0 .96.456 1.845 1.25 2.43.458.302 1.018.476 1.565.476h8.555c1.552 0 2.814-1.303 2.814-2.906v-6.803c0-1.568-1.262-2.843-2.814-2.843h-8.555zm8.555 13.51h-8.555c-.732 0-1.483-.23-2.114-.65-1.06-.78-1.66-1.947-1.66-3.214v-6.803c0-.136 0-.32.038-.493.18-1.367 1.066-2.535 2.321-3.05.397-.128.88-.258 1.415-.258h8.555c2.08 0 3.772 1.706 3.772 3.801v6.803c0 2.13-1.691 3.864-3.772 3.864z" mask="url(#f9l5hz5mnd)"/>
                    <path fill="#231916" d="M151.264 31.933h-5.172c-.264 0-.478-.214-.478-.48 0-.263.214-.478.478-.478h5.172c.264 0 .479.215.479.479 0 .265-.215.479-.48.479M129.042 29.655c-.264 0-.479-.214-.479-.48v-17.56c0-3.717 2.963-6.742 6.603-6.742h2.075v-1.01c0-2.13 1.706-3.863 3.805-3.863h21.174c3.625 0 6.574 3.026 6.574 6.744v22.4c0 .265-.215.479-.479.479-.263 0-.479-.214-.479-.478V6.744c0-3.191-2.519-5.786-5.616-5.786h-21.174c-1.569 0-2.847 1.303-2.847 2.906V5.35c0 .265-.215.479-.478.479h-2.555c-3.112 0-5.645 2.595-5.645 5.786v17.56c0 .265-.215.479-.479.479" mask="url(#f9l5hz5mnd)"/>
                    <path fill="#231916" d="M133.01 26.902c-.263 0-.478-.214-.478-.48V20.95c0-3.753 2.963-6.806 6.605-6.806h19.082c3.642 0 6.604 3.053 6.604 6.806v5.284c0 .264-.214.478-.478.478s-.48-.214-.48-.478V20.95c0-3.225-2.532-5.85-5.646-5.85h-19.082c-3.114 0-5.647 2.625-5.647 5.85v5.473c0 .265-.215.479-.48.479M143.938 45.623c.22 1.327 1.34 2.34 2.688 2.34h4.124c1.347 0 2.468-1.013 2.689-2.34h-9.501zm6.813 3.297h-4.126c-2.031 0-3.685-1.693-3.685-3.776 0-.264.215-.48.478-.48h10.54c.262 0 .477.216.477.48 0 2.083-1.653 3.776-3.685 3.776zM149.61 42.264h-1.646c-.264 0-.479-.214-.479-.479 0-.264.215-.479.48-.479h1.645c.303 0 .507-.157.624-.289.253-.285.367-.719.311-1.19l-.606-5.26c-.032-.263.157-.5.421-.53.28-.032.5.158.53.42l.605 5.258c.088.742-.11 1.45-.544 1.937-.352.395-.827.612-1.34.612" mask="url(#f9l5hz5mnd)"/>
                    <path fill="#FEFEFE" d="M86.075 118.752c-1.09 3.704 1.88 7.904 6.646 9.399 4.755 1.466 9.51-.324 10.598-4.028 1.09-3.702-1.89-7.902-6.65-9.38-4.763-1.483-9.502.318-10.594 4.009" mask="url(#f9l5hz5mnd)"/>
                    <path fill="#231916" d="M86.534 118.887c-1.013 3.443 1.827 7.394 6.332 8.806 2.57.795 5.21.626 7.232-.462 1.406-.754 2.36-1.876 2.761-3.244 1.014-3.446-1.827-7.387-6.333-8.787-2.565-.8-5.195-.639-7.217.442-1.41.753-2.37 1.875-2.775 3.245m9.527 10.257c-1.14 0-2.317-.177-3.479-.536-5.003-1.568-8.126-6.05-6.967-9.992h.002c.48-1.622 1.6-2.942 3.24-3.818 2.247-1.2 5.15-1.387 7.954-.513 5.003 1.554 8.128 6.027 6.97 9.972-.478 1.62-1.593 2.94-3.229 3.818-1.32.71-2.868 1.07-4.49 1.07M22.316 58.93H95.61v-.821c-2.953-.185-19.584-1.396-30.31-5.703-.19-.064-.334-.243-.334-.452 0-2.135-2.315-3.91-5.385-4.128-.397-.021-.848-.021-1.255 0-3.063.218-5.378 1.993-5.378 4.128 0 .195-.119.37-.299.444-10.727 4.314-27.378 5.526-30.333 5.71v.823zm73.772.959h-74.25c-.264 0-.479-.215-.479-.48v-1.752c0-.255.2-.466.454-.478.186-.01 18.578-.99 30.192-5.555.213-2.494 2.834-4.51 6.262-4.754.456-.024.928-.024 1.371 0 3.436.244 6.054 2.258 6.272 4.749 11.614 4.569 30.018 5.55 30.203 5.56.255.012.455.223.455.478v1.753c0 .264-.216.479-.48.479z" mask="url(#f9l5hz5mnd)"/>
                    <path fill="#FEFEFE" d="M17.584 53.088c0 1.086-10.414 1.967-13.688 1.967-3.276 0-3.417-.881-3.417-1.967 0-1.09.141-1.968 3.417-1.968 3.274 0 13.688.879 13.688 1.968" mask="url(#f9l5hz5mnd)"/>
                    <path fill="#231916" d="M3.895 51.6c-2.937 0-2.937.656-2.937 1.487 0 .832 0 1.49 2.937 1.49 3.566 0 11.285-.782 12.981-1.49-1.695-.707-9.413-1.488-12.98-1.488zm0 3.933C.621 55.533 0 54.674 0 53.087c0-1.586.621-2.446 3.895-2.446.143 0 14.168.414 14.168 2.446 0 2.033-14.025 2.446-14.168 2.446z" mask="url(#f9l5hz5mnd)"/>
                    <path fill="#FEFEFE" d="M19.441 53.085c0-1.086 10.412-1.965 13.688-1.965 3.278 0 3.42.88 3.42 1.965 0 1.088-.142 1.97-3.42 1.97-3.276 0-13.688-.882-13.688-1.97" mask="url(#f9l5hz5mnd)"/>
                    <path fill="#231916" d="M20.15 53.086c1.695.708 9.414 1.49 12.98 1.49 2.941 0 2.941-.658 2.941-1.49s0-1.487-2.94-1.487c-3.566 0-11.285.78-12.98 1.487m12.98 2.447c-.143 0-14.168-.414-14.168-2.448 0-2.03 14.025-2.444 14.167-2.444 3.277 0 3.898.86 3.898 2.444 0 1.588-.62 2.448-3.898 2.448" mask="url(#f9l5hz5mnd)"/>
                    <path fill="#FEFEFE" d="M17.584 54.217L19.441 54.217 19.441 51.957 17.584 51.957z" mask="url(#f9l5hz5mnd)"/>
                    <path fill="#231916" d="M18.063 53.738h.899v-1.302h-.899v1.302zm1.378.958h-1.856c-.264 0-.48-.215-.48-.479v-2.26c0-.265.216-.479.48-.479h1.856c.265 0 .48.214.48.479v2.26c0 .264-.215.479-.48.479z" mask="url(#f9l5hz5mnd)"/>
                    <path fill="#FEFEFE" d="M16.74 56.483L20.285 56.483 20.285 54.217 16.74 54.217z" mask="url(#f9l5hz5mnd)"/>
                    <path fill="#231916" d="M17.22 56.004h2.587v-1.308H17.22v1.308zm3.065.957h-3.544c-.263 0-.478-.214-.478-.478v-2.266c0-.265.215-.479.478-.479h3.544c.264 0 .48.214.48.479v2.266c0 .264-.216.478-.48.478z" mask="url(#f9l5hz5mnd)"/>
                    <path fill="#FEFEFE" d="M15.232 60.73L21.794 60.73 21.794 56.483 15.232 56.483z" mask="url(#f9l5hz5mnd)"/>
                    <path fill="#231916" d="M15.711 60.251h5.605v-3.29h-5.605v3.29zm6.084.958h-6.564c-.263 0-.478-.214-.478-.479v-4.247c0-.265.215-.479.478-.479h6.564c.264 0 .478.214.478.479v4.247c0 .265-.214.479-.478.479z" mask="url(#f9l5hz5mnd)"/>
                    <path fill="#FEFEFE" d="M16.74 64.979L20.285 64.979 20.285 60.73 16.74 60.73z" mask="url(#f9l5hz5mnd)"/>
                    <path fill="#231916" d="M17.22 64.5h2.587v-3.291H17.22V64.5zm3.065.957h-3.544c-.263 0-.478-.214-.478-.478V60.73c0-.265.215-.479.478-.479h3.544c.264 0 .48.214.48.479v4.249c0 .264-.216.478-.48.478zM25.64 78.893h1.912l7.87-19.004h-1.92L25.64 78.893zm2.23.958h-2.946c-.16 0-.308-.08-.398-.213-.088-.133-.105-.302-.045-.45l8.26-19.961c.074-.18.248-.296.442-.296h2.955c.159 0 .309.08.398.213.088.133.106.3.045.449l-8.266 19.962c-.074.179-.25.296-.444.296z" mask="url(#f9l5hz5mnd)"/>
                    <path fill="#231916" d="M22.316 81.389h8.14v-1.537h-8.14v1.537zm8.619.957h-9.097c-.264 0-.479-.214-.479-.479v-2.495c0-.264.215-.478.479-.478h9.097c.263 0 .479.214.479.478v2.495c0 .265-.216.479-.479.479zM43.44 59.888v.398c0 1.804 1.418 3.272 3.159 3.272h24.73c1.74 0 3.159-1.468 3.159-3.272v-.398H43.44zm27.889 4.627h-24.73c-2.27 0-4.116-1.897-4.116-4.229v-.877c0-.264.215-.479.478-.479h32.005c.264 0 .479.215.479.48v.876c0 2.332-1.846 4.23-4.116 4.23z" mask="url(#f9l5hz5mnd)"/>
                    <path fill="#231916" d="M56.34 69.138h5.238v-1.04h-.871c-.263 0-.48-.213-.48-.478v-1.596c0-.265.217-.48.48-.48h.87v-1.028H56.34v1.029h.88c.265 0 .479.214.479.479v1.596c0 .265-.214.479-.478.479h-.881v1.039zm5.717.958H55.86c-.264 0-.48-.214-.48-.48V67.62c0-.264.216-.478.48-.478h.88v-.64h-.88c-.264 0-.48-.213-.48-.478v-1.987c0-.265.216-.48.48-.48h6.196c.263 0 .479.215.479.48v1.987c0 .265-.216.479-.48.479h-.87v.639h.87c.264 0 .48.214.48.478v1.997c0 .265-.216.479-.48.479z" mask="url(#f9l5hz5mnd)"/>
                    <path stroke="#231916" stroke-linecap="round" stroke-linejoin="round" stroke-width=".5" d="M50.214 78.339L67.712 78.339 67.712 69.617 50.214 69.617z" mask="url(#f9l5hz5mnd)"/>
                    <path fill="#231916" d="M52.378 76.164h.251v-4.349h-.251v4.349zm.729.958h-1.208c-.263 0-.478-.215-.478-.479v-5.307c0-.265.215-.479.478-.479h1.208c.264 0 .479.214.479.479v5.307c0 .264-.215.479-.479.479zM98.962 53.738h.901v-1.302h-.901v1.302zm1.38.958h-1.859c-.263 0-.479-.215-.479-.479v-2.26c0-.265.216-.479.479-.479h1.859c.264 0 .479.214.479.479v2.26c0 .264-.215.479-.479.479z" mask="url(#f9l5hz5mnd)"/>
                    <path fill="#231916" d="M98.116 56.004h2.587v-1.308h-2.587v1.308zm3.066.957h-3.544c-.264 0-.479-.214-.479-.478v-2.266c0-.265.215-.479.479-.479h3.544c.263 0 .479.214.479.479v2.266c0 .264-.216.478-.479.478z" mask="url(#f9l5hz5mnd)"/>
                    <path fill="#231916" d="M84.792 51.6c-2.935 0-2.935.656-2.935 1.487 0 .832 0 1.49 2.935 1.49 3.566 0 11.287-.782 12.983-1.49-1.695-.706-9.415-1.488-12.983-1.488zm0 3.933c-3.272 0-3.893-.859-3.893-2.446 0-1.586.62-2.446 3.893-2.446.143 0 14.17.414 14.17 2.446 0 2.033-14.027 2.446-14.17 2.446zM101.05 53.086c1.696.708 9.415 1.49 12.98 1.49 2.936 0 2.936-.658 2.936-1.49s0-1.487-2.936-1.487c-3.565 0-11.284.78-12.98 1.487m12.98 2.447c-.143 0-14.166-.414-14.166-2.448 0-2.03 14.023-2.444 14.166-2.444 3.273 0 3.893.86 3.893 2.444 0 1.588-.62 2.448-3.893 2.448M96.609 60.251h5.602v-3.29h-5.602v3.29zm6.08.958H96.13c-.264 0-.479-.214-.479-.479v-4.247c0-.265.215-.479.479-.479h6.559c.264 0 .479.214.479.479v4.247c0 .265-.215.479-.479.479z" mask="url(#f9l5hz5mnd)"/>
                    <path fill="#231916" d="M98.116 64.5h2.587v-3.291h-2.587V64.5zm3.066.957h-3.544c-.264 0-.479-.214-.479-.478V60.73c0-.265.215-.479.479-.479h3.544c.263 0 .479.214.479.479v4.249c0 .264-.216.478-.479.478zM90.375 78.893h1.912l-7.863-19.004h-1.919l7.87 19.004zm2.628.958h-2.947c-.195 0-.368-.117-.444-.296l-8.266-19.962c-.061-.148-.043-.316.045-.45.089-.132.239-.212.398-.212h2.955c.194 0 .368.117.444.296l8.258 19.962c.06.147.043.316-.045.449-.089.133-.239.213-.398.213z" mask="url(#f9l5hz5mnd)"/>
                    <path fill="#231916" d="M87.469 81.389h8.14v-1.537h-8.14v1.537zm8.618.957H86.99c-.263 0-.478-.214-.478-.479v-2.495c0-.264.215-.478.478-.478h9.097c.264 0 .479.214.479.478v2.495c0 .265-.215.479-.479.479zM62.367 72.297c-.896 0-1.623.754-1.623 1.68 0 .927.727 1.682 1.623 1.682s1.624-.755 1.624-1.682c0-.926-.728-1.68-1.624-1.68m0 4.32c-1.423 0-2.58-1.185-2.58-2.64 0-1.454 1.157-2.638 2.58-2.638 1.424 0 2.581 1.184 2.581 2.638 0 1.455-1.157 2.64-2.58 2.64M58.96 46.849c.062 0 .123 0 .183.002V35.498c0-.207.132-.39.33-.454.717-.237 1.2-.922 1.2-1.706 0-.972-.769-1.762-1.713-1.762-.941 0-1.708.79-1.708 1.762 0 .782.48 1.468 1.197 1.706.195.065.327.247.327.454V46.85l.184-.002zm-.662.976c-.124 0-.241-.047-.331-.132-.094-.091-.149-.216-.149-.346V35.819c-.923-.451-1.523-1.408-1.523-2.481 0-1.5 1.194-2.72 2.665-2.72 1.472 0 2.671 1.22 2.671 2.72 0 1.076-.603 2.033-1.53 2.482v11.527c0 .13-.053.255-.148.346-.096.09-.219.126-.351.132-.435-.018-.869-.018-1.284 0h-.02zM62.248 36.928c-.112 0-.227-.038-.318-.12-.199-.175-.215-.477-.04-.675.68-.769 1.053-1.76 1.053-2.788 0-1.03-.374-2.021-1.054-2.791-.174-.198-.156-.5.041-.676.2-.175.501-.157.676.041.835.945 1.295 2.162 1.295 3.427 0 1.262-.46 2.478-1.295 3.42-.094.108-.225.163-.358.163M55.679 36.928c-.132 0-.264-.053-.358-.16-.836-.944-1.296-2.159-1.296-3.422 0-1.266.46-2.482 1.296-3.426.175-.199.476-.219.676-.042.199.175.215.479.04.675-.68.77-1.055 1.76-1.055 2.793 0 1.029.374 2.019 1.056 2.786.174.199.158.5-.041.675-.091.082-.206.121-.318.121" mask="url(#f9l5hz5mnd)"/>
                    <path fill="#231916" d="M64.032 38.636c-.116 0-.232-.041-.324-.125-.195-.179-.207-.482-.03-.676 1.104-1.208 1.711-2.802 1.711-4.49 0-1.691-.607-3.286-1.71-4.491-.178-.195-.166-.498.03-.677.194-.177.495-.164.677.03 1.263 1.382 1.961 3.207 1.961 5.138 0 1.927-.698 3.752-1.96 5.135-.097.104-.226.156-.355.156M53.893 38.636c-.13 0-.26-.052-.353-.156-1.264-1.386-1.962-3.209-1.962-5.135 0-1.928.698-3.753 1.962-5.137.183-.196.485-.208.677-.031.195.179.207.482.03.677-1.104 1.207-1.711 2.802-1.711 4.491 0 1.686.607 3.281 1.71 4.49.178.195.166.498-.03.676-.093.084-.207.125-.323.125" mask="url(#f9l5hz5mnd)"/>
                </g>
            </g>
        </g>
    </g>
</svg>
