<svg xmlns="http://www.w3.org/2000/svg" xmlns:xlink="http://www.w3.org/1999/xlink" width="270" height="336" viewBox="0 0 270 336">
    <defs>
        <path id="atcah7y9oa" d="M0 256.173L209.625 256.173 209.625 0 0 0z"/>
    </defs>
    <g fill="none" fill-rule="evenodd">
        <g>
            <g transform="translate(-705 -88) translate(705 88)">
                <rect width="270" height="336" fill="#FFF" rx="2"/>
                <g transform="translate(30 60)">
                    <path fill="#FEFEFE" d="M159.755 204.896c0 4.835-3.852 8.799-8.56 8.799H74.168c-4.707 0-8.56-3.964-8.56-8.8V52.82c0-4.84 3.853-8.8 8.56-8.8h77.029c4.707 0 8.559 3.96 8.559 8.8v152.076z"/>
                    <path fill="#231916" d="M74.167 44.498c-4.457 0-8.081 3.733-8.081 8.322v152.075c0 4.588 3.624 8.32 8.08 8.32h77.03c4.455 0 8.08-3.732 8.08-8.32V52.82c0-4.588-3.625-8.32-8.08-8.32h-77.03zm77.029 169.675h-77.03c-4.983 0-9.038-4.162-9.038-9.278V52.82c0-5.116 4.055-9.279 9.039-9.279h77.029c4.983 0 9.037 4.163 9.037 9.28v152.075c0 5.115-4.054 9.278-9.037 9.278z"/>
                    <mask id="3pfifebmcb" fill="#fff">
                        <use xlink:href="#atcah7y9oa"/>
                    </mask>
                    <path fill="#231916" d="M69.082 192.979h87.197V59.237H69.082v133.742zm-.958.958h89.113V58.28H68.124v135.657zM112.683 197.65c-3.093 0-5.608 2.598-5.608 5.79 0 3.19 2.516 5.785 5.608 5.785 3.09 0 5.603-2.595 5.603-5.784 0-3.193-2.514-5.791-5.603-5.791m0 13.49c-4.149 0-7.523-3.454-7.523-7.7 0-4.25 3.374-7.705 7.523-7.705 4.145 0 7.518 3.456 7.518 7.706 0 4.245-3.372 7.7-7.518 7.7" mask="url(#3pfifebmcb)"/>
                    <path fill="#FEFEFE" d="M135.867 158.544c0 .08-.03.163-.03.264v32.812h-6.998v-45.402c4.333 3.114 7.028 7.486 7.028 12.326" mask="url(#3pfifebmcb)"/>
                    <path fill="#231916" d="M128.839 146.217v45.403H96.634v-45.506c2.644-1.876 5.882-3.297 9.493-4.078l-5.941 9.7 12.486 12.682 12.812-12.683-5.904-9.618c3.515.812 6.683 2.232 9.259 4.1" mask="url(#3pfifebmcb)"/>
                    <path fill="#FEFEFE" d="M119.58 142.117l5.903 9.618-12.811 12.683 6.562-22.382c.12.03.238.05.346.081" mask="url(#3pfifebmcb)"/>
                    <path fill="#FEFEFE" d="M119.234 135.472L119.234 142.036 112.672 164.418 106.127 142.036 106.127 135.472z" mask="url(#3pfifebmcb)"/>
                    <path fill="#FEFEFE" d="M106.127 142.036L112.672 164.418 100.186 151.735zM96.634 146.114v45.506h-7.138v-33.077c0-4.89 2.735-9.293 7.138-12.429" mask="url(#3pfifebmcb)"/>
                    <path fill="#231916" d="M89.975 191.141h45.383v-32.334c0-.083.011-.158.023-.228.006-4.569-2.42-8.808-6.821-11.973-2.547-1.847-5.689-3.236-9.088-4.022l-.353-.083c-.213-.054-.364-.245-.364-.465v-6.085h-12.15v6.085c0 .225-.156.42-.377.468-3.46.75-6.682 2.132-9.317 4.001-4.472 3.185-6.936 7.461-6.936 12.038v32.598zm45.862.958H89.495c-.263 0-.478-.215-.478-.479v-33.077c0-4.895 2.605-9.448 7.337-12.819 2.644-1.876 5.85-3.279 9.293-4.072v-6.18c0-.265.216-.479.478-.479h13.108c.264 0 .479.214.479.48v6.184c3.499.808 6.762 2.253 9.406 4.173 4.66 3.348 7.226 7.863 7.226 12.713 0 .027-.017.172-.02.2l-.01 32.877c0 .264-.214.48-.478.48z" mask="url(#3pfifebmcb)"/>
                    <path fill="#231916" d="M112.211 164.553L105.667 142.171 106.587 141.902 113.132 164.284z" mask="url(#3pfifebmcb)"/>
                    <path fill="#231916" d="M113.132 164.553L112.211 164.284 118.775 141.902 119.694 142.171z" mask="url(#3pfifebmcb)"/>
                    <path fill="#231916" d="M112.186 164.894L99.328 151.834 105.548 141.682 106.705 142.39 101.041 151.637 113.155 163.942z" mask="url(#3pfifebmcb)"/>
                    <path fill="#231916" d="M113.148 164.901L112.194 163.936 124.623 151.632 119.002 142.473 119.531 142.036 120.113 141.689 120.162 141.77 126.342 151.84zM95.954 191.62L97.312 191.62 97.312 146.114 95.954 146.114zM129.517 191.62L128.159 191.62 128.159 146.217 129.517 146.114z" mask="url(#3pfifebmcb)"/>
                    <path fill="#FEFEFE" d="M105.974 113.949c0-1.025-.81-1.856-1.816-1.856-.998 0-1.788.83-1.788 1.856 0 1.025.79 1.857 1.788 1.857 1.005 0 1.816-.832 1.816-1.857zm17.055 0c0-1.025-.81-1.856-1.806-1.856-.998 0-1.808.83-1.808 1.856 0 1.025.81 1.857 1.807 1.857.998 0 1.808-.832 1.808-1.857zm-17.124-5.296c10.403-4.221 13.45-14.824 13.64-15.493.147.832 2.97 17.207 10.332 17.207v-4.281h2.775c.07 0 .128 0 .197.01 2.26.153 4.056 2.892 4.056 6.24v1.755c0 3.45-1.905 6.24-4.252 6.24H129.877v1.725c-.186 4.089-2.802 7.976-6.207 10.847-1.383 1.167-2.904 2.16-4.443 2.93-2.24 1.127-4.528 1.777-6.533 1.777-1.983 0-4.293-.67-6.554-1.826-5.449-2.78-10.66-8.381-10.66-14.347v-1.105h-2.37c-2.359 0-4.261-2.791-4.261-6.241v-1.754c0-3.167 1.599-5.774 3.68-6.18v-.01c.186-.041.385-.061.582-.061H96.25v4.28h.374c3.594 0 6.662-.658 9.269-1.713h.01z" mask="url(#3pfifebmcb)"/>
                    <path fill="#231916" d="M138.188 130.294s-.799 7.316-12.987 7.316h-5.973v-1.776c1.54-.77 3.061-1.765 4.442-2.932 3.405-2.87 6.021-6.757 6.207-10.847v-1.723h2.371s-1.196 9.962 5.94 9.962M105.893 108.653c-2.605 1.055-5.675 1.714-9.268 1.714h-.374v-4.28h-3.14c-.197 0-.395.02-.58.06l-.022-.06V93.158c.424-9.486 9.318-17.004 20.185-17.004 11.173 0 20.154 7.934 20.154 17.766V106.096c-.069-.01-.127-.01-.196-.01h-2.775v4.281c-7.363 0-10.185-16.375-10.333-17.208-.189.67-3.237 11.273-13.64 15.494h-.01zM121.222 112.093c.998 0 1.808.83 1.808 1.855 0 1.026-.81 1.859-1.808 1.859-.996 0-1.806-.834-1.806-1.859 0-1.024.81-1.855 1.806-1.855M106.14 135.784v1.826h-5.96c-12.18 0-13.02-7.315-13.02-7.315 7.147 0 5.952-9.963 5.952-9.963h2.369v1.105c0 5.966 5.212 11.567 10.66 14.347M104.158 112.093c1.006 0 1.815.83 1.815 1.855 0 1.026-.809 1.859-1.815 1.859-.997 0-1.788-.834-1.788-1.859 0-1.024.791-1.855 1.788-1.855" mask="url(#3pfifebmcb)"/>
                    <path fill="#231916" d="M92.51 106.565c-.265 0-.48-.214-.48-.479V93.159c.44-9.812 9.515-17.482 20.664-17.482 11.378 0 20.633 8.184 20.633 18.244 0 .264-.214.478-.478.478s-.48-.214-.48-.478c0-9.533-8.826-17.287-19.675-17.287-10.634 0-19.29 7.268-19.705 16.547v12.905c0 .265-.215.479-.48.479" mask="url(#3pfifebmcb)"/>
                    <path fill="#231916" d="M132.849 106.565c-.264 0-.48-.214-.48-.479V93.159c0-.264.215-.478.48-.478.264 0 .478.214.478.478v12.927c0 .265-.214.479-.478.479M112.693 138.089c-2.027 0-4.369-.65-6.772-1.88-5.435-2.772-10.919-8.416-10.919-14.772v-1.105c0-.264.215-.478.48-.478.263 0 .478.214.478.478v1.105c0 5.918 5.39 11.365 10.397 13.92 2.236 1.144 4.486 1.774 6.336 1.774 1.89 0 4.074-.596 6.32-1.724 1.527-.764 3.03-1.756 4.35-2.87 3.672-3.1 5.873-6.927 6.036-10.503v-1.702c0-.264.215-.478.48-.478.262 0 .478.214.478.478v1.724c-.177 3.864-2.5 7.943-6.378 11.212-1.375 1.163-2.944 2.198-4.536 2.995-2.379 1.194-4.713 1.826-6.75 1.826" mask="url(#3pfifebmcb)"/>
                    <path fill="#231916" d="M95.46 120.811h-2.35c-2.613 0-4.74-3.015-4.74-6.72v-1.754c0-3.346 1.663-6.113 3.97-6.63.027-.012.058-.021.087-.028.217-.047.447-.072.684-.072h2.774c.264 0 .479.214.479.479s-.215.479-.48.479h-2.773c-.136 0-.27.011-.396.033-.03.013-.062.023-.094.029-1.877.366-3.293 2.821-3.293 5.71v1.754c0 3.178 1.698 5.762 3.783 5.762h2.35c.264 0 .479.215.479.479 0 .265-.215.479-.48.479M132.651 120.811h-2.773c-.264 0-.479-.214-.479-.479 0-.264.215-.479.48-.479h2.772c2.082 0 3.774-2.584 3.774-5.762v-1.754c0-3.043-1.619-5.629-3.609-5.763-.084-.011-.12-.013-.165-.009h-2.31c-.263 0-.478-.214-.478-.479s.215-.479.478-.479h2.31c.094 0 .173.002.268.016 2.486.166 4.464 3.117 4.464 6.714v1.754c0 3.705-2.123 6.72-4.732 6.72" mask="url(#3pfifebmcb)"/>
                    <path fill="#231916" d="M96.626 110.846c-.264 0-.48-.214-.48-.479 0-.264.216-.479.48-.479 3.278 0 6.337-.564 9.088-1.679.239-.097.523.019.623.264.099.246-.02.524-.264.624-2.867 1.161-6.045 1.749-9.447 1.749" mask="url(#3pfifebmcb)"/>
                    <path fill="#231916" d="M105.904 109.132c-.188 0-.368-.113-.443-.298-.099-.245.018-.525.263-.624 9.962-4.043 13.04-14.053 13.361-15.181.068-.255.331-.405.59-.331.254.072.403.337.33.59-.33 1.176-3.536 11.595-13.92 15.808-.059.025-.12.036-.18.036" mask="url(#3pfifebmcb)"/>
                    <path fill="#231916" d="M129.878 110.846c-7.324 0-10.281-14.64-10.8-17.575-.005-.028-.013-.112-.013-.141 0-.264.216-.478.48-.478s.479.214.479.478v.029c.3 1.663 3.157 16.729 9.854 16.729.264 0 .479.215.479.479 0 .265-.215.479-.48.479M96.252 110.846c-.264 0-.48-.214-.48-.479v-4.281c0-.265.216-.479.48-.479s.479.214.479.479v4.281c0 .265-.215.479-.48.479" mask="url(#3pfifebmcb)"/>
                    <path fill="#231916" d="M129.878 110.846c-.264 0-.48-.214-.48-.479v-4.281c0-.265.216-.479.48-.479s.479.214.479.479v4.281c0 .265-.215.479-.48.479M100.18 138.089c-12.462 0-13.487-7.663-13.494-7.74-.018-.136.025-.271.117-.373.092-.102.22-.16.357-.16 1.56 0 2.812-.517 3.718-1.538 2.352-2.647 1.765-7.837 1.759-7.89-.032-.261.155-.5.419-.531.252-.045.499.156.53.418.029.23.646 5.666-1.991 8.637-.977 1.102-2.27 1.719-3.85 1.84.45 1.608 2.608 6.379 12.435 6.379.264 0 .479.215.479.479 0 .265-.215.479-.48.479M125.2 138.089c-.264 0-.479-.214-.479-.48 0-.263.215-.478.48-.478 9.74 0 11.936-4.787 12.395-6.38-1.57-.122-2.859-.737-3.833-1.836-2.635-2.971-2.018-8.41-1.99-8.64.03-.262.281-.461.531-.418.263.03.451.27.418.532-.005.052-.592 5.247 1.76 7.893.903 1.017 2.15 1.534 3.705 1.534.137 0 .266.058.358.159.09.1.133.236.118.372-.008.077-.989 7.742-13.463 7.742M114.47 121.57h-3.581c-.137 0-.266-.058-.357-.16-.091-.102-.134-.237-.118-.373l.908-7.934c.029-.262.223-.456.529-.422.264.03.45.268.42.531l-.845 7.4h3.045c.264 0 .479.215.479.48 0 .264-.215.478-.48.478M112.763 127.445c-1.283 0-2.504-.64-3.271-1.71-.154-.217-.105-.516.11-.669.214-.155.513-.107.668.11.588.821 1.518 1.311 2.493 1.311.915 0 1.77-.402 2.346-1.102.168-.204.469-.234.675-.067.204.17.234.471.065.675-.76.923-1.883 1.452-3.086 1.452M106.959 109.984c-.14 0-.278-.061-.372-.178-.243-.302-.554-.551-.898-.724-.235-.12-.331-.407-.212-.644.119-.236.407-.331.642-.213.466.235.885.573 1.212.98.167.206.135.507-.07.674-.09.07-.195.105-.302.105" mask="url(#3pfifebmcb)"/>
                    <path fill="#231916" d="M105.904 109.132c-.264 0-.484-.214-.484-.48 0-.263.21-.478.473-.478h.011c.264 0 .48.215.48.479 0 .265-.216.479-.48.479" mask="url(#3pfifebmcb)"/>
                    <path fill="#231916" d="M101.373 110.218c-.098 0-.195-.03-.28-.09-.214-.153-.263-.453-.11-.668.773-1.081 1.966-1.701 3.272-1.701.672 0 1.302.159 1.87.475.232.13.314.42.187.65-.127.233-.422.314-.651.188-.426-.237-.9-.356-1.406-.356-.993 0-1.903.474-2.493 1.302-.094.13-.24.2-.39.2M124.035 110.218c-.149 0-.297-.07-.391-.202-.58-.815-1.514-1.3-2.501-1.3-.912 0-1.75.39-2.362 1.102-.174.2-.475.222-.675.05-.2-.172-.222-.474-.05-.675.784-.912 1.91-1.434 3.087-1.434 1.295 0 2.522.635 3.283 1.701.153.216.103.516-.112.669-.087.06-.181.088-.279.088M106.14 138.089h-5.96c-.265 0-.48-.214-.48-.48 0-.263.215-.478.48-.478h5.96c.264 0 .48.215.48.479 0 .265-.216.479-.48.479M125.2 138.089h-5.972c-.263 0-.478-.214-.478-.48 0-.263.215-.478.478-.478h5.972c.264 0 .48.215.48.479 0 .265-.216.479-.48.479" mask="url(#3pfifebmcb)"/>
                    <path fill="#231916" d="M119.228 138.089c-.264 0-.479-.214-.479-.48v-1.775c0-.264.215-.478.48-.478.263 0 .478.214.478.478v1.776c0 .265-.215.479-.479.479M106.14 138.089c-.264 0-.478-.214-.478-.48v-1.825c0-.265.213-.48.478-.48.264 0 .48.215.48.48v1.826c0 .265-.216.479-.48.479" mask="url(#3pfifebmcb)"/>
                    <path fill="#FEFEFE" d="M202.505 147.53c0 8.31-6.554 15.045-14.636 15.045-8.087 0-14.638-6.735-14.638-15.045 0-8.31 6.55-15.047 14.638-15.047 8.082 0 14.636 6.736 14.636 15.047" mask="url(#3pfifebmcb)"/>
                    <path fill="#231916" d="M187.869 132.962c-7.809 0-14.16 6.535-14.16 14.568 0 8.032 6.351 14.566 14.16 14.566 7.807 0 14.156-6.534 14.156-14.566 0-8.033-6.349-14.568-14.156-14.568m0 30.092c-8.336 0-15.117-6.965-15.117-15.524 0-8.56 6.781-15.526 15.117-15.526 8.334 0 15.114 6.966 15.114 15.526 0 8.56-6.78 15.524-15.114 15.524" mask="url(#3pfifebmcb)"/>
                    <path fill="#231916" d="M192.638 155.76c.13.018.256.03.386.039.07-.191.143-.416.215-.67l.047-.16.165-.011c.183-.012.364-.042.543-.09l.155-.04.095.135c.149.22.287.41.41.565.12-.05.239-.103.352-.163-.031-.197-.078-.428-.135-.69l-.04-.164.133-.092c.154-.108.297-.226.43-.36l.115-.116.149.069c.232.112.443.206.629.279.08-.102.157-.211.225-.321-.125-.154-.274-.333-.454-.527l-.112-.12.07-.151c.08-.17.15-.348.197-.53l.044-.161.16-.015c.26-.026.49-.053.683-.083.02-.132.032-.263.038-.394-.184-.072-.4-.146-.65-.224l-.155-.05-.01-.165c-.016-.188-.043-.378-.09-.56l-.038-.161.132-.095c.213-.153.397-.297.55-.422-.05-.122-.1-.244-.16-.363-.192.032-.417.08-.675.142l-.156.038-.088-.137c-.103-.155-.221-.306-.35-.441l-.115-.12.07-.15c.109-.241.2-.458.27-.648-.1-.083-.206-.161-.315-.232-.15.13-.322.284-.51.468l-.119.115-.146-.074c-.162-.083-.337-.151-.518-.201l-.154-.047-.016-.164c-.023-.268-.049-.504-.08-.7-.127-.02-.256-.032-.383-.04-.07.187-.141.41-.218.669l-.044.16-.163.009c-.185.017-.369.046-.549.09l-.154.042-.093-.135c-.149-.22-.288-.41-.41-.564-.12.047-.237.102-.355.16.032.2.08.432.142.694l.037.16-.137.095c-.15.103-.293.225-.428.358l-.114.116-.147-.07c-.237-.111-.445-.204-.633-.28-.078.104-.155.214-.225.324.124.154.278.33.457.527l.11.122-.07.148c-.083.177-.15.356-.196.533l-.043.16-.163.016c-.258.022-.488.05-.68.083-.02.127-.034.26-.04.394.184.07.403.144.651.223l.151.049.016.165c.014.19.044.378.088.56l.04.16-.133.097c-.215.156-.398.295-.55.42.046.125.1.247.159.365.192-.033.417-.081.673-.143l.157-.036.09.137c.105.155.223.303.35.44l.113.116-.069.152c-.11.246-.2.463-.27.648.1.083.206.16.313.234.148-.127.32-.282.513-.468l.118-.114.143.073c.166.08.339.15.518.202l.157.043.014.166c.024.275.05.507.08.702zm.701.525l-.23-.003c-.24-.003-.48-.03-.718-.077l-.154-.033-.034-.161c-.035-.2-.066-.448-.097-.75-.099-.033-.196-.072-.294-.113-.212.204-.398.364-.556.493l-.13.098-.133-.084c-.226-.136-.441-.295-.642-.476l-.12-.106.054-.153c.066-.197.157-.432.278-.7-.07-.082-.135-.164-.198-.25-.282.063-.525.11-.722.139l-.16.024-.078-.143c-.13-.24-.24-.487-.325-.743l-.05-.152.12-.108c.154-.136.347-.293.582-.464-.023-.104-.04-.21-.05-.32-.27-.085-.501-.168-.692-.248l-.153-.064.008-.231c.006-.251.029-.5.075-.741l.032-.161.157-.03c.202-.04.445-.072.727-.103.031-.1.069-.2.113-.3-.197-.221-.354-.406-.478-.575l-.099-.127.08-.144c.137-.23.292-.452.465-.658l.106-.123.15.054c.194.07.424.168.681.285.076-.071.16-.137.241-.201-.063-.286-.107-.54-.137-.744l-.02-.163.138-.081c.23-.132.474-.244.722-.331l.15-.056.103.126c.137.162.287.363.453.596.1-.02.206-.037.306-.05.087-.28.168-.517.248-.715l.06-.148.215.002c.248.007.488.033.728.08l.16.03.028.162c.038.205.073.456.1.748.1.035.197.072.293.115.206-.196.395-.363.558-.49l.127-.102.136.085c.228.139.446.3.64.474l.118.108-.052.155c-.069.202-.163.436-.276.699.069.082.135.166.196.25.285-.064.523-.11.725-.138l.157-.023.077.14c.131.243.242.493.326.745l.05.154-.12.106c-.155.138-.352.293-.58.464.02.104.038.21.052.317.268.087.504.172.69.25l.145.064v.23c-.008.246-.034.496-.076.74l-.032.16-.157.032c-.203.039-.445.075-.728.102-.034.104-.07.205-.113.3.195.217.355.408.48.575l.096.13-.08.14c-.136.237-.293.457-.465.66l-.105.124-.147-.054c-.196-.072-.428-.166-.68-.286-.082.07-.16.14-.246.205.065.284.108.532.136.74l.022.164-.137.08c-.232.133-.471.246-.724.334l-.149.052-.101-.124c-.136-.158-.286-.358-.454-.596-.102.022-.203.036-.31.048-.082.275-.165.517-.243.714l-.059.15z" mask="url(#3pfifebmcb)"/>
                    <path fill="#231916" d="M193.227 152.402c.327 0 .597-.271.606-.608.01-.342-.256-.63-.589-.641-.346 0-.616.274-.62.609-.008.168.05.325.164.446.11.12.261.19.426.194m.013 1.686l-.056-.002c-.602-.017-1.162-.27-1.575-.718-.41-.447-.63-1.035-.615-1.653.032-1.255 1.017-2.246 2.244-2.246l.061.003c1.235.032 2.215 1.093 2.185 2.365-.03 1.263-1.015 2.25-2.244 2.25M185.084 147.652c-1.198.282-2.392-.488-2.665-1.72-.273-1.231.476-2.457 1.674-2.74 1.197-.283 2.392.489 2.665 1.72.273 1.23-.475 2.459-1.674 2.74m-.491-5.717c-.255 0-.51.033-.76.089-1.82.429-2.966 2.3-2.551 4.177.356 1.594 1.715 2.707 3.303 2.707.254 0 .509-.03.758-.09.883-.205 1.637-.755 2.117-1.541.482-.791.638-1.726.436-2.632-.358-1.594-1.715-2.71-3.303-2.71" mask="url(#3pfifebmcb)"/>
                    <path fill="#231916" d="M188.056 147.661c-.584.951-1.489 1.612-2.556 1.862-.3.071-.608.107-.916.107-1.918 0-3.559-1.345-3.984-3.269-.504-2.262.876-4.525 3.076-5.039.3-.072.612-.107.917-.107 1.919 0 3.559 1.343 3.987 3.27.241 1.096.055 2.222-.524 3.176m1.736-2.113c.514-.187.931-.36 1.262-.517-.022-.362-.07-.729-.15-1.092-.008-.034-.017-.063-.023-.097-.362-.049-.813-.089-1.355-.109-.1-.308-.222-.603-.37-.879.356-.423.631-.789.841-1.094-.215-.338-.46-.65-.725-.94-.338.142-.748.34-1.231.598-.23-.21-.478-.4-.746-.567.1-.547.165-1.009.197-1.382-.346-.177-.712-.323-1.085-.44-.227.295-.484.678-.775 1.152-.302-.065-.61-.102-.92-.108-.181-.526-.351-.96-.505-1.299-.353.023-.707.075-1.063.157l-.094.024c-.048.37-.084.832-.108 1.392-.297.1-.583.23-.853.38-.409-.364-.766-.652-1.065-.867-.33.223-.63.473-.91.75.136.346.326.766.58 1.261-.204.24-.39.496-.551.77-.535-.104-.982-.172-1.345-.203-.177.357-.316.731-.429 1.116.29.23.661.495 1.12.795-.063.31-.097.626-.108.95-.51.182-.929.356-1.258.513.023.362.07.73.151 1.094.008.031.014.064.023.095.362.052.811.09 1.355.113.094.304.222.6.368.874-.35.426-.63.792-.84 1.098.214.337.457.65.727.938.337-.143.746-.34 1.228-.598.232.211.483.4.748.566-.102.547-.166 1.01-.197 1.382.346.178.71.327 1.084.44.226-.296.482-.679.774-1.147.3.063.607.1.922.104.18.527.351.961.502 1.297.357-.02.709-.073 1.065-.154l.09-.026c.052-.37.089-.83.112-1.389.297-.1.583-.23.85-.382.413.363.772.651 1.066.866.327-.224.635-.472.915-.748-.138-.348-.333-.768-.584-1.262.207-.239.39-.497.553-.769.532.102.982.17 1.344.202.174-.358.317-.73.427-1.117-.287-.23-.657-.496-1.117-.793.061-.309.097-.627.103-.948" mask="url(#3pfifebmcb)"/>
                    <path fill="#FEFEFE" d="M209.145 101.75c0 6.664-5.257 12.068-11.739 12.068-6.485 0-11.744-5.404-11.744-12.068 0-6.665 5.26-12.068 11.744-12.068 6.482 0 11.74 5.403 11.74 12.068" mask="url(#3pfifebmcb)"/>
                    <path fill="#231916" d="M197.406 90.16c-6.212 0-11.265 5.198-11.265 11.59 0 6.39 5.053 11.59 11.265 11.59 6.21 0 11.261-5.2 11.261-11.59 0-6.392-5.052-11.59-11.26-11.59m0 24.136c-6.74 0-12.224-5.628-12.224-12.547 0-6.918 5.484-12.547 12.223-12.547 6.736 0 12.22 5.63 12.22 12.547 0 6.92-5.484 12.547-12.22 12.547" mask="url(#3pfifebmcb)"/>
                    <path fill="#231916" d="M203.721 103.88L203.721 101.461 197.713 101.461 197.713 99.621 199.505 99.621 199.505 95.306 195.304 95.306 195.304 99.621 197.013 99.621 197.013 101.461 190.84 101.461 190.84 103.88 189.215 103.88 189.215 108.193 193.415 108.193 193.415 103.88 191.538 103.88 191.538 102.179 197.013 102.179 197.013 103.88 195.304 103.88 195.304 108.193 199.505 108.193 199.505 103.88 197.713 103.88 197.713 102.179 203.023 102.179 203.023 103.88 201.398 103.88 201.398 108.193 205.595 108.193 205.595 103.88z" mask="url(#3pfifebmcb)"/>
                    <path fill="#FEFEFE" d="M55.681 44.02c0 5.856-4.617 10.605-10.314 10.605-5.698 0-10.316-4.748-10.316-10.605 0-5.858 4.617-10.606 10.316-10.606 5.697 0 10.315 4.748 10.315 10.605" mask="url(#3pfifebmcb)"/>
                    <path fill="#231916" d="M45.366 33.893c-5.424 0-9.836 4.543-9.836 10.127 0 5.584 4.412 10.127 9.836 10.127s9.836-4.543 9.836-10.127c0-5.584-4.412-10.127-9.836-10.127m0 21.21c-5.95 0-10.793-4.971-10.793-11.083s4.842-11.085 10.793-11.085S56.16 37.908 56.16 44.02c0 6.112-4.843 11.084-10.794 11.084" mask="url(#3pfifebmcb)"/>
                    <path fill="#231916" d="M52.004 46.015h-9.181c-.355 0-.673-.234-.786-.579l-1.756-5.312-1.382.302c-.447.093-.886-.2-.982-.66-.094-.462.194-.912.642-1.012l2.1-.455c.409-.089.82.151.955.561l1.802 5.45h8.588c.457 0 .829.381.829.851 0 .471-.372.854-.83.854M45.932 47.964c.186.921-.293 1.803-1.065 1.968-.776.164-1.556-.449-1.741-1.37-.185-.923.294-1.803 1.066-1.968.777-.166 1.557.448 1.74 1.37M52.08 48.08c.154.773-.246 1.51-.897 1.65-.651.138-1.302-.375-1.458-1.15-.156-.775.246-1.512.895-1.65.649-.139 1.304.374 1.46 1.15" mask="url(#3pfifebmcb)"/>
                    <path fill="#231916" d="M50.783 39.737l-.6 2.535c-.033.143-.154.234-.289.234-.024 0-.047-.001-.07-.006-.162-.042-.259-.206-.22-.371l.601-2.538c.037-.162.196-.264.36-.226.16.04.26.206.218.372zm-2.52 2.463c0 .172-.136.306-.298.306-.167 0-.3-.134-.3-.306v-2.502c0-.17.133-.306.3-.306.162 0 .297.136.297.306V42.2zm-2.29.298c-.023.007-.047.008-.072.008-.135 0-.258-.091-.29-.234l-.599-2.501c-.039-.165.061-.33.22-.372.156-.042.32.06.361.225l.6 2.503c.037.165-.06.329-.22.37zm6.167-4.414h-8.515c-.495 0-.787.402-.649.89l1.04 3.642c.138.49.661.89 1.158.89h5.515c.497 0 1.01-.401 1.145-.893l.97-3.633c.13-.494-.167-.896-.664-.896zM167.31 14.14c-4.835 0-8.768 4.05-8.768 9.028 0 4.979 3.933 9.03 8.768 9.03 4.837 0 8.772-4.051 8.772-9.03 0-4.978-3.935-9.028-8.772-9.028m0 19.015c-5.362 0-9.726-4.48-9.726-9.987 0-5.506 4.364-9.986 9.726-9.986 5.364 0 9.73 4.48 9.73 9.986 0 5.507-4.366 9.987-9.73 9.987" mask="url(#3pfifebmcb)"/>
                    <path fill="#231916" d="M164.193 17.491c-.562 0-1.016.468-1.016 1.042v9.274c0 .575.454 1.041 1.016 1.041h6.24c.556 0 1.013-.466 1.013-1.04v-9.275c0-.574-.457-1.042-1.014-1.042h-6.239zm6.24 12.19h-6.24c-1.007 0-1.826-.84-1.826-1.874v-9.274c0-1.036.82-1.875 1.826-1.875h6.24c1.003 0 1.824.84 1.824 1.875v9.274c0 1.033-.82 1.873-1.825 1.873z" mask="url(#3pfifebmcb)"/>
                    <path fill="#231916" d="M170.643 19.66c0 .272-.21.495-.473.495h-5.714c-.263 0-.479-.223-.479-.494v-.86c0-.27.216-.491.48-.491h5.713c.262 0 .473.22.473.492v.859zM166.058 22.714c0 .304-.24.55-.535.55h-.904c-.294 0-.536-.246-.536-.55v-.927c0-.304.242-.551.536-.551h.904c.296 0 .535.247.535.55v.928zM168.263 22.714c0 .304-.241.55-.535.55h-.903c-.293 0-.535-.246-.535-.55v-.927c0-.304.242-.551.535-.551h.903c.294 0 .535.247.535.55v.928zM170.468 22.714c0 .304-.24.55-.535.55h-.903c-.293 0-.534-.246-.534-.55v-.927c0-.304.24-.551.534-.551h.903c.296 0 .535.247.535.55v.928zM166.058 25.077c0 .305-.24.55-.535.55h-.904c-.294 0-.536-.245-.536-.55v-.927c0-.305.242-.552.536-.552h.904c.296 0 .535.247.535.552v.927zM168.263 25.077c0 .305-.241.55-.535.55h-.903c-.293 0-.535-.245-.535-.55v-.927c0-.305.242-.552.535-.552h.903c.294 0 .535.247.535.552v.927zM170.468 25.077c0 .305-.24.55-.535.55h-.903c-.293 0-.534-.245-.534-.55v-.927c0-.305.24-.552.534-.552h.903c.296 0 .535.247.535.552v.927zM166.058 27.439c0 .305-.24.55-.535.55h-.904c-.294 0-.536-.245-.536-.55v-.93c0-.302.242-.547.536-.547h.904c.296 0 .535.245.535.547v.93zM168.263 27.439c0 .305-.241.55-.535.55h-.903c-.293 0-.535-.245-.535-.55v-.93c0-.302.242-.547.535-.547h.903c.294 0 .535.245.535.547v.93zM170.468 27.439c0 .305-.24.55-.535.55h-.903c-.293 0-.534-.245-.534-.55v-.93c0-.302.24-.547.534-.547h.903c.296 0 .535.245.535.547v.93z" mask="url(#3pfifebmcb)"/>
                    <path fill="#FEFEFE" d="M57.446 82.538c0 5.25-4.14 9.508-9.248 9.508s-9.25-4.257-9.25-9.508c0-5.251 4.142-9.508 9.25-9.508 5.107 0 9.248 4.257 9.248 9.508" mask="url(#3pfifebmcb)"/>
                    <path fill="#231916" d="M48.198 73.509c-4.837 0-8.77 4.05-8.77 9.029s3.933 9.029 8.77 9.029 8.77-4.05 8.77-9.029-3.933-9.029-8.77-9.029m0 19.015c-5.364 0-9.729-4.48-9.729-9.986s4.365-9.987 9.73-9.987c5.363 0 9.727 4.481 9.727 9.987s-4.364 9.986-9.728 9.986" mask="url(#3pfifebmcb)"/>
                    <path fill="#231916" d="M43.222 83.122l8.51-3.32 1.172 3.17c.158.431-.053.914-.47 1.075l-6.992 2.731c-.413.158-.895-.068-1.05-.484l-1.17-3.172zm-.473-1.969c.088-.202.25-.36.451-.438l6.993-2.729c.092-.036.19-.056.288-.056.29 0 .557.163.701.414l-8.489 3.316c-.032-.172-.014-.349.056-.507zm5.764 5.834c-.805 0-1.567.012-2.262.028l6.361-2.482c.678-.265 1.02-1.047.764-1.744l-1.663-4.504c-.194-.522-.688-.873-1.232-.873-.159 0-.318.032-.465.088l-6.994 2.73c-.33.128-.59.38-.733.71-.144.33-.154.7-.032 1.034l1.666 4.504c.091.252.255.463.46.614-.98.061-1.585.143-1.585.234 0 .187 2.557.337 5.715.337 3.153 0 5.71-.15 5.71-.337 0-.187-2.557-.339-5.71-.339z" mask="url(#3pfifebmcb)"/>
                    <path fill="#231916" d="M44.753 83.717c.013 0 .028-.005.04-.008l6.097-2.38c.059-.02.09-.092.065-.155-.022-.06-.09-.09-.148-.067l-6.095 2.38c-.06.022-.09.09-.07.153.02.045.064.077.11.077M44.888 84.299c.017.047.063.077.108.077.013 0 .03 0 .04-.008l6.097-2.38c.058-.023.09-.091.067-.153-.022-.06-.09-.091-.15-.067l-6.093 2.376c-.061.026-.09.093-.07.155M45.13 84.96c.02.046.064.075.11.075.013 0 .028-.003.04-.007l6.094-2.38c.062-.024.092-.091.069-.153-.022-.06-.09-.091-.148-.068L45.2 84.805c-.061.024-.091.092-.07.156M45.376 85.617c.017.05.06.078.106.078.015 0 .029 0 .04-.008l6.097-2.38c.062-.022.092-.09.069-.15-.022-.064-.091-.094-.152-.072l-6.095 2.378c-.06.024-.09.094-.065.154" mask="url(#3pfifebmcb)"/>
                    <path fill="#FEFEFE" d="M36.695 184.294c0 5.541-4.369 10.032-9.759 10.032-5.392 0-9.76-4.491-9.76-10.032 0-5.543 4.368-10.034 9.76-10.034 5.39 0 9.76 4.491 9.76 10.034" mask="url(#3pfifebmcb)"/>
                    <path fill="#231916" d="M26.936 174.739c-5.117 0-9.28 4.287-9.28 9.555s4.163 9.554 9.28 9.554c5.117 0 9.28-4.286 9.28-9.554 0-5.268-4.163-9.555-9.28-9.555m0 20.066c-5.645 0-10.238-4.715-10.238-10.511 0-5.797 4.593-10.513 10.238-10.513s10.238 4.716 10.238 10.513c0 5.796-4.593 10.51-10.238 10.51" mask="url(#3pfifebmcb)"/>
                    <path fill="#231916" d="M23.221 188.238c0 .267-.209.482-.468.482h-1.695c-.259 0-.468-.215-.468-.482 0-.268.21-.482.468-.482h1.695c.26 0 .468.214.468.482M23.221 186.916c0 .267-.209.48-.468.48h-1.695c-.259 0-.468-.213-.468-.48 0-.268.21-.48.468-.48h1.695c.26 0 .468.212.468.48M23.221 185.593c0 .265-.209.483-.468.483h-1.695c-.259 0-.468-.218-.468-.483s.21-.481.468-.481h1.695c.26 0 .468.216.468.481M23.221 184.268c0 .268-.209.483-.468.483h-1.695c-.259 0-.468-.215-.468-.483 0-.263.21-.48.468-.48h1.695c.26 0 .468.217.468.48M33.222 188.238c0 .267-.21.482-.465.482H31.06c-.259 0-.466-.215-.466-.482 0-.268.207-.482.466-.482h1.696c.256 0 .465.214.465.482M33.222 186.916c0 .267-.21.48-.465.48H31.06c-.259 0-.466-.213-.466-.48 0-.268.207-.48.466-.48h1.696c.256 0 .465.212.465.48M33.222 185.593c0 .265-.21.483-.465.483H31.06c-.259 0-.466-.218-.466-.483s.207-.481.466-.481h1.696c.256 0 .465.216.465.481M26.555 188.238c0 .267-.21.482-.466.482H24.39c-.258 0-.466-.215-.466-.482 0-.268.208-.482.466-.482h1.698c.257 0 .466.214.466.482M26.555 186.916c0 .267-.21.48-.466.48H24.39c-.258 0-.466-.213-.466-.48 0-.268.208-.48.466-.48h1.698c.257 0 .466.212.466.48M26.555 185.593c0 .265-.21.483-.466.483H24.39c-.258 0-.466-.218-.466-.483s.208-.481.466-.481h1.698c.257 0 .466.216.466.481M26.555 184.268c0 .268-.21.483-.466.483H24.39c-.258 0-.466-.215-.466-.483 0-.263.208-.48.466-.48h1.698c.257 0 .466.217.466.48M26.555 182.946c0 .264-.21.483-.466.483H24.39c-.258 0-.466-.22-.466-.483s.208-.477.466-.477h1.698c.257 0 .466.214.466.477M26.555 181.623c0 .268-.21.484-.466.484H24.39c-.258 0-.466-.216-.466-.484 0-.263.208-.48.466-.48h1.698c.257 0 .466.217.466.48M26.555 180.3c0 .268-.21.481-.466.481H24.39c-.258 0-.466-.213-.466-.482 0-.264.208-.479.466-.479h1.698c.257 0 .466.215.466.48M26.555 178.98c0 .263-.21.478-.466.478H24.39c-.258 0-.466-.215-.466-.478 0-.266.208-.483.466-.483h1.698c.257 0 .466.216.466.482M29.892 188.238c0 .267-.21.482-.468.482h-1.697c-.264 0-.471-.215-.471-.482 0-.268.207-.482.471-.482h1.697c.258 0 .468.214.468.482M29.892 186.916c0 .267-.21.48-.468.48h-1.697c-.264 0-.471-.213-.471-.48 0-.268.207-.48.471-.48h1.697c.258 0 .468.212.468.48M29.892 185.593c0 .265-.21.483-.468.483h-1.697c-.264 0-.471-.218-.471-.483s.207-.481.471-.481h1.697c.258 0 .468.216.468.481M29.892 184.268c0 .268-.21.483-.468.483h-1.697c-.264 0-.471-.215-.471-.483 0-.263.207-.48.471-.48h1.697c.258 0 .468.217.468.48M29.892 182.946c0 .264-.21.483-.468.483h-1.697c-.264 0-.471-.22-.471-.483s.207-.477.471-.477h1.697c.258 0 .468.214.468.477M29.892 181.623c0 .268-.21.484-.468.484h-1.697c-.264 0-.471-.216-.471-.484 0-.263.207-.48.471-.48h1.697c.258 0 .468.217.468.48M33.316 189.577c0 .28-.223.51-.496.51H21.052c-.275 0-.498-.23-.498-.51 0-.283.223-.511.498-.511H32.82c.273 0 .496.228.496.51" mask="url(#3pfifebmcb)"/>
                    <path fill="#FEFEFE" d="M55.794 141.935c0 8.894-7.016 16.105-15.664 16.105-8.656 0-15.67-7.21-15.67-16.105 0-8.892 7.014-16.104 15.67-16.104 8.648 0 15.664 7.212 15.664 16.104" mask="url(#3pfifebmcb)"/>
                    <path fill="#231916" d="M40.13 126.31c-8.376 0-15.191 7.01-15.191 15.625 0 8.617 6.815 15.627 15.19 15.627 8.374 0 15.186-7.01 15.186-15.627 0-8.615-6.812-15.625-15.185-15.625m0 32.209c-8.905 0-16.148-7.44-16.148-16.584 0-9.144 7.243-16.583 16.148-16.583 8.9 0 16.143 7.439 16.143 16.583 0 9.145-7.243 16.584-16.143 16.584" mask="url(#3pfifebmcb)"/>
                    <path fill="#231916" d="M42.207 142.976c0-1.466 1.158-2.657 2.587-2.657 1.425 0 2.583 1.191 2.583 2.657 0 1.468-1.158 2.658-2.583 2.658-1.43 0-2.587-1.19-2.587-2.658" mask="url(#3pfifebmcb)"/>
                    <path fill="#231916" d="M44.794 147.112c-2.222 0-4.021-1.853-4.021-4.136 0-2.282 1.799-4.132 4.02-4.132 2.223 0 4.022 1.85 4.022 4.132 0 2.283-1.8 4.136-4.021 4.136zm-6.926-7.215c0 .438-.344.793-.768.793h-3.853c-.427 0-.77-.355-.77-.793v-1.222c0-.435.343-.788.77-.788H37.1c.424 0 .768.353.768.788v1.222zm-.895-4.86v.855h-3.591l.009-.873 3.582.018zm10.978.855h-9.082v-.855c0-1.084-.86-1.967-1.915-1.967H33.39c-1.055 0-1.915.883-1.915 1.967v.975c-1.263.367-2.193 1.562-2.193 2.98v8.708c0 1.715 1.35 3.102 3.018 3.102h15.65c1.667 0 3.019-1.387 3.019-3.102v-8.709c0-1.71-1.352-3.099-3.02-3.099z" mask="url(#3pfifebmcb)"/>
                    <path fill="#FEFEFE" d="M29.755 101.75c0 8.31-6.554 15.047-14.64 15.047C7.033 116.797.48 110.06.48 101.75c0-8.31 6.553-15.047 14.637-15.047 8.085 0 14.639 6.737 14.639 15.047" mask="url(#3pfifebmcb)"/>
                    <path fill="#231916" d="M15.116 87.183C7.31 87.183.958 93.718.958 101.75s6.351 14.568 14.158 14.568c7.81 0 14.16-6.535 14.16-14.568s-6.35-14.568-14.16-14.568m0 30.093C6.782 117.276 0 110.31 0 101.75c0-8.561 6.782-15.526 15.116-15.526 8.336 0 15.117 6.965 15.117 15.526 0 8.56-6.78 15.525-15.117 15.525" mask="url(#3pfifebmcb)"/>
                    <path fill="#231916" d="M21.172 109.223h-4.2v-1.527h-3.711v1.527H9.064c-.352 0-.636.288-.636.649 0 .357.284.65.636.65h12.108c.348 0 .633-.293.633-.65 0-.361-.285-.65-.633-.65M24.61 104.039c0 .434-.345.787-.766.787H18.53v.83c0 .43-.344.784-.763.784H12.66c-.425 0-.767-.353-.767-.784v-.83H6.39c-.423 0-.765-.353-.765-.787v-9.692c0-.432.342-.784.765-.784h17.455c.421 0 .765.352.765.784v9.692zm-.766-11.058H6.39c-.737 0-1.336.613-1.336 1.366v9.692c0 .755.6 1.368 1.336 1.368h4.938v.249c0 .754.595 1.368 1.333 1.368h5.106c.731 0 1.33-.614 1.33-1.368v-.25h4.748c.734 0 1.332-.612 1.332-1.367v-9.692c0-.753-.598-1.366-1.332-1.366z" mask="url(#3pfifebmcb)"/>
                    <path fill="#231916" d="M13.159 105.205c-.241 0-.436.202-.436.451 0 .246.195.446.436.446.242 0 .438-.2.438-.446 0-.249-.196-.45-.438-.45M14.467 105.205c-.237 0-.434.202-.434.451 0 .246.197.446.434.446.243 0 .437-.2.437-.446 0-.249-.194-.45-.437-.45M15.78 105.205c-.243 0-.437.202-.437.451 0 .246.194.446.437.446.24 0 .434-.2.434-.446 0-.249-.195-.45-.434-.45M17.087 105.205c-.241 0-.436.202-.436.451 0 .246.195.446.436.446.24 0 .438-.2.438-.446 0-.249-.197-.45-.438-.45M7.645 102.894V95.48H21.42l-13.775 7.414zm14.918-8.187H7.55c-.359 0-.655.302-.655.672v7.764c0 .37.296.672.655.672h15.013c.363 0 .654-.302.654-.672v-7.764c0-.37-.29-.672-.654-.672z" mask="url(#3pfifebmcb)"/>
                    <path fill="#FEFEFE" d="M200.872 58.919c0 8.31-6.554 15.047-14.638 15.047-8.085 0-14.636-6.737-14.636-15.047s6.55-15.046 14.636-15.046c8.084 0 14.638 6.736 14.638 15.046" mask="url(#3pfifebmcb)"/>
                    <path fill="#231916" d="M186.234 44.352c-7.807 0-14.158 6.535-14.158 14.567 0 8.033 6.351 14.568 14.158 14.568 7.807 0 14.158-6.535 14.158-14.568 0-8.032-6.35-14.567-14.158-14.567m0 30.092c-8.334 0-15.115-6.965-15.115-15.525 0-8.561 6.781-15.525 15.115-15.525s15.116 6.964 15.116 15.525c0 8.56-6.782 15.525-15.116 15.525" mask="url(#3pfifebmcb)"/>
                    <path fill="#231916" d="M194.475 60.928c0 .219-.173.396-.386.396h-15.713c-.213 0-.388-.177-.388-.396v-8.545c0-.222.175-.4.388-.4h15.713c.213 0 .386.178.386.4v8.544zm-.079-10.212h-16.328c-.707 0-1.28.59-1.28 1.316v11.25c0 .728.573 1.317 1.28 1.317h7.132v1.163h-2.986c-.364 0-.662.303-.662.678 0 .379.298.681.662.681h8.037c.365 0 .661-.302.661-.68 0-.376-.296-.678-.66-.678h-2.982v-1.165h7.126c.71 0 1.281-.588 1.281-1.316v-11.25c0-.726-.572-1.316-1.28-1.316z" mask="url(#3pfifebmcb)"/>
                    <path fill="#231916" d="M183.958 56.21c-.377 0-.684.315-.684.703 0 .388.307.704.684.704.376 0 .683-.316.683-.704 0-.388-.307-.702-.683-.702M186.234 56.21c-.378 0-.685.315-.685.703 0 .388.307.704.685.704.376 0 .681-.316.681-.704 0-.388-.305-.702-.68-.702M188.509 56.21c-.376 0-.683.315-.683.703 0 .388.307.704.683.704.378 0 .685-.316.685-.704 0-.388-.307-.702-.685-.702" mask="url(#3pfifebmcb)"/>
                    <path fill="#FEFEFE" d="M139.344 15.524c0 8.311-6.554 15.046-14.637 15.046-8.082 0-14.635-6.735-14.635-15.046 0-8.312 6.553-15.045 14.635-15.045 8.083 0 14.637 6.733 14.637 15.045" mask="url(#3pfifebmcb)"/>
                    <path fill="#231916" d="M124.707.958c-7.807 0-14.156 6.535-14.156 14.566 0 8.033 6.349 14.568 14.156 14.568s14.158-6.535 14.158-14.567c0-8.033-6.351-14.568-14.158-14.568m0 30.092c-8.334 0-15.114-6.965-15.114-15.524 0-8.56 6.78-15.526 15.114-15.526s15.116 6.966 15.116 15.525c0 8.56-6.782 15.525-15.116 15.525" mask="url(#3pfifebmcb)"/>
                    <path fill="#231916" d="M131.79 15.948h-1.807c-.216 0-.392-.178-.392-.406 0-.222.176-.405.392-.405h1.807c.217 0 .393.183.393.405 0 .228-.176.406-.393.406zm-.896 2.083c-.127.307-.417.488-.722.488-.105 0-.211-.02-.316-.068l-5.335-2.395c-.022-.01-.04-.026-.061-.035l-3.217 4.036c-.024.03-.055.043-.086.043-.026 0-.055-.007-.071-.023-.05-.042-.056-.113-.017-.166l3.207-4.029c-.21-.219-.286-.55-.173-.854l-2.451-3.843c-.12-.188-.07-.438.113-.56.183-.123.428-.069.549.114l2.406 3.775c.142-.023.292-.009.434.057l5.336 2.394c.399.178.58.656.404 1.066zm-5.811 4.813c0 .224-.178.404-.395.404-.216 0-.393-.18-.393-.404V20.99c0-.225.177-.405.393-.405.217 0 .395.18.395.405v1.855zm-5.693-6.896h-1.801c-.22 0-.396-.178-.396-.406 0-.222.177-.405.396-.405h1.8c.22 0 .397.183.397.405 0 .228-.176.406-.396.406zm4.905-7.702c0-.225.177-.406.393-.406.217 0 .395.181.395.406V10.1c0 .221-.178.406-.395.406-.216 0-.393-.185-.393-.406V8.246zm.412-1.372c-4.647 0-8.418 3.874-8.418 8.652 0 4.776 3.77 8.651 8.418 8.651 4.647 0 8.416-3.875 8.416-8.65 0-4.779-3.77-8.653-8.416-8.653zm0 17.957c-4.992 0-9.053-4.175-9.053-9.305s4.06-9.307 9.053-9.307c4.992 0 9.052 4.176 9.052 9.307 0 5.13-4.06 9.305-9.052 9.305zm0-19.832c-5.646 0-10.238 4.722-10.238 10.527 0 5.802 4.592 10.525 10.238 10.525s10.24-4.723 10.24-10.525c0-5.805-4.594-10.527-10.24-10.527z" mask="url(#3pfifebmcb)"/>
                    <path fill="#FEFEFE" d="M204.345 192.589c0 5.284-4.165 9.568-9.305 9.568s-9.304-4.284-9.304-9.568c0-5.285 4.165-9.565 9.304-9.565 5.14 0 9.305 4.28 9.305 9.565" mask="url(#3pfifebmcb)"/>
                    <path fill="#231916" d="M195.04 183.503c-4.866 0-8.826 4.076-8.826 9.086 0 5.01 3.96 9.089 8.826 9.089 4.866 0 8.826-4.078 8.826-9.09 0-5.01-3.96-9.085-8.826-9.085m0 19.132c-5.394 0-9.783-4.506-9.783-10.046 0-5.538 4.389-10.044 9.783-10.044 5.394 0 9.783 4.506 9.783 10.044 0 5.54-4.39 10.046-9.783 10.046" mask="url(#3pfifebmcb)"/>
                    <path fill="#231916" d="M197.636 196.525H192.4c-.633 0-1.15.529-1.15 1.18 0 .65.517 1.178 1.15 1.178h5.236c.633 0 1.146-.527 1.146-1.177 0-.652-.513-1.181-1.146-1.181M197.39 188.921h-4.641c-.106 0-.19.088-.19.198 0 .106.084.191.19.191h4.64c.106 0 .19-.085.19-.19 0-.11-.084-.199-.19-.199M197.39 190.009h-4.641c-.106 0-.19.085-.19.195 0 .107.084.195.19.195h4.64c.106 0 .19-.088.19-.195 0-.11-.084-.195-.19-.195M197.39 191.09h-4.641c-.106 0-.19.09-.19.196 0 .108.084.196.19.196h4.64c.106 0 .19-.088.19-.196 0-.105-.084-.195-.19-.195" mask="url(#3pfifebmcb)"/>
                    <path fill="#231916" d="M195.929 194.972h-1.94c-.161 0-.293-.135-.293-.301 0-.167.132-.305.294-.305h1.939c.16 0 .293.138.293.305 0 .166-.133.3-.293.3zm-4.187-1.453h6.436v-6.128h-6.436v6.128zm8.19-1.407h-.69v-5.817h-8.563v5.817h-.53c-.985 0-1.781.82-1.781 1.829v2.44c0 1.009.796 1.829 1.782 1.829h.867c-.058-.16-.091-.328-.091-.504 0-.836.662-1.515 1.474-1.515h5.236c.812 0 1.472.679 1.472 1.515 0 .176-.033.345-.09.504h.915c.982 0 1.777-.82 1.777-1.83v-2.44c0-1.008-.795-1.828-1.777-1.828zM179.778 222.916c-6.609 0-11.987 5.531-11.987 12.331 0 6.802 5.378 12.336 11.987 12.336 6.607 0 11.985-5.534 11.985-12.336 0-6.8-5.378-12.331-11.985-12.331m0 25.625c-7.137 0-12.944-5.963-12.944-13.294 0-7.327 5.807-13.289 12.944-13.289 7.137 0 12.942 5.962 12.942 13.289 0 7.331-5.805 13.294-12.942 13.294" mask="url(#3pfifebmcb)"/>
                    <path fill="#231916" d="M183.538 242.16c-.085.072-.312.103-.498.072l-3.411-.571c-4.446-4.886-3.77-10.215-3.77-10.215.027-.195.155-.477.289-.618l2.188-2.36c.135-.144.33-.261.44-.261.112 0 .224.159.254.356l.494 3.233c.03.197-.088.425-.262.509l-1.176.575c-.176.082-.261.302-.192.489l2.015 5.428c.069.183.28.305.472.27l1.036-.2c.186-.032.426.072.527.24l1.564 2.614c.1.166.116.364.03.439m-3.76-16.092c-4.933 0-8.932 4.11-8.932 9.179 0 5.072 3.999 9.184 8.932 9.184 4.934 0 8.93-4.112 8.93-9.184 0-5.068-3.996-9.18-8.93-9.18" mask="url(#3pfifebmcb)"/>
                    <path fill="#FEFEFE" d="M139.13 230.395c0 5.544-4.366 10.035-9.757 10.035-5.39 0-9.763-4.49-9.763-10.035 0-5.54 4.374-10.03 9.763-10.03 5.39 0 9.758 4.49 9.758 10.03" mask="url(#3pfifebmcb)"/>
                    <path fill="#231916" d="M129.373 220.844c-5.12 0-9.284 4.285-9.284 9.552 0 5.269 4.165 9.556 9.284 9.556 5.117 0 9.279-4.287 9.279-9.556 0-5.267-4.162-9.552-9.28-9.552m0 20.066c-5.645 0-10.24-4.717-10.24-10.514 0-5.795 4.595-10.51 10.24-10.51 5.646 0 10.237 4.715 10.237 10.51 0 5.797-4.591 10.514-10.236 10.514" mask="url(#3pfifebmcb)"/>
                    <path fill="#231916" d="M125.058 237.237c0-.395 1.932-.717 4.314-.717 2.381 0 4.314.322 4.314.717 0 .397-1.933.72-4.314.72-2.382 0-4.314-.323-4.314-.72" mask="url(#3pfifebmcb)"/>
                    <path fill="#231916" d="M129.373 236.571c-2.516 0-4.268.352-4.268.666 0 .321 1.752.67 4.268.67 2.512 0 4.265-.349 4.265-.67 0-.314-1.753-.666-4.265-.666m0 1.435c-2.115 0-4.361-.272-4.361-.769s2.246-.764 4.36-.764c2.114 0 4.36.267 4.36.764s-2.246.77-4.36.77" mask="url(#3pfifebmcb)"/>
                    <path fill="#231916" d="M129.373 228.974c-.783 0-1.417-.651-1.417-1.453 0-.804.634-1.457 1.417-1.457.782 0 1.416.653 1.416 1.457 0 .802-.634 1.453-1.416 1.453m4.669-1.48c-.108-2.578-2.148-4.642-4.67-4.702-2.521.06-4.561 2.124-4.673 4.703 0 .074-.004.144-.004.22 0 1.979 1.577 3.16 2.787 4.784 1.405 1.878 1.89 5.316 1.89 5.316s.482-3.438 1.889-5.316c1.21-1.623 2.788-2.805 2.788-4.784 0-.076-.003-.146-.007-.22" mask="url(#3pfifebmcb)"/>
                    <path fill="#FEFEFE" d="M58.328 211.934c0 7.1-5.599 12.855-12.506 12.855-6.91 0-12.506-5.755-12.506-12.855 0-7.102 5.596-12.856 12.506-12.856 6.907 0 12.506 5.754 12.506 12.856" mask="url(#3pfifebmcb)"/>
                    <path fill="#231916" d="M45.823 199.556c-6.633 0-12.028 5.553-12.028 12.378 0 6.823 5.395 12.375 12.028 12.375 6.632 0 12.025-5.552 12.025-12.375 0-6.825-5.393-12.378-12.025-12.378m0 25.71c-7.16 0-12.986-5.98-12.986-13.332 0-7.354 5.826-13.336 12.986-13.336 7.16 0 12.983 5.982 12.983 13.336 0 7.352-5.824 13.333-12.983 13.333" mask="url(#3pfifebmcb)"/>
                    <path fill="#231916" d="M48.997 219.811l-.01-2.702h2.632l-2.622 2.702zm-.533-10.238h-5.286c-.18 0-.327-.153-.327-.335 0-.184.148-.335.327-.335h5.286c.179 0 .325.151.325.335 0 .182-.146.335-.325.335zm0 2.265h-5.286c-.18 0-.327-.15-.327-.333 0-.185.148-.335.327-.335h5.286c.179 0 .325.15.325.335 0 .183-.146.333-.325.333zm0 2.271h-5.286c-.18 0-.327-.152-.327-.334 0-.186.148-.334.327-.334h5.286c.179 0 .325.148.325.334 0 .182-.146.334-.325.334zm-8.665-10.292v16.23h9.656l2.392-2.42v-13.81H39.799zM81.027 230.874c-5.117 0-9.278 4.287-9.278 9.556 0 5.27 4.161 9.556 9.278 9.556 5.12 0 9.282-4.287 9.282-9.556 0-5.269-4.163-9.556-9.282-9.556m0 20.07c-5.645 0-10.236-4.717-10.236-10.514s4.591-10.514 10.236-10.514c5.646 0 10.24 4.717 10.24 10.514s-4.594 10.513-10.24 10.513" mask="url(#3pfifebmcb)"/>
                    <path fill="#231916" d="M75.595 245.152L86.465 245.152 86.465 238.75 75.595 238.75zM80.78 236.367h3.743c.385 0 .718.246.86.59h-3.712c-.477 0-.867-.263-.892-.59m-2.203.628c-.192 0-.345-.157-.345-.352 0-.198.153-.357.345-.357.188 0 .344.16.344.357 0 .195-.156.352-.344.352m-.96 0c-.19 0-.342-.157-.342-.352 0-.198.151-.357.342-.357.19 0 .346.16.346.357 0 .195-.156.352-.346.352m-.958 0c-.19 0-.346-.157-.346-.352 0-.198.155-.357.346-.357.19 0 .345.16.345.357 0 .195-.156.352-.345.352m9.006-.013c-.148-.508-.6-.88-1.14-.88h-3.818c-.133-.229-.456-.393-.83-.393h-3.369c-.494 0-.898.415-.898.922v1.432h10.835c0-.338.097-.883-.78-1.08M46.898 73.052L46.048 54.578 47.006 54.533 47.855 73.007zM28.32 95.103L27.785 94.311 39.623 86.308 40.157 87.1zM29.48 129.996L20.91 115.625 21.733 115.135 30.302 129.506zM30.357 174.838L29.425 174.617 33.672 156.71 34.604 156.931zM37.681 202.117L31.512 193.192 32.303 192.648 38.471 201.573zM72.716 235.137L53.873 221.9 54.423 221.116 73.266 234.353zM159.867 67.587L159.642 66.656 172.355 63.575 172.579 64.507zM179.513 45.556L172.043 31.285 172.892 30.842 180.363 45.113zM157.977 21.708L139.089 18.283 139.261 17.341 158.15 20.765zM193.961 90.183L190 73.436 190.931 73.215 194.893 89.962zM192.917 133.316L191.975 133.157 195.206 113.872 196.149 114.031zM193.589 183.095L190.509 162.646 191.455 162.504 194.535 182.953zM186.193 224.132L185.277 223.851 192.099 201.662 193.016 201.943zM167.273 234.45L139.012 232.128 139.091 231.174 167.351 233.496zM86.197 231.833L85.31 231.47 92.67 213.513 93.556 213.876zM65.585 146.595L55.351 146.111 55.396 145.156 65.63 145.639zM65.528 110.212L29.676 104.287 29.834 103.342 65.685 109.267zM173.163 148.004L159.687 146.108 159.822 145.159 173.298 147.056zM89.046 44.19L77.884 14.838 78.777 14.498 89.94 43.85zM113.674 251.778c0 2.05-1.616 3.716-3.613 3.716-1.996 0-3.614-1.665-3.614-3.716 0-2.053 1.618-3.716 3.614-3.716 1.997 0 3.613 1.663 3.613 3.716" mask="url(#3pfifebmcb)"/>
                    <path fill="#231916" d="M110.06 248.741c-1.618 0-2.935 1.362-2.935 3.037 0 1.674 1.317 3.037 2.935 3.037s2.935-1.363 2.935-3.037c0-1.675-1.317-3.037-2.935-3.037m0 7.432c-2.366 0-4.292-1.973-4.292-4.395 0-2.423 1.926-4.395 4.292-4.395 2.366 0 4.292 1.972 4.292 4.395 0 2.422-1.926 4.395-4.292 4.395" mask="url(#3pfifebmcb)"/>
                    <path fill="#231916" d="M108.718 248.23L104.69 213.75 105.639 213.639 109.668 248.12zM81.476 14.668c0 1.736-1.408 3.144-3.146 3.144s-3.146-1.408-3.146-3.144c0-1.738 1.408-3.146 3.146-3.146s3.146 1.408 3.146 3.146" mask="url(#3pfifebmcb)"/>
                    <path fill="#231916" d="M78.33 12.48c-1.206 0-2.187.982-2.187 2.188 0 1.206.98 2.187 2.188 2.187 1.206 0 2.188-.981 2.188-2.187s-.982-2.188-2.188-2.188m0 6.29c-2.264 0-4.104-1.841-4.104-4.102 0-2.263 1.84-4.103 4.104-4.103 2.263 0 4.104 1.84 4.104 4.103 0 2.26-1.841 4.102-4.104 4.102" mask="url(#3pfifebmcb)"/>
                </g>
            </g>
        </g>
    </g>
</svg>
