<svg xmlns="http://www.w3.org/2000/svg" xmlns:xlink="http://www.w3.org/1999/xlink" width="270" height="336" viewBox="0 0 270 336">
    <defs>
        <path id="gj175zzzca" d="M0 0.743L204.926 0.743 204.926 205.668 0 205.668z"/>
        <path id="uan7qicrmc" d="M0 215.943L204.926 215.943 204.926 0 0 0z"/>
    </defs>
    <g fill="none" fill-rule="evenodd">
        <g>
            <g transform="translate(-705 -816) translate(705 816)">
                <rect width="270" height="336" fill="#FFF" rx="2"/>
                <g transform="translate(33 80)">
                    <g transform="translate(0 7.943)">
                        <mask id="6j7d2hrpzb" fill="#fff">
                            <use xlink:href="#gj175zzzca"/>
                        </mask>
                        <path fill="#C8C9C9" d="M204.926 103.207c0 56.588-45.873 102.46-102.463 102.46C45.874 205.668 0 159.796 0 103.208 0 46.617 45.874.743 102.463.743c56.59 0 102.463 45.874 102.463 102.464" mask="url(#6j7d2hrpzb)"/>
                    </g>
                    <path fill="#231916" d="M190.478 154.542c2.01 2.935 3.077 6.595 3.077 10.457 0 6.873-2.566 14.11-8.067 17.154l-59.537 24.152-13.652-27.673H85.855l-13.653 27.673-59.536-24.152C7.166 179.108 4.6 171.873 4.6 165c0-3.862 1.18-7.439 3.19-10.374l-.114-.083 28.841-48.179c10.817-17.79 24.877-16.307 24.877-16.307h75.368s14.057-1.484 24.875 16.307l28.842 48.18z"/>
                    <path fill="#231916" d="M8.643 154.34l.035.026-.299.685c-2.002 2.924-3.06 6.361-3.06 9.948 0 5.92 2.02 13.365 7.69 16.502l58.848 23.867L85.41 177.89h27.333l13.551 27.478 58.928-23.904c5.593-3.1 7.61-10.545 7.61-16.465 0-3.748-1.017-7.218-2.943-10.032l-28.866-48.217c-9.017-14.831-20.23-15.983-23.452-15.983-.458 0-.72.024-.74.026l-75.438.004c-.733-.045-13.958-.992-24.264 15.959L8.643 154.34zm116.96 52.902l-13.747-27.87H86.298l-13.749 27.87-60.147-24.4c-6.305-3.481-8.525-11.495-8.525-17.843 0-3.69 1.033-7.236 2.987-10.298l.198-.548 28.841-48.179c9.417-15.488 21.272-16.691 24.68-16.691.571 0 .884.035.884.035l75.28-.004c.012-.002.315-.031.824-.031 3.406 0 15.263 1.203 24.675 16.688l28.845 48.182c2.074 3.029 3.184 6.791 3.184 10.846 0 6.348-2.218 14.362-8.446 17.806l-60.226 24.437zM41.429 150.606L85.855 171.22"/>
                    <path fill="#FEFEFE" d="M85.853 173.322c-.282 0-.566-.06-.84-.187L40.59 152.52c-1.028-.476-1.486-1.72-1.024-2.779.467-1.059 1.68-1.528 2.704-1.05l44.428 20.613c1.028.477 1.484 1.721 1.02 2.78-.34.778-1.084 1.238-1.864 1.238"/>
                    <path fill="#231916" d="M112.299 171.22L156.724 150.606"/>
                    <path fill="#FEFEFE" d="M112.301 173.322c-.782 0-1.522-.46-1.867-1.238-.462-1.059-.007-2.303 1.025-2.78l44.424-20.614c1.028-.477 2.238-.008 2.704 1.051.464 1.06.006 2.303-1.02 2.78l-44.428 20.614c-.272.127-.558.187-.838.187M98.91 116.798c-17.228 0-31.866-13.461-32.727-29.724-.026-.093-.041-.19-.041-.293v-3.217c0-.579.458-1.049 1.025-1.049.563 0 1.02.47 1.02 1.049v1.996c0 15.521 14.358 29.137 30.723 29.137 16.006 0 30.103-12.805 30.785-27.962l-.002-3.171c0-.579.457-1.049 1.02-1.049.568 0 1.025.47 1.025 1.049v3.217c-.73 16.294-15.764 30.017-32.828 30.017"/>
                    <path fill="#FEFEFE" d="M139.567 59.164c3.383 1.797 5.655 5.452 5.655 9.585v3.057c0 6.051-4.72 10.903-10.549 10.903h-5.653v2.996c-.64 14.138-13.812 26.957-29.899 26.957-16.491 0-29.837-13.418-29.837-28.098V82.71h-5.772c-5.826 0-10.547-4.852-10.547-10.903V68.75c0-4.133 2.332-7.788 5.712-9.585 1.457-.84 3.088-1.259 4.835-1.259h4.838c19.293 0 21.795-30.075 24.188-30.075 5.826 0 6.817 4.193 6.817 4.193s1.109-4.193 6.935-4.193c2.39 0 4.255 30.075 23.548 30.075h4.835c1.748 0 3.438.481 4.894 1.26"/>
                    <path fill="#231916" d="M139.567 34.78v24.384c-1.456-.779-3.146-1.259-4.894-1.259h-4.835c-19.293 0-21.158-30.075-23.548-30.075-5.826 0-6.935 4.193-6.935 4.193s-.991-4.193-6.817-4.193c-2.393 0-4.895 30.075-24.188 30.075h-4.838c-1.747 0-3.378.42-4.835 1.26V33.342C59.55 15.37 77.326 1.051 99.065 1.051c22.438 0 40.502 15.038 40.502 33.73"/>
                    <path fill="#231916" d="M59.699 59.105h-2.045V33.344C58.564 14.623 76.752 0 99.064 0c22.9 0 41.528 15.602 41.528 34.78h-2.042c0-18.02-17.716-32.678-39.485-32.678-21.222 0-38.513 13.747-39.368 31.294l.002 25.708z"/>
                    <mask id="th5bqpaz8d" fill="#fff">
                        <use xlink:href="#uan7qicrmc"/>
                    </mask>
                    <path fill="#231916" d="M138.549 59.164L140.591 59.164 140.591 33.344 138.549 33.344zM99.12 113.715c-16.22 0-30-12.555-30.82-27.726-.024-.088-.037-.186-.037-.284v-1.14c0-.58.457-1.049 1.02-1.049.566 0 1.025.469 1.025 1.049 0 14.409 13.463 27.048 28.813 27.048 15.015 0 28.24-11.887 28.878-25.958v-2.946c0-.58.458-1.051 1.02-1.051.568 0 1.022.471 1.022 1.051v2.996c-.688 15.204-14.848 28.01-30.92 28.01" mask="url(#th5bqpaz8d)"/>
                    <path fill="#231916" d="M69.284 85.615c-.564 0-1.021-.47-1.021-1.05v-1.856c0-.58.457-1.05 1.02-1.05.565 0 1.024.47 1.024 1.05v1.855c0 .58-.46 1.051-1.023 1.051M134.673 83.76h-5.653c-.564 0-1.022-.471-1.022-1.051s.458-1.051 1.022-1.051h5.653c5.254 0 9.527-4.42 9.527-9.852v-3.057c0-3.666-1.956-6.98-5.1-8.652-1.399-.746-2.927-1.141-4.427-1.141h-4.836c-.565 0-1.023-.471-1.023-1.05 0-.581.458-1.051 1.023-1.051h4.836c1.826 0 3.681.476 5.368 1.376 3.825 2.035 6.202 6.067 6.202 10.518v3.057c0 6.59-5.19 11.955-11.57 11.955" mask="url(#th5bqpaz8d)"/>
                    <path fill="#231916" d="M129.838 58.956c-15.034 0-20.043-17.408-22.451-25.772-.496-1.729-1.052-3.663-1.41-4.297-4.648.136-5.598 3.286-5.639 3.423-.156.551-.717.88-1.256.72-.542-.155-.86-.723-.715-1.279.056-.206 1.391-4.97 7.922-4.97 1.386 0 1.876 1.7 3.06 5.806 2.44 8.481 6.983 24.267 20.489 24.267.564 0 1.02.471 1.02 1.051s-.457 1.051-1.02 1.051" mask="url(#th5bqpaz8d)"/>
                    <path fill="#231916" d="M68.35 58.956c-.562 0-1.02-.472-1.02-1.05 0-.58.458-1.052 1.02-1.052 13.521 0 18.406-15.798 21.028-24.288 1.267-4.092 1.79-5.785 3.16-5.785 6.554 0 7.763 4.792 7.812 4.995.131.564-.206 1.132-.754 1.27-.552.134-1.095-.207-1.232-.764-.038-.153-.906-3.263-5.522-3.396-.374.624-.98 2.577-1.514 4.316-2.585 8.36-7.96 25.754-22.978 25.754" mask="url(#th5bqpaz8d)"/>
                    <path fill="#231916" d="M69.284 83.76h-5.771c-6.378 0-11.571-5.363-11.571-11.954v-3.057c0-4.365 2.46-8.495 6.266-10.518 1.575-.907 3.369-1.376 5.305-1.376h4.837c.568 0 1.022.47 1.022 1.05 0 .58-.454 1.05-1.022 1.05h-4.837c-1.583 0-3.042.38-4.337 1.127-3.163 1.682-5.19 5.078-5.19 8.667v3.057c0 5.433 4.277 9.852 9.527 9.852h5.77c.565 0 1.024.47 1.024 1.05 0 .58-.46 1.053-1.023 1.053M101.988 92.686h-4.75c-1.671 0-3.232-.928-4.077-2.42-.283-.502-.118-1.145.37-1.436.49-.292 1.112-.123 1.396.379.48.847 1.366 1.374 2.31 1.374h4.75c.947 0 1.832-.525 2.308-1.37.282-.504.91-.672 1.396-.383.488.29.655.93.373 1.434-.838 1.494-2.4 2.422-4.076 2.422M97.402 81.654c-2.054 0-3.783-1.653-3.905-3.784-.064-1.075.286-2.108.98-2.909.696-.802 1.654-1.278 2.696-1.343.586-.046 1.044.41 1.079.99.033.578-.397 1.075-.96 1.108-.497.03-.955.257-1.288.642-.33.382-.497.876-.466 1.388.059 1.055.926 1.867 1.972 1.806.566-.042 1.048.408 1.079.987.035.58-.398 1.079-.96 1.11-.077.005-.154.005-.227.005" mask="url(#th5bqpaz8d)"/>
                    <path fill="#231916" d="M100.355 75.718h-2.947c-.566 0-1.022-.47-1.022-1.051 0-.58.456-1.052 1.022-1.052h2.947c.563 0 1.021.472 1.021 1.052 0 .58-.458 1.05-1.02 1.05M100.355 81.654h-2.947c-.566 0-1.022-.47-1.022-1.05 0-.58.456-1.05 1.022-1.05h2.947c.563 0 1.021.47 1.021 1.05 0 .58-.458 1.05-1.02 1.05" mask="url(#th5bqpaz8d)"/>
                    <path fill="#FEFEFE" d="M127.279 59.886c.048.204.048.456.048.66V71.46c0 1.878-.94 3.5-2.32 4.519h-.05c-.84.557-1.826.913-2.913.913h-13.731c-2.913 0-5.283-2.436-5.283-5.432V60.546c0-2.943 2.37-5.33 5.283-5.33h13.73c.69 0 1.334.149 1.975.354 1.729.712 3.014 2.336 3.26 4.316" mask="url(#th5bqpaz8d)"/>
                    <path fill="#231916" d="M108.313 56.267c-2.349 0-4.262 1.919-4.262 4.279V71.46c0 2.415 1.913 4.38 4.262 4.38h13.73c.824 0 1.617-.25 2.36-.744l.257-.168c1.051-.88 1.646-2.125 1.646-3.468V60.546c0-.114 0-.327-.018-.404-.218-1.677-1.224-3.011-2.649-3.6-.602-.183-1.103-.275-1.596-.275h-13.73zm13.73 21.677h-13.73c-3.477 0-6.305-2.91-6.305-6.483V60.546c0-3.517 2.828-6.38 6.305-6.38h13.73c.896 0 1.686.214 2.277.399 2.191.9 3.684 2.877 3.972 5.188.056.206.056.546.056.793V71.46c0 2.13-1 4.089-2.747 5.372l-.353.197c-.996.599-2.099.914-3.205.914z" mask="url(#th5bqpaz8d)"/>
                    <path fill="#FEFEFE" d="M72.757 75.98c-1.383-1.018-2.32-2.641-2.32-4.52V60.547c0-.204 0-.456.048-.66.247-1.98 1.578-3.656 3.358-4.316.543-.253 1.183-.354 1.828-.354h13.776c2.918 0 5.284 2.387 5.284 5.33V71.46c0 2.997-2.366 5.432-5.284 5.432H75.671c-1.087 0-2.075-.355-2.914-.913" mask="url(#th5bqpaz8d)"/>
                    <path fill="#231916" d="M75.671 56.267c-.556 0-1.04.09-1.409.26-1.513.567-2.57 1.925-2.766 3.494-.038.194-.038.409-.038.525V71.46c0 1.445.69 2.78 1.892 3.662.704.468 1.499.719 2.322.719h13.776c2.35 0 4.263-1.966 4.263-4.381V60.546c0-2.36-1.912-4.28-4.263-4.28H75.672zm13.776 21.677H75.672c-1.209 0-2.407-.374-3.47-1.083-1.783-1.311-2.786-3.27-2.786-5.4V60.546c0-.245 0-.583.075-.91.273-2.224 1.856-4.256 4.006-5.055.565-.264 1.322-.415 2.175-.415h13.776c3.477 0 6.31 2.863 6.31 6.38V71.46c0 3.573-2.833 6.483-6.31 6.483z" mask="url(#th5bqpaz8d)"/>
                    <path fill="#231916" d="M94.731 67.106L103.03 67.106 103.03 65.005 94.731 65.005z" mask="url(#th5bqpaz8d)"/>
                    <path fill="#FEFEFE" d="M116.24 110.684v24.854H81.686v-24.869c4.966 3.174 10.887 5.074 17.239 5.074 6.369 0 12.32-1.9 17.302-5.09l.013.03z" mask="url(#th5bqpaz8d)"/>
                    <path fill="#FEFEFE" d="M127.069 136.587h-10.83c-.562 0-1.021-.469-1.021-1.049v-24.854c0-.58.459-1.05 1.022-1.05.566 0 1.023.47 1.023 1.05v23.803h9.387l11.265-11.5-13.795-19.817c-.327-.47-.221-1.129.237-1.466.458-.337 1.096-.23 1.425.243l14.305 20.543c.29.42.243.993-.113 1.357l-12.185 12.435c-.193.195-.45.305-.72.305" mask="url(#th5bqpaz8d)"/>
                    <path fill="#FEFEFE" d="M116.24 136.587H81.686c-.566 0-1.023-.469-1.023-1.049 0-.582.457-1.05 1.023-1.05h34.554c.566 0 1.023.468 1.023 1.05 0 .58-.457 1.05-1.023 1.05" mask="url(#th5bqpaz8d)"/>
                    <path fill="#FEFEFE" d="M81.686 136.587h-10.83c-.267 0-.528-.11-.72-.305l-12.168-12.435c-.357-.364-.405-.937-.112-1.357l14.301-20.543c.331-.473.97-.58 1.426-.243.458.337.567.995.237 1.466l-13.798 19.816 11.258 11.501h9.383v-23.803c0-.58.457-1.05 1.023-1.05.562 0 1.021.47 1.021 1.05v24.854c0 .58-.459 1.05-1.02 1.05" mask="url(#th5bqpaz8d)"/>
                    <path fill="#FEFEFE" d="M98.924 116.796c-6.272 0-12.42-1.812-17.779-5.235-3.509-2.22-6.528-5.037-8.972-8.369-3.67-4.962-5.728-10.61-5.98-16.41h-.027v-1.226c0-.58.458-1.05 1.023-1.05s1.021.47 1.021 1.05c0 5.761 1.934 11.422 5.592 16.365 2.293 3.13 5.125 5.771 8.417 7.854 5.038 3.218 10.813 4.918 16.705 4.918 5.926 0 11.722-1.706 16.762-4.93 3.31-2.113 6.148-4.754 8.435-7.855 3.423-4.599 5.357-9.843 5.596-15.174v-3.17h2.042v3.217c-.262 5.807-2.338 11.461-6.01 16.401-2.437 3.302-5.462 6.12-8.984 8.364-5.365 3.434-11.534 5.25-17.84 5.25" mask="url(#th5bqpaz8d)"/>
                    <path fill="#FEFEFE" d="M66.167 85.556L68.211 85.556 68.211 83.563 66.167 83.563z" mask="url(#th5bqpaz8d)"/>
                    <path fill="#231916" d="M50.44 214.15c-4.539 0-8.232-3.795-8.232-8.464 0-4.666 3.693-8.461 8.231-8.461h7.155V128.29h84.72v68.935h7.156c4.54 0 8.231 3.795 8.231 8.46 0 4.67-3.692 8.465-8.23 8.465H50.438z" mask="url(#th5bqpaz8d)"/>
                    <path fill="#FEFEFE" d="M143.338 127.24H56.57v68.934H50.44c-5.101 0-9.255 4.267-9.255 9.511 0 5.246 4.154 9.515 9.255 9.515h99.03c5.103 0 9.256-4.269 9.256-9.515 0-5.244-4.153-9.51-9.256-9.51h-6.132V127.24zm-2.046 2.1v68.934h8.178c3.982 0 7.209 3.321 7.209 7.411 0 4.093-3.227 7.414-7.209 7.414H50.44c-3.981 0-7.21-3.32-7.21-7.414 0-4.09 3.229-7.41 7.21-7.41h8.175V129.34h82.677z" mask="url(#th5bqpaz8d)"/>
                    <path fill="#FEFEFE" d="M50.44 199.015c-3.579 0-6.489 2.994-6.489 6.67 0 3.68 2.91 6.673 6.488 6.673h99.031c3.577 0 6.488-2.992 6.488-6.672 0-3.677-2.91-6.671-6.488-6.671h-8.177c-.399 0-.72-.33-.72-.74v-68.193H59.337v68.193c0 .41-.32.74-.72.74h-8.178zm99.03 14.826H50.44c-4.374 0-7.932-3.66-7.932-8.155 0-4.494 3.558-8.152 7.931-8.152h7.454V129.34c0-.41.322-.742.723-.742h82.677c.398 0 .722.332.722.742v68.194h7.455c4.372 0 7.932 3.658 7.932 8.152 0 4.496-3.56 8.155-7.932 8.155zm-99.03-16.927c-4.705 0-8.534 3.938-8.534 8.772 0 4.837 3.83 8.774 8.533 8.774h99.031c4.703 0 8.534-3.937 8.534-8.774 0-4.834-3.83-8.772-8.534-8.772h-6.133c-.398 0-.722-.331-.722-.74V127.98H57.293v68.193c0 .409-.324.74-.72.74h-6.134zm99.03 19.029H50.44c-5.5 0-9.976-4.603-9.976-10.257 0-5.653 4.476-10.255 9.975-10.255h5.412V127.24c0-.41.322-.743.721-.743h86.765c.4 0 .722.333.722.743v68.19h5.411c5.5 0 9.974 4.603 9.974 10.256 0 5.654-4.474 10.257-9.974 10.257z" mask="url(#th5bqpaz8d)"/>
                    <path fill="#FEFEFE" d="M58.013 198.598L141.991 198.598 141.991 196.497 58.013 196.497z" mask="url(#th5bqpaz8d)"/>
                </g>
            </g>
        </g>
    </g>
</svg>
