<svg xmlns="http://www.w3.org/2000/svg" xmlns:xlink="http://www.w3.org/1999/xlink" width="270" height="336" viewBox="0 0 270 336">
    <defs>
        <path id="ewhr6bdlpa" d="M0.163 0.074L205.09 0.074 205.09 205 0.163 205z"/>
        <path id="8wggw43pvc" d="M0 205.926L242.479 205.926 242.479 1 0 1z"/>
    </defs>
    <g fill="none" fill-rule="evenodd">
        <g>
            <g transform="translate(-409 -452) translate(409 452)">
                <rect width="270" height="336" fill="#FFF" rx="2"/>
                <g transform="translate(14 85)">
                    <g transform="translate(22 .926)">
                        <mask id="25qmnx8nrb" fill="#fff">
                            <use xlink:href="#ewhr6bdlpa"/>
                        </mask>
                        <path fill="#C8C9C9" d="M205.09 102.537C205.09 159.126 159.217 205 102.627 205 46.037 205 .163 159.126.163 102.537.163 45.947 46.038.074 102.627.074c56.59 0 102.463 45.874 102.463 102.463" mask="url(#25qmnx8nrb)"/>
                    </g>
                    <path fill="#231916" d="M223.462 155.587c0 8.624-6.864 15.683-15.255 15.683H34.272c-8.39 0-15.254-7.06-15.254-15.683V29.532c0-8.626 6.864-15.682 15.254-15.682h173.935c8.39 0 15.255 7.056 15.255 15.682v126.055z"/>
                    <path fill="#231916" d="M34.271 18.447c-5.945 0-10.782 4.972-10.782 11.084v126.056c0 6.113 4.837 11.085 10.782 11.085h173.936c5.946 0 10.784-4.972 10.784-11.085V29.531c0-6.112-4.838-11.084-10.784-11.084H34.271zm173.936 157.417H34.271c-10.877 0-19.726-9.095-19.726-20.277V29.531c0-11.182 8.85-20.279 19.726-20.279h173.936c10.877 0 19.728 9.097 19.728 20.28v126.055c0 11.182-8.85 20.277-19.728 20.277z"/>
                    <mask id="nctacw9mnd" fill="#fff">
                        <use xlink:href="#8wggw43pvc"/>
                    </mask>
                    <path fill="#FEFEFE" d="M26.417 163.223L216.064 163.223 216.064 21.897 26.417 21.897z" mask="url(#nctacw9mnd)"/>
                    <path fill="#231916" d="M8.227 198.284c-4.008 0-7.27-3.34-7.27-7.446v-11.027c0-4.106 3.262-7.446 7.27-7.446H234.25c4.01 0 7.271 3.34 7.271 7.446v11.027c0 4.106-3.262 7.446-7.27 7.446H8.226z" mask="url(#nctacw9mnd)"/>
                    <path fill="#FEFEFE" d="M234.25 171.407H8.229c-4.538 0-8.228 3.77-8.228 8.403v11.029c0 4.632 3.69 8.403 8.228 8.403H234.25c4.538 0 8.228-3.77 8.228-8.403V179.81c0-4.632-3.69-8.403-8.228-8.403m0 1.916c3.472 0 6.312 2.92 6.312 6.487v11.029c0 3.566-2.84 6.488-6.312 6.488H8.228c-3.471 0-6.313-2.922-6.313-6.488V179.81c0-3.566 2.842-6.487 6.313-6.487H234.25" mask="url(#nctacw9mnd)"/>
                    <path fill="#FEFEFE" d="M86.312 180.133L156.168 180.133 156.168 173.323 86.312 173.323zM222.532 139.397h-6.623v-29.024c0-9.619-7.61-17.442-16.964-17.442-9.357 0-16.969 7.823-16.969 17.442v29.024h-6.621v-29.024c0-13.373 10.582-24.25 23.59-24.25 13.004 0 23.587 10.877 23.587 24.25v29.024z" mask="url(#nctacw9mnd)"/>
                    <path fill="#231916" d="M216.387 138.918h5.666v-28.545c0-13.109-10.365-23.772-23.107-23.772-12.745 0-23.113 10.663-23.113 23.772v28.545h5.663v-28.545c0-9.882 7.828-17.92 17.45-17.92 9.617 0 17.441 8.038 17.441 17.92v28.545zm6.624.958h-7.58v-29.503c0-9.354-7.397-16.963-16.486-16.963-9.094 0-16.49 7.61-16.49 16.963v29.503h-7.58v-29.503c0-13.636 10.798-24.73 24.07-24.73 13.27 0 24.066 11.094 24.066 24.73v29.503z" mask="url(#nctacw9mnd)"/>
                    <path fill="#231916" d="M233.967 160.48c0 19.886-15.68 36.002-35.021 36.002-19.343 0-35.026-16.116-35.026-36.003 0-19.882 15.683-36.002 35.026-36.002 19.342 0 35.02 16.12 35.02 36.002" mask="url(#nctacw9mnd)"/>
                    <path fill="#FEFEFE" d="M198.945 125.434c-18.785 0-34.067 15.721-34.067 35.045s15.282 35.046 34.067 35.046c18.784 0 34.064-15.722 34.064-35.046 0-19.324-15.28-35.045-34.064-35.045m0 72.006c-19.84 0-35.982-16.58-35.982-36.96 0-20.38 16.142-36.96 35.982-36.96s35.98 16.58 35.98 36.96c0 20.38-16.14 36.96-35.98 36.96" mask="url(#nctacw9mnd)"/>
                    <path fill="#FEFEFE" d="M209.002 152.555c0 5.712-4.504 10.341-10.057 10.341-5.558 0-10.06-4.629-10.06-10.341 0-5.711 4.502-10.339 10.06-10.339 5.553 0 10.057 4.628 10.057 10.339" mask="url(#nctacw9mnd)"/>
                    <path fill="#FEFEFE" d="M198.945 178.745L206.391 178.745 203.535 161.48 194.35 161.48 191.494 178.745zM106.103 135.2c-.146 3.517-3.036 6.248-6.458 6.097-3.422-.151-6.077-3.123-5.932-6.64.147-3.517 3.038-6.247 6.46-6.098 3.423.152 6.076 3.124 5.93 6.642" mask="url(#nctacw9mnd)"/>
                    <path fill="#231916" d="M99.905 129.033c-1.405 0-2.748.525-3.803 1.494-1.165 1.07-1.843 2.544-1.909 4.15-.135 3.247 2.32 6.002 5.473 6.141 1.512.067 2.932-.462 4.05-1.486 1.164-1.069 1.842-2.544 1.908-4.151l.48.02-.48-.02c.135-3.248-2.319-6.003-5.47-6.144-.083-.003-.167-.004-.249-.004m.013 12.748c-.099 0-.197-.002-.294-.007-3.679-.161-6.544-3.364-6.389-7.137.08-1.862.866-3.572 2.22-4.816 1.305-1.2 3-1.805 4.74-1.74 3.68.163 6.542 3.366 6.387 7.139-.078 1.863-.866 3.575-2.22 4.818-1.233 1.13-2.8 1.743-4.444 1.743" mask="url(#nctacw9mnd)"/>
                    <path fill="#FEFEFE" d="M136.368 135.2c.146 3.517 3.038 6.248 6.46 6.097 3.423-.151 6.079-3.123 5.932-6.64-.15-3.517-3.04-6.247-6.46-6.098-3.421.152-6.078 3.124-5.932 6.642" mask="url(#nctacw9mnd)"/>
                    <path fill="#231916" d="M136.847 135.181c.065 1.606.744 3.081 1.91 4.15 1.116 1.023 2.52 1.555 4.05 1.486 3.153-.138 5.61-2.893 5.473-6.14-.068-1.608-.746-3.08-1.912-4.15-1.116-1.027-2.558-1.554-4.048-1.489-3.153.14-5.608 2.895-5.473 6.143m5.708 6.6c-1.645 0-3.213-.613-4.446-1.745-1.354-1.243-2.14-2.953-2.22-4.816-.155-3.773 2.71-6.976 6.39-7.14 1.701-.07 3.431.541 4.737 1.74 1.353 1.242 2.143 2.954 2.222 4.817.16 3.773-2.708 6.975-6.389 7.138-.098.004-.197.006-.294.006" mask="url(#nctacw9mnd)"/>
                    <path fill="#FEFEFE" d="M144.003 126.268V111.44l9.63 6.17-9.63 8.66zm-55.155-8.66l9.482-6.078v14.608l-9.482-8.53zm79.51-1.228c-.145-1.79-1.097-3.41-2.586-4.36l-27.74-17.756c-2.771-2.25-6.34-3.94-10.386-4.819v-6.47h-12.908v6.47c-4.24.918-7.976 2.728-10.797 5.14L76.7 112.02c-1.48.95-2.441 2.57-2.577 4.36-.146 1.79.544 3.538 1.855 4.718l17.752 15.968 4.6-5.399v31.556h45.673v-31.726l4.739 5.57 17.752-15.969c1.31-1.18 2.003-2.929 1.864-4.718z" mask="url(#nctacw9mnd)"/>
                    <path fill="#231916" d="M89.635 117.674l8.217 7.39v-12.658l-8.217 5.268zm9.174 9.54l-10.748-9.67 10.748-6.89v16.56zm45.674-14.898v12.879l8.363-7.521-8.363-5.358zm-.958 15.027v-16.778l10.896 6.98-10.896 9.798zm-44.716 35.402h44.716v-32.55l5.262 6.187 17.387-15.64c1.195-1.074 1.833-2.691 1.708-4.323-.135-1.641-1.02-3.135-2.368-3.994l-27.738-17.758c-2.804-2.272-6.328-3.905-10.231-4.754l-.378-.082v-6.376h-11.95v6.376l-.377.082c-4.115.89-7.777 2.632-10.588 5.035l-27.294 17.476c-1.352.868-2.233 2.36-2.358 3.993-.133 1.633.5 3.25 1.698 4.325l17.387 15.64 5.124-6.014v32.377zm45.674.957H97.852v-30.735l-4.077 4.785-18.117-16.297c-1.418-1.275-2.17-3.186-2.012-5.114.146-1.927 1.19-3.695 2.797-4.723l27.24-17.436c2.795-2.394 6.46-4.172 10.577-5.12v-6.565h13.864v6.565c3.9.902 7.424 2.569 10.21 4.83l27.696 17.726c1.599 1.019 2.649 2.785 2.805 4.723v.003c.15 1.927-.605 3.838-2.021 5.11l-18.117 16.299-4.214-4.953v30.902z" mask="url(#nctacw9mnd)"/>
                    <path fill="#231916" d="M88.902 132.72L88.187 132.082 95.638 123.72 96.353 124.358zM153.573 132.72L146.12 124.358 146.835 123.72 154.288 132.082zM121.185 94.267c-.094 0-.186-.026-.268-.082l-6.443-4.349c-.219-.148-.276-.445-.129-.664.148-.22.447-.277.664-.129l6.444 4.35c.218.146.276.444.128.663-.09.137-.243.211-.396.211" mask="url(#nctacw9mnd)"/>
                    <path fill="#231916" d="M121.267 94.267c-.153 0-.303-.073-.396-.209-.148-.218-.092-.517.126-.666l6.382-4.348c.22-.149.517-.094.666.126.148.218.092.516-.127.665l-6.38 4.35c-.084.055-.177.082-.27.082M116.363 98.082c-.224 0-.424-.158-.469-.385l-1.622-8.163c-.052-.26.116-.512.376-.563.268-.06.513.118.564.376l1.621 8.163c.052.26-.116.51-.376.563-.032.006-.064.009-.094.009" mask="url(#nctacw9mnd)"/>
                    <path fill="#231916" d="M116.363 98.082c-.142 0-.284-.063-.377-.185-.163-.21-.126-.51.084-.671l4.903-3.815c.208-.163.511-.126.672.084.163.209.125.51-.084.67l-4.904 3.816c-.088.068-.19.1-.294.1M126.172 98.082c-.03 0-.062-.003-.094-.01-.26-.051-.428-.302-.376-.562l1.62-8.163c.05-.258.287-.438.563-.376.26.05.429.303.376.563l-1.62 8.163c-.044.227-.244.385-.47.385" mask="url(#nctacw9mnd)"/>
                    <path fill="#231916" d="M126.172 98.082c-.104 0-.206-.033-.294-.101l-4.904-3.815c-.21-.161-.246-.462-.084-.671.16-.21.46-.247.672-.084l4.903 3.815c.21.16.247.462.085.67-.094.123-.236.186-.378.186M121.185 99.234c-.124 0-.245-.047-.34-.142l-2.74-2.754c-.186-.187-.186-.49.001-.677.19-.186.49-.186.68.002l2.74 2.755c.184.187.184.49-.003.676-.093.093-.217.14-.338.14" mask="url(#nctacw9mnd)"/>
                    <path fill="#231916" d="M121.185 99.234c-.122 0-.245-.047-.339-.14-.186-.187-.186-.489 0-.676l2.742-2.755c.187-.188.491-.188.677-.002.188.187.188.49 0 .677l-2.742 2.754c-.093.095-.215.142-.338.142" mask="url(#nctacw9mnd)"/>
                    <path fill="#231916" d="M117.119 126.93c-.02 0-.037-.002-.056-.003-.261-.032-.451-.27-.42-.533l3.329-28.439c.03-.263.267-.447.53-.42.263.03.45.27.42.532l-3.327 28.44c-.03.243-.237.422-.476.422M125.253 126.93c-.24 0-.446-.18-.475-.423l-3.327-28.32c-.032-.263.157-.5.419-.531.249-.035.5.157.53.42l3.329 28.319c.03.263-.158.5-.42.532l-.056.002" mask="url(#nctacw9mnd)"/>
                    <path fill="#231916" d="M121.185 131.845c-.139 0-.275-.059-.368-.174l-4.067-4.915c-.168-.204-.14-.505.064-.674.204-.167.505-.141.673.064l4.066 4.915c.168.204.141.505-.063.674-.09.073-.197.11-.305.11" mask="url(#nctacw9mnd)"/>
                    <path fill="#231916" d="M121.185 131.845c-.108 0-.215-.037-.305-.11-.204-.169-.232-.471-.063-.674l4.067-4.915c.168-.206.472-.23.674-.064.203.169.231.471.064.674l-4.069 4.915c-.094.115-.23.174-.368.174" mask="url(#nctacw9mnd)"/>
                    <path fill="#FEFEFE" d="M134.34 105.787s-2.301 2.658-5.752 2.658v7.675s1.32 4.35 5.753 4.35" mask="url(#nctacw9mnd)"/>
                    <path fill="#231916" d="M134.34 120.948c-4.732 0-6.195-4.642-6.21-4.69-.013-.045-.02-.093-.02-.138v-7.675c0-.265.214-.48.478-.48 3.194 0 5.37-2.468 5.393-2.492.172-.2.472-.222.674-.049.199.173.22.476.047.675-.095.111-2.278 2.587-5.635 2.808v7.136c.18.532 1.493 3.947 5.274 3.947.264 0 .479.215.479.48 0 .264-.215.478-.48.478" mask="url(#nctacw9mnd)"/>
                    <path fill="#FEFEFE" d="M134.34 105.787s2.304 2.658 5.756 2.658v7.675s-1.323 4.35-5.755 4.35" mask="url(#nctacw9mnd)"/>
                    <path fill="#231916" d="M134.34 120.948c-.263 0-.478-.213-.478-.478 0-.266.215-.48.479-.48 3.78 0 5.095-3.414 5.276-3.947v-7.136c-3.36-.22-5.542-2.697-5.636-2.807-.174-.2-.152-.501.047-.674.2-.172.502-.154.674.046.023.026 2.21 2.494 5.394 2.494.264 0 .479.214.479.479v7.675c0 .046-.007.093-.02.138-.016.047-1.484 4.69-6.214 4.69" mask="url(#nctacw9mnd)"/>
                    <path fill="#FEFEFE" d="M150.677 60.7v2.319c0 3.52-1.84 6.519-4.456 7.749-.809.37-1.692.579-2.626.579h-.458V52.381h.458c3.918 0 7.082 3.72 7.082 8.319" mask="url(#nctacw9mnd)"/>
                    <path fill="#231916" d="M143.137 76.057v7.609h-14.5c2.537-1.74 4.784-4.35 6.613-7.61h7.887z" mask="url(#nctacw9mnd)"/>
                    <path fill="#231916" d="M143.137 71.347v4.71h-7.887c2.1-3.74 3.637-8.318 4.395-13.408v8.698h3.492z" mask="url(#nctacw9mnd)"/>
                    <path fill="#FEFEFE" d="M143.137 52.38v18.968h-3.492V52.38l.613-5.428c0-9.617-7.178-17.357-15.97-17.357v-2.56h.33c10.225 0 18.52 8.529 18.52 19.068v6.278z" mask="url(#nctacw9mnd)"/>
                    <path fill="#231916" d="M140.259 46.952l-.613 5.429v3.72h-.691c-17.828 0-27.875-10.988-27.875-10.988s1.03 7.129-8.227 12.797v-5.53l-.301-5.428c0-9.618 7.139-17.357 15.92-17.357h5.816c8.793 0 15.97 7.739 15.97 17.357" mask="url(#nctacw9mnd)"/>
                    <path fill="#FEFEFE" d="M114.28 62.76c0-1-.778-1.81-1.75-1.81-.974 0-1.77.81-1.77 1.81s.796 1.82 1.77 1.82c.972 0 1.75-.82 1.75-1.82m9.3 12.677c0-1.34-1.043-2.419-2.346-2.419-1.304 0-2.344 1.08-2.344 2.42 0 1.34 1.04 2.42 2.344 2.42 1.303 0 2.345-1.08 2.345-2.42m7.371-12.679c0-1-.787-1.81-1.77-1.81-.963 0-1.75.81-1.75 1.81s.787 1.82 1.75 1.82c.983 0 1.77-.82 1.77-1.82m4.3 13.298c-1.829 3.26-4.075 5.87-6.614 7.61-2.266 1.558-4.755 2.42-7.373 2.42-2.616 0-5.105-.862-7.373-2.43-5.436-3.74-9.579-11.5-11.038-21.007v-4.74c9.258-5.669 8.228-12.797 8.228-12.797s10.047 10.988 27.875 10.988h.69v6.55c-.758 5.088-2.295 9.667-4.395 13.406" mask="url(#nctacw9mnd)"/>
                    <path fill="#231916" d="M129.18 60.95c.982 0 1.77.81 1.77 1.81 0 .998-.788 1.819-1.77 1.819-.963 0-1.75-.82-1.75-1.82s.787-1.81 1.75-1.81" mask="url(#nctacw9mnd)"/>
                    <path fill="#FEFEFE" d="M124.288 27.035v2.56h-5.816c-8.782 0-15.92 7.74-15.92 17.357l.3 5.428v18.967H99.37V46.102c0-10.539 8.278-19.067 18.518-19.067h6.4z" mask="url(#nctacw9mnd)"/>
                    <path fill="#231916" d="M121.234 73.018c1.303 0 2.345 1.079 2.345 2.419s-1.042 2.42-2.345 2.42c-1.304 0-2.344-1.08-2.344-2.42 0-1.34 1.04-2.42 2.344-2.42M113.89 83.656v.01H99.37V71.347h3.483V62.65c1.46 9.507 5.601 17.267 11.038 21.006M112.53 60.95c.972 0 1.75.81 1.75 1.81 0 .998-.778 1.819-1.75 1.819-.974 0-1.77-.82-1.77-1.82s.796-1.81 1.77-1.81" mask="url(#nctacw9mnd)"/>
                    <path fill="#FEFEFE" d="M99.37 52.38v18.968h-.468c-3.91 0-7.042-3.72-7.042-8.328V60.7c0-4.6 3.133-8.32 7.042-8.32h.468z" mask="url(#nctacw9mnd)"/>
                    <path fill="#231916" d="M121.263 86.565c-2.663 0-5.235-.847-7.645-2.515-5.576-3.836-9.778-11.81-11.24-21.327-.038-.262.14-.506.401-.546.248-.04.507.139.547.4 1.42 9.263 5.472 16.996 10.836 20.685 4.492 3.11 9.694 3.114 14.203.009 2.466-1.69 4.642-4.196 6.468-7.448 2.107-3.753 3.607-8.333 4.339-13.243.038-.262.27-.448.543-.403.263.038.442.282.403.543-.749 5.026-2.287 9.719-4.451 13.572-1.899 3.38-4.173 5.995-6.76 7.769-2.415 1.66-4.986 2.504-7.644 2.504M102.852 58.389c-.16 0-.318-.081-.408-.229-.138-.225-.068-.52.157-.658 8.853-5.421 8.043-12.042 8.005-12.322-.029-.208.081-.41.27-.499.187-.091.413-.046.557.108.1.109 10.128 10.833 27.522 10.833.263 0 .478.214.478.479s-.215.479-.478.479c-14.913 0-24.552-7.713-27.369-10.307-.12 2.352-1.258 7.621-8.484 12.046-.078.048-.164.07-.25.07" mask="url(#nctacw9mnd)"/>
                    <path fill="#231916" d="M143.137 84.144h-14.5c-.264 0-.48-.214-.48-.479s.215-.479.48-.479h14.02V46.102c0-10.249-8.092-18.588-18.039-18.588h-6.73c-9.947 0-18.04 8.34-18.04 18.588v37.084h14.043c.263 0 .478.214.478.48 0 .264-.215.478-.478.478H99.368c-.263 0-.478-.214-.478-.479V46.102c0-10.778 8.52-19.546 18.996-19.546h6.731c10.477 0 18.998 8.768 18.998 19.546v37.563c0 .265-.216.48-.48.48" mask="url(#nctacw9mnd)"/>
                    <path fill="#231916" d="M102.852 71.826h-3.95c-4.147 0-7.52-3.95-7.52-8.806V60.7c0-4.852 3.373-8.797 7.52-8.797h.468c.263 0 .478.214.478.477 0 .265-.215.48-.478.48h-.468c-3.619 0-6.564 3.517-6.564 7.84v2.32c0 4.327 2.945 7.848 6.564 7.848h3.471V52.382c0-.264.215-.478.48-.478.263 0 .478.214.478.477v18.967c0 .266-.215.48-.479.48M143.595 71.826h-3.95c-.264 0-.48-.213-.48-.478V52.38c0-.264.216-.477.48-.477.263 0 .478.214.478.477v18.488h3.472c.834 0 1.65-.18 2.427-.535 2.536-1.192 4.175-4.064 4.175-7.313V60.7c0-4.324-2.963-7.84-6.602-7.84h-.458c-.264 0-.478-.215-.478-.48 0-.264.214-.477.478-.477h.458c4.17 0 7.56 3.946 7.56 8.797v2.32c0 3.62-1.857 6.83-4.73 8.181-.907.417-1.858.626-2.83.626" mask="url(#nctacw9mnd)"/>
                    <path fill="#231916" d="M146.22 77.015c-.529 0-.957-.43-.957-.958v-5.29c0-.528.428-.957.957-.957.53 0 .959.429.959.958v5.289c0 .529-.43.958-.959.958" mask="url(#nctacw9mnd)"/>
                    <path fill="#231916" d="M146.22 77.015h-21.076c-.529 0-.958-.43-.958-.958 0-.53.43-.958.958-.958h21.076c.53 0 .959.429.959.958 0 .529-.43.958-.959.958M139.645 52.86l-.055-.003c-.26-.03-.45-.268-.42-.53l.613-5.428c-.003-9.253-6.953-16.825-15.495-16.825h-5.817c-8.513 0-15.44 7.572-15.44 16.879l.3 5.402c.013.264-.189.49-.453.504-.247.032-.49-.188-.504-.452l-.302-5.428c0-9.862 7.356-17.863 16.4-17.863h5.816c9.071 0 16.45 8 16.45 17.837l-.618 5.482c-.027.244-.234.425-.475.425M121.233 73.497c-1.028 0-1.864.87-1.864 1.94 0 1.07.836 1.942 1.864 1.942 1.03 0 1.867-.871 1.867-1.942 0-1.07-.838-1.94-1.867-1.94m0 4.839c-1.556 0-2.822-1.3-2.822-2.9 0-1.597 1.266-2.897 2.822-2.897 1.56 0 2.824 1.3 2.824 2.898 0 1.599-1.265 2.899-2.824 2.899M120.981 70.677c-1.283 0-2.327-1.072-2.327-2.388 0-1.149.793-2.111 1.848-2.338v-4.162c0-.264.215-.478.48-.478.263 0 .478.214.478.478v4.59c0 .265-.215.479-.479.479-.756 0-1.369.641-1.369 1.431 0 .789.613 1.43 1.37 1.43.263 0 .478.215.478.479 0 .265-.215.479-.479.479M110.602 59.099c-.254 0-.465-.2-.479-.456-.012-.263.191-.487.455-.501l3.833-.19c.315-.048.49.19.503.455.012.264-.19.488-.455.5l-3.833.19c-.008.002-.016.002-.024.002M131.095 59.099l-.024-.001-3.82-.19c-.264-.013-.468-.237-.456-.501.014-.256.225-.455.48-.455h.023l3.821.19c.264.014.469.238.456.5-.013.258-.224.457-.48.457M97.851 131.667L98.808 131.667 98.808 125.966 97.851 125.966zM143.324 131.674L144.681 131.674 144.681 126.269 143.324 126.269zM120.707 163.223L121.664 163.223 121.664 131.366 120.707 131.366z" mask="url(#nctacw9mnd)"/>
                </g>
            </g>
        </g>
    </g>
</svg>
