<svg xmlns="http://www.w3.org/2000/svg" xmlns:xlink="http://www.w3.org/1999/xlink" width="270" height="336" viewBox="0 0 270 336">
    <defs>
        <path id="04sx0xy21a" d="M0 222L241.708 222 241.708 0.687 0 0.687z"/>
    </defs>
    <g fill="none" fill-rule="evenodd">
        <g>
            <g transform="translate(-1297 -452) translate(1297 452)">
                <rect width="270" height="336" fill="#FFF" rx="2"/>
                <g>
                    <path fill="#C8C9C9" d="M226.704 117.304c0 56.589-45.873 102.463-102.463 102.463-56.589 0-102.464-45.874-102.464-102.463 0-56.589 45.875-102.463 102.464-102.463 56.59 0 102.463 45.874 102.463 102.463" transform="translate(14 77)"/>
                    <path fill="#FEFEFE" d="M0.479 204.163L241.23 204.163 241.23 16.922 0.479 16.922z" transform="translate(14 77)"/>
                    <path fill="#231916" d="M0 204.642h241.708V16.443H0v188.199zm.957-.958H240.75V17.4H.957v186.284z" transform="translate(14 77)"/>
                    <path fill="#231916" d="M0 187.739h214.723V34.213H0v153.526zm.957-.958h212.809V35.17H.957v151.611z" transform="translate(14 77)"/>
                    <path fill="#231916" d="M0 176.901h199.966V44.615H0v132.286zm.957-.958h198.052V45.572H.957v130.371z" transform="translate(14 77)"/>
                    <path fill="#231916" d="M0 169.965h190.266V51.549H0v118.416zm.957-.958H189.31v-116.5H.957v116.5z" transform="translate(14 77)"/>
                    <path fill="#231916" d="M181.512 56.4L182.047 57.195 241.496 17.318 240.962 16.524zM181.517 165.554L240.967 204.564 241.491 203.763 182.041 164.754z" transform="translate(14 77)"/>
                    <path fill="#231916" d="M0 165.632h182.258V56.318H0v109.314zm.957-.957h180.344V57.276H.957v107.399z" transform="translate(14 77)"/>
                    <path fill="#231916" d="M152.016 57.086L151.252 56.508 181.398 16.632 182.162 17.21zM181.628 83.646L181.93 84.553 241.381 64.618 241.077 63.711zM.479 111.235L241.23 111.235 241.23 110.277.479 110.277z" transform="translate(14 77)"/>
                    <path fill="#231916" d="M.479 84.579L181.779 84.579 181.779 83.621.479 83.621zM181.63 138.412L241.079 157.913 241.379 157.004 181.929 137.502z" transform="translate(14 77)"/>
                    <path fill="#231916" d="M0.479 138.436L181.779 138.436 181.779 137.478 0.479 137.478z" transform="translate(14 77)"/>
                    <path fill="#231916" d="M120.586 204.163L121.544 204.163 121.544 16.921 120.586 16.921zM151.155 165.154L152.113 165.154 152.113 56.797 151.155 56.797z" transform="translate(14 77)"/>
                    <path fill="#231916" d="M179.496 204.443L151.246 165.434 152.02 164.873 180.269 203.882zM90.749 57.088L60.286 17.212 61.045 16.63 91.509 56.506z" transform="translate(14 77)"/>
                    <path fill="#231916" d="M90.651 165.154L91.608 165.154 91.608 56.797 90.651 56.797z" transform="translate(14 77)"/>
                    <path fill="#231916" d="M61.043 204.457L60.287 203.868 90.751 164.858 91.507 165.448zM.215 17.32L60.402 57.196 60.929 56.398.742 16.522z" transform="translate(14 77)"/>
                    <path fill="#231916" d="M60.187 165.154L61.145 165.154 61.145 56.797 60.187 56.797z" transform="translate(14 77)"/>
                    <path fill="#231916" d="M.219 203.76L.738 204.565 60.926 165.555 60.406 164.75zM.258 38.583L36.097 57.221 36.538 56.371.699 37.734z" transform="translate(14 77)"/>
                    <path fill="#231916" d="M35.839 165.154L36.797 165.154 36.797 56.797 35.839 56.797z" transform="translate(14 77)"/>
                    <path fill="#231916" d="M.264 182.711L.694 183.568 36.532 165.581 36.103 164.725zM.302 52.474L12.422 57.242 12.774 56.352.654 51.583z" transform="translate(14 77)"/>
                    <path fill="#231916" d="M12.119 165.154L13.077 165.154 13.077 56.797 12.119 56.797z" transform="translate(14 77)"/>
                    <path fill="#231916" d="M0.318 169.037L0.64 169.938 12.76 165.604 12.438 164.704z" transform="translate(14 77)"/>
                    <g transform="translate(14 77) translate(0 .313)">
                        <path fill="#FEFEFE" d="M88.967 96.826c-.887 0-1.772-.21-2.596-.635L46.515 75.558l5.192-10.604 36.66 18.977 15.23-11.739 6.928 9.498L92.43 95.637c-1.018.786-2.236 1.188-3.464 1.188"/>
                        <path fill="#231916" d="M47.15 75.348l39.441 20.417c1.788.925 3.966.716 5.546-.506l17.725-13.664-6.362-8.724-15.08 11.625-36.498-18.892-4.771 9.744zm41.816 21.957c-.982 0-1.928-.232-2.813-.69L45.879 75.77l5.613-11.464.436.224 36.39 18.836 15.376-11.851 7.492 10.27-18.464 14.233c-1.072.83-2.406 1.288-3.755 1.288z"/>
                        <path fill="#FEFEFE" d="M46.574 64.797c-3.142 3.502-2.042 9.794 2.454 14.079 4.504 4.248 10.71 4.883 13.848 1.383 3.138-3.503 2.023-9.797-2.477-14.062-4.5-4.268-10.686-4.883-13.825-1.4"/>
                        <path fill="#231916" d="M46.932 65.117c-2.961 3.298-1.872 9.316 2.428 13.411 2.452 2.316 5.618 3.634 8.429 3.506 1.938-.08 3.575-.805 4.73-2.096 2.959-3.3 1.86-9.31-2.448-13.394-2.375-2.254-5.287-3.525-8.044-3.525-.118 0-.234.003-.348.008-1.943.075-3.584.797-4.747 2.09M57.419 83c-3.004 0-6.16-1.363-8.72-3.779-4.67-4.45-5.783-11.064-2.482-14.745.002 0 .002 0 .002-.002 1.342-1.486 3.216-2.32 5.422-2.405 3.073-.148 6.425 1.254 9.088 3.78 4.682 4.437 5.806 11.044 2.505 14.729-1.334 1.487-3.204 2.322-5.406 2.413-.136.007-.273.01-.41.01"/>
                        <path fill="#FEFEFE" d="M185.89 105.427l-21.814 8.481c-2.271.885-4.837.211-6.42-1.681L133.56 83.422l8.757-7.739 21.46 25.651 18.03-7.01 4.085 11.103z"/>
                        <path fill="#231916" d="M134.225 83.472l23.798 28.448c1.444 1.73 3.809 2.347 5.879 1.542l21.377-8.31-3.753-10.205-17.896 6.957-.22-.263-21.146-25.274-8.04 7.105zm27.817 31.297c-1.792 0-3.544-.789-4.753-2.235l-24.395-29.163 9.475-8.373 21.553 25.765 18.164-7.062 4.416 12.001-22.253 8.652c-.718.28-1.466.415-2.207.415z"/>
                        <path fill="#FEFEFE" d="M195.339 89.453c-3-3.628-9.209-3.278-13.893.796-4.649 4.077-6.018 10.329-3.018 13.959 3 3.63 9.213 3.259 13.881-.818 4.665-4.074 6.015-10.312 3.03-13.937"/>
                        <path fill="#231916" d="M189.562 87.425c-2.643 0-5.446 1.137-7.801 3.185-4.46 3.91-5.791 9.875-2.965 13.294 1.112 1.344 2.724 2.138 4.663 2.295 2.843.232 5.96-.923 8.537-3.17 4.459-3.894 5.792-9.847 2.975-13.271-1.115-1.348-2.73-2.143-4.674-2.303-.243-.02-.488-.03-.735-.03m-5.38 19.76c-.268 0-.534-.01-.8-.031-2.203-.18-4.043-1.092-5.322-2.641-3.153-3.814-1.775-10.374 3.07-14.624 2.77-2.41 6.147-3.642 9.245-3.39 2.208.182 4.052 1.098 5.333 2.649 3.146 3.82 1.762 10.37-3.084 14.603-2.53 2.209-5.562 3.435-8.441 3.435"/>
                        <mask id="h5x9w012bb" fill="#fff">
                            <use xlink:href="#04sx0xy21a"/>
                        </mask>
                        <path fill="#FEFEFE" d="M105.844 215.457L112.615 215.457 112.615 207.553 105.844 207.553z" mask="url(#h5x9w012bb)"/>
                        <path fill="#231916" d="M106.323 214.978h5.813v-6.946h-5.813v6.946zm6.292.957h-6.77c-.264 0-.479-.214-.479-.478v-7.904c0-.265.215-.479.479-.479h6.77c.264 0 .479.214.479.479v7.904c0 .264-.215.478-.479.478z" mask="url(#h5x9w012bb)"/>
                        <path fill="#FEFEFE" d="M108.328 209.959h-4.766s-2.255 2.439-2.898 3.95c-.644 1.509-7.538-1.745-7.538 4.878v1.277h22.998v-5.925s-.386-4.18-2.573-4.18h-1.359l-3.797 3.019-.067-3.02z" mask="url(#h5x9w012bb)"/>
                        <path fill="#231916" d="M93.606 219.585h22.04v-5.446c-.002 0-.396-3.7-2.095-3.7h-1.191l-3.666 2.914c-.143.111-.335.134-.502.058-.164-.077-.271-.24-.274-.423l-.057-2.55h-4.086c-.494.55-2.156 2.451-2.67 3.66-.334.781-1.398.763-2.59.755-1.33-.018-2.984-.037-3.963.928-.63.621-.946 1.632-.946 3.006v.798zm22.519.958H93.127c-.264 0-.48-.214-.48-.479v-1.277c0-1.64.416-2.88 1.233-3.687 1.263-1.247 3.21-1.219 4.647-1.205.56.01 1.615.02 1.696-.174.669-1.569 2.896-3.985 2.988-4.088.092-.097.219-.153.352-.153h4.766c.259 0 .473.208.479.468l.045 2.054 3.043-2.418c.084-.068.189-.104.297-.104h1.358c2.596 0 3.034 4.427 3.05 4.615l.002 5.97c0 .264-.215.478-.478.478z" mask="url(#h5x9w012bb)"/>
                        <path fill="#FEFEFE" d="M93.126 221.521L116.124 221.521 116.124 220.064 93.126 220.064z" mask="url(#h5x9w012bb)"/>
                        <path fill="#231916" d="M93.606 221.042h22.04v-.499h-22.04v.499zm-.958.958h23.955v-2.415H92.648V222z" mask="url(#h5x9w012bb)"/>
                        <path fill="#FEFEFE" d="M133.559 215.457L140.33 215.457 140.33 207.553 133.559 207.553z" mask="url(#h5x9w012bb)"/>
                        <path fill="#231916" d="M134.038 214.978h5.812v-6.946h-5.812v6.946zm6.291.957h-6.77c-.264 0-.479-.214-.479-.478v-7.904c0-.265.215-.479.479-.479h6.77c.264 0 .48.214.48.479v7.904c0 .264-.216.478-.48.478z" mask="url(#h5x9w012bb)"/>
                        <path fill="#FEFEFE" d="M137.846 209.959h4.766s2.252 2.439 2.898 3.95c.644 1.509 7.538-1.745 7.538 4.878v1.277H130.05v-5.925s.386-4.18 2.577-4.18h1.35l3.802 3.019.067-3.02z" mask="url(#h5x9w012bb)"/>
                        <path fill="#231916" d="M130.53 219.585h22.038v-.798c0-1.374-.317-2.385-.946-3.006-.98-.965-2.637-.946-3.963-.928-1.199.013-2.256.026-2.589-.756-.518-1.207-2.179-3.109-2.672-3.659h-4.085l-.056 2.55c-.004.182-.11.346-.275.423-.167.076-.359.053-.5-.058l-3.67-2.915h-1.184c-1.703 0-2.097 3.708-2.1 3.745l.001 5.402zm22.518.958H130.05c-.264 0-.479-.214-.479-.479v-5.925c.02-.232.456-4.659 3.057-4.659h1.35c.108 0 .213.036.297.104l3.047 2.42.045-2.056c.005-.26.22-.468.478-.468h4.766c.133 0 .262.056.352.154.093.102 2.315 2.518 2.987 4.086.082.195 1.135.185 1.698.175 1.417-.014 3.383-.042 4.646 1.205.817.807 1.232 2.047 1.232 3.687v1.277c0 .265-.215.48-.478.48z" mask="url(#h5x9w012bb)"/>
                        <path fill="#FEFEFE" d="M130.05 221.521L153.048 221.521 153.048 220.064 130.05 220.064z" mask="url(#h5x9w012bb)"/>
                        <path fill="#231916" d="M130.529 221.042h22.039v-.499h-22.039v.499zm-.958.958h23.955v-2.415h-23.955V222zM115.57 208.971L102.313 208.472 104.797 138.69 118.053 139.19zM130.522 208.971L128.039 139.19 141.295 138.69 143.779 208.472z" mask="url(#h5x9w012bb)"/>
                        <path fill="#231916" d="M104.598 149.946L141.694 149.946 141.694 138.69 104.598 138.69z" mask="url(#h5x9w012bb)"/>
                        <path fill="#FEFEFE" d="M129.848 65.39v-6.78h-13.515v6.774c-9.934 2.162-17.18 8.965-17.18 17.041v60.225h47.828V82.692c0-.108.04-.187.04-.267 0-8.069-7.26-14.868-17.173-17.035" mask="url(#h5x9w012bb)"/>
                        <path fill="#231916" d="M99.632 142.171h46.87V82.692c0-.115.022-.205.035-.265.006-7.593-6.901-14.406-16.792-16.569-.218-.048-.376-.243-.376-.468v-6.3h-12.556v6.293c0 .226-.158.42-.378.468-9.893 2.154-16.803 8.97-16.803 16.574v59.746zm47.349.958H99.153c-.264 0-.48-.214-.48-.479V82.425c0-7.96 7.047-15.084 17.182-17.425v-6.39c0-.264.214-.479.478-.479h13.516c.263 0 .478.215.478.48v6.397c10.13 2.35 17.173 9.47 17.173 17.417 0 .038-.022.19-.031.225l-.01 60c0 .265-.215.48-.478.48z" mask="url(#h5x9w012bb)"/>
                        <path fill="#FEFEFE" d="M133.894 66.497L137.689 75.681 123.48 74.934zM113.042 66.497L123.476 74.934 109.272 75.681z" mask="url(#h5x9w012bb)"/>
                        <path fill="#231916" d="M124.75 74.522l12.207.641-3.262-7.89-8.946 7.25zm12.938 1.637h-.024l-14.209-.747c-.198-.01-.37-.14-.43-.33-.062-.188 0-.394.154-.52l10.414-8.437c.117-.094.27-.129.42-.09.144.036.265.14.324.28l3.795 9.182c.061.153.043.326-.053.461-.09.126-.235.201-.39.201z" mask="url(#h5x9w012bb)"/>
                        <path fill="#231916" d="M113.24 67.274l-3.238 7.889 12.202-.64-8.965-7.25zm-3.968 8.886c-.155 0-.3-.075-.39-.202-.096-.134-.115-.307-.053-.458l3.768-9.184c.06-.14.178-.245.325-.282.143-.04.302-.005.421.092l10.434 8.437c.153.124.215.33.155.52-.062.189-.234.319-.432.33l-14.203.746h-.025z" mask="url(#h5x9w012bb)"/>
                        <path fill="#231916" d="M123.48 75.413c-.264 0-.48-.214-.48-.479s.212-.479.476-.479h.004c.264 0 .479.214.479.48 0 .264-.215.478-.48.478" mask="url(#h5x9w012bb)"/>
                        <path fill="#231916" d="M123.482 143.13c-.264 0-.48-.215-.48-.48V74.937c0-.265.216-.478.48-.478s.479.213.479.478v67.713c0 .265-.215.48-.48.48" mask="url(#h5x9w012bb)"/>
                        <path fill="#231916" d="M125.682 86.971c-.58 0-1.052.49-1.052 1.091s.472 1.092 1.052 1.092c.577 0 1.047-.491 1.047-1.092 0-.601-.47-1.091-1.047-1.091m0 3.14c-1.107 0-2.01-.919-2.01-2.049s.903-2.049 2.01-2.049c1.104 0 2.005.919 2.005 2.049s-.901 2.049-2.005 2.049M125.682 99.54c-.58 0-1.052.49-1.052 1.09 0 .602.472 1.091 1.052 1.091.577 0 1.047-.489 1.047-1.09 0-.602-.47-1.092-1.047-1.092m0 3.14c-1.107 0-2.01-.919-2.01-2.049 0-1.129.903-2.049 2.01-2.049 1.104 0 2.005.92 2.005 2.05s-.901 2.048-2.005 2.048M125.682 112.11c-.58 0-1.052.49-1.052 1.09 0 .603.472 1.092 1.052 1.092.577 0 1.047-.49 1.047-1.091s-.47-1.091-1.047-1.091m0 3.14c-1.107 0-2.01-.92-2.01-2.05 0-1.128.903-2.048 2.01-2.048 1.104 0 2.005.92 2.005 2.049 0 1.13-.901 2.049-2.005 2.049M125.682 124.678c-.58 0-1.052.49-1.052 1.09 0 .602.472 1.093 1.052 1.093.577 0 1.047-.492 1.047-1.093 0-.6-.47-1.09-1.047-1.09m0 3.14c-1.107 0-2.01-.92-2.01-2.05s.903-2.047 2.01-2.047c1.104 0 2.005.917 2.005 2.047 0 1.13-.901 2.05-2.005 2.05" mask="url(#h5x9w012bb)"/>
                        <path fill="#FEFEFE" d="M127.679 51.015h-8.413c0 2.382 1.876 4.324 4.207 4.324 2.328 0 4.206-1.942 4.206-4.324zm17.833-16.284v.026l-5.85 7.185v7.543c-.35 7.85-7.661 14.968-16.58 14.968-9.148 0-16.55-7.464-16.55-15.606v-6.905l-5.89-7.211h44.87z" mask="url(#h5x9w012bb)"/>
                        <path fill="#231916" d="M145.512 21.24v13.491h-44.87V20.442c.478-9.978 10.34-17.921 22.402-17.921 12.45 0 22.468 8.343 22.468 18.72" mask="url(#h5x9w012bb)"/>
                        <path fill="#FEFEFE" d="M119.266 51.015h8.413c0 2.382-1.878 4.324-4.206 4.324-2.331 0-4.207-1.942-4.207-4.324" mask="url(#h5x9w012bb)"/>
                        <path fill="#231916" d="M123.083 64.93c-8.955 0-16.563-6.93-17.01-15.305-.013-.045-.02-.091-.02-.14v-.638c0-.265.214-.48.478-.48s.48.215.48.48c0 8.058 7.51 15.126 16.072 15.126 8.377 0 15.75-6.644 16.1-14.51v-7.521c0-.11.037-.217.106-.302l5.744-7.053V20.442c0-.264.215-.48.48-.48.262 0 .477.216.477.48V34.73c0 .11-.037.243-.106.328l-5.743 7.054v7.372c-.372 8.383-8.185 15.446-17.058 15.446" mask="url(#h5x9w012bb)"/>
                        <path fill="#231916" d="M106.531 49.325c-.265 0-.479-.214-.479-.479v-6.732l-5.782-7.08c-.07-.085-.108-.192-.108-.303V20.442c.496-10.328 10.545-18.4 22.882-18.4 12.652 0 22.946 8.613 22.946 19.199 0 .265-.215.479-.479.479-.263 0-.478-.214-.478-.48 0-10.058-9.864-18.24-21.989-18.24-11.825 0-21.454 7.671-21.924 17.465V34.56l5.781 7.08c.071.085.11.191.11.303v6.904c0 .264-.216.478-.48.478M119.773 51.494c.23 1.896 1.8 3.367 3.699 3.367 1.899 0 3.47-1.471 3.7-3.367h-7.4zm3.699 4.324c-2.582 0-4.684-2.155-4.684-4.803 0-.265.214-.48.478-.48h8.413c.264 0 .479.215.479.48 0 2.648-2.103 4.803-4.686 4.803z" mask="url(#h5x9w012bb)"/>
                        <path fill="#231916" d="M145.512 35.41h-44.87c-.374 0-.68-.304-.68-.68 0-.374.306-.677.68-.677h44.87c.374 0 .679.303.679.678 0 .375-.305.679-.68.679" mask="url(#h5x9w012bb)"/>
                        <path fill="#FEFEFE" d="M100.653 22.213c.846 0 1.533.707 1.533 1.571V45.46c0 .866-.688 1.573-1.534 1.573h-1.728c-.845 0-1.534-.707-1.534-1.573V23.784c0-.864.69-1.57 1.534-1.57h1.728z" mask="url(#h5x9w012bb)"/>
                        <path fill="#231916" d="M100.653 22.213c.846 0 1.533.707 1.533 1.571V45.46c0 .866-.688 1.573-1.534 1.573h-1.728c-.845 0-1.534-.707-1.534-1.573V23.784c0-.864.69-1.57 1.534-1.57h1.728z" mask="url(#h5x9w012bb)"/>
                        <path fill="#231916" d="M98.925 22.892c-.472 0-.855.4-.855.892V45.46c0 .493.383.894.855.894h1.728c.47 0 .855-.4.855-.894V23.784c0-.492-.384-.892-.855-.892h-1.728zm1.728 24.82h-1.728c-1.22 0-2.213-1.01-2.213-2.253V23.784c0-1.24.993-2.25 2.213-2.25h1.728c1.219 0 2.212 1.01 2.212 2.25V45.46c0 1.242-.993 2.252-2.212 2.252z" mask="url(#h5x9w012bb)"/>
                        <path fill="#FEFEFE" d="M97.39 26.099v17.048c-3.406 0-6.186-3.827-6.186-8.525s2.78-8.523 6.187-8.523" mask="url(#h5x9w012bb)"/>
                        <path fill="#231916" d="M96.912 26.606c-2.925.344-5.229 3.808-5.229 8.016 0 4.209 2.304 7.674 5.23 8.018V26.606zm.48 17.02c-3.676 0-6.667-4.04-6.667-9.004 0-4.964 2.991-9.002 6.666-9.002.263 0 .478.215.478.479v17.048c0 .265-.215.479-.478.479z" mask="url(#h5x9w012bb)"/>
                        <path fill="#FEFEFE" d="M145.518 47.032c-.842 0-1.53-.707-1.53-1.573V23.784c0-.864.688-1.571 1.53-1.571h1.732c.84 0 1.534.707 1.534 1.571v21.675c0 .866-.693 1.573-1.534 1.573h-1.732z" mask="url(#h5x9w012bb)"/>
                        <path fill="#231916" d="M145.518 47.032c-.842 0-1.53-.707-1.53-1.573V23.784c0-.864.688-1.571 1.53-1.571h1.732c.84 0 1.534.707 1.534 1.571v21.675c0 .866-.693 1.573-1.534 1.573h-1.732z" mask="url(#h5x9w012bb)"/>
                        <path fill="#231916" d="M145.518 22.892c-.47 0-.851.4-.851.892V45.46c0 .493.38.894.85.894h1.733c.47 0 .855-.4.855-.894V23.784c0-.492-.384-.892-.855-.892h-1.732zm1.732 24.82h-1.732c-1.218 0-2.21-1.01-2.21-2.253V23.784c0-1.24.992-2.25 2.21-2.25h1.732c1.219 0 2.212 1.01 2.212 2.25V45.46c0 1.242-.993 2.252-2.212 2.252z" mask="url(#h5x9w012bb)"/>
                        <path fill="#FEFEFE" d="M148.783 43.147V26.099c3.411 0 6.184 3.825 6.184 8.523 0 4.7-2.773 8.525-6.184 8.525" mask="url(#h5x9w012bb)"/>
                        <path fill="#231916" d="M149.262 26.606V42.64c2.922-.344 5.226-3.81 5.226-8.018s-2.304-7.672-5.226-8.016m-.48 17.02c-.262 0-.477-.214-.477-.48V26.1c0-.264.215-.48.478-.48 3.674 0 6.663 4.039 6.663 9.003 0 4.965-2.99 9.004-6.663 9.004" mask="url(#h5x9w012bb)"/>
                        <path fill="#FEFEFE" d="M102.26 27.72c-1.01 0-1.832-.845-1.832-1.884V16.11c0-7.977 6.139-14.465 13.684-14.465h17.947c7.549 0 13.687 6.488 13.687 14.465v9.271c0 1.04-.82 1.886-1.833 1.886s-1.837-.845-1.837-1.886v-9.27c0-5.897-4.492-10.697-10.017-10.697h-17.947c-5.522 0-10.014 4.8-10.014 10.696v9.726c0 1.04-.82 1.885-1.837 1.885" mask="url(#h5x9w012bb)"/>
                        <path fill="#231916" d="M114.111 2.602c-7.018 0-12.726 6.06-12.726 13.509v9.724c0 .512.393.928.875.928.485 0 .88-.416.88-.928V16.11c0-6.426 4.92-11.654 10.971-11.654h17.947c6.053 0 10.976 5.228 10.976 11.654v9.27c0 .512.394.929.88.929.481 0 .874-.417.874-.928V16.11c0-7.45-5.71-13.51-12.73-13.51h-17.947zm-11.85 26.076c-1.54 0-2.79-1.275-2.79-2.843V16.11c0-8.505 6.568-15.424 14.64-15.424h17.947c8.074 0 14.645 6.919 14.645 15.424v9.27c0 1.568-1.25 2.844-2.79 2.844s-2.794-1.276-2.794-2.843V16.11c0-5.37-4.065-9.738-9.06-9.738H114.11c-4.994 0-9.056 4.368-9.056 9.738v9.724c0 1.568-1.254 2.843-2.795 2.843z" mask="url(#h5x9w012bb)"/>
                        <path fill="#FEFEFE" d="M146.212 30.006v9.232c0 .852-.13 1.664-.376 2.436l-5.993 1.93h-33.52v.012l-6.006-1.929c-.244-.772-.374-1.597-.374-2.449v-9.232c0-.852.13-1.677.374-2.448l6.006-1.93h33.52v-.013l5.993 1.93c.246.771.376 1.61.376 2.461" mask="url(#h5x9w012bb)"/>
                        <path fill="#231916" d="M145.836 27.545l-5.993-1.93v.013h-33.52l-6.006 1.93c1.011-3.286 4.026-5.668 7.561-5.668h30.426c3.507 0 6.511 2.382 7.532 5.655M139.843 43.603l5.993-1.929c-1.01 3.273-4.012 5.68-7.532 5.68h-30.426c-3.535 0-6.55-2.394-7.56-5.668l6.005 1.93v-.013h33.52z" mask="url(#h5x9w012bb)"/>
                        <path fill="#FEFEFE" d="M107.877 22.569c-3.179 0-5.956 2.084-6.91 5.188-.23.72-.345 1.476-.345 2.249v9.233c0 .773.114 1.528.343 2.243.944 3.06 3.785 5.194 6.912 5.194h30.427c3.108 0 5.94-2.138 6.883-5.202.23-.72.345-1.47.345-2.235v-9.233c0-.783-.116-1.542-.343-2.254v-.005c-.953-3.05-3.785-5.178-6.885-5.178h-30.427zm30.427 25.465h-30.427c-3.716 0-7.092-2.528-8.208-6.147-.268-.842-.404-1.735-.404-2.648v-9.233c0-.913.136-1.806.406-2.654 1.127-3.67 4.427-6.141 8.206-6.141h30.427c3.746 0 7.032 2.462 8.178 6.127.27.847.41 1.744.41 2.668v9.233c0 .906-.14 1.795-.41 2.642-1.116 3.62-4.479 6.153-8.178 6.153z" mask="url(#h5x9w012bb)"/>
                        <path fill="#FEFEFE" d="M100.317 28.237c-.285 0-.553-.183-.645-.471-.115-.358.082-.74.439-.854l6.004-1.93c.068-.021.138-.032.209-.032h33.404c.11-.02.218-.012.322.019l5.993 1.93c.357.115.553.497.438.854-.112.357-.493.553-.852.438l-5.851-1.883H106.43l-5.905 1.896c-.069.023-.139.033-.208.033M106.314 44.293c-.065 0-.133-.01-.198-.03l-6.005-1.93c-.358-.115-.554-.497-.44-.854.116-.357.503-.554.855-.438l5.863 1.883h33.348l5.89-1.897c.36-.115.742.082.854.44.116.355-.08.738-.438.853l-5.992 1.93c-.067.021-.136.032-.208.032h-33.405c-.041.007-.082.011-.124.011" mask="url(#h5x9w012bb)"/>
                    </g>
                </g>
            </g>
        </g>
    </g>
</svg>
