<svg xmlns="http://www.w3.org/2000/svg" xmlns:xlink="http://www.w3.org/1999/xlink" width="270" height="336" viewBox="0 0 270 336">
    <defs>
        <path id="37djvgme9a" d="M0 227L225.746 227 225.746 0 0 0z"/>
    </defs>
    <g fill="none" fill-rule="evenodd">
        <g>
            <g transform="translate(-1001 -452) translate(1001 452)">
                <rect width="270" height="336" fill="#FFF" rx="2"/>
                <g>
                    <path fill="#C8C9C9" d="M221.158 117.576c0 56.59-45.873 102.463-102.463 102.463-56.59 0-102.464-45.874-102.464-102.463 0-56.589 45.875-102.463 102.464-102.463 56.59 0 102.463 45.874 102.463 102.463" transform="translate(22 75)"/>
                    <path fill="#231916" d="M65.732 30.686L225.067 30.686 225.067 25.058 65.732 25.058z" transform="translate(22 75)"/>
                    <path fill="#231916" d="M65.052 31.364h160.694v-6.986H65.052v6.986zm1.358-1.357h157.978v-4.27H66.41v4.27zM65.732 156.491L225.067 156.491 225.067 150.862 65.732 150.862z" transform="translate(22 75)"/>
                    <path fill="#231916" d="M65.052 157.17h160.694v-6.987H65.052v6.987zm1.358-1.359h157.978v-4.27H66.41v4.27z" transform="translate(22 75)"/>
                    <path fill="#FEFEFE" d="M69.973 150.862L220.825 150.862 220.825 30.685 69.973 30.685z" transform="translate(22 75)"/>
                    <path fill="#231916" d="M70.452 150.383h149.895V31.164H70.452v119.219zm-.958.958h151.81V30.207H69.494v121.134zM141.49 166.91L149.308 166.91 149.308 152.914 141.49 152.914z" transform="translate(22 75)"/>
                    <path fill="#231916" d="M141.969 166.431h6.86v-13.038h-6.86v13.038zm-.957.957h8.775v-14.953h-8.775v14.953z" transform="translate(22 75)"/>
                    <path fill="#231916" d="M138.594 174.207L152.205 174.207 152.205 166.91 138.594 166.91z" transform="translate(22 75)"/>
                    <path fill="#231916" d="M139.072 173.728h12.654v-6.339h-12.654v6.339zm-.958.958h14.57v-8.255h-14.57v8.255z" transform="translate(22 75)"/>
                    <path fill="#231916" d="M143.527 221.851L147.357 221.851 147.357 173.159 143.527 173.159zM91.388 222.502L88.777 219.7 140.226 171.758 142.836 174.56zM199.498 222.502L148.048 174.56 150.659 171.758 202.109 219.7z" transform="translate(22 75)"/>
                    <path fill="#231916" d="M85.973 223.191L92.922 223.191 92.922 219.913 85.973 219.913z" transform="translate(22 75)"/>
                    <path fill="#231916" d="M86.451 222.712h5.992v-2.32h-5.992v2.32zm-.958.958h7.908v-4.235h-7.908v4.235zM141.968 223.191L148.917 223.191 148.917 219.913 141.968 219.913z" transform="translate(22 75)"/>
                    <path fill="#231916" d="M142.446 222.712h5.992v-2.32h-5.992v2.32zm-.958.958h7.908v-4.235h-7.908v4.235zM197.877 223.191L204.828 223.191 204.828 219.913 197.877 219.913z" transform="translate(22 75)"/>
                    <path fill="#231916" d="M198.355 222.712h5.994v-2.32h-5.994v2.32zm-.958.958h7.91v-4.235h-7.91v4.235z" transform="translate(22 75)"/>
                    <g transform="translate(22 75)">
                        <path fill="#231916" d="M83.715 104.199c.945 0 1.892-.222 2.767-.674l42.462-21.982-5.536-11.297-39.053 20.219-16.223-12.508-7.384 10.118 19.277 14.86c1.085.838 2.383 1.264 3.69 1.264"/>
                        <path fill="#231916" d="M61.686 87.941l18.753 14.457c1.64 1.264 3.896 1.47 5.732.523l41.871-21.675-4.939-10.078-38.82 20.098L68.27 78.92l-6.583 9.021zm22.028 16.937c-1.493 0-2.912-.486-4.103-1.405L59.812 88.21l8.184-11.216 16.43 12.67 39.286-20.338 6.133 12.515-43.05 22.287c-.953.491-2.016.751-3.08.751z"/>
                        <path fill="#FEFEFE" d="M130.317 69.601c3.348 3.73 2.177 10.433-2.615 14.998-4.799 4.526-11.405 5.204-14.753 1.473-3.344-3.732-2.158-10.437 2.639-14.982 4.795-4.547 11.384-5.202 14.729-1.489"/>
                        <path fill="#231916" d="M124.507 67.674c-2.943 0-6.052 1.357-8.59 3.763-4.603 4.362-5.775 10.785-2.61 14.316 1.24 1.382 2.99 2.159 5.064 2.245 3.07.114 6.343-1.24 9.002-3.747 4.591-4.375 5.752-10.803 2.588-14.329-1.246-1.385-3.002-2.159-5.08-2.24-.123-.005-.248-.008-.374-.008m-5.743 21.29c-.144 0-.287-.004-.434-.01-2.337-.097-4.32-.983-5.737-2.563-3.507-3.913-2.312-10.934 2.666-15.65 2.83-2.683 6.332-4.138 9.66-4.016 2.341.093 4.331.976 5.754 2.556 3.508 3.907 2.323 10.935-2.64 15.664-2.724 2.57-6.078 4.019-9.268 4.019M12.46 137.319L1.328 114.487c-1.16-2.38-.75-5.247 1.03-7.18L29.406 77.9l8.94 8.69-24.085 26.19 9.198 18.871-10.998 5.667z"/>
                        <path fill="#231916" d="M29.434 78.873L2.855 107.767c-1.584 1.72-1.952 4.3-.918 6.422l10.831 22.208 9.79-5.045-9.11-18.69L37.4 86.614l-7.966-7.742zm-17.28 59.366L.717 114.784c-1.277-2.619-.819-5.809 1.14-7.936l27.52-29.92 9.915 9.634-24.218 26.336 9.286 19.053-12.206 6.288z"/>
                        <path fill="#FEFEFE" d="M29.967 145.861c3.411-3.665 2.367-10.392-2.344-15.046-4.715-4.621-11.309-5.424-14.72-1.761-3.416 3.668-2.352 10.393 2.363 15.032 4.71 4.638 11.29 5.423 14.701 1.775"/>
                        <path fill="#231916" d="M18.556 127.233l-.206.002c-2.072.047-3.834.789-5.098 2.146-3.228 3.468-2.176 9.912 2.351 14.364 2.6 2.561 5.855 4.024 8.9 3.928 2.076-.041 3.844-.781 5.114-2.138 3.228-3.469 2.185-9.921-2.33-14.38-2.516-2.466-5.766-3.922-8.73-3.922zm5.753 21.401c-3.248 0-6.656-1.525-9.379-4.207-4.892-4.812-5.957-11.855-2.378-15.699 1.442-1.55 3.44-2.397 5.775-2.45 3.351-.083 6.835 1.453 9.631 4.194 4.88 4.822 5.94 11.871 2.36 15.716v.001c-1.45 1.549-3.455 2.394-5.795 2.442l-.214.003z"/>
                        <mask id="qj688lc3wb" fill="#fff">
                            <use xlink:href="#37djvgme9a"/>
                        </mask>
                        <path fill="#FEFEFE" d="M41.689 75.748L55.17 75.748 55.17 65.014 41.689 65.014z" mask="url(#qj688lc3wb)"/>
                        <path fill="#FEFEFE" d="M52.884 55.283c0-.491-.39-.893-.868-.893H49.77c-.315 0-.574.156-.726.402-.165-.246-.425-.402-.739-.402H46.06c-.477 0-.868.402-.868.893 0 .5.391.892.868.892h.411c-.27.145-.454.446-.454.78 0 .492.39.893.868.893h4.307c.48 0 .868-.401.868-.892 0-.335-.184-.636-.454-.781h.411c.478 0 .868-.391.868-.892m23.678-13.821v1.986c0 3.914-2.17 7.116-4.829 7.116h-3.115v1.908c-.239 4.65-3.202 9.057-7.063 12.304-3.854 3.246-8.617 5.32-12.437 5.32-2.234 0-4.838-.747-7.4-2.052-6.174-3.135-12.1-9.481-12.1-16.275v-1.205H26.961c-2.703 0-4.86-3.202-4.86-7.116v-1.986c0-3.681 1.92-6.682 4.404-7.006.151-.021.305-.033.456-.033h3.114l.456.68c-.173.168-.27.38-.27.602v3.827c0 3.124 3.568 5.589 8.018 5.589 4.406 0 8.02-2.465 8.02-5.59V38.44h6.412v1.093c0 3.124 3.614 5.589 8.02 5.589 4.448 0 8.018-2.465 8.018-5.59h.043v-3.826c0-.59-.727-1.092-1.595-1.092l1.724-.19h2.812c2.66 0 4.83 3.135 4.83 7.039" mask="url(#qj688lc3wb)"/>
                        <path fill="#231916" d="M68.921 30.563c0-9.024-8.68-16.252-19.423-16.252-.128 0-.248 0-.38.011V2.532l.035-2.053c12.489.011 22.58 9.035 22.58 20.08v13.864h-2.812v-3.86z" mask="url(#qj688lc3wb)"/>
                        <path fill="#FEFEFE" d="M49.119 14.322c.13-.011.25-.011.38-.011 10.743 0 19.423 7.228 19.423 16.252v3.86l-1.724.19H54.317c-.88 0-1.605.5-1.605 1.092v2.734h-6.413v-2.734c0-.591-.728-1.092-1.607-1.092H31.854c-.551 0-1.03.2-1.322.49l-.456-.68V29.86c.423-8.58 8.745-15.383 19.043-15.54" mask="url(#qj688lc3wb)"/>
                        <path fill="#FEFEFE" d="M68.793 35.705v3.827h-.043c0 3.123-3.57 5.59-8.02 5.59-4.404 0-8.018-2.467-8.018-5.59v-3.827c0-.59.727-1.093 1.605-1.093h12.88c.868 0 1.596.502 1.596 1.093" mask="url(#qj688lc3wb)"/>
                        <path fill="#231916" d="M52.016 54.39c.48 0 .868.402.868.893 0 .502-.389.892-.868.892h-.41c-.12-.067-.262-.111-.415-.111h-1.844c-.13-.068-.228-.167-.303-.291.075-.133.13-.312.13-.49 0-.18-.055-.346-.13-.491.152-.246.411-.402.726-.402h2.246z" mask="url(#qj688lc3wb)"/>
                        <path fill="#231916" d="M51.605 56.175c.271.145.454.446.454.781 0 .491-.389.892-.868.892h-4.307c-.477 0-.868-.401-.868-.892 0-.335.184-.636.454-.781h1.835c.152 0 .303-.045.423-.111h.62c.118.066.271.111.422.111h1.835z" mask="url(#qj688lc3wb)"/>
                        <path fill="#231916" d="M51.605 56.175H49.77c-.15 0-.304-.045-.423-.111h1.844c.153 0 .294.044.414.111M49.153.48l-.034 2.051v11.791c-10.298.156-18.62 6.96-19.043 15.538v4.563h-3.114c-.152 0-.305.012-.456.033V19.777C27.005 8.99 36.955.48 49.119.48h.034zM49.045 54.792c.074.145.129.312.129.491 0 .177-.055.356-.13.49-.087-.134-.142-.313-.142-.49 0-.179.055-.346.143-.49" mask="url(#qj688lc3wb)"/>
                        <path fill="#231916" d="M49.045 54.792c-.088.145-.143.312-.143.491 0 .177.055.356.143.49-.088.123-.186.223-.316.29h-1.844c-.152 0-.294.044-.414.112h-.411c-.477 0-.87-.39-.87-.892 0-.49.393-.893.87-.893h2.246c.314 0 .574.156.739.402" mask="url(#qj688lc3wb)"/>
                        <path fill="#231916" d="M46.884 56.064h1.844c-.12.066-.272.11-.423.11H46.47c.12-.066.263-.11.414-.11" mask="url(#qj688lc3wb)"/>
                        <path fill="#FEFEFE" d="M46.298 38.439v1.093c0 3.124-3.613 5.589-8.02 5.589-4.448 0-8.017-2.465-8.017-5.59v-3.825c0-.223.098-.435.27-.602.293-.29.771-.491 1.324-.491h12.838c.878 0 1.605.502 1.605 1.093v2.733z" mask="url(#qj688lc3wb)"/>
                        <path fill="#231916" d="M41.718 68.044l-.02.033-.012 15.216-16.483.01C11.9 61.875 26.961 50.564 26.961 50.564h2.657v1.205c0 6.794 5.926 13.14 12.1 16.275M26.505 34.902c-.264 0-.48-.214-.48-.479V19.777C26.54 8.677 36.684 0 49.118 0c12.748.011 23.093 9.234 23.093 20.558 0 .264-.215.478-.477.478-.264 0-.48-.214-.48-.478 0-10.797-9.915-19.589-22.102-19.6-11.956 0-21.68 8.276-22.169 18.841v14.624c0 .265-.215.479-.479.479" mask="url(#qj688lc3wb)"/>
                        <path fill="#231916" d="M71.733 34.902c-.264 0-.479-.214-.479-.479V19.777c0-.265.215-.479.48-.479.263 0 .478.214.478.479v14.646c0 .265-.215.479-.479.479M30.076 34.902c-.264 0-.48-.214-.48-.479V29.86c.435-8.832 9.006-15.858 19.515-16.017.112-.01.245-.011.388-.011 10.973 0 19.902 7.506 19.902 16.731 0 .265-.216.479-.48.479-.263 0-.478-.214-.478-.479 0-8.697-8.5-15.773-18.944-15.773-.118.001-.221-.001-.34.009-10.04.153-18.195 6.779-18.604 15.085v4.539c0 .265-.215.479-.48.479" mask="url(#qj688lc3wb)"/>
                        <path fill="#231916" d="M68.921 34.902c-.264 0-.479-.214-.479-.479V29.86c0-.264.216-.478.48-.478s.478.214.478.478v4.563c0 .265-.215.479-.479.479M49.119 70.574c-2.28 0-4.915-.728-7.617-2.104-6.154-3.124-12.362-9.499-12.362-16.702v-1.204c0-.265.215-.479.479-.479s.479.214.479.48v1.203c0 6.76 6.136 12.954 11.837 15.848 2.533 1.291 5.083 2 7.184 2 3.668 0 8.315-1.995 12.127-5.208 4.17-3.505 6.685-7.865 6.894-11.96v-1.884c0-.265.215-.479.479-.479s.479.214.479.48v1.906c-.225 4.385-2.862 8.995-7.235 12.671-3.977 3.35-8.861 5.432-12.744 5.432" mask="url(#qj688lc3wb)"/>
                        <path fill="#231916" d="M29.588 51.043h-2.626c-2.944 0-5.34-3.408-5.34-7.595V41.46c0-3.905 2.072-7.122 4.82-7.48.17-.023.346-.036.52-.036h3.114c.264 0 .479.214.479.479s-.215.478-.48.478h-3.113c-.13 0-.26.01-.39.029-2.24.29-3.993 3.16-3.993 6.53v1.987c0 3.66 1.966 6.637 4.383 6.637h2.626c.264 0 .479.215.479.479 0 .265-.215.479-.48.479M71.733 51.043H68.62c-.264 0-.479-.214-.479-.48 0-.263.215-.478.48-.478h3.113c2.4 0 4.351-2.977 4.351-6.637V41.46c0-3.617-1.952-6.56-4.35-6.56h-2.627c-.264 0-.478-.212-.478-.477s.214-.48.478-.48h2.626c2.927 0 5.308 3.373 5.308 7.517v1.987c0 4.187-2.38 7.595-5.308 7.595" mask="url(#qj688lc3wb)"/>
                        <path fill="#FEFEFE" d="M49.119 15.125c-.264 0-.48-.214-.48-.48V2.533c0-.265.216-.48.48-.48s.479.215.479.48v12.114c0 .265-.215.479-.48.479" mask="url(#qj688lc3wb)"/>
                        <path fill="#231916" d="M25.203 83.782c-.166 0-.32-.086-.405-.227-13.38-21.55 1.722-33.258 1.876-33.373.207-.158.51-.118.669.094.159.212.118.512-.093.67-.6.45-14.443 11.239-1.78 31.878l15.738-.01.01-14.737c0-.265.216-.48.48-.48.266 0 .479.216.479.48l-.012 15.216c0 .264-.215.479-.48.479l-16.482.01zM68.619 39.832h-.043c-.264 0-.478-.214-.478-.479s.214-.479.478-.479.499.214.499.48c0 .264-.192.478-.456.478M31.854 35.091c-.395 0-.763.132-.985.352-.063.06-.13.148-.13.262v3.827c0 2.818 3.382 5.11 7.54 5.11 4.157 0 7.541-2.292 7.541-5.11v-3.827c0-.25-.44-.614-1.128-.614H31.854zm6.425 10.508c-4.764 0-8.497-2.665-8.497-6.067v-3.827c0-.351.147-.688.417-.947.398-.395 1.004-.625 1.655-.625h12.838c1.15 0 2.085.706 2.085 1.572v3.827c0 3.345-3.812 6.067-8.498 6.067z" mask="url(#qj688lc3wb)"/>
                        <path fill="#231916" d="M54.316 35.091c-.686 0-1.125.364-1.125.614v3.827c0 2.818 3.381 5.11 7.54 5.11 4.156 0 7.54-2.292 7.54-5.11 0-.071.015-.138.043-.198v-3.629c0-.278-.498-.614-1.117-.614h-12.88zm6.414 10.508c-4.685 0-8.497-2.722-8.497-6.067v-3.827c0-.866.936-1.572 2.083-1.572h12.881c1.145 0 2.074.706 2.074 1.572v3.827c0 .075-.017.146-.048.208-.148 3.303-3.825 5.859-8.493 5.859z" mask="url(#qj688lc3wb)"/>
                        <path fill="#231916" d="M52.712 38.918h-6.413c-.264 0-.48-.214-.48-.48 0-.264.216-.478.48-.478h6.413c.264 0 .479.214.479.479s-.215.479-.48.479M50.15 50.25c-.038 0-.075-.003-.113-.012l-3.47-.837c-.238-.058-.396-.286-.364-.53l1.042-7.796c.034-.262.245-.454.54-.41.26.034.443.276.41.538l-.985 7.368 3.051.736c.257.062.415.32.354.578-.052.22-.248.366-.466.366" mask="url(#qj688lc3wb)"/>
                        <path fill="#FEFEFE" d="M39.673 218.194L28.913 217.804 31.343 147.153 42.102 147.542z" mask="url(#qj688lc3wb)"/>
                        <path fill="#231916" d="M29.41 217.342l9.803.355 2.393-69.695-9.8-.354-2.396 69.694zm10.727 1.347l-11.718-.425 2.463-71.608 11.716.424-.017.478-2.444 71.131z" mask="url(#qj688lc3wb)"/>
                        <path fill="#FEFEFE" d="M56.584 218.194L54.156 147.542 64.914 147.153 67.342 217.804z" mask="url(#qj688lc3wb)"/>
                        <path fill="#231916" d="M54.652 148.003l2.394 69.695 9.8-.355-2.394-69.694-9.8.354zm1.47 70.687l-2.462-71.61 11.716-.423 2.462 71.608-11.716.425z" mask="url(#qj688lc3wb)"/>
                        <path fill="#231916" d="M74.555 165.543L23.557 165.543 25.729 138.515 72.384 138.515zM74.565 89.965c0 .089-.043.179-.043.29v48.256H23.565V89.965c0-7.574 5.99-14.11 14.66-17.134l.13.402-5.968 9.27 17.123 3.2.023.023-3.854 4.797 20.477-8.835-6.262-8.846c8.66 3.023 14.671 9.549 14.671 17.123" mask="url(#qj688lc3wb)"/>
                        <path fill="#FEFEFE" d="M59.894 72.842L66.156 81.688 45.679 90.522 49.533 85.726z" mask="url(#qj688lc3wb)"/>
                        <path fill="#FEFEFE" d="M59.894 72.842l-10.36 12.884-.024-.023-11.155-12.47-.13-.402c1.161-.39 2.365-.736 3.612-1.004 1.194 1.74 3.951 2.956 7.153 2.956 3.341 0 6.185-1.328 7.281-3.19v.234c1.247.268 2.463.614 3.623 1.015" mask="url(#qj688lc3wb)"/>
                        <path fill="#FEFEFE" d="M38.355 73.233L49.51 85.703 32.387 82.503z" mask="url(#qj688lc3wb)"/>
                        <path fill="#231916" d="M49.51 86.182c-.132 0-.263-.054-.357-.16l-11.156-12.47c-.176-.197-.158-.499.038-.676.197-.176.497-.16.677.038l11.154 12.47c.176.197.16.5-.037.676-.09.082-.206.122-.32.122" mask="url(#qj688lc3wb)"/>
                        <path fill="#231916" d="M45.68 91.001c-.105 0-.212-.035-.3-.105-.208-.166-.24-.467-.075-.674l14.216-17.68c.165-.205.466-.239.672-.073.208.166.24.468.073.673l-14.213 17.68c-.096.118-.233.18-.374.18M32.387 82.981c-.09 0-.18-.024-.26-.077-.22-.143-.286-.438-.142-.66l5.967-9.27c.145-.223.442-.288.663-.143.22.143.286.44.142.661l-5.968 9.27c-.09.141-.245.22-.402.22" mask="url(#qj688lc3wb)"/>
                        <path fill="#231916" d="M49.51 86.182c-.028 0-.059-.003-.089-.008l-17.122-3.2c-.26-.05-.433-.3-.384-.56.047-.259.281-.43.56-.382l17.122 3.201c.261.05.433.298.384.558-.043.23-.245.391-.472.391M66.156 82.167c-.15 0-.298-.07-.392-.202l-6.261-8.845c-.154-.217-.101-.516.114-.668.217-.151.517-.102.668.114l6.262 8.846c.153.215.1.515-.115.667-.084.059-.181.088-.276.088" mask="url(#qj688lc3wb)"/>
                        <path fill="#231916" d="M45.68 91.001c-.187 0-.362-.108-.44-.289-.105-.243.007-.524.251-.629l20.475-8.835c.243-.105.524.008.63.25.104.243-.009.524-.252.63l-20.476 8.834c-.062.027-.126.04-.189.04M33.005 214.325h-5.08s-2.4 2.6-3.087 4.209c-.688 1.608-8.03-1.858-8.03 5.197v1.362l24.502-4.386v-1.927s-.415-4.455-2.745-4.455h-1.444l-4.046 3.218-.07-3.218z" mask="url(#qj688lc3wb)"/>
                        <path fill="#231916" d="M41.309 222.26L16.807 226.643 16.807 225.093 41.309 220.707z" mask="url(#qj688lc3wb)"/>
                        <path fill="#231916" d="M37.944 227L41.309 227 41.309 222.26 37.944 222.26zM16.807 227h11.248s4.941-1.885 6.621-4.38c1.68-2.497-17.869 2.19-17.869 2.19V227zM63.105 214.325h5.076s2.4 2.6 3.086 4.209c.687 1.608 8.031-1.858 8.031 5.197v1.362l-24.5-4.386v-1.927s.411-4.455 2.746-4.455h1.44l4.05 3.218.071-3.218z" mask="url(#qj688lc3wb)"/>
                        <path fill="#231916" d="M54.797 222.26L79.299 226.643 79.299 225.093 54.797 220.707z" mask="url(#qj688lc3wb)"/>
                        <path fill="#231916" d="M54.798 227L58.164 227 58.164 222.26 54.798 222.26zM79.299 227H68.05s-4.938-1.885-6.62-4.38c-1.678-2.497 17.869 2.19 17.869 2.19V227zM142.585 106.493c0-3.96-3.12-7.172-6.97-7.172-3.852 0-6.968 3.212-6.968 7.172 0 3.952 3.116 7.164 6.969 7.164 3.849 0 6.969-3.212 6.969-7.164zm5.05 3.779c0-.406-.321-.735-.721-.735h-2.017c-.4 0-.724.329-.724.735 0 .418.325.748.724.748h2.017c.4 0 .72-.33.72-.748zm4.453 0c0-.406-.322-.735-.721-.735h-2.021c-.397 0-.72.329-.72.735 0 .418.323.748.72.748h2.02c.4 0 .722-.33.722-.748zm13.494 1.28c2.722-2.793 2.722-7.332 0-10.13-2.727-2.79-7.137-2.79-9.86 0-2.722 2.798-2.722 7.337 0 10.13 2.723 2.803 7.133 2.803 9.86 0zm6.578 3.34s1.739 7.937-2.158 9.755c-3.898 1.825-10.665-5.39-10.665-5.39s-6.251-6.132-8.015-6.132h-6.377c-1.771 0-8.018 6.133-8.018 6.133s-6.763 7.214-10.664 5.389c-3.895-1.818-2.156-9.755-2.156-9.755l3.332-12.668s1.915-6.166 10.077-6.166h21.228c8.17 0 10.077 6.166 10.077 6.166l3.339 12.668z" mask="url(#qj688lc3wb)"/>
                        <path fill="#FEFEFE" d="M160.034 109.997c.774-.786.774-2.075 0-2.87-.771-.799-2.025-.799-2.8 0-.772.795-.772 2.084 0 2.87.775.794 2.029.794 2.8 0m4.034-4.142c.77-.799.77-2.08 0-2.883-.771-.782-2.027-.782-2.803 0-.768.803-.768 2.084 0 2.883.776.79 2.032.79 2.803 0m1.514-4.434c2.722 2.798 2.722 7.338 0 10.131-2.728 2.802-7.137 2.802-9.86 0-2.722-2.793-2.722-7.333 0-10.13 2.723-2.79 7.132-2.79 9.86 0" mask="url(#qj688lc3wb)"/>
                        <path fill="#231916" d="M164.068 102.972c.77.804.77 2.084 0 2.883-.771.79-2.027.79-2.803 0-.768-.8-.768-2.08 0-2.883.776-.782 2.032-.782 2.803 0M160.034 107.127c.774.795.774 2.084 0 2.87-.771.795-2.025.795-2.8 0-.772-.786-.772-2.075 0-2.87.775-.799 2.029-.799 2.8 0" mask="url(#qj688lc3wb)"/>
                        <path fill="#FEFEFE" d="M151.367 109.537c.398 0 .72.329.72.735 0 .418-.322.748-.72.748h-2.021c-.397 0-.72-.33-.72-.748 0-.406.323-.735.72-.735h2.02zM146.914 109.537c.4 0 .72.329.72.735 0 .418-.32.748-.72.748h-2.018c-.398 0-.723-.33-.723-.748 0-.406.325-.735.723-.735h2.018zM140.188 107.71v-2.442H136.8v-3.487h-2.375v3.487h-3.389v2.443h3.39v3.487h2.374v-3.487h3.39zm-4.572-8.39c3.848 0 6.968 3.213 6.968 7.173 0 3.952-3.12 7.164-6.968 7.164-3.854 0-6.969-3.212-6.969-7.164 0-3.96 3.115-7.172 6.97-7.172z" mask="url(#qj688lc3wb)"/>
                        <path fill="#231916" d="M140.188 105.268L140.188 107.711 136.799 107.711 136.799 111.198 134.424 111.198 134.424 107.711 131.035 107.711 131.035 105.268 134.424 105.268 134.424 101.781 136.799 101.781 136.799 105.268zM188.736 46.819L180.66 38.516 172.584 46.819zM176.341 56.473L184.98 56.473 184.98 48.146 176.341 48.146zM172.238 59.744L189.082 59.744 189.082 57.8 172.238 57.8zM169.916 78.004L177.421 78.004 177.421 61.073 169.916 61.073zM183.899 78.004L191.409 78.004 191.409 61.073 183.899 61.073zM211.212 56.865L203.136 48.565 195.06 56.865zM198.819 66.522L207.456 66.522 207.456 58.194 198.819 58.194zM194.262 67.862v10.142h3.78c0-2.894 2.281-5.24 5.093-5.24 2.817 0 5.095 2.347 5.095 5.24h3.778V67.862h-17.746zM207.208 99.815v39.488c0 .818-.644 1.491-1.44 1.491h-10.706v-1.02c.746 0 1.356-.628 1.356-1.4 0-.772-.61-1.393-1.356-1.393v-.906h10.193V102.7h-5.07v-1.359c.478 0 .87-.41.87-.9v-.052c0-.492-.392-.894-.87-.894V98.33h5.583c.796 0 1.44.668 1.44 1.486" mask="url(#qj688lc3wb)"/>
                        <path fill="#FEFEFE" d="M205.255 102.7L205.255 136.075 195.061 136.075 184.864 136.075 184.864 102.7 200.185 102.7zM201.054 100.39v.051c0 .49-.392.9-.87.9H189.94c-.479 0-.869-.41-.869-.9v-.052c0-.493.39-.894.87-.894h10.243c.478 0 .87.401.87.894" mask="url(#qj688lc3wb)"/>
                        <path fill="#231916" d="M200.184 101.341v1.359h-15.319v33.374h10.196v.907c-.75 0-1.365.62-1.365 1.393 0 .772.615 1.399 1.365 1.399v1.022h-10.717c-.789 0-1.438-.673-1.438-1.492V99.816c0-.82.65-1.487 1.438-1.487h15.84v1.167H189.94c-.479 0-.869.4-.869.894v.052c0 .488.39.9.87.9h10.243z" mask="url(#qj688lc3wb)"/>
                        <path fill="#FEFEFE" d="M195.061 136.981c.746 0 1.356.621 1.356 1.392 0 .773-.61 1.4-1.356 1.4-.75 0-1.365-.627-1.365-1.4 0-.77.615-1.392 1.365-1.392" mask="url(#qj688lc3wb)"/>
                        <path fill="#231916" d="M111.283 140.282s.59-.28.59-2.437c0-2.155-1.168-2.813-1.168-2.813v-1.297c-3.83-4.935-3.011-11.03-3.011-11.03 0-.31.213-1.06.91-1.06.7 0 1.005-.94 1.005-.94s0-.874-.82-1.152c-.82-.283-1.095-1.94-1.095-1.94v-2.123s3.01-4.06 3.01-5.313c0-1.25-1.886-2.25-3.283-2.435-1.392-.188-2.727-2.3-2.733-2.312v-.002l-.006.002v-.002.002c-.005.013-1.338 2.124-2.732 2.312-1.4.186-3.282 1.185-3.282 2.435 0 1.253 3.01 5.313 3.01 5.313v2.123s-.274 1.657-1.095 1.94c-.82.278-.82 1.153-.82 1.153s.303.939 1.003.939c.698 0 .913.75.913 1.06 0 0 .819 6.095-3.011 11.03v1.297s-1.17.658-1.17 2.813c0 2.157.592 2.437.592 2.437v.658h-.591v1.732h14.375v-1.732h-.591v-.658z" mask="url(#qj688lc3wb)"/>
                        <path fill="#231916" d="M106.468 104.218c0 1.013-.795 1.835-1.786 1.835-.982 0-1.782-.822-1.782-1.835s.8-1.837 1.782-1.837c.991 0 1.786.824 1.786 1.837M157.685 56.618c.314 1.318-.474 2.663-1.756 2.988l-14.095 3.57c-1.283.324-2.59-.488-2.907-1.807l-3.469-14.487c-.32-1.319.471-2.662 1.756-2.988l14.091-3.568c1.283-.325 2.59.487 2.905 1.804l3.475 14.488z" mask="url(#qj688lc3wb)"/>
                        <path fill="#FEFEFE" d="M144.976 56.891c.298 1.232-.437 2.48-1.637 2.782-1.2.305-2.412-.449-2.708-1.682-.296-1.232.44-2.479 1.637-2.782 1.201-.304 2.415.45 2.708 1.682M148.743 51.2c.294 1.234-.437 2.48-1.638 2.782-1.197.306-2.413-.448-2.705-1.681-.3-1.233.436-2.48 1.635-2.782 1.199-.302 2.41.449 2.708 1.68M152.51 45.51c.295 1.232-.438 2.48-1.639 2.782-1.197.304-2.413-.449-2.704-1.68-.298-1.235.438-2.48 1.636-2.785 1.2-.302 2.411.45 2.707 1.683" mask="url(#qj688lc3wb)"/>
                        <path fill="#231916" d="M56.754 72.422c-.264 0-.48-.213-.48-.478v-3.966c0-.264.216-.48.48-.48s.479.215.479.48v3.966c0 .264-.215.478-.48.478" mask="url(#qj688lc3wb)"/>
                        <path fill="#231916" d="M59.888 73.327c-.043 0-.088-.006-.133-.02l-3.135-.903c-.253-.073-.4-.34-.327-.593.072-.254.327-.408.593-.327l3.135.904c.255.073.4.338.327.593-.06.209-.252.346-.46.346" mask="url(#qj688lc3wb)"/>
                    </g>
                </g>
            </g>
        </g>
    </g>
</svg>
