<svg xmlns="http://www.w3.org/2000/svg" xmlns:xlink="http://www.w3.org/1999/xlink" width="270" height="336" viewBox="0 0 270 336">
    <defs>
        <path id="w2a6z81eba" d="M0.87 -0.003L205.797 -0.003 205.797 204.924 0.87 204.924z"/>
        <path id="vis6xd6zkc" d="M0 218.045L210.797 218.045 210.797 0 0 0z"/>
    </defs>
    <g fill="none" fill-rule="evenodd">
        <g>
            <g transform="translate(-705 -1180) translate(705 1180)">
                <rect width="270" height="336" fill="#FFF" rx="2"/>
                <g transform="translate(30 79)">
                    <g transform="translate(5 10.045)">
                        <mask id="xbyrnurzkb" fill="#fff">
                            <use xlink:href="#w2a6z81eba"/>
                        </mask>
                        <path fill="#C8C9C9" d="M205.797 102.46c0 56.59-45.873 102.464-102.463 102.464C46.745 204.924.87 159.05.87 102.46.87 45.872 46.745-.003 103.334-.003c56.59 0 102.463 45.875 102.463 102.463" mask="url(#xbyrnurzkb)"/>
                    </g>
                    <path fill="#FEFEFE" d="M133.563 101.005c-3.36 0-7.104-.668-10.721-2.706-7.508-4.231-12.165-12.911-13.841-25.796l9.973-1.373c1.224 9.408 4.134 15.486 8.649 18.067 4.642 2.655 10.208 1.07 12.265.323l20.327-22.47 7.369 7.043-21.101 23.322c-.441.49-.977.887-1.564 1.172-.31.146-5.172 2.418-11.356 2.418"/>
                    <path fill="#231916" d="M109.538 72.912c1.708 12.468 6.26 20.867 13.54 24.969 3.111 1.755 6.641 2.644 10.484 2.644 5.933 0 10.637-2.13 11.153-2.373.54-.26 1.013-.617 1.412-1.056l20.79-22.979-6.679-6.38-20.187 22.233c-2.209.804-7.874 2.386-12.666-.358-4.576-2.614-7.54-8.649-8.823-17.941l-9.024 1.241zm24.024 28.571c-4.009 0-7.696-.931-10.956-2.767-7.646-4.31-12.383-13.108-14.08-26.152l-.06-.47 10.922-1.504.061.478c1.202 9.251 4.032 15.21 8.41 17.714 4.363 2.491 9.592 1.096 11.754.327l20.577-22.745 8.061 7.704-21.413 23.669c-.48.531-1.055.963-1.709 1.279-.543.256-5.426 2.467-11.567 2.467z"/>
                    <path fill="#FEFEFE" d="M207.34 130.44h-10.056V86.75c0-5.708-3.093-6.784-4.982-6.914h-12.3V69.495h12.423c6.053.12 14.914 4.808 14.914 17.256v43.688z"/>
                    <path fill="#231916" d="M197.763 129.96h9.098V86.75c0-12.098-8.64-16.661-14.445-16.775h-11.934v9.384h11.82c2.059.14 5.461 1.284 5.461 7.392v43.21zm10.055.958h-11.012V86.75c0-5.062-2.468-6.294-4.536-6.436l-12.746.002v-11.3h12.901c6.192.122 15.393 4.947 15.393 17.734v44.167z"/>
                    <mask id="z6339lqwad" fill="#fff">
                        <use xlink:href="#vis6xd6zkc"/>
                    </mask>
                    <path fill="#FEFEFE" d="M156.22 215.189L162.96 215.189 162.96 204.285 156.22 204.285z" mask="url(#z6339lqwad)"/>
                    <path fill="#231916" d="M156.699 214.71h5.783v-9.946h-5.783v9.946zm6.261.958h-6.74c-.264 0-.479-.215-.479-.479v-10.904c0-.264.215-.478.479-.478h6.74c.264 0 .479.214.479.478v10.904c0 .264-.215.479-.479.479z" mask="url(#z6339lqwad)"/>
                    <path fill="#FEFEFE" d="M166.873 214.603v2.963H139.59v-1.274c0-6.59 8.177-3.355 8.943-4.855.764-1.506 3.434-3.934 3.434-3.934h5.66l.078 3.006v4.094h9.17z" mask="url(#z6339lqwad)"/>
                    <path fill="#231916" d="M140.068 217.088h26.326v-2.006h-8.69c-.263 0-.478-.215-.478-.478v-4.094l-.065-2.527h-5.007c-.542.506-2.573 2.448-3.194 3.67-.384.75-1.47.739-2.976.725-1.69-.02-3.81-.04-4.976 1.115-.633.626-.94 1.543-.94 2.8v.795zm26.806.957h-27.285c-.263 0-.48-.215-.48-.478v-1.274c0-1.506.413-2.677 1.225-3.481 1.449-1.436 3.79-1.41 5.66-1.391.697.013 2 .02 2.113-.202.793-1.564 3.426-3.967 3.538-4.07.088-.08.202-.124.322-.124h5.66c.259 0 .47.208.478.466l.079 3.005v3.629h8.69c.263 0 .478.215.478.479v2.963c0 .263-.215.478-.478.478z" mask="url(#z6339lqwad)"/>
                    <path fill="#FEFEFE" d="M182.965 215.189L189.705 215.189 189.705 204.285 182.965 204.285z" mask="url(#z6339lqwad)"/>
                    <path fill="#231916" d="M183.444 214.71h5.783v-9.946h-5.783v9.946zm6.261.958h-6.74c-.264 0-.478-.215-.478-.479v-10.904c0-.264.214-.478.478-.478h6.74c.264 0 .48.214.48.478v10.904c0 .264-.216.479-.48.479z" mask="url(#z6339lqwad)"/>
                    <path fill="#FEFEFE" d="M193.619 214.603v2.963h-27.285v-1.274c0-6.59 8.178-3.355 8.94-4.855.772-1.506 3.439-3.934 3.439-3.934h5.659l.074 3.006v4.094h9.173z" mask="url(#z6339lqwad)"/>
                    <path fill="#231916" d="M166.813 217.088h26.327v-2.006h-8.693c-.264 0-.48-.215-.48-.478v-4.094l-.063-2.527h-5.005c-.542.508-2.571 2.448-3.198 3.673-.381.746-1.466.732-2.972.722-1.688-.02-3.81-.04-4.975 1.115-.634.626-.941 1.54-.941 2.8v.795zm26.806.957h-27.285c-.263 0-.478-.215-.478-.478v-1.274c0-1.506.41-2.677 1.223-3.481 1.45-1.435 3.772-1.403 5.66-1.391.699.015 1.997.02 2.109-.2.8-1.566 3.43-3.97 3.542-4.071.088-.08.202-.125.322-.125h5.66c.259 0 .47.208.479.468l.074 3.005v3.627h8.694c.263 0 .478.215.478.479v2.963c0 .263-.215.478-.478.478zM166.813 205.924L153.609 205.791 154.267 136.278 167.475 136.408zM179.711 205.89L179.381 136.374 192.59 136.311 192.915 205.827z" mask="url(#z6339lqwad)"/>
                    <path fill="#231916" d="M154.978 147.323L191.909 147.323 191.909 136.118 154.978 136.118z" mask="url(#z6339lqwad)"/>
                    <path fill="#FEFEFE" d="M198.11 81.404v76.391h-23.983V102.23l17.142-18.213-6.188-6.717 7.255-4.214-4.78-6.597c6.377 3.23 10.555 8.702 10.555 14.916" mask="url(#z6339lqwad)"/>
                    <path fill="#FEFEFE" d="M187.557 66.488l4.778 6.597-7.255 4.214 6.189 6.717-17.143 18.213 11.953-36.424c.505.204.998.438 1.478.683" mask="url(#z6339lqwad)"/>
                    <path fill="#FEFEFE" d="M186.08 65.806l-11.954 36.424-11.94-36.424c3.514-1.52 7.587-2.396 11.94-2.396 4.351 0 8.438.862 11.953 2.396" mask="url(#z6339lqwad)"/>
                    <path fill="#FEFEFE" d="M174.126 102.23v55.564h-23.974v-76.39c0-6.214 4.194-11.687 10.57-14.916l-4.792 6.596 7.267 4.214-6.217 6.718 17.146 18.213z" mask="url(#z6339lqwad)"/>
                    <path fill="#FEFEFE" d="M162.186 65.806l11.94 36.424-17.145-18.213 6.217-6.718-7.268-4.214 4.79-6.596c.467-.246.96-.464 1.466-.683" mask="url(#z6339lqwad)"/>
                    <path fill="#231916" d="M150.631 157.316h47.001V81.403c0-5.807-3.848-11.224-10.293-14.489-.469-.24-.948-.465-1.439-.665-7.052-3.076-16.353-3.102-23.524-.004-.493.213-.975.425-1.432.668-6.46 3.27-10.313 8.687-10.313 14.49v75.913zm47.48.957h-47.959c-.264 0-.479-.215-.479-.478V81.403c0-6.172 4.05-11.906 10.831-15.342.47-.247.975-.472 1.491-.695 3.688-1.594 7.881-2.436 12.131-2.436 4.294 0 8.492.842 12.144 2.436.507.203 1.01.443 1.504.695 6.772 3.431 10.815 9.167 10.815 15.342v76.392c0 .263-.215.478-.479.478z" mask="url(#z6339lqwad)"/>
                    <path fill="#231916" d="M174.126 102.709c-.202 0-.39-.128-.455-.33l-11.94-36.424c-.083-.253.054-.521.305-.604.258-.084.524.056.604.305l11.94 36.424c.082.253-.055.522-.305.605-.05.016-.1.024-.149.024" mask="url(#z6339lqwad)"/>
                    <path fill="#231916" d="M174.126 102.709c-.049 0-.1-.008-.15-.024-.25-.083-.387-.352-.305-.605l11.953-36.424c.082-.25.345-.39.605-.305.25.083.386.35.304.604l-11.953 36.424c-.065.202-.253.33-.454.33" mask="url(#z6339lqwad)"/>
                    <path fill="#231916" d="M174.126 102.709c-.128 0-.255-.051-.349-.152l-17.144-18.213c-.174-.182-.174-.468-.004-.653l5.81-6.28-6.75-3.913c-.117-.067-.2-.182-.227-.314-.028-.133 0-.272.08-.38l4.792-6.597c.155-.213.456-.262.668-.106.215.155.262.455.106.668l-4.479 6.168 6.808 3.948c.126.073.213.198.234.343.022.143-.023.29-.122.396l-5.914 6.39 16.84 17.888c.18.19.171.495-.022.675-.092.088-.21.132-.327.132" mask="url(#z6339lqwad)"/>
                    <path fill="#231916" d="M174.126 102.709c-.118 0-.236-.044-.328-.132-.193-.18-.2-.484-.02-.675l16.836-17.89-5.885-6.39c-.1-.106-.145-.253-.123-.394.021-.145.107-.27.233-.343l6.8-3.948-4.47-6.168c-.155-.213-.108-.513.106-.668.212-.158.513-.11.668.106l4.78 6.597c.08.108.107.247.08.38-.029.132-.11.247-.227.314l-6.74 3.914 5.784 6.28c.171.184.17.47-.003.652l-17.143 18.213c-.094.1-.22.152-.348.152" mask="url(#z6339lqwad)"/>
                    <path fill="#231916" d="M174.126 158.273c-.264 0-.479-.215-.479-.479V102.23c0-.264.215-.478.48-.478.263 0 .478.214.478.478v55.565c0 .264-.215.48-.479.48" mask="url(#z6339lqwad)"/>
                    <path fill="#FEFEFE" d="M156.942 36.672c0-1.232-.944-2.217-2.156-2.217-1.185 0-2.157.985-2.157 2.217 0 1.217.972 2.203 2.157 2.203 1.212 0 2.156-.986 2.156-2.203m11.207 13.3h-7.134c0 1.23.999 2.228 2.17 2.228h2.794c1.199 0 2.17-.998 2.17-2.228m4.659-13.3c0-1.232-.971-2.217-2.157-2.217-1.196 0-2.156.985-2.156 2.217 0 1.217.96 2.203 2.156 2.203 1.186 0 2.157-.986 2.157-2.203m25.73 3.709c0 4.172-2.596 6.4-7.667 6.4-1.623 5.175-6.324 9.718-10.117 12.632-3.247 2.476-7.067 3.912-11.18 3.912-.773 0-1.545-.053-2.29-.15-10.501-1.381-18.7-12.164-18.7-25.244V18.965h29.962s5.83.56 5.83 10.072v3.256s1.982.206 3.766 3.025v.122l1.026.794 1.703 1.164v-3.614c1.65 0 3.18.164 4.446.698 1.956.807 3.22 2.519 3.22 5.899" mask="url(#z6339lqwad)"/>
                    <path fill="#231916" d="M195.382 16.736v17.567l-.065.178c-1.265-.533-2.796-.697-4.447-.697v3.613l-1.703-1.164-1.025-.794v-.122c-1.784-2.818-3.767-3.024-3.767-3.024v-3.256c0-9.51-5.83-10.072-5.83-10.072h-29.962c-7.295-2.695-1.532-12.273-1.532-12.273L146.905.48h33.21s8.347.357 8.347 8.69c.198 0 6.92.053 6.92 7.567" mask="url(#z6339lqwad)"/>
                    <path fill="#FEFEFE" d="M180.754 59.413v4.433c0 3.817-3.022 6.923-6.748 6.923-3.7 0-6.722-3.106-6.722-6.923v-.67c.744.095 1.517.149 2.29.149 4.113 0 7.933-1.436 11.18-3.912" mask="url(#z6339lqwad)"/>
                    <path fill="#231916" d="M170.65 34.455c1.187 0 2.158.984 2.158 2.217 0 1.217-.971 2.203-2.157 2.203-1.196 0-2.156-.986-2.156-2.203 0-1.233.96-2.217 2.156-2.217" mask="url(#z6339lqwad)"/>
                    <path fill="#FEFEFE" d="M161.015 49.972h7.134c0 1.23-.971 2.229-2.17 2.229h-2.794c-1.171 0-2.17-1-2.17-2.23" mask="url(#z6339lqwad)"/>
                    <path fill="#231916" d="M154.786 34.455c1.212 0 2.155.984 2.155 2.217 0 1.217-.944 2.203-2.155 2.203-1.185 0-2.157-.986-2.157-2.203 0-1.233.972-2.217 2.157-2.217M190.87 47.262c-.264 0-.479-.216-.479-.48 0-.263.215-.478.48-.478 4.77 0 7.186-1.994 7.186-5.924 0-2.898-.928-4.632-2.924-5.455-.977-.411-2.187-.623-3.784-.656v3.129c0 .263-.215.478-.479.478s-.479-.215-.479-.478v-3.614c0-.263.215-.48.48-.48 1.97 0 3.44.235 4.63.736 2.364.977 3.515 3.05 3.515 6.34 0 3.139-1.415 6.882-8.146 6.882" mask="url(#z6339lqwad)"/>
                    <path fill="#231916" d="M195.382 34.782c-.264 0-.479-.215-.479-.479V16.736c0-7.009-6.177-7.089-6.44-7.089-.129 0-.25-.05-.34-.14-.09-.09-.14-.21-.14-.338 0-7.766-7.568-8.197-7.889-8.21h-32.698l.133 5.721c.002.09-.022.18-.068.26-.03.05-3.04 5.127-1.788 8.691.47 1.333 1.503 2.303 3.076 2.885.247.092.374.367.282.616-.089.247-.355.376-.615.282-1.85-.685-3.078-1.852-3.646-3.47-1.3-3.705 1.312-8.53 1.8-9.377L146.425.49c-.003-.129.047-.254.137-.346.09-.09.214-.144.342-.144h33.21c.106.004 8.52.462 8.818 8.714 1.642.148 6.928 1.156 6.928 8.022v17.567c0 .264-.215.48-.479.48" mask="url(#z6339lqwad)"/>
                    <path fill="#231916" d="M169.574 63.804c-.765 0-1.556-.052-2.351-.153-10.9-1.435-19.12-12.492-19.12-25.72V18.965c0-.264.217-.478.48-.478h29.963c.263 0 .478.214.478.478s-.215.48-.478.48h-29.484V37.93c0 12.75 7.862 23.399 18.284 24.769.754.098 1.504.147 2.228.147 3.853 0 7.618-1.318 10.89-3.815 2.982-2.29 8.242-6.95 9.95-12.393.079-.251.34-.39.6-.313.253.079.394.348.314.6-1.696 5.409-6.527 9.982-10.281 12.866-3.442 2.624-7.41 4.012-11.473 4.012" mask="url(#z6339lqwad)"/>
                    <path fill="#231916" d="M167.285 64.524c-.374 0-.68-.305-.68-.679v-.67c0-.374.306-.678.68-.678.374 0 .679.304.679.678v.67c0 .374-.305.68-.68.68M188.142 35.796c-.16 0-.314-.078-.404-.223-1.62-2.558-3.344-2.796-3.417-2.804-.24-.03-.424-.235-.424-.476v-3.256c0-8.971-5.344-9.59-5.4-9.595-.26-.026-.453-.26-.428-.523.024-.263.235-.464.523-.431.062.006 6.262.717 6.262 10.549v2.874c.735.22 2.286.928 3.692 3.15.142.224.075.52-.148.66-.08.05-.168.075-.256.075M173.7 32.019h-6.123c-.266 0-.48-.216-.48-.48s.214-.479.48-.479h6.123c.264 0 .479.216.479.48 0 .262-.215.479-.48.479M157.86 32.019h-6.123c-.264 0-.48-.216-.48-.48s.216-.479.48-.479h6.123c.264 0 .479.216.479.48 0 .262-.215.479-.48.479M162.932 46.4c-1.739 0-3.155-1.438-3.155-3.2 0-.265.215-.48.478-.48.264 0 .48.215.48.48 0 1.235.985 2.241 2.197 2.241.853 0 1.631-.54 1.98-1.375.104-.243.382-.362.627-.256.244.103.36.384.256.627-.499 1.191-1.623 1.962-2.863 1.962" mask="url(#z6339lqwad)"/>
                    <path fill="#231916" d="M160.255 43.678c-.264 0-.479-.215-.479-.48v-5.8c0-.264.215-.48.48-.48.263 0 .478.216.478.48v5.8c0 .265-.215.48-.479.48M174.006 71.248c-3.97 0-7.2-3.321-7.2-7.402 0-.264.215-.48.478-.48.264 0 .48.216.48.48 0 3.552 2.8 6.444 6.242 6.444 3.456 0 6.27-2.892 6.27-6.444v-4.433c0-.264.214-.479.478-.479s.48.215.48.479v4.433c0 4.081-3.243 7.402-7.228 7.402M190.87 38.076c-.133 0-.266-.039-.383-.118l-2.76-1.983c-.298-.229-.352-.656-.123-.952.235-.297.661-.347.953-.12l1.025.794 1.672 1.14c.308.211.388.633.178.943-.133.192-.344.296-.562.296M161.56 50.45c.207.726.867 1.271 1.625 1.271h2.794c.772 0 1.425-.538 1.627-1.27h-6.045zm4.419 2.23h-2.794c-1.461 0-2.648-1.216-2.648-2.709 0-.263.214-.479.478-.479h7.134c.264 0 .478.216.478.48 0 1.492-1.187 2.707-2.648 2.707zM170.644 29.736c-3.715 0-6.737 3.112-6.737 6.938 0 3.83 3.022 6.944 6.737 6.944 3.716 0 6.74-3.114 6.74-6.944 0-3.826-3.024-6.938-6.74-6.938m0 14.84c-4.242 0-7.694-3.545-7.694-7.902 0-4.353 3.452-7.895 7.694-7.895 4.245 0 7.698 3.542 7.698 7.895 0 4.357-3.453 7.901-7.698 7.901" mask="url(#z6339lqwad)"/>
                    <path fill="#231916" d="M153.044 29.736c-3.715 0-6.737 3.112-6.737 6.938 0 3.83 3.022 6.944 6.737 6.944 3.716 0 6.74-3.114 6.74-6.944 0-3.826-3.024-6.938-6.74-6.938m0 14.84c-4.242 0-7.694-3.545-7.694-7.902 0-4.353 3.452-7.895 7.694-7.895 4.245 0 7.698 3.542 7.698 7.895 0 4.357-3.453 7.901-7.698 7.901" mask="url(#z6339lqwad)"/>
                    <path fill="#231916" d="M163.428 37.154h-3.165c-.264 0-.479-.215-.479-.479s.215-.479.48-.479h3.164c.264 0 .48.215.48.48 0 .263-.216.478-.48.478M189.163 36.911h-11.3c-.264 0-.479-.215-.479-.479s.215-.479.478-.479h11.301c.264 0 .48.215.48.479s-.216.479-.48.479M148.59 37.154h-2.762c-.263 0-.478-.215-.478-.479s.215-.479.478-.479h2.761c.264 0 .48.215.48.48 0 .263-.216.478-.48.478M182.7 102.718h10.803v-6.736H182.7v6.736zm11.282.958h-11.761c-.264 0-.479-.216-.479-.48v-7.694c0-.264.215-.479.479-.479h11.761c.263 0 .478.215.478.479v7.694c0 .264-.215.48-.478.48z" mask="url(#z6339lqwad)"/>
                    <path fill="#FEFEFE" d="M187.024 97.326L189.186 97.326 189.186 92.936 187.024 92.936z" mask="url(#z6339lqwad)"/>
                    <path fill="#231916" d="M187.502 96.847h1.205v-3.432h-1.205v3.432zm1.684.958h-2.162c-.264 0-.479-.215-.479-.479v-4.39c0-.263.215-.479.479-.479h2.162c.264 0 .478.216.478.479v4.39c0 .264-.214.479-.478.479z" mask="url(#z6339lqwad)"/>
                    <path fill="#FEFEFE" d="M103.806 61.67c-3.123 3.486-2.031 9.752 2.45 14.017 4.482 4.23 10.657 4.862 13.78 1.378 3.127-3.49 2.021-9.754-2.46-14.003-4.486-4.246-10.647-4.86-13.77-1.392" mask="url(#z6339lqwad)"/>
                    <path fill="#231916" d="M104.163 61.99c-2.946 3.286-1.859 9.274 2.422 13.35 2.44 2.302 5.596 3.58 8.387 3.492 1.927-.08 3.557-.803 4.707-2.087 2.948-3.286 1.855-9.27-2.433-13.336-2.469-2.338-5.503-3.59-8.364-3.499-1.93.077-3.564.797-4.719 2.08m10.441 17.807c-2.988 0-6.129-1.356-8.677-3.763-4.654-4.429-5.765-11.015-2.479-14.684h.002c1.334-1.48 3.198-2.31 5.395-2.398 3.113-.095 6.403 1.25 9.06 3.762 4.66 4.421 5.777 11.001 2.488 14.671-1.328 1.481-3.188 2.311-5.38 2.403-.135.006-.272.01-.409.01" mask="url(#z6339lqwad)"/>
                    <path fill="#FEFEFE" d="M209.415 135.579c0 3.956-3.116 7.162-6.969 7.162-3.845 0-6.966-3.206-6.966-7.162 0-3.955 3.121-7.161 6.966-7.161 3.853 0 6.97 3.206 6.97 7.161" mask="url(#z6339lqwad)"/>
                    <path fill="#231916" d="M202.447 128.896c-3.576 0-6.486 2.998-6.486 6.683 0 3.684 2.91 6.682 6.486 6.682 3.578 0 6.489-2.998 6.489-6.682 0-3.685-2.911-6.683-6.49-6.683m0 14.323c-4.104 0-7.443-3.428-7.443-7.64s3.339-7.64 7.444-7.64c4.107 0 7.447 3.428 7.447 7.64s-3.34 7.64-7.447 7.64" mask="url(#z6339lqwad)"/>
                    <path fill="#FEFEFE" d="M32.13 94.684c-1.694-4.011-.079-9.924 4.281-14.453 4.362-4.524 10.104-6.242 14.024-4.54 1.698 4.014.086 9.935-4.272 14.46-4.365 4.538-10.103 6.25-14.03 4.541l-.003-.003v-.004z" mask="url(#z6339lqwad)"/>
                    <path fill="#231916" d="M43.144 102.444L38.841 124.942 27.774 124.942 16.702 124.942 12.404 102.444 27.774 102.444z" mask="url(#z6339lqwad)"/>
                    <path fill="#FEFEFE" d="M27.774 60.264c2.196.903 3.809 3.879 3.809 7.416 0 3.533-1.613 6.514-3.81 7.417-2.194-.903-3.803-3.884-3.803-7.417 0-3.537 1.609-6.513 3.804-7.416M14.862 83.557c-2.858-3.168-3.823-7.218-2.59-9.907 2.702-1.065 6.555.233 9.416 3.402 2.862 3.172 3.823 7.22 2.58 9.909-2.692 1.062-6.541-.228-9.406-3.404" mask="url(#z6339lqwad)"/>
                    <path fill="#231916" d="M27.774 125.422L16.305 125.422 16.232 125.032 11.824 101.966 27.774 101.966 27.774 102.924 12.984 102.924 17.098 124.464 27.774 124.464zM39.237 125.422L27.774 125.422 27.774 124.464 38.444 124.464 42.565 102.924 27.774 102.924 27.774 101.966 43.724 101.966 43.614 102.534zM12.63 74.027c-1.057 2.575-.014 6.327 2.586 9.21 2.595 2.872 6.14 4.23 8.695 3.346 1.065-2.575.023-6.327-2.579-9.212-2.596-2.872-6.137-4.23-8.702-3.344M22.264 87.8c-2.572 0-5.512-1.432-7.758-3.923-2.908-3.224-4.007-7.51-2.669-10.427l.08-.174.18-.07c2.945-1.162 7.026.295 9.946 3.524 2.912 3.23 4.006 7.518 2.66 10.431l-.08.175-.179.07c-.674.268-1.412.394-2.18.394M32.502 94.328c3.817 1.535 9.264-.3 13.316-4.508 4.06-4.216 5.786-9.842 4.247-13.765-3.818-1.525-9.257.302-13.31 4.509-4.06 4.219-5.79 9.847-4.253 13.764m2.916 1.486c-1.238 0-2.415-.22-3.478-.682l-.159-.07-.078-.157.432-.223-.446.19c-1.802-4.267-.002-10.424 4.377-14.974 4.39-4.552 10.377-6.457 14.56-4.648l.175.077.075.176c1.807 4.273.011 10.434-4.369 14.981-3.274 3.403-7.444 5.33-11.089 5.33M27.774 60.787c-1.968.939-3.325 3.733-3.325 6.893 0 3.16 1.357 5.955 3.325 6.893 1.97-.94 3.329-3.734 3.329-6.893 0-3.16-1.36-5.952-3.33-6.893zm0 14.828l-.182-.075c-2.414-.993-4.101-4.227-4.101-7.86 0-3.634 1.687-6.867 4.1-7.86l.183-.075.182.075c2.418.995 4.105 4.227 4.105 7.86s-1.687 6.865-4.105 7.86l-.182.075z" mask="url(#z6339lqwad)"/>
                    <path fill="#231916" d="M27.295 102.444L28.252 102.444 28.252 75.096 27.295 75.096z" mask="url(#z6339lqwad)"/>
                    <path fill="#231916" d="M27.412 91.308L23.959 87.287 24.683 86.662 28.137 90.684zM28.115 99.433L27.434 98.76 31.831 94.311 32.137 94.684 32.609 94.684 32.609 94.88 32.47 95.025z" mask="url(#z6339lqwad)"/>
                    <path fill="#FEFEFE" d="M21.045 124.942L44.884 124.942 44.884 115.169 21.045 115.169z" mask="url(#z6339lqwad)"/>
                    <path fill="#231916" d="M21.524 124.464h22.881v-8.816H21.524v8.816zm-.958.958h24.797V114.69H20.566v10.732z" mask="url(#z6339lqwad)"/>
                    <path fill="#FEFEFE" d="M27.44 109.326h-3.668c-.382 0-.692.315-.692.708 0 .392.31.711.692.711h.292v10.226c0 .437.168.835.452 1.12.278.29.666.465 1.093.465.849 0 1.544-.71 1.544-1.585v-10.226h.288c.386 0 .692-.319.692-.71 0-.394-.306-.709-.692-.709" mask="url(#z6339lqwad)"/>
                    <path fill="#231916" d="M23.772 109.805c-.118 0-.213.103-.213.229s.097.233.213.233h.77v10.704c0 .303.11.579.313.78.204.214.468.326.754.326.587 0 1.065-.497 1.065-1.106v-10.704h.767c.118 0 .214-.105.214-.233s-.094-.23-.214-.23h-3.67zm1.837 13.23c-.543 0-1.066-.224-1.44-.613-.373-.374-.584-.892-.584-1.451v-9.762c-.557-.092-.984-.583-.984-1.175 0-.654.525-1.187 1.17-1.187h3.67c.645 0 1.17.533 1.17 1.187 0 .59-.423 1.082-.98 1.175v9.762c0 1.139-.906 2.064-2.022 2.064z" mask="url(#z6339lqwad)"/>
                    <path fill="#231916" d="M24.064 111.224L27.154 111.224 27.154 110.267 24.064 110.267z" mask="url(#z6339lqwad)"/>
                    <path fill="#FEFEFE" d="M34.803 109.326h-3.67c-.385 0-.692.315-.692.708 0 .392.307.711.692.711h.288v10.226c0 .437.176.835.453 1.12.281.29.67.465 1.092.465.853 0 1.545-.71 1.545-1.585v-10.226h.292c.381 0 .695-.319.695-.71 0-.394-.314-.709-.695-.709" mask="url(#z6339lqwad)"/>
                    <path fill="#231916" d="M31.133 109.805c-.119 0-.213.1-.213.229 0 .128.095.233.213.233h.767v10.704c0 .293.116.579.316.785.202.208.468.32.75.32.587 0 1.066-.496 1.066-1.105v-10.704h.771c.117 0 .217-.107.217-.233s-.098-.23-.217-.23h-3.67zm1.833 13.23c-.544 0-1.055-.216-1.437-.611-.377-.39-.586-.905-.586-1.453v-9.762c-.556-.093-.98-.585-.98-1.175 0-.654.524-1.187 1.17-1.187h3.67c.646 0 1.174.533 1.174 1.187 0 .592-.428 1.083-.988 1.175v9.762c0 1.139-.907 2.064-2.023 2.064z" mask="url(#z6339lqwad)"/>
                    <path fill="#231916" d="M31.421 111.224L34.511 111.224 34.511 110.267 31.421 110.267z" mask="url(#z6339lqwad)"/>
                    <path fill="#FEFEFE" d="M42.164 109.326H38.49c-.38 0-.69.315-.69.708 0 .392.31.711.69.711h.292v10.226c0 .437.172.835.453 1.12.281.29.666.465 1.092.465.853 0 1.545-.71 1.545-1.585v-10.226h.292c.382 0 .688-.319.688-.71 0-.394-.306-.709-.688-.709" mask="url(#z6339lqwad)"/>
                    <path fill="#231916" d="M38.49 109.805c-.116 0-.212.103-.212.229s.098.233.213.233h.77v10.704c0 .299.113.577.315.783.204.21.47.323.752.323.588 0 1.066-.497 1.066-1.106v-10.704h.77c.117 0 .21-.105.21-.233s-.091-.23-.21-.23h-3.673zm1.838 13.23c-.544 0-1.055-.216-1.437-.611-.378-.384-.587-.9-.587-1.453v-9.762c-.557-.092-.983-.583-.983-1.175 0-.654.525-1.187 1.17-1.187h3.674c.643 0 1.167.533 1.167 1.187 0 .592-.425 1.083-.981 1.175v9.762c0 1.139-.906 2.064-2.023 2.064z" mask="url(#z6339lqwad)"/>
                    <path fill="#231916" d="M38.782 111.224L41.872 111.224 41.872 110.267 38.782 110.267z" mask="url(#z6339lqwad)"/>
                    <path fill="#FEFEFE" d="M0.479 135.199L137.562 135.199 137.562 125.403 0.479 125.403z" mask="url(#z6339lqwad)"/>
                    <path fill="#231916" d="M.957 134.721h136.125v-8.839H.957v8.839zm-.957.958h138.04v-10.755H0v10.755z" mask="url(#z6339lqwad)"/>
                    <path fill="#FEFEFE" d="M6.16 135.199L6.16 196.179 6.16 216.403 14.768 216.403 14.768 196.179 123.269 196.179 123.269 216.403 131.875 216.403 131.875 196.179 131.875 135.199z" mask="url(#z6339lqwad)"/>
                    <path fill="#231916" d="M123.747 215.924h7.65v-80.245H6.64v80.245h7.65V195.7h109.457v20.224zm8.607.958h-9.565v-20.224H15.246v20.224H5.682V134.72h126.672v82.16zM74.734 125.403H56.86c0-1.299 4.003-2.354 8.934-2.354 4.94 0 8.939 1.055 8.939 2.354" mask="url(#z6339lqwad)"/>
                    <path fill="#231916" d="M64.967 123.675L66.628 123.675 66.628 117.907 64.967 117.907z" mask="url(#z6339lqwad)"/>
                    <path fill="#FEFEFE" d="M62.117 104.775c.717.004 1.156-.529.968-1.19l-1.788-6.424c-.178-.672-.93-1.263-1.673-1.319l-7.626-.574c-.837-.067-1.362.48-1.15 1.194l1.979 6.948c.204.714 1.052 1.302 1.864 1.306l7.425.06zm3.078 11.068c.702-.057 1.117-.633.936-1.279l-1.755-6.318c-.18-.653-.907-1.184-1.626-1.178l-7.367.073c-.814.001-1.315.593-1.119 1.298l1.948 6.817c.204.698 1.02 1.223 1.808 1.16l7.175-.573zm8.028-10.982c.606.01.965-.482.8-1.083l-1.587-5.882c-.162-.61-.797-1.146-1.417-1.189l-6.324-.478c-.696-.054-1.117.436-.937 1.098l1.736 6.3c.183.645.883 1.183 1.558 1.187l6.17.047zm2.734 10.126c.59-.045.933-.57.769-1.163l-1.555-5.785c-.164-.603-.782-1.087-1.378-1.077l-6.13.055c-.676.008-1.08.541-.907 1.186l1.715 6.196c.17.637.858 1.113 1.507 1.063l5.98-.475zM73.865 94.6l5.994 22.418-25.7 2.58-7.98-27.636L73.865 94.6z" mask="url(#z6339lqwad)"/>
                    <path fill="#231916" d="M76.726 113.824c.164.593-.18 1.118-.77 1.163l-5.978.475c-.65.05-1.336-.426-1.508-1.063l-1.715-6.196c-.172-.645.232-1.178.908-1.186l6.13-.055c.597-.01 1.214.474 1.378 1.077l1.555 5.785zM74.023 103.778c.165.601-.194 1.092-.8 1.083l-6.171-.047c-.675-.004-1.376-.542-1.557-1.187l-1.738-6.3c-.18-.662.242-1.152.939-1.098l6.324.478c.62.043 1.255.58 1.417 1.19l1.586 5.881zM66.13 114.564c.182.646-.233 1.222-.935 1.28l-7.174.572c-.789.063-1.605-.462-1.809-1.16l-1.947-6.817c-.197-.705.304-1.297 1.117-1.298l7.368-.073c.72-.006 1.446.525 1.626 1.178l1.754 6.318zM63.084 103.584c.188.662-.25 1.195-.968 1.19l-7.425-.057c-.813-.005-1.66-.593-1.865-1.307l-1.978-6.948c-.213-.715.312-1.261 1.15-1.193l7.625.574c.743.055 1.495.646 1.674 1.318l1.787 6.423z" mask="url(#z6339lqwad)"/>
                    <path fill="#231916" d="M46.834 92.506l7.674 26.575 24.742-2.483-5.763-21.552-26.653-2.54zm7.324 27.57c-.212 0-.4-.14-.46-.345L45.72 92.095c-.043-.151-.009-.317.092-.438.101-.122.26-.2.414-.172l27.683 2.639c.2.019.367.16.417.354l5.995 22.417c.037.134.011.28-.067.396-.08.114-.208.19-.347.204l-25.699 2.579c-.018.002-.034.002-.049.002z" mask="url(#z6339lqwad)"/>
                    <path fill="#231916" d="M51.864 95.741c-.23 0-.413.067-.511.186-.098.123-.08.284-.047.398l1.98 6.954c.147.507.804.955 1.41.96l7.425.058h.006c.198 0 .362-.066.45-.18.098-.128.079-.29.047-.402 0 0 0-.002-.002-.002l-1.786-6.423c-.127-.479-.711-.93-1.247-.97l-7.626-.575c-.034-.002-.068-.004-.1-.004m10.262 9.513h-.01l-7.427-.058c-1.038-.008-2.06-.733-2.321-1.655l-1.98-6.948c-.137-.46-.057-.924.222-1.269.315-.387.832-.589 1.429-.533l7.62.574c.948.071 1.87.807 2.102 1.673l1.784 6.417c.13.448.054.901-.203 1.241-.272.354-.713.558-1.216.558M64.593 96.705c-.15 0-.27.043-.335.119-.069.084-.082.217-.039.378l1.737 6.298c.123.441.638.834 1.098.836l6.172.047h.01c.095 0 .214-.021.286-.113.065-.084.08-.216.04-.365v-.002l-1.587-5.882c-.112-.419-.574-.807-.989-.837l-6.326-.477c-.022-.002-.045-.002-.067-.002m8.646 8.635h-.024l-6.167-.047c-.888-.005-1.774-.681-2.014-1.537l-1.739-6.301c-.126-.464-.043-.917.226-1.242.273-.329.711-.509 1.212-.46l6.322.476c.817.057 1.63.736 1.844 1.543l1.586 5.879c.122.442.045.881-.205 1.204-.24.309-.618.485-1.04.485M62.762 107.547h-.008l-7.367.073c-.266 0-.48.088-.595.239-.092.122-.114.277-.065.452l1.945 6.815c.141.477.736.845 1.31.814l7.176-.573c.2-.017.363-.1.455-.232.084-.121.104-.273.057-.442l-.002-.001-1.754-6.318c-.122-.441-.659-.827-1.152-.827m-4.868 9.354c-.952 0-1.89-.65-2.142-1.51l-1.947-6.821c-.131-.47-.053-.925.223-1.29.296-.391.791-.616 1.352-.618l7.365-.072h.017c.93 0 1.838.669 2.076 1.529l1.754 6.319c.124.443.057.884-.192 1.243-.257.367-.679.6-1.165.639l-7.177.573c-.054.006-.11.008-.164.008M73.81 107.44h-.01l-6.135.056c-.173.002-.313.062-.394.167-.078.102-.097.251-.054.417l1.715 6.192c.112.415.62.73 1.008.713l5.979-.476c.133-.01.237-.063.3-.155.072-.102.09-.246.045-.403v-.004l-1.555-5.785c-.106-.385-.523-.722-.9-.722m-3.923 8.504c-.836 0-1.66-.613-1.878-1.419l-1.715-6.194c-.122-.455-.043-.91.215-1.248.26-.34.677-.539 1.149-.544l6.132-.057h.025c.802 0 1.599.623 1.819 1.432l1.555 5.784c.119.43.05.87-.186 1.208-.23.328-.588.526-1.01.557l-5.977.476c-.043.003-.086.005-.13.005" mask="url(#z6339lqwad)"/>
                    <path fill="#FEFEFE" d="M74.562 99.048L49.029 97.59 49.058 97.047 74.592 98.506zM74.835 102.441L50.7 101.816 50.715 101.274 74.85 101.898zM53.014 110.025L52.995 109.482 76.288 108.71 76.307 109.253zM54.696 114.467L54.658 113.925 77.476 112.278 77.513 112.82zM116.868 63.709c.005-.026 1.294-2.561 3.356-6.991.15-.32.388-.724.662-1.196.947-1.63 2.383-4.1 2.383-6.51 0-6.315-5.14-11.454-11.459-11.454-6.314 0-11.45 5.139-11.45 11.454 0 2.41 1.433 4.88 2.383 6.51.278.472.514.877.663 1.196 2.061 4.43 3.355 6.965 3.355 6.987l10.108.004z" mask="url(#z6339lqwad)"/>
                    <path fill="#231916" d="M107.06 63.227l9.509.003.036-.07c.425-.86 1.554-3.141 3.185-6.644.14-.298.353-.669.6-1.094l.08-.139c.93-1.6 2.32-3.995 2.32-6.272 0-6.052-4.924-10.974-10.98-10.974-6.05 0-10.97 4.922-10.97 10.974 0 2.291 1.395 4.686 2.318 6.27.284.485.527.906.682 1.233 1.597 3.438 2.735 5.73 3.162 6.594.02.044.04.083.059.119m9.808.96l-10.108-.004c-.202 0-.374-.125-.445-.3-.021-.046-.078-.162-.172-.35-.428-.867-1.57-3.169-3.172-6.614-.144-.305-.372-.697-.641-1.153-.975-1.676-2.45-4.204-2.45-6.755 0-6.58 5.352-11.931 11.93-11.931 6.582 0 11.937 5.352 11.937 11.931 0 2.532-1.468 5.064-2.44 6.737l-.09.155c-.23.398-.431.742-.56 1.019-1.635 3.512-2.768 5.8-3.197 6.663l-.151.309c-.073.175-.245.294-.441.294" mask="url(#z6339lqwad)"/>
                    <path fill="#FEFEFE" d="M106.761 71.564L116.655 71.564 116.655 63.705 106.761 63.705z" mask="url(#z6339lqwad)"/>
                    <path fill="#231916" d="M107.24 71.085h8.937v-6.901h-8.937v6.901zm9.416.958h-9.895c-.264 0-.478-.215-.478-.479v-7.859c0-.264.214-.479.478-.479h9.895c.263 0 .478.215.478.479v7.859c0 .264-.215.479-.478.479z" mask="url(#z6339lqwad)"/>
                    <path fill="#231916" d="M107.178 70.973L107.039 70.027 116.605 68.645 116.743 69.591zM106.804 68.635L106.673 67.685 116.609 66.303 116.74 67.253zM106.818 66.387L106.661 65.441 116.577 63.801 116.734 64.747zM115.51 71.564c0 1.417-1.698 2.57-3.804 2.57-2.109 0-3.819-1.153-3.819-2.57h7.623z" mask="url(#z6339lqwad)"/>
                    <path fill="#231916" d="M108.457 72.043c.357.913 1.7 1.612 3.25 1.612 1.54 0 2.877-.7 3.232-1.612h-6.482zm3.25 2.569c-2.412 0-4.299-1.34-4.299-3.048v-.48h8.581v.48c0 1.709-1.882 3.048-4.283 3.048zM109.918 64.183c-.227 0-.429-.16-.472-.39l-2.56-13.78c-.05-.26.122-.511.382-.56.267-.056.51.124.56.383l2.562 13.782c.048.258-.124.51-.384.559-.03.004-.06.006-.088.006M113.495 64.183c-.029 0-.06-.002-.089-.007-.26-.049-.433-.3-.384-.559l2.567-13.78c.05-.26.29-.438.56-.384.26.048.431.3.382.56l-2.566 13.78c-.043.23-.243.39-.47.39" mask="url(#z6339lqwad)"/>
                    <path fill="#231916" d="M116.554 50.777c-.112 0-.229-.02-.34-.062-2.733-1.042-6.288-1.034-9.014-.003-.492.181-1.046-.062-1.234-.558-.186-.493.062-1.047.558-1.234 3.149-1.192 7.21-1.192 10.371.003.493.19.742.742.555 1.237-.146.382-.51.617-.896.617M94.665 105.415c.478 0 .925.554.994 1.23l1.818 17.527c.07.678-.43 1.23-1.112 1.23h-3.403c-.68 0-1.18-.552-1.11-1.23l1.82-17.527c.07-.676.516-1.23.993-1.23M95.513 101.951c.19.544-.112 1.098-.677 1.232l-1.167.28c-.561.132-1.081-.225-1.16-.798L90.68 88.801c-.078-.573.019-.595.21-.05l4.623 13.2z" mask="url(#z6339lqwad)"/>
                    <path fill="#231916" d="M91.156 90.333l1.623 12.297c.026.198.127.368.284.475.154.107.347.134.545.093l1.165-.278c.198-.047.357-.165.448-.331.09-.165.102-.36.037-.548l-4.102-11.708zm2.277 13.429c-.243 0-.476-.072-.676-.21-.285-.195-.468-.495-.516-.85l-1.83-13.866c-.041-.297-.091-.671.21-.742.29-.088.425.282.525.566l4.623 13.2c.118.338.092.688-.072.989-.165.302-.447.516-.797.598l-1.167.279c-.101.024-.2.036-.3.036z" mask="url(#z6339lqwad)"/>
                    <path fill="#FEFEFE" d="M93.496 103.725c.651-.616 1.68-.587 2.293.066.618.65.588 1.675-.064 2.293-.65.617-1.675.585-2.292-.064-.614-.651-.583-1.677.063-2.294" mask="url(#z6339lqwad)"/>
                    <path fill="#231916" d="M93.684 103.922c-.54.515-.562 1.37-.053 1.914.51.536 1.367.563 1.908.052.264-.25.414-.587.423-.948.009-.361-.122-.702-.37-.961-.247-.264-.582-.413-.943-.425-.376-.031-.703.12-.965.368m.93 2.875c-.503 0-1.005-.198-1.377-.59-.714-.76-.681-1.96.073-2.678.353-.336.813-.52 1.3-.52.018 0 .037.003.056.003.505.014.974.224 1.323.595.345.362.529.84.515 1.346-.012.507-.222.978-.591 1.328-.365.346-.832.516-1.3.516" mask="url(#z6339lqwad)"/>
                    <path fill="#231916" d="M91.616 105.617c.378-.439 1.006-.453 1.402-.036l.834.876c.394.42.34 1.05-.112 1.4l-11.095 8.52c-.46.351-.523.28-.145-.157l9.116-10.603z" mask="url(#z6339lqwad)"/>
                    <path fill="#231916" d="M92.332 105.55h-.017c-.186.004-.362.091-.494.245l-8.083 9.4 9.838-7.553c.157-.124.253-.294.268-.484.014-.187-.053-.37-.19-.517l-.832-.873c-.135-.142-.31-.218-.49-.218zm-10.064 11.322c-.075 0-.144-.026-.208-.092-.21-.224.035-.508.234-.738l9.116-10.603c.232-.269.55-.425.893-.432.36-.01.668.13.912.387l.835.875c.242.26.362.59.334.932-.026.344-.197.652-.477.871l-11.097 8.52c-.168.13-.366.28-.542.28zM96.743 107.076c-.563-.107-.893-.646-.728-1.199l.344-1.156c.168-.55.737-.823 1.267-.604l12.924 5.35c.535.217.505.311-.063.205l-13.743-2.596z" mask="url(#z6339lqwad)"/>
                    <path fill="#231916" d="M97.252 104.313c-.095 0-.188.021-.276.062-.172.08-.3.231-.358.424l-.344 1.154c-.058.195-.036.39.064.55.097.16.26.27.456.305l12.19 2.304-11.462-4.745c-.088-.035-.18-.054-.27-.054m13.573 5.674c-.125 0-.263-.026-.389-.048l-13.743-2.597c-.35-.067-.639-.263-.819-.556-.18-.294-.223-.644-.12-.987l.345-1.155c.104-.345.334-.613.644-.762.307-.143.658-.157.987-.016l12.925 5.35c.277.113.624.255.536.55-.049.173-.194.221-.366.221M107.855 109.834c.374 0 .737.554.807 1.23l1.373 13.228c.068.677-.431 1.23-1.112 1.23h-2.135c-.681 0-1.181-.553-1.112-1.23l1.373-13.227c.07-.677.432-1.231.806-1.231" mask="url(#z6339lqwad)"/>
                    <path fill="#231916" d="M107.266 106.288c.284.354.21.844-.168 1.089l-.797.515c-.378.248-.856.121-1.062-.284l-5.01-9.77c-.205-.402-.138-.445.143-.09l6.894 8.54z" mask="url(#z6339lqwad)"/>
                    <path fill="#231916" d="M101.3 99.329l4.18 8.156c.065.125.17.213.296.247.121.037.257.009.378-.065l.796-.519c.116-.074.191-.186.211-.314.021-.131-.016-.264-.106-.375l-5.755-7.13zm4.592 8.962c-.087 0-.173-.011-.257-.033-.276-.075-.503-.26-.638-.526l-5.009-9.77c-.106-.208-.267-.521-.016-.681.251-.163.47.117.613.299l6.893 8.538c.186.233.265.518.22.803-.044.28-.206.523-.453.684l-.797.516c-.17.112-.364.17-.556.17z" mask="url(#z6339lqwad)"/>
                    <path fill="#FEFEFE" d="M106.245 108.133c.322-.627 1.088-.876 1.713-.554.629.314.876 1.083.558 1.71-.323.628-1.085.875-1.714.559-.625-.32-.879-1.087-.558-1.715" mask="url(#z6339lqwad)"/>
                    <path fill="#231916" d="M106.487 108.256c-.251.492-.055 1.098.439 1.35.492.244 1.098.05 1.349-.44.12-.24.142-.515.058-.771-.084-.251-.26-.455-.496-.573-.236-.122-.505-.148-.763-.063-.256.08-.464.258-.587.497m.886 1.999c-.234 0-.47-.054-.692-.164-.763-.391-1.066-1.324-.677-2.082.189-.368.51-.642.905-.77.386-.122.807-.092 1.173.099.365.18.635.497.765.886.13.395.099.817-.088 1.19-.275.532-.821.84-1.386.84" mask="url(#z6339lqwad)"/>
                    <path fill="#231916" d="M105.355 110.03c.16-.428.62-.604 1.024-.399l.846.427c.404.208.53.687.288 1.067l-5.955 9.22c-.251.382-.318.346-.157-.075l3.954-10.24z" mask="url(#z6339lqwad)"/>
                    <path fill="#231916" d="M106.032 109.817c-.054 0-.11.01-.16.03-.12.047-.214.146-.263.277 0 .002 0 .002-.002.002l-3.31 8.572 4.988-7.72c.075-.119.099-.254.065-.38-.035-.128-.123-.233-.248-.298l-.846-.428c-.073-.036-.15-.055-.224-.055zm-4.697 11.068c-.042 0-.087-.01-.134-.035-.262-.134-.14-.447-.054-.676l3.955-10.243c.106-.278.309-.488.574-.59.264-.104.56-.084.825.046l.847.43c.265.135.45.363.527.638.074.277.027.567-.133.815l-5.955 9.223c-.113.17-.26.392-.452.392zM109.529 109.754c-.448.069-.83-.241-.856-.69l-.048-.95c-.023-.451.325-.8.78-.778l10.96.55c.454.022.46.097.017.168l-10.853 1.7z" mask="url(#z6339lqwad)"/>
                    <path fill="#231916" d="M109.365 107.606c-.133 0-.251.047-.337.133-.093.092-.14.221-.133.363l.049.948c.008.137.067.26.169.341.1.084.228.115.375.095l9.06-1.419-9.155-.46h-.028zm.039 2.428c-.233 0-.452-.074-.632-.22-.22-.179-.353-.44-.37-.735l-.05-.95c-.013-.296.089-.57.29-.773.205-.204.482-.3.778-.292l10.96.55c.246.013.585.03.6.323.017.292-.314.347-.555.384l-10.854 1.7c-.057.01-.112.013-.167.013z" mask="url(#z6339lqwad)"/>
                </g>
            </g>
        </g>
    </g>
</svg>
