<svg xmlns="http://www.w3.org/2000/svg" width="270" height="336" viewBox="0 0 270 336">
    <g fill="none" fill-rule="evenodd">
        <g>
            <g transform="translate(-1001 -816) translate(1001 816)">
                <rect width="270" height="336" fill="#FFF" rx="2"/>
                <g>
                    <path fill="#C8C9C9" d="M208.802 123.426c0 56.59-45.873 102.463-102.463 102.463-56.59 0-102.464-45.873-102.464-102.463 0-56.59 45.875-102.464 102.464-102.464 56.59 0 102.463 45.875 102.463 102.464" transform="translate(21 72)"/>
                    <path fill="#FEFEFE" d="M6.995 173.542L6.995 89.636 13.78 89.636 14.577 89.034 14.577 82.484 29.476 82.484 29.476 63.22 31.661 63.22 31.661 74.143 51.127 74.143 51.127 82.484 57.082 82.484 57.082 99.167 57.748 99.886 64.305 99.886 64.212 130.929 64.851 131.807 120.152 131.807 129.25 154.469 148.881 160.293 148.881 207.611 154.147 207.611 154.147 212.804 1.739 212.804 1.739 207.611 7.032 207.611z" transform="translate(21 72)"/>
                    <g>
                        <path fill="#231916" d="M34.126 206.833h114.238V131.92H34.126v74.913zm114.718.958H33.647c-.263 0-.479-.216-.479-.48V131.44c0-.263.216-.478.479-.478h115.197c.263 0 .478.215.478.478v75.871c0 .264-.215.48-.478.48z" transform="translate(21 72) translate(0 .3)"/>
                        <path fill="#231916" d="M34.126 143.017h114.238V131.92H34.126v11.097zm114.718.957H33.647c-.263 0-.479-.215-.479-.479V131.44c0-.263.216-.478.479-.478h115.197c.263 0 .478.215.478.478v12.055c0 .264-.215.479-.478.479z" transform="translate(21 72) translate(0 .3)"/>
                        <path fill="#231916" d="M34.126 206.833h7.118v-62.859h-7.118v62.859zm7.596.958h-8.075c-.263 0-.479-.216-.479-.48v-63.816c0-.264.216-.478.479-.478h8.075c.265 0 .48.214.48.478v63.816c0 .264-.215.48-.48.48zM47.764 158.639h9.553v-10.165h-9.553v10.165zm10.033.958H47.285c-.264 0-.479-.215-.479-.479v-11.123c0-.264.215-.478.479-.478h10.512c.263 0 .478.214.478.478v11.123c0 .264-.215.479-.478.479zM64.784 158.639h9.55v-10.165h-9.55v10.165zm10.028.958H64.305c-.263 0-.479-.215-.479-.479v-11.123c0-.264.216-.478.479-.478h10.507c.264 0 .479.214.479.478v11.123c0 .264-.215.479-.479.479zM81.8 158.639h9.554v-10.165H81.8v10.165zm10.033.958H81.321c-.264 0-.478-.215-.478-.479v-11.123c0-.264.214-.478.478-.478h10.512c.263 0 .478.214.478.478v11.123c0 .264-.215.479-.478.479zM98.816 158.639h9.554v-10.165h-9.554v10.165zm10.032.958h-10.51c-.264 0-.48-.215-.48-.479v-11.123c0-.264.216-.478.48-.478h10.51c.264 0 .479.214.479.478v11.123c0 .264-.215.479-.479.479zM115.836 158.639h9.554v-10.165h-9.554v10.165zm10.032.958h-10.511c-.263 0-.478-.215-.478-.479v-11.123c0-.264.215-.478.478-.478h10.511c.264 0 .479.214.479.478v11.123c0 .264-.215.479-.479.479zM132.852 158.639h9.554v-10.165h-9.554v10.165zm10.033.958h-10.512c-.264 0-.479-.215-.479-.479v-11.123c0-.264.215-.478.479-.478h10.512c.263 0 .478.214.478.478v11.123c0 .264-.215.479-.478.479zM47.764 178.5h9.553v-10.165h-9.553V178.5zm10.033.957H47.285c-.264 0-.479-.215-.479-.479v-11.123c0-.263.215-.478.479-.478h10.512c.263 0 .478.215.478.478v11.123c0 .264-.215.479-.478.479zM64.784 178.5h9.55v-10.165h-9.55V178.5zm10.028.957H64.305c-.263 0-.479-.215-.479-.479v-11.123c0-.263.216-.478.479-.478h10.507c.264 0 .479.215.479.478v11.123c0 .264-.215.479-.479.479zM81.8 178.5h9.554v-10.165H81.8V178.5zm10.033.957H81.321c-.264 0-.478-.215-.478-.479v-11.123c0-.263.214-.478.478-.478h10.512c.263 0 .478.215.478.478v11.123c0 .264-.215.479-.478.479zM98.816 178.5h9.554v-10.165h-9.554V178.5zm10.032.957h-10.51c-.264 0-.48-.215-.48-.479v-11.123c0-.263.216-.478.48-.478h10.51c.264 0 .479.215.479.478v11.123c0 .264-.215.479-.479.479zM115.836 178.5h9.554v-10.165h-9.554V178.5zm10.032.957h-10.511c-.263 0-.478-.215-.478-.479v-11.123c0-.263.215-.478.478-.478h10.511c.264 0 .479.215.479.478v11.123c0 .264-.215.479-.479.479zM132.852 178.5h9.554v-10.165h-9.554V178.5zm10.033.957h-10.512c-.264 0-.479-.215-.479-.479v-11.123c0-.263.215-.478.479-.478h10.512c.263 0 .478.215.478.478v11.123c0 .264-.215.479-.478.479zM47.764 198.358h9.553v-10.165h-9.553v10.165zm10.033.958H47.285c-.264 0-.479-.215-.479-.478v-11.123c0-.264.215-.479.479-.479h10.512c.263 0 .478.215.478.479v11.123c0 .263-.215.478-.478.478zM64.784 198.358h9.55v-10.165h-9.55v10.165zm10.028.958H64.305c-.263 0-.479-.215-.479-.478v-11.123c0-.264.216-.479.479-.479h10.507c.264 0 .479.215.479.479v11.123c0 .263-.215.478-.479.478zM81.8 198.358h9.554v-10.165H81.8v10.165zm10.033.958H81.321c-.264 0-.478-.215-.478-.478v-11.123c0-.264.214-.479.478-.479h10.512c.263 0 .478.215.478.479v11.123c0 .263-.215.478-.478.478zM98.816 198.358h9.554v-10.165h-9.554v10.165zm10.032.958h-10.51c-.264 0-.48-.215-.48-.478v-11.123c0-.264.216-.479.48-.479h10.51c.264 0 .479.215.479.479v11.123c0 .263-.215.478-.479.478zM115.836 198.358h9.554v-10.165h-9.554v10.165zm10.032.958h-10.511c-.263 0-.478-.215-.478-.478v-11.123c0-.264.215-.479.478-.479h10.511c.264 0 .479.215.479.479v11.123c0 .263-.215.478-.479.478zM132.852 198.358h9.554v-10.165h-9.554v10.165zm10.033.958h-10.512c-.264 0-.479-.215-.479-.478v-11.123c0-.264.215-.479.479-.479h10.512c.263 0 .478.215.478.479v11.123c0 .263-.215.478-.478.478z" transform="translate(21 72) translate(0 .3)"/>
                        <path fill="#231916" d="M2.219 212.134h152.636v-4.343H2.219v4.343zm153.114.957H1.739c-.264 0-.478-.215-.478-.479v-5.301c0-.263.214-.478.478-.478h153.594c.263 0 .479.215.479.478v5.301c0 .264-.216.479-.479.479z" transform="translate(21 72) translate(0 .3)"/>
                        <path fill="#231916" d="M7.512 206.833h25.656v-19.896H7.512v19.896zm26.135.958H7.032c-.264 0-.478-.216-.478-.48v-20.853c0-.264.214-.479.478-.479h26.615c.264 0 .479.215.479.479v20.853c0 .264-.215.48-.479.48zM.958 182.007h32.21v-4.604H.958v4.604zm32.689.957H.478c-.263 0-.478-.215-.478-.479v-5.56c0-.264.215-.479.478-.479h33.169c.264 0 .479.215.479.479v5.56c0 .264-.215.479-.479.479z" transform="translate(21 72) translate(0 .3)"/>
                        <path fill="#231916" d="M7.512 185.979h25.656v-3.016H7.512v3.016zm26.135.957H7.032c-.264 0-.478-.214-.478-.478v-3.973c0-.263.214-.478.478-.478h26.615c.264 0 .479.215.479.478v3.973c0 .264-.215.478-.479.478zM7.032 177.403c-.264 0-.479-.215-.479-.479V89.336c0-.264.215-.479.479-.479h36.744c.264 0 .48.215.48.48v9.646h20.049c.264 0 .479.215.479.48v31.977c0 .264-.215.48-.479.48-.263 0-.479-.216-.479-.48V99.941h-20.05c-.264 0-.478-.216-.478-.479v-9.647H7.511v87.11c0 .263-.215.478-.479.478" transform="translate(21 72) translate(0 .3)"/>
                        <path fill="#231916" d="M57.082 99.941c-.264 0-.48-.216-.48-.479V82.663H15.058v6.673c0 .264-.216.48-.48.48s-.478-.216-.478-.48v-7.152c0-.264.214-.479.478-.479h42.505c.264 0 .479.215.479.48v17.277c0 .263-.215.48-.48.48M13.668 174.924h1.029v-56.508h-1.029v56.508zm1.508.958h-1.987c-.263 0-.478-.216-.478-.48v-57.465c0-.263.215-.479.478-.479h1.987c.263 0 .478.216.478.479v57.465c0 .264-.215.48-.478.48zM19.829 174.924h1.025v-56.508h-1.025v56.508zm1.504.958H19.35c-.263 0-.478-.216-.478-.48v-57.465c0-.263.215-.479.478-.479h1.983c.263 0 .478.216.478.479v57.465c0 .264-.215.48-.478.48zM25.982 174.924h1.029v-56.508h-1.029v56.508zm1.508.958h-1.986c-.264 0-.479-.216-.479-.48v-57.465c0-.263.215-.479.479-.479h1.986c.264 0 .479.216.479.479v57.465c0 .264-.215.48-.479.48zM32.139 125.005h1.028v-6.589h-1.028v6.589zm1.508.958h-1.986c-.264 0-.48-.215-.48-.479v-7.547c0-.263.216-.479.48-.479h1.986c.264 0 .479.216.479.479v7.547c0 .264-.215.479-.479.479zM38.297 125.005h1.028v-6.589h-1.028v6.589zm1.507.958h-1.986c-.264 0-.479-.215-.479-.479v-7.547c0-.263.215-.479.479-.479h1.986c.264 0 .479.216.479.479v7.547c0 .264-.215.479-.479.479zM44.454 125.005h1.028v-6.589h-1.028v6.589zm1.507.958h-1.987c-.263 0-.478-.215-.478-.479v-7.547c0-.263.215-.479.478-.479h1.987c.263 0 .479.216.479.479v7.547c0 .264-.216.479-.479.479zM50.611 125.005h1.028v-6.589h-1.028v6.589zm1.507.958h-1.986c-.264 0-.479-.215-.479-.479v-7.547c0-.263.215-.479.479-.479h1.986c.264 0 .478.216.478.479v7.547c0 .264-.214.479-.478.479zM56.767 125.005h1.029v-6.589h-1.029v6.589zm1.508.958h-1.986c-.264 0-.479-.215-.479-.479v-7.547c0-.263.215-.479.479-.479h1.986c.264 0 .479.216.479.479v7.547c0 .264-.215.479-.479.479z" transform="translate(21 72) translate(0 .3)"/>
                        <path fill="#231916" d="M29.955 81.705h1.227V63.398h-1.227v18.307zm1.706.958h-2.185c-.263 0-.479-.215-.479-.479V62.92c0-.264.216-.479.479-.479h2.185c.264 0 .478.215.478.479v19.264c0 .264-.214.479-.478.479z" transform="translate(21 72) translate(0 .3)"/>
                        <path fill="#231916" d="M32.139 81.705h18.509v-7.384H32.139v7.384zm18.988.958H31.661c-.264 0-.48-.215-.48-.479v-8.341c0-.264.216-.479.48-.479h19.466c.263 0 .478.215.478.479v8.341c0 .264-.215.479-.478.479z" transform="translate(21 72) translate(0 .3)"/>
                        <path fill="#FEFEFE" d="M184.566 152.009c0 4.519 3.666 8.183 8.185 8.183 4.518 0 8.18-3.664 8.18-8.183 0-4.521-3.662-8.183-8.18-8.183-4.519 0-8.185 3.662-8.185 8.183" transform="translate(21 72) translate(0 .3)"/>
                        <path fill="#231916" d="M192.75 144.305c-4.248 0-7.705 3.456-7.705 7.704 0 4.247 3.457 7.704 7.706 7.704 4.247 0 7.702-3.457 7.702-7.704 0-4.248-3.455-7.704-7.702-7.704m0 16.365c-4.777 0-8.663-3.885-8.663-8.661 0-4.777 3.886-8.661 8.663-8.661 4.774 0 8.659 3.884 8.659 8.66 0 4.777-3.885 8.662-8.66 8.662" transform="translate(21 72) translate(0 .3)"/>
                        <path fill="#FEFEFE" d="M99.616 153.321c0 4.52 3.663 8.182 8.182 8.182 4.518 0 8.18-3.662 8.18-8.182 0-4.52-3.662-8.185-8.18-8.185-4.519 0-8.182 3.664-8.182 8.185" transform="translate(21 72) translate(0 .3)"/>
                        <path fill="#231916" d="M107.798 145.616c-4.248 0-7.702 3.456-7.702 7.705 0 4.248 3.454 7.702 7.702 7.702 4.247 0 7.7-3.454 7.7-7.702 0-4.249-3.453-7.705-7.7-7.705m0 16.365c-4.775 0-8.66-3.885-8.66-8.66 0-4.776 3.885-8.663 8.66-8.663 4.774 0 8.659 3.887 8.659 8.663 0 4.775-3.885 8.66-8.66 8.66" transform="translate(21 72) translate(0 .3)"/>
                        <path fill="#FEFEFE" d="M164.7 214.35h6.231s2.945 6.268 3.786 7.882c.841 1.607 9.849-1.86 9.849 5.2v1.368h-30.055v-9.99s.504-4.46 3.366-4.46h6.823z" transform="translate(21 72) translate(0 .3)"/>
                        <path fill="#231916" d="M154.99 228.321h29.098v-.889c0-1.335-.33-2.313-1.016-2.988-1.293-1.279-3.655-1.252-5.55-1.238-1.629.016-2.822.026-3.229-.752-.746-1.43-3.08-6.386-3.666-7.625h-12.75c-2.4 0-2.886 3.995-2.892 4.036l.004 9.456zm30.055.957h-31.014V218.81c.026-.252.594-4.939 3.846-4.939h13.36l.128.275c.028.064 2.95 6.277 3.776 7.864.137.26 1.484.248 2.372.238 2.093-.015 4.658-.045 6.234 1.515.86.853 1.298 2.087 1.298 3.67v1.845z" transform="translate(21 72) translate(0 .3)"/>
                        <path fill="#FEFEFE" d="M165.148 231.521L184.566 231.521 184.566 228.799 165.148 228.799z" transform="translate(21 72) translate(0 .3)"/>
                        <path fill="#231916" d="M165.628 231.043h18.46v-1.765h-18.46v1.765zm-.958.957h20.375v-3.679H164.67V232z" transform="translate(21 72) translate(0 .3)"/>
                        <path fill="#FEFEFE" d="M154.511 231.521L161.487 231.521 161.487 228.799 154.511 228.799z" transform="translate(21 72) translate(0 .3)"/>
                        <path fill="#231916" d="M154.989 231.043h6.019v-1.765h-6.019v1.765zm-.958.957h7.935v-3.679h-7.935V232z" transform="translate(21 72) translate(0 .3)"/>
                        <path fill="#FEFEFE" d="M171.8 222.751L168.545 222.751" transform="translate(21 72) translate(0 .3)"/>
                        <path fill="#231916" d="M171.8 223.23h-3.255c-.264 0-.478-.216-.478-.479 0-.264.214-.479.478-.479h3.255c.264 0 .479.215.479.48 0 .262-.215.478-.48.478" transform="translate(21 72) translate(0 .3)"/>
                        <path fill="#FEFEFE" d="M170.819 219.899L167.565 219.899" transform="translate(21 72) translate(0 .3)"/>
                        <path fill="#231916" d="M170.82 220.378h-3.255c-.264 0-.479-.215-.479-.48 0-.262.215-.478.48-.478h3.253c.264 0 .48.216.48.479 0 .264-.216.479-.48.479" transform="translate(21 72) translate(0 .3)"/>
                        <path fill="#FEFEFE" d="M128.075 214.35h-6.228s-2.948 6.268-3.79 7.882c-.84 1.607-9.852-1.86-9.852 5.2v1.368h30.059v-9.99s-.508-4.46-3.366-4.46h-6.823z" transform="translate(21 72) translate(0 .3)"/>
                        <path fill="#231916" d="M108.683 228.321h29.103v-9.51c-.004 0-.498-3.982-2.888-3.982H122.15c-.584 1.24-2.922 6.194-3.668 7.623-.407.782-1.586.766-3.232.754-1.9-.017-4.258-.04-5.55 1.238-.686.677-1.017 1.653-1.017 2.988v.89zm30.061.957h-31.018v-1.846c0-1.58.437-2.814 1.298-3.669 1.577-1.562 4.173-1.532 6.235-1.515.901.013 2.237.022 2.374-.239.826-1.586 3.752-7.799 3.78-7.863l.13-.275h13.355c3.247 0 3.82 4.685 3.842 4.886l.004 10.521z" transform="translate(21 72) translate(0 .3)"/>
                        <path fill="#FEFEFE" d="M108.205 231.521L127.626 231.521 127.626 228.799 108.205 228.799z" transform="translate(21 72) translate(0 .3)"/>
                        <path fill="#231916" d="M108.683 231.043h18.464v-1.765h-18.464v1.765zm-.957.957h20.379v-3.679h-20.379V232z" transform="translate(21 72) translate(0 .3)"/>
                        <path fill="#FEFEFE" d="M131.285 231.521L138.264 231.521 138.264 228.799 131.285 228.799z" transform="translate(21 72) translate(0 .3)"/>
                        <path fill="#231916" d="M131.763 231.043h6.022v-1.765h-6.022v1.765zm-.957.957h7.938v-3.679h-7.938V232z" transform="translate(21 72) translate(0 .3)"/>
                        <path fill="#FEFEFE" d="M120.975 222.751L124.23 222.751" transform="translate(21 72) translate(0 .3)"/>
                        <path fill="#231916" d="M124.23 223.23h-3.255c-.264 0-.478-.216-.478-.479 0-.264.214-.479.478-.479h3.255c.264 0 .48.215.48.48 0 .262-.216.478-.48.478" transform="translate(21 72) translate(0 .3)"/>
                        <path fill="#FEFEFE" d="M121.956 219.899L125.214 219.899" transform="translate(21 72) translate(0 .3)"/>
                        <path fill="#231916" d="M125.214 220.378h-3.258c-.263 0-.48-.215-.48-.48 0-.262.217-.478.48-.478h3.258c.264 0 .479.216.479.479 0 .264-.215.479-.48.479" transform="translate(21 72) translate(0 .3)"/>
                        <path fill="#FEFEFE" d="M138.72 218.187L120.01 217.504 122.95 159.712 122.95 144.28 169.756 144.28 169.756 151.994 172.982 217.504 154.272 218.187 151.309 159.731 141.684 159.731z" transform="translate(21 72) translate(0 .3)"/>
                        <path fill="#231916" d="M141.23 159.252h10.532l.025.455 2.938 57.985 17.755-.647-3.202-65.027v-7.258H123.43v14.953l-2.916 57.332 17.753.647 2.963-58.44zm12.586 59.432l-2.963-58.474h-8.715l-2.963 58.474-19.668-.72 2.964-58.275v-15.887h47.765v8.192l3.246 65.97-19.666.72z" transform="translate(21 72) translate(0 .3)"/>
                        <path fill="#FEFEFE" d="M182.928 147.03l15.5-2.65-7.132-41.708c-1.784-11.23-5.981-19.06-12.468-23.183-6.77-4.304-13.16-2.78-14.371-2.43l4.358 15.11s-.127.051-.363.09c.172-.032 1.084-.128 2.15.646 1.093.787 3.79 3.572 5.178 12.325l7.148 41.8z" transform="translate(21 72) translate(0 .3)"/>
                        <path fill="#231916" d="M169.205 91.796c.453.069 1.042.26 1.678.722 1.143.823 3.952 3.703 5.37 12.637l7.066 41.324 14.558-2.49-7.053-41.237c-1.77-11.126-5.891-18.815-12.252-22.858-5.991-3.805-11.638-2.947-13.518-2.495l4.15 14.397zm13.332 55.786l-7.228-42.271c-1.363-8.585-3.942-11.263-4.987-12.017-.917-.666-1.667-.58-1.771-.564-.008 0-.013.002-.021.003l-.08-.46-.096.028-4.49-15.568.46-.133c1.24-.362 7.799-1.938 14.76 2.485 6.604 4.197 10.873 12.107 12.684 23.512l7.212 42.174-16.443 2.81z" transform="translate(21 72) translate(0 .3)"/>
                        <path fill="#FEFEFE" d="M116.056 148.494l1.266-42.291c.171-9.288 2.576-12.318 3.605-13.195.64-.544 1.473-.806 1.473-.806h.008l2.218-15.567c-1.254-.183-7.791-.802-13.895 4.405-5.847 4.98-8.918 13.32-9.127 24.781l-1.266 42.2 15.719.473z" transform="translate(21 72) translate(0 .3)"/>
                        <path fill="#231916" d="M100.832 147.558l14.76.442 1.25-41.813c.177-9.468 2.697-12.626 3.774-13.543.472-.403 1.029-.663 1.359-.796l2.109-14.796c-1.926-.184-7.631-.266-13.043 4.352-5.738 4.888-8.752 13.106-8.96 24.427l-1.25 41.727zm15.688 1.43l-16.675-.502 1.279-42.68c.212-11.6 3.34-20.057 9.296-25.132 6.288-5.364 12.989-4.704 14.275-4.513l.472.07-2.344 16.45h-.342c-.194.069-.785.3-1.244.69-.977.836-3.268 3.755-3.437 12.84l-1.28 42.777z" transform="translate(21 72) translate(0 .3)"/>
                        <path fill="#FEFEFE" d="M140.056 69.993V58.61h12.6v11.383c12.156 1.837 21.215 8.873 21.215 17.278v63.056H118.84V87.271c0-8.405 9.056-15.44 21.218-17.278" transform="translate(21 72) translate(0 .3)"/>
                        <path fill="#231916" d="M119.319 149.848h54.074V87.271c0-8.042-8.556-14.953-20.81-16.804-.232-.036-.406-.236-.406-.474V59.09h-11.641v10.903c0 .238-.174.438-.409.474-12.253 1.851-20.809 8.76-20.809 16.804v62.577zm54.552.958H118.84c-.263 0-.477-.215-.477-.479V87.271c0-8.436 8.702-15.673 21.215-17.687V58.611c0-.264.215-.479.48-.479h12.599c.262 0 .477.215.477.48v10.972c12.516 2.016 21.218 9.251 21.218 17.687v63.056c0 .264-.215.48-.48.48z" transform="translate(21 72) translate(0 .3)"/>
                        <path fill="#231916" d="M146.31 83.035c-.134 0-.269-.056-.362-.166-.172-.2-.15-.503.05-.676l12.812-11.01c.2-.172.505-.15.675.05.172.2.15.503-.05.676l-12.813 11.01c-.089.08-.202.116-.312.116" transform="translate(21 72) translate(0 .3)"/>
                        <path fill="#231916" d="M146.445 83.035c-.11 0-.223-.037-.312-.116l-12.812-11.01c-.2-.173-.223-.476-.05-.676.172-.2.477-.222.675-.05l12.811 11.01c.201.173.223.476.051.676-.093.11-.228.166-.363.166M119.318 105.1h54.359v-7.919h-54.359v7.919zm54.838.957H118.84c-.264 0-.479-.215-.479-.479v-8.876c0-.265.215-.479.479-.479h55.316c.264 0 .479.214.479.479v8.876c0 .264-.215.479-.479.479z" transform="translate(21 72) translate(0 .3)"/>
                        <path fill="#FEFEFE" d="M123.521 34.663c-2.828.633-4.959 3.195-4.959 6.236v1.818c0 3.507 2.851 6.357 6.347 6.357H128.314v1.721c.4 8.354 8.321 15.832 18.02 15.832 9.94 0 17.972-7.821 17.972-16.464v-1.089h3.484c3.517 0 6.358-2.85 6.358-6.357v-1.818c0-3.03-2.109-5.592-4.948-6.236-.455-.112-.923-.166-1.41-.166h-3.484l-.32.133c.242.632.397 1.396.397 2.319 0 5.59-1.964 11.183-9.63 11.183 0 0-7.057 0-7.057-7.357h-2.774c0 7.357-7.065 7.357-7.065 7.357-7.657 0-9.62-5.593-9.62-11.183 0-.933.154-1.721.422-2.364l-.2-.088h-3.55c-.478 0-.943.054-1.388.166" transform="translate(21 72) translate(0 .3)"/>
                        <path fill="#231916" d="M123.521 20.982v13.681c.445-.113.91-.166 1.388-.166h3.55l.2.088c.033-.078.055-.156.098-.233l-.299-.056V20.35c0-1.684 1.897-3.272 4.006-3.272h27.95c2.106 0 3.792 1.588 3.792 3.272v13.947l.1.201h3.484c.487 0 .955.053 1.41.166V20.106c-.523-10.54-10.575-18.928-22.835-18.928-12.636 0-22.844 8.842-22.844 19.804" transform="translate(21 72) translate(0 .3)"/>
                        <path fill="#FEFEFE" d="M128.459 20.35v13.947l.299.056c1.377-2.997 5.07-2.997 5.07-2.997h24.954s3.916 0 5.203 3.273l.322-.133-.101-.2V20.35c0-1.684-1.685-3.271-3.793-3.271h-27.948c-2.11 0-4.006 1.587-4.006 3.271" transform="translate(21 72) translate(0 .3)"/>
                        <path fill="#231916" d="M128.659 34.585c-.268.644-.423 1.43-.423 2.364 0 5.59 1.964 11.183 9.621 11.183 0 0 7.066 0 7.066-7.357h2.773c0 7.357 7.058 7.357 7.058 7.357 7.666 0 9.63-5.593 9.63-11.183 0-.923-.156-1.687-.399-2.32-1.287-3.273-5.203-3.273-5.203-3.273h-24.954s-3.693 0-5.07 2.997c-.043.077-.066.155-.099.232" transform="translate(21 72) translate(0 .3)"/>
                        <path fill="#231916" d="M169.199 35.147c-.264 0-.479-.209-.479-.473V20.106c-.512-10.335-10.331-18.448-22.355-18.448-12.333 0-22.365 8.67-22.365 19.324 0 .264-.215.478-.479.478s-.479-.214-.479-.478C123.042 9.8 133.505.7 146.365.7c12.534 0 22.774 8.513 23.313 19.382v14.581c0 .263-.215.484-.479.484" transform="translate(21 72) translate(0 .3)"/>
                        <path fill="#231916" d="M123.521 35.147c-.265 0-.479-.209-.479-.473V20.106c0-.264.214-.479.48-.479.263 0 .478.215.478.48v14.556c0 .263-.215.484-.479.484M146.333 67.105c-9.604 0-18.074-7.458-18.497-16.288v-1.743c0-.264.215-.479.478-.479.264 0 .479.215.479.48v1.72c.398 8.311 8.432 15.353 17.54 15.353 9.482 0 17.495-7.32 17.495-15.985 0-.264.215-.48.479-.48.263 0 .479.216.479.48v.631c0 .047-.008.094-.021.137-.454 8.845-8.71 16.174-18.432 16.174" transform="translate(21 72) translate(0 .3)"/>
                        <path fill="#231916" d="M164.306 50.642c-.264 0-.479-.216-.479-.48v-1.087c0-.265.215-.48.48-.48.264 0 .479.215.479.48v1.087c0 .264-.215.48-.48.48M128.114 49.553h-3.205c-3.764 0-6.825-3.067-6.825-6.836V40.9c0-3.194 2.242-6.014 5.332-6.703.464-.117.97-.178 1.493-.178h3.55c.263 0 .478.215.478.478 0 .264-.215.479-.478.479h-3.55c-.443 0-.872.05-1.27.15-2.67.598-4.597 3.024-4.597 5.774v1.817c0 3.24 2.631 5.879 5.867 5.879h3.205c.264 0 .48.215.48.478 0 .264-.216.479-.48.479" transform="translate(21 72) translate(0 .3)"/>
                        <path fill="#231916" d="M167.789 49.553h-3.482c-.264 0-.48-.215-.48-.48 0-.262.216-.477.48-.477h3.482c3.243 0 5.88-2.638 5.88-5.88V40.9c0-2.743-1.924-5.168-4.576-5.77-.424-.103-.847-.154-1.304-.154h-3.482c-.264 0-.48-.215-.48-.48 0-.262.216-.477.48-.477h3.482c.535 0 1.033.059 1.524.179 3.076.698 5.314 3.516 5.314 6.702v1.817c0 3.769-3.067 6.836-6.838 6.836" transform="translate(21 72) translate(0 .3)"/>
                        <path fill="#231916" d="M164.206 35.247c-.525 0-.95-.425-.95-.95V20.35c0-.526.425-.951.95-.951.525 0 .95.425.95.951v13.947c0 .525-.425.95-.95.95M128.459 35.247c-.526 0-.95-.425-.95-.95V20.35c0-.526.424-.951.95-.951.525 0 .95.425.95.951v13.947c0 .525-.425.95-.95.95" transform="translate(21 72) translate(0 .3)"/>
                        <path fill="#231916" d="M164.206 21.3c-.525 0-.95-.425-.95-.95 0-1.096-1.216-2.322-2.843-2.322-.525 0-.95-.425-.95-.951 0-.525.425-.95.95-.95 2.57 0 4.743 1.934 4.743 4.223 0 .525-.425.95-.95.95M128.459 21.3c-.526 0-.95-.425-.95-.95 0-2.25 2.315-4.223 4.956-4.223.525 0 .95.425.95.95 0 .526-.425.95-.95.95-1.693 0-3.056 1.27-3.056 2.323 0 .525-.425.95-.95.95M148.695 50.035h-4.492c-.526 0-.95-.424-.95-.95s.424-.949.95-.949h3.13l-2.513-6.797c-.182-.492.071-1.038.562-1.22.49-.188 1.04.067 1.222.562l2.982 8.075c.108.292.067.617-.11.872-.178.256-.47.407-.78.407M147.975 56.46h-3.273c-1.244 0-2.368-.647-3.006-1.731-.266-.454-.114-1.037.337-1.302.455-.261 1.036-.114 1.301.336.294.5.805.797 1.368.797h3.273c.561 0 1.071-.297 1.365-.797.266-.452.853-.6 1.3-.336.452.265.605.848.34 1.302-.64 1.084-1.764 1.73-3.005 1.73" transform="translate(21 72) translate(0 .3)"/>
                        <path fill="#231916" d="M144.923 39.825h2.773c.527 0 .95.425.95.95 0 6.294 5.86 6.404 6.11 6.406 5.758 0 8.678-3.443 8.678-10.232 0-.733-.113-1.399-.335-1.978-1.04-2.634-4.285-2.665-4.317-2.665h-24.954c-.123 0-3.108.051-4.206 2.443l-.963-.164.877.364c-.232.56-.35 1.231-.35 2 0 6.79 2.918 10.232 8.672 10.232.246-.002 6.115-.112 6.115-6.406 0-.525.425-.95.95-.95m9.83 9.257c-2.631 0-7.488-1.568-7.967-7.357h-.952c-.478 5.79-5.344 7.357-7.976 7.357-6.818 0-10.572-4.31-10.572-12.133 0-1.02.166-1.937.495-2.729.059-.15.098-.242.149-.332 1.576-3.44 5.722-3.482 5.898-3.482h24.954c.187 0 4.58.045 6.088 3.876 0 .002.002.003.002.007.307.797.462 1.691.462 2.66 0 7.823-3.758 12.133-10.581 12.133M160.413 18.027h-27.948c-.526 0-.95-.425-.95-.95 0-.526.424-.95.95-.95h27.948c.525 0 .95.424.95.95 0 .525-.425.95-.95.95M117.138 108.477L101.704 107.94M117.138 108.956h-.017l-15.433-.537c-.264-.009-.472-.232-.463-.495.01-.264.257-.451.496-.462l15.433.536c.264.01.472.232.463.496-.01.258-.223.462-.48.462M116.831 117.333L101.397 116.793M116.83 117.811h-.016l-15.433-.54c-.264-.01-.472-.232-.462-.496.009-.264.258-.488.495-.462l15.434.541c.263.01.47.231.462.495-.01.26-.223.462-.48.462M116.289 133.584L100.854 133.046M116.289 134.063h-.018l-15.433-.539c-.264-.01-.471-.232-.462-.496.01-.264.232-.419.496-.462l15.434.54c.263.01.47.23.462.495-.01.258-.223.462-.48.462M115.978 142.438L100.547 141.897M115.978 142.917h-.017l-15.43-.54c-.264-.01-.472-.232-.462-.496.01-.264.233-.456.496-.462l15.43.54c.263.01.471.232.462.496-.01.258-.223.462-.479.462M175.99 105.586c-.23 0-.432-.163-.473-.395-.047-.26.127-.508.388-.555l15.198-2.72c.248-.054.51.125.555.388.047.26-.127.508-.387.554l-15.198 2.72c-.028.006-.056.008-.084.008M177.553 114.308c-.23 0-.431-.162-.472-.395-.047-.258.128-.507.388-.554l15.198-2.724c.248-.053.509.125.556.387.046.26-.128.51-.388.556l-15.198 2.724c-.028.004-.056.006-.084.006M180.66 133.657c-.228 0-.43-.163-.471-.395-.046-.259.128-.508.388-.555l15.202-2.723c.254-.056.509.125.555.387.047.26-.127.51-.387.556l-15.202 2.722c-.028.006-.056.008-.084.008M182.224 142.377c-.229 0-.43-.163-.472-.395-.046-.26.128-.508.388-.555l15.198-2.72c.25-.058.51.127.556.387.047.26-.128.509-.388.555l-15.198 2.72c-.027.006-.056.008-.084.008M139.342 204.108L120.74 203.122 120.792 202.165 139.395 203.15zM139.342 211.507L120.74 210.52 120.792 209.562 139.395 210.55zM153.804 204.108L153.75 203.15 172.357 202.165 172.409 203.122zM153.804 211.507L153.75 210.55 172.357 209.562 172.409 210.52zM180.09 168.834v33.482c0 2.669 2.17 4.84 4.84 4.84h15.667c2.669 0 4.827-2.171 4.827-4.84v-33.482c0-2.667-2.158-4.84-4.827-4.84H184.93c-2.67 0-4.84 2.173-4.84 4.84" transform="translate(21 72) translate(0 .3)"/>
                        <path fill="#FEFEFE" d="M189.923 163.995L195.603 163.995 195.603 153.321 189.923 153.321z" transform="translate(21 72) translate(0 .3)"/>
                        <path fill="#231916" d="M196.082 163.995L195.124 163.995 195.124 153.801 190.401 153.801 190.401 163.995 189.444 163.995 189.444 152.843 196.082 152.843z" transform="translate(21 72) translate(0 .3)"/>
                        <path fill="#231916" d="M184.929 164.475c-2.404 0-4.36 1.956-4.36 4.358v33.483c0 2.405 1.957 4.362 4.36 4.362h15.667c2.398 0 4.35-1.957 4.35-4.362v-33.483c0-2.403-1.952-4.358-4.35-4.358H184.93zm15.667 43.16H184.93c-2.934 0-5.317-2.386-5.317-5.319v-33.483c0-2.931 2.383-5.316 5.317-5.316h15.667c2.925 0 5.306 2.385 5.306 5.316v33.483c0 2.933-2.38 5.32-5.305 5.32z" transform="translate(21 72) translate(0 .3)"/>
                        <path fill="#FEFEFE" d="M126.19 53.59c0 4.875 3.953 8.829 8.831 8.829h21.431c4.877 0 8.831-3.954 8.831-8.828V32.066c0-4.876-3.954-8.83-8.83-8.83H135.02c-4.878 0-8.83 3.954-8.83 8.83V53.59z" transform="translate(21 72) translate(0 .3)"/>
                        <path fill="#231916" d="M135.021 23.715c-4.606 0-8.353 3.746-8.353 8.35v21.526c0 4.603 3.747 8.35 8.353 8.35h21.431c4.606 0 8.352-3.747 8.352-8.35V32.066c0-4.605-3.746-8.351-8.352-8.351h-21.43zm21.431 39.183h-21.43c-5.135 0-9.312-4.175-9.312-9.307V32.066c0-5.132 4.177-9.31 9.311-9.31h21.431c5.133 0 9.31 4.178 9.31 9.31V53.59c0 5.132-4.177 9.307-9.31 9.307z" transform="translate(21 72) translate(0 .3)"/>
                        <path fill="#FEFEFE" d="M129.93 40.469c0 2.166 3.198 3.924 7.141 3.924h17.334c3.94 0 7.137-1.758 7.137-3.924v-9.561c0-2.166-3.197-3.923-7.137-3.923h-17.334c-3.942 0-7.14 1.757-7.14 3.923v9.56z" transform="translate(21 72) translate(0 .3)"/>
                        <path fill="#231916" d="M137.071 27.463c-3.61 0-6.662 1.578-6.662 3.445v9.56c0 1.867 3.051 3.446 6.662 3.446h17.334c3.61 0 6.66-1.58 6.66-3.445v-9.561c0-1.867-3.05-3.445-6.66-3.445h-17.334zm17.334 17.409h-17.334c-4.27 0-7.619-1.934-7.619-4.403v-9.561c0-2.468 3.348-4.403 7.62-4.403h17.333c4.27 0 7.616 1.935 7.616 4.403v9.56c0 2.47-3.346 4.404-7.616 4.404z" transform="translate(21 72) translate(0 .3)"/>
                        <path fill="#FEFEFE" d="M136.813 47.846c3.45-13.562 8.925-12.928 8.925-12.928s5.476-.634 8.922 12.928" transform="translate(21 72) translate(0 .3)"/>
                        <path fill="#231916" d="M137.277 47.963l-.928-.235c3.511-13.81 9.195-13.333 9.444-13.286.13-.055 5.82-.532 9.331 13.286l-.928.235c-3.28-12.908-8.35-12.593-8.409-12.568-.13-.023-5.232-.32-8.51 12.568" transform="translate(21 72) translate(0 .3)"/>
                        <path fill="#FEFEFE" d="M161.09 53.292l-4.302 10.437c-.972 2.369.154 5.075 2.522 6.053l5.199 2.142 7.829-19.006-5.2-2.144c-2.363-.976-5.075.154-6.048 2.518" transform="translate(21 72) translate(0 .3)"/>
                        <path fill="#231916" d="M165.373 50.901c-.54 0-1.081.106-1.597.322-1.025.426-1.822 1.225-2.243 2.25v.001l-4.302 10.437c-.87 2.117.145 4.554 2.262 5.427l4.756 1.96 7.465-18.12-4.76-1.96c-.508-.213-1.044-.317-1.581-.317zm-.604 21.647l-5.641-2.323c-2.606-1.075-3.853-4.07-2.782-6.678l4.3-10.439c.52-1.26 1.5-2.244 2.763-2.769 1.259-.527 2.65-.527 3.913-.008l5.64 2.326-8.193 19.891z" transform="translate(21 72) translate(0 .3)"/>
                        <path fill="#231916" d="M163.137 75.253c1.061.439 2.28-.067 2.719-1.134l8.989-21.811c.438-1.063-.064-2.282-1.135-2.721-1.061-.438-2.281.069-2.72 1.135l-8.988 21.807c-.44 1.067.064 2.283 1.135 2.724M152.206 61.418L156.938 63.367 160.936 53.66 156.209 51.707z" transform="translate(21 72) translate(0 .3)"/>
                        <path fill="#FEFEFE" d="M131.531 53.292l4.302 10.437c.972 2.369-.154 5.075-2.52 6.053l-5.2 2.142-7.829-19.006 5.195-2.144c2.368-.976 5.076.154 6.052 2.518" transform="translate(21 72) translate(0 .3)"/>
                        <path fill="#231916" d="M120.908 53.178l7.465 18.12 4.758-1.96c2.115-.872 3.129-3.31 2.259-5.43l-4.301-10.433c-.874-2.12-3.313-3.133-5.426-2.257l-4.755 1.96zm6.944 19.37l-8.193-19.891 5.637-2.326c2.605-1.073 5.599.172 6.678 2.778l4.302 10.436c1.07 2.61-.178 5.606-2.78 6.68l-5.644 2.324z" transform="translate(21 72) translate(0 .3)"/>
                        <path fill="#231916" d="M129.481 75.253c-1.062.439-2.277-.067-2.719-1.134l-8.989-21.811c-.438-1.063.071-2.282 1.138-2.721 1.065-.438 2.281.069 2.718 1.135l8.99 21.807c.441 1.067-.068 2.283-1.138 2.724M140.412 61.418L135.683 63.367 131.682 53.66 136.413 51.707z" transform="translate(21 72) translate(0 .3)"/>
                        <path fill="#FEFEFE" d="M135.19 53.468c0 5.822 4.724 10.545 10.544 10.545 5.828 0 10.553-4.723 10.553-10.545 0-5.828-4.725-10.55-10.553-10.55-5.82 0-10.544 4.722-10.544 10.55" transform="translate(21 72) translate(0 .3)"/>
                        <path fill="#231916" d="M145.735 43.397c-5.552 0-10.066 4.518-10.066 10.07 0 5.551 4.514 10.066 10.066 10.066 5.555 0 10.073-4.515 10.073-10.066 0-5.552-4.518-10.07-10.073-10.07m0 21.094c-6.079 0-11.024-4.946-11.024-11.024 0-6.08 4.945-11.027 11.024-11.027 6.082 0 11.03 4.946 11.03 11.027 0 6.078-4.948 11.024-11.03 11.024" transform="translate(21 72) translate(0 .3)"/>
                        <path fill="#231916" d="M152.883 53.123c-.101 0-.203-.031-.29-.099l-8.831-6.744c-.211-.159-.251-.46-.09-.67.159-.209.46-.254.67-.09l8.83 6.745c.213.159.252.46.09.67-.093.123-.234.188-.38.188M151.061 55.918c-.1 0-.204-.032-.29-.1l-8.828-6.744c-.21-.16-.25-.46-.089-.67.158-.211.462-.252.67-.09l8.827 6.746c.211.158.251.46.09.669-.094.124-.235.189-.38.189M149.243 58.716c-.101 0-.203-.032-.289-.1l-8.832-6.746c-.211-.16-.251-.46-.09-.67.159-.21.462-.254.67-.088l8.831 6.746c.212.159.251.46.09.669-.093.124-.235.189-.38.189M147.426 61.51c-.102 0-.204-.031-.29-.1l-8.832-6.744c-.211-.158-.25-.46-.09-.67.159-.21.46-.252.67-.09l8.832 6.746c.21.159.25.46.09.67-.094.123-.236.188-.38.188" transform="translate(21 72) translate(0 .3)"/>
                    </g>
                </g>
            </g>
        </g>
    </g>
</svg>
